<?xml version="1.0" standalone="no"?>
<!DOCTYPE svg PUBLIC "-//W3C//DTD SVG 20010904//EN"
 "http://www.w3.org/TR/2001/REC-SVG-20010904/DTD/svg10.dtd">
<svg version="1.0" xmlns="http://www.w3.org/2000/svg"
 width="600.000000pt" height="300.000000pt" viewBox="0 0 600.000000 300.000000"
 preserveAspectRatio="xMidYMid meet">

<g transform="translate(0.000000,300.000000) scale(0.100000,-0.100000)"
fill="#000000" stroke="none">
<path d="M1780 1793 c-63 -23 -151 -113 -173 -177 -21 -63 -22 -159 -1 -220
22 -65 100 -148 166 -176 76 -33 175 -32 248 2 208 96 248 360 79 512 -27 24
-70 51 -96 60 -58 20 -164 19 -223 -1z m186 -58 c27 -9 63 -26 79 -40 l30 -25
-177 0 c-98 0 -178 2 -178 5 0 9 92 58 123 65 49 12 70 11 123 -5z m165 -177
c25 -91 -23 -204 -108 -258 -83 -53 -191 -49 -271 10 -76 54 -116 163 -93 248
l12 42 224 0 224 0 12 -42z"/>
<path d="M4258 1793 c6 -2 12 -20 12 -39 0 -19 5 -34 10 -34 6 0 10 15 10 34
0 19 6 37 13 39 6 3 -4 5 -23 5 -19 0 -29 -2 -22 -5z"/>
<path d="M4320 1760 c0 -22 5 -40 10 -40 6 0 10 10 10 23 l1 22 13 -24 14 -24
15 29 16 29 1 -27 c0 -16 5 -28 10 -28 6 0 10 18 10 40 0 43 -23 57 -35 20 -3
-11 -10 -20 -15 -20 -5 0 -12 9 -15 20 -12 37 -35 23 -35 -20z"/>
<path d="M2693 1719 c-31 -9 -103 -71 -103 -87 0 -5 16 -16 36 -25 35 -17 36
-17 66 8 37 32 73 32 93 1 23 -35 9 -61 -94 -169 -80 -83 -91 -99 -91 -131 l0
-36 153 0 152 0 -1 42 -1 43 -83 3 -83 3 50 52 c101 103 126 170 87 237 -32
53 -114 80 -181 59z"/>
<path d="M2290 1675 l0 -45 66 0 66 0 -41 -49 c-30 -36 -41 -58 -41 -82 l0
-34 51 4 c57 3 89 -16 89 -55 0 -54 -68 -71 -140 -34 l-40 20 -17 -34 c-21
-45 -9 -61 65 -82 133 -39 253 49 227 166 -8 36 -59 90 -86 90 -27 0 -25 6 27
63 36 40 44 56 42 81 l-3 31 -132 3 -133 3 0 -46z"/>
<path d="M2957 1713 c-4 -3 -7 -102 -7 -220 l0 -213 50 0 49 0 3 133 3 132 57
-117 c53 -108 60 -118 86 -118 25 0 33 10 87 118 l60 117 3 -132 3 -133 47 0
47 0 -2 217 -2 218 -64 3 -63 3 -53 -116 c-30 -63 -57 -115 -61 -115 -4 0 -31
52 -60 115 l-54 115 -61 0 c-34 0 -65 -3 -68 -7z"/>
<path d="M3517 1713 c-4 -3 -7 -102 -7 -220 l0 -213 50 0 50 0 0 63 c0 53 4
67 23 85 l23 22 63 -85 63 -85 54 0 c30 0 54 2 54 5 0 2 -34 52 -76 111 -41
58 -78 112 -81 119 -2 8 17 37 42 64 l48 51 98 0 99 0 0 -175 0 -175 50 0 50
0 0 175 0 175 66 0 65 0 -3 43 -3 42 -231 3 -232 2 -86 -92 -86 -92 0 92 0 92
-43 0 c-24 0 -47 -3 -50 -7z"/>
</g>
</svg>
