<?xml version="1.0" standalone="no"?>
<!DOCTYPE svg PUBLIC "-//W3C//DTD SVG 20010904//EN"
 "http://www.w3.org/TR/2001/REC-SVG-20010904/DTD/svg10.dtd">
<svg version="1.0" xmlns="http://www.w3.org/2000/svg"
 width="600.000000pt" height="300.000000pt" viewBox="0 0 600.000000 300.000000"
 preserveAspectRatio="xMidYMid meet">

<g transform="translate(0.000000,300.000000) scale(0.100000,-0.100000)"
fill="#000000" stroke="none">
<path d="M3032 2539 c-95 -11 -239 -60 -331 -112 -146 -82 -374 -337 -302
-337 5 0 24 24 43 53 158 236 413 369 708 369 136 0 231 -18 341 -66 123 -53
185 -94 274 -181 73 -71 155 -176 155 -197 0 -5 -29 -8 -65 -8 l-65 0 0 -440
0 -440 150 0 150 0 0 258 c0 231 2 261 19 299 42 92 170 98 218 10 16 -28 18
-67 21 -299 l3 -268 150 0 149 0 0 258 c0 231 2 261 19 299 31 67 105 92 171
58 33 -17 46 -38 64 -98 l11 -40 79 192 c66 159 77 194 65 202 -32 20 -98 31
-169 27 -91 -5 -168 -38 -233 -97 l-44 -41 -24 34 c-49 72 -141 110 -249 104
-78 -4 -142 -33 -199 -89 -23 -21 -43 -39 -46 -39 -3 0 -5 25 -5 55 l0 55 -62
0 -63 1 -40 66 c-56 94 -193 227 -293 287 -103 61 -250 111 -367 125 -100 12
-128 12 -233 0z"/>
<path d="M5300 2187 c0 -2 -115 -282 -255 -622 -140 -341 -255 -628 -255 -637
0 -21 13 -23 27 -5 6 6 32 67 59 134 l49 123 143 0 143 0 -1 343 -1 343 60
147 c65 156 70 177 46 177 -8 0 -15 -1 -15 -3z"/>
<path d="M2274 2060 c-72 -23 -145 -83 -176 -144 -29 -57 -36 -162 -14 -220
34 -90 111 -141 294 -194 115 -33 152 -53 152 -82 0 -70 -165 -63 -320 15
l-69 35 -56 -91 c-41 -66 -53 -94 -46 -103 29 -35 245 -116 311 -116 34 0 38
-4 93 -81 94 -134 250 -245 432 -308 93 -32 111 -35 250 -39 128 -3 163 -1
239 17 153 37 314 123 421 227 64 61 135 151 135 170 0 27 -27 14 -53 -25 -94
-142 -297 -282 -484 -333 -115 -32 -336 -32 -446 0 -211 60 -375 169 -475 314
l-30 44 83 11 c194 27 295 125 295 288 0 84 -22 137 -74 183 -51 44 -93 64
-226 106 -125 39 -160 57 -160 85 0 56 102 59 241 7 51 -19 96 -33 100 -30 9
5 99 173 99 184 0 14 -138 71 -206 85 -98 21 -235 18 -310 -5z"/>
<path d="M3148 2061 c-189 -61 -308 -233 -308 -446 0 -220 126 -387 335 -446
69 -19 225 -17 297 5 63 19 158 77 202 125 27 28 28 32 14 44 -9 6 -48 38 -86
70 l-70 58 -46 -35 c-93 -70 -209 -74 -286 -9 -30 25 -60 71 -60 92 0 7 101
12 298 13 l297 3 -2 79 c-1 43 -7 100 -12 128 -25 114 -104 229 -196 283 -96
55 -265 72 -377 36z m189 -212 c52 -19 92 -68 107 -131 l6 -28 -160 0 c-88 0
-160 2 -160 4 0 2 7 23 15 47 33 93 113 138 192 108z"/>
<path d="M1455 2053 c-60 -9 -156 -33 -189 -47 l-34 -14 30 -104 c16 -56 31
-104 32 -105 1 -1 33 7 71 18 89 25 216 28 267 6 43 -18 78 -68 78 -111 0 -25
-3 -28 -22 -22 -108 29 -253 32 -340 6 -116 -34 -188 -130 -188 -251 0 -84 21
-144 67 -191 111 -113 335 -113 456 0 l27 26 0 -47 0 -47 150 0 150 0 0 290
c0 166 -5 310 -11 338 -23 111 -109 203 -222 238 -52 16 -260 27 -322 17z
m231 -513 c25 -10 26 -13 22 -65 -6 -66 -40 -109 -100 -126 -134 -36 -220 111
-106 181 37 22 137 28 184 10z"/>
</g>
</svg>
