<?xml version="1.0" encoding="UTF-8" standalone="no"?>
<svg
   width="3605.144"
   height="1080"
   version="1.1"
   id="svg8"
   sodipodi:docname="bachoco-logo.svg"
   inkscape:version="1.1 (c68e22c387, 2021-05-23)"
   xmlns:inkscape="http://www.inkscape.org/namespaces/inkscape"
   xmlns:sodipodi="http://sodipodi.sourceforge.net/DTD/sodipodi-0.dtd"
   xmlns="http://www.w3.org/2000/svg"
   xmlns:svg="http://www.w3.org/2000/svg">
  <defs
     id="defs12" />
  <sodipodi:namedview
     id="namedview10"
     pagecolor="#ffffff"
     bordercolor="#666666"
     borderopacity="1.0"
     inkscape:pageshadow="2"
     inkscape:pageopacity="0.0"
     inkscape:pagecheckerboard="0"
     showgrid="false"
     fit-margin-top="0"
     fit-margin-left="0"
     fit-margin-right="0"
     fit-margin-bottom="0"
     inkscape:zoom="0.189"
     inkscape:cx="1124.3386"
     inkscape:cy="108.46561"
     inkscape:window-width="1920"
     inkscape:window-height="1017"
     inkscape:window-x="1912"
     inkscape:window-y="-8"
     inkscape:window-maximized="1"
     inkscape:current-layer="svg8" />
  <g
     id="Artboard"
     stroke="none"
     stroke-width="1"
     fill="none"
     fill-rule="evenodd"
     style="fill:#ff6600"
     transform="matrix(5.1428556,0,0,5.1428556,-128.57141,-77.140591)">
    <g
       id="bachoco-logo"
       transform="translate(25,15)"
       fill="#FFF"
       fill-rule="nonzero"
       style="fill:#ff6600">
      <path
         d="m 178.26,199.659 a 12.77,12.77 0 0 1 -7.047,1.868 12.013,12.013 0 0 1 -4.935,-0.934 9.766,9.766 0 0 1 -3.504,-2.616 11.208,11.208 0 0 1 -2.084,-3.914 16.266,16.266 0 0 1 -0.682,-4.81 23.503,23.503 0 0 1 1.41,-8.641 16.925,16.925 0 0 1 3.739,-5.885 c 1.5,-1.5 3.313,-2.65 5.308,-3.373 a 18.081,18.081 0 0 1 6.121,-1.064 c 1.404,-0.02 2.806,0.1 4.187,0.355 a 12.62,12.62 0 0 1 2.72,0.84 l -2.187,4.98 a 7.366,7.366 0 0 0 -2.056,-0.71 17.081,17.081 0 0 0 -3.056,-0.234 9.349,9.349 0 0 0 -4.075,0.934 9.588,9.588 0 0 0 -3.27,2.578 12.665,12.665 0 0 0 -2.169,4.082 17.48,17.48 0 0 0 -0.794,5.446 8.293,8.293 0 0 0 1.869,5.717 6.207,6.207 0 0 0 4.869,2.055 10.724,10.724 0 0 0 3.205,-0.402 c 0.822,-0.267 1.62,-0.605 2.383,-1.008 l 0.047,4.736 z m 2.448,-5.708 c -0.036,-2.099 0.28,-4.189 0.934,-6.184 a 15.476,15.476 0 0 1 2.58,-4.764 11.671,11.671 0 0 1 3.738,-3.064 9.582,9.582 0 0 1 4.439,-1.102 8.414,8.414 0 0 1 3.486,0.644 6.345,6.345 0 0 1 2.29,1.72 6.734,6.734 0 0 1 1.27,2.447 c 0.256,0.912 0.385,1.855 0.383,2.802 a 18.908,18.908 0 0 1 -0.934,6.11 15.41,15.41 0 0 1 -2.533,4.745 11.54,11.54 0 0 1 -3.738,3.073 9.47,9.47 0 0 1 -4.42,1.093 7.975,7.975 0 0 1 -3.44,-0.673 6.745,6.745 0 0 1 -3.69,-4.157 8.89,8.89 0 0 1 -0.365,-2.69 z m 5.448,-0.71 c 0,2.597 0.935,3.886 2.804,3.886 a 2.963,2.963 0 0 0 2.018,-0.934 8.921,8.921 0 0 0 1.766,-2.373 14.44,14.44 0 0 0 1.215,-3.325 c 0.305,-1.222 0.46,-2.477 0.458,-3.737 a 5.061,5.061 0 0 0 -0.58,-2.653 2.346,2.346 0 0 0 -2.167,-0.934 3.038,3.038 0 0 0 -2.019,0.869 8.202,8.202 0 0 0 -1.766,2.26 15.006,15.006 0 0 0 -1.72,6.894 z m 27.195,7.66 2.804,-13.237 c 0.155,-0.687 0.24,-1.388 0.252,-2.092 a 2.447,2.447 0 0 0 -0.383,-1.476 1.645,1.645 0 0 0 -1.411,-0.532 3.48,3.48 0 0 0 -1.552,0.383 6.28,6.28 0 0 0 -1.458,1.027 11.799,11.799 0 0 0 -2.317,3.027 l -2.748,12.9 h -5.29 l 4.552,-21.485 h 4 l -0.215,3.737 h 0.168 a 27.35,27.35 0 0 1 1.308,-1.458 9.953,9.953 0 0 1 3.954,-2.484 8.237,8.237 0 0 1 2.803,-0.44 4.412,4.412 0 0 1 3.084,1.056 4.52,4.52 0 0 1 1.159,3.494 c 0,0.439 0,0.934 -0.056,1.382 a 11.205,11.205 0 0 1 -0.28,1.588 l -3.094,14.545 z m 12.317,-21.457 h 2.804 l 0.85,-4.035 5.608,-1.588 -1.206,5.604 h 5.028 l -0.99,4.381 h -4.982 l -2.103,9.762 a 8.852,8.852 0 0 0 -0.261,1.868 c -0.059,0.476 0.099,0.952 0.43,1.299 a 2,2 0 0 0 1.29,0.345 5.61,5.61 0 0 0 1.476,-0.177 5.898,5.898 0 0 0 1.402,-0.598 v 3.951 c -0.367,0.195 -0.748,0.36 -1.14,0.496 -0.47,0.166 -0.95,0.294 -1.44,0.382 a 17.1,17.1 0 0 1 -1.588,0.234 c -0.5,0.061 -1.002,0.092 -1.505,0.093 a 5.02,5.02 0 0 1 -3.374,-1.018 3.82,3.82 0 0 1 -1.177,-3.073 c -0.002,-0.313 0.02,-0.625 0.065,-0.934 0,-0.308 0.094,-0.645 0.15,-0.99 L 227.5,183.75 h -2.878 z m 16.7,0 h 5.28 l -4.55,21.485 h -5.28 z m 0.86,-6.1 a 2.69,2.69 0 0 1 0.935,-2.186 c 0.66,-0.53 1.49,-0.806 2.336,-0.775 a 3.655,3.655 0 0 1 2.346,0.775 c 0.641,0.539 0.988,1.35 0.934,2.186 0.047,0.832 -0.3,1.637 -0.934,2.177 a 3.608,3.608 0 0 1 -2.346,0.784 3.477,3.477 0 0 1 -2.336,-0.784 2.718,2.718 0 0 1 -0.907,-2.177 z m 21.906,27.557 a 16.53,16.53 0 0 1 -1.505,4.278 9.398,9.398 0 0 1 -2.252,2.803 8.29,8.29 0 0 1 -3.01,1.541 13.874,13.874 0 0 1 -3.737,0.476 15.37,15.37 0 0 1 -2.683,-0.214 c -0.704,-0.128 -1.4,-0.3 -2.084,-0.514 a 14.826,14.826 0 0 1 -1.57,-0.626 9.36,9.36 0 0 1 -1.046,-0.58 l 1.972,-3.904 c 0.252,0.112 0.56,0.252 0.934,0.42 0.374,0.169 0.738,0.327 1.187,0.486 a 9.237,9.237 0 0 0 1.542,0.393 c 0.673,0.11 1.355,0.164 2.037,0.158 a 4.506,4.506 0 0 0 3.42,-1.335 7.948,7.948 0 0 0 1.823,-3.672 l 0.813,-3.362 h -0.168 a 10.277,10.277 0 0 1 -2.682,2.802 6.422,6.422 0 0 1 -3.841,1.224 4.674,4.674 0 0 1 -3.738,-1.738 7.05,7.05 0 0 1 -1.44,-4.67 19.786,19.786 0 0 1 0.935,-6.212 16.382,16.382 0 0 1 2.635,-5.063 12.83,12.83 0 0 1 4.019,-3.41 10.61,10.61 0 0 1 5.112,-1.242 20.568,20.568 0 0 1 4.57,0.448 c 1.084,0.227 2.143,0.565 3.158,1.009 z m -1.552,-17.16 a 3.178,3.178 0 0 0 -1.196,-0.346 11.051,11.051 0 0 0 -1.467,-0.093 4.412,4.412 0 0 0 -2.551,0.822 7.231,7.231 0 0 0 -2.038,2.251 12.215,12.215 0 0 0 -1.355,3.344 16.611,16.611 0 0 0 -0.495,4.13 3.735,3.735 0 0 0 0.58,2.204 c 0.336,0.512 0.91,0.818 1.523,0.813 a 2.991,2.991 0 0 0 1.504,-0.449 7.252,7.252 0 0 0 1.477,-1.149 c 0.48,-0.46 0.907,-0.974 1.27,-1.532 0.349,-0.5 0.661,-1.025 0.935,-1.57 z m 7.215,10.21 c -0.035,-2.099 0.28,-4.189 0.935,-6.184 0.57,-1.727 1.44,-3.34 2.57,-4.764 a 11.671,11.671 0 0 1 3.738,-3.064 9.61,9.61 0 0 1 4.439,-1.102 8.414,8.414 0 0 1 3.486,0.644 c 0.885,0.394 1.67,0.981 2.299,1.72 a 6.715,6.715 0 0 1 1.261,2.447 c 0.26,0.911 0.392,1.854 0.393,2.802 a 18.675,18.675 0 0 1 -0.935,6.11 15.215,15.215 0 0 1 -2.532,4.745 11.54,11.54 0 0 1 -3.692,3.073 9.47,9.47 0 0 1 -4.42,1.093 8.003,8.003 0 0 1 -3.44,-0.673 6.897,6.897 0 0 1 -2.336,-1.728 6.996,6.996 0 0 1 -1.355,-2.429 8.89,8.89 0 0 1 -0.41,-2.69 z m 5.458,-0.71 c 0,2.597 0.934,3.886 2.803,3.886 a 2.954,2.954 0 0 0 2.01,-0.934 8.538,8.538 0 0 0 1.766,-2.373 c 0.538,-1.056 0.95,-2.172 1.224,-3.325 a 15.9,15.9 0 0 0 0.449,-3.737 5.061,5.061 0 0 0 -0.58,-2.653 2.337,2.337 0 0 0 -2.168,-0.934 3.038,3.038 0 0 0 -2.018,0.869 8.566,8.566 0 0 0 -1.767,2.26 14.204,14.204 0 0 0 -1.243,3.223 14.753,14.753 0 0 0 -0.476,3.718 z m 27.999,-13.797 h 2.803 l 0.85,-4.035 5.608,-1.588 -1.206,5.604 h 5.019 l -0.935,4.381 h -4.99 l -2.103,9.762 a 9.337,9.337 0 0 0 -0.252,1.868 c -0.059,0.476 0.099,0.952 0.43,1.299 a 2,2 0 0 0 1.29,0.345 5.61,5.61 0 0 0 1.476,-0.177 c 0.49,-0.14 0.961,-0.34 1.402,-0.598 v 3.951 c -0.367,0.195 -0.748,0.36 -1.14,0.496 -0.47,0.166 -0.95,0.294 -1.44,0.382 a 17.1,17.1 0 0 1 -1.588,0.234 c -0.5,0.061 -1.002,0.092 -1.505,0.093 a 5.001,5.001 0 0 1 -3.374,-1.018 3.82,3.82 0 0 1 -1.177,-3.073 c -0.002,-0.313 0.02,-0.625 0.065,-0.934 0,-0.308 0.084,-0.645 0.15,-0.99 l 2.486,-11.696 h -2.87 l 1,-4.306 z m 12.457,14.507 c -0.036,-2.099 0.28,-4.189 0.934,-6.184 a 15.663,15.663 0 0 1 2.57,-4.764 11.774,11.774 0 0 1 3.739,-3.064 9.648,9.648 0 0 1 4.448,-1.102 8.414,8.414 0 0 1 3.476,0.644 6.463,6.463 0 0 1 2.3,1.72 6.734,6.734 0 0 1 1.27,2.447 c 0.252,0.913 0.381,1.855 0.384,2.802 a 18.908,18.908 0 0 1 -0.935,6.11 15.607,15.607 0 0 1 -2.533,4.745 11.578,11.578 0 0 1 -3.738,3.073 9.442,9.442 0 0 1 -4.42,1.093 8.003,8.003 0 0 1 -3.44,-0.673 6.745,6.745 0 0 1 -3.69,-4.157 9.17,9.17 0 0 1 -0.365,-2.69 z m 5.448,-0.71 c 0,2.597 0.935,3.886 2.804,3.886 a 2.991,2.991 0 0 0 2.018,-0.934 8.706,8.706 0 0 0 1.757,-2.373 14.531,14.531 0 0 0 1.225,-3.325 c 0.297,-1.224 0.447,-2.478 0.448,-3.737 a 4.968,4.968 0 0 0 -0.58,-2.653 2.337,2.337 0 0 0 -2.167,-0.934 3.075,3.075 0 0 0 -2.019,0.869 8.408,8.408 0 0 0 -1.757,2.26 13.784,13.784 0 0 0 -1.243,3.223 14.342,14.342 0 0 0 -0.486,3.718 z m 33.363,0.112 a 34.47,34.47 0 0 0 -0.551,3.344 c -0.116,0.97 -0.176,1.947 -0.178,2.924 v 0.635 a 5.657,5.657 0 0 0 0,0.664 h -3.607 l -0.598,-3.737 h -0.178 a 8.025,8.025 0 0 1 -1.224,1.523 c -0.503,0.51 -1.054,0.97 -1.645,1.373 a 8.29,8.29 0 0 1 -1.915,0.99 c -0.64,0.237 -1.318,0.36 -2,0.364 a 4.87,4.87 0 0 1 -4.103,-1.868 8.404,8.404 0 0 1 -1.44,-5.203 20.64,20.64 0 0 1 0.823,-5.792 17.11,17.11 0 0 1 2.3,-4.95 11.689,11.689 0 0 1 3.606,-3.466 8.946,8.946 0 0 1 4.673,-1.28 11.41,11.41 0 0 1 2.056,0.15 6.665,6.665 0 0 1 1.551,0.485 l 1.87,-8.706 h 5.289 z m -3.299,-9.397 a 3.29,3.29 0 0 0 -1.187,-0.495 8.115,8.115 0 0 0 -1.775,-0.159 3.57,3.57 0 0 0 -2.346,0.934 7.296,7.296 0 0 0 -1.785,2.373 15.296,15.296 0 0 0 -1.14,3.437 20.542,20.542 0 0 0 -0.402,4.064 4.04,4.04 0 0 0 0.56,2.158 c 0.31,0.588 0.925,0.95 1.59,0.934 a 2.88,2.88 0 0 0 1.308,-0.327 5.205,5.205 0 0 0 1.243,-0.84 9.343,9.343 0 0 0 1.075,-1.122 c 0.295,-0.351 0.56,-0.726 0.794,-1.12 z m 7.551,9.995 c -0.035,-2.099 0.28,-4.189 0.935,-6.184 a 15.663,15.663 0 0 1 2.57,-4.764 11.671,11.671 0 0 1 3.738,-3.064 9.62,9.62 0 0 1 4.448,-1.102 8.414,8.414 0 0 1 3.477,0.644 6.468,6.468 0 0 1 2.299,1.72 6.715,6.715 0 0 1 1.262,2.447 c 0.259,0.911 0.391,1.854 0.392,2.802 a 18.908,18.908 0 0 1 -0.934,6.11 15.607,15.607 0 0 1 -2.533,4.745 11.746,11.746 0 0 1 -3.692,3.073 9.526,9.526 0 0 1 -4.43,1.093 8.003,8.003 0 0 1 -3.438,-0.673 6.897,6.897 0 0 1 -2.337,-1.728 6.996,6.996 0 0 1 -1.355,-2.429 8.89,8.89 0 0 1 -0.402,-2.69 z m 5.458,-0.71 c 0,2.597 0.935,3.886 2.804,3.886 a 2.954,2.954 0 0 0 2.009,-0.934 8.538,8.538 0 0 0 1.766,-2.373 14.531,14.531 0 0 0 1.224,-3.325 15.9,15.9 0 0 0 0.45,-3.737 5.061,5.061 0 0 0 -0.58,-2.653 2.337,2.337 0 0 0 -2.168,-0.934 3.038,3.038 0 0 0 -2.02,0.869 8.566,8.566 0 0 0 -1.765,2.26 14.204,14.204 0 0 0 -1.243,3.223 14.753,14.753 0 0 0 -0.477,3.718 z m 16.018,2.644 c 0.7,0.379 1.444,0.67 2.215,0.868 a 10.5,10.5 0 0 0 2.85,0.374 3.833,3.833 0 0 0 2.3,-0.588 2.148,2.148 0 0 0 0.831,-1.794 2.26,2.26 0 0 0 -0.514,-1.485 6.288,6.288 0 0 0 -1.308,-1.196 40.734,40.734 0 0 0 -1.692,-1.14 12.083,12.083 0 0 1 -1.7,-1.326 6.427,6.427 0 0 1 -1.31,-1.784 5.5,5.5 0 0 1 -0.513,-2.494 6.247,6.247 0 0 1 0.551,-2.616 6.184,6.184 0 0 1 1.58,-2.055 7.14,7.14 0 0 1 2.439,-1.336 10.33,10.33 0 0 1 3.243,-0.476 18.699,18.699 0 0 1 4.121,0.374 c 0.902,0.18 1.771,0.495 2.58,0.934 l -1.459,4.035 c -0.67,-0.295 -1.368,-0.52 -2.084,-0.673 a 11.93,11.93 0 0 0 -2.55,-0.27 4.226,4.226 0 0 0 -2.178,0.476 c -0.527,0.32 -0.83,0.908 -0.785,1.523 0,0.463 0.185,0.907 0.514,1.233 0.4,0.407 0.839,0.776 1.308,1.102 a 48,48 0 0 0 1.691,1.14 9.158,9.158 0 0 1 1.701,1.4 7.1,7.1 0 0 1 1.309,1.869 c 0.361,0.787 0.537,1.647 0.514,2.513 a 6.192,6.192 0 0 1 -2.318,5.306 10.068,10.068 0 0 1 -6.187,1.737 18.427,18.427 0 0 1 -4.009,-0.41 9.348,9.348 0 0 1 -2.803,-1.01 z m 33.447,-1.299 a 3.165,3.165 0 0 0 0,1.869 0.935,0.935 0 0 0 0.935,0.597 5.693,5.693 0 0 0 2.28,-0.467 l -0.13,3.784 a 7.142,7.142 0 0 1 -2.234,0.766 14.51,14.51 0 0 1 -2.87,0.29 4.786,4.786 0 0 1 -2.803,-0.702 3.091,3.091 0 0 1 -0.935,-2.643 12.03,12.03 0 0 1 0.253,-2.27 l 5.29,-24.941 h 5.28 z m 5.925,-0.635 c -0.035,-2.099 0.28,-4.189 0.935,-6.184 a 15.476,15.476 0 0 1 2.579,-4.764 11.643,11.643 0 0 1 3.738,-3.064 9.62,9.62 0 0 1 4.449,-1.102 8.414,8.414 0 0 1 3.476,0.644 6.46,6.46 0 0 1 2.299,1.72 6.734,6.734 0 0 1 1.271,2.447 c 0.252,0.913 0.38,1.855 0.383,2.802 a 18.908,18.908 0 0 1 -0.934,6.11 15.41,15.41 0 0 1 -2.533,4.745 11.746,11.746 0 0 1 -3.691,3.073 9.48,9.48 0 0 1 -4.43,1.093 7.937,7.937 0 0 1 -3.43,-0.673 6.85,6.85 0 0 1 -2.346,-1.728 6.996,6.996 0 0 1 -1.355,-2.429 9.179,9.179 0 0 1 -0.41,-2.69 z m 5.458,-0.71 c 0,2.597 0.934,3.886 2.803,3.886 a 2.991,2.991 0 0 0 2.02,-0.934 8.706,8.706 0 0 0 1.756,-2.373 14.531,14.531 0 0 0 1.224,-3.325 15.9,15.9 0 0 0 0.449,-3.737 5.061,5.061 0 0 0 -0.57,-2.653 2.365,2.365 0 0 0 -2.178,-0.934 3.075,3.075 0 0 0 -2.018,0.869 8.408,8.408 0 0 0 -1.757,2.26 13.784,13.784 0 0 0 -1.243,3.223 14.342,14.342 0 0 0 -0.486,3.718 z m 16.018,2.644 c 0.7,0.379 1.444,0.67 2.215,0.868 a 10.5,10.5 0 0 0 2.85,0.374 3.833,3.833 0 0 0 2.299,-0.588 2.157,2.157 0 0 0 0.841,-1.794 2.316,2.316 0 0 0 -0.514,-1.485 6.802,6.802 0 0 0 -1.308,-1.196 48.746,48.746 0 0 0 -1.701,-1.14 12.083,12.083 0 0 1 -1.701,-1.326 6.623,6.623 0 0 1 -1.308,-1.784 5.603,5.603 0 0 1 -0.524,-2.504 6.116,6.116 0 0 1 0.561,-2.615 6.035,6.035 0 0 1 1.57,-2.055 7.103,7.103 0 0 1 2.449,-1.336 10.284,10.284 0 0 1 3.242,-0.476 18.61,18.61 0 0 1 4.112,0.373 9.16,9.16 0 0 1 2.58,0.934 l -1.43,4.026 c -0.67,-0.294 -1.368,-0.52 -2.084,-0.672 a 11.93,11.93 0 0 0 -2.551,-0.271 4.188,4.188 0 0 0 -2.169,0.476 1.636,1.636 0 0 0 -0.794,1.523 c 0,0.463 0.185,0.907 0.514,1.233 a 9.82,9.82 0 0 0 1.308,1.102 41.43,41.43 0 0 0 1.701,1.14 c 0.617,0.4 1.185,0.87 1.692,1.401 a 6.884,6.884 0 0 1 1.308,1.868 c 0.362,0.788 0.537,1.647 0.514,2.513 a 6.192,6.192 0 0 1 -2.318,5.306 10.05,10.05 0 0 1 -6.177,1.737 c -1.35,0.01 -2.698,-0.127 -4.018,-0.41 a 9.45,9.45 0 0 1 -2.804,-1.01 z m 45.222,-2.532 a 31.99,31.99 0 0 0 -0.56,3.344 c -0.11,0.971 -0.166,1.947 -0.169,2.924 v 0.635 a 5.657,5.657 0 0 0 0,0.664 h -3.607 l -0.598,-3.737 h -0.168 a 8.838,8.838 0 0 1 -1.225,1.523 11.75,11.75 0 0 1 -1.654,1.373 8.29,8.29 0 0 1 -1.869,0.99 c -0.64,0.237 -1.317,0.36 -2,0.364 a 4.842,4.842 0 0 1 -4.093,-1.868 8.404,8.404 0 0 1 -1.44,-5.203 c -0.005,-1.96 0.269,-3.91 0.814,-5.792 a 17.11,17.11 0 0 1 2.299,-4.95 c 0.94,-1.4 2.17,-2.582 3.607,-3.466 a 8.946,8.946 0 0 1 4.673,-1.28 c 0.688,-0.012 1.376,0.038 2.056,0.15 0.535,0.096 1.056,0.26 1.551,0.485 l 1.87,-8.706 h 5.28 z m -3.308,-9.397 a 3.318,3.318 0 0 0 -1.178,-0.495 8.209,8.209 0 0 0 -1.785,-0.159 3.57,3.57 0 0 0 -2.345,0.934 7.156,7.156 0 0 0 -1.776,2.373 14.839,14.839 0 0 0 -1.14,3.437 19.842,19.842 0 0 0 -0.411,4.064 4.04,4.04 0 0 0 0.56,2.158 1.76,1.76 0 0 0 1.59,0.934 2.851,2.851 0 0 0 1.308,-0.327 5.205,5.205 0 0 0 1.242,-0.84 9.343,9.343 0 0 0 1.075,-1.122 c 0.295,-0.351 0.56,-0.726 0.795,-1.12 z m 11.812,-4.512 h 5.28 l -4.55,21.485 h -5.28 z M 500.376,170 h 5.364 l -0.252,1.298 -5.71,5.325 h -2.972 z m 19.793,22.316 a 28.227,28.227 0 0 0 -0.495,3.307 38.434,38.434 0 0 0 -0.15,3.176 v 1.14 c 0,0.355 0,0.691 0.056,1.009 h -3.906 l -0.598,-3.737 h -0.168 a 8.838,8.838 0 0 1 -1.225,1.523 c -0.509,0.51 -1.066,0.97 -1.663,1.373 a 8.048,8.048 0 0 1 -1.87,0.99 6.077,6.077 0 0 1 -2.083,0.364 4.851,4.851 0 0 1 -4.187,-1.868 8.19,8.19 0 0 1 -1.355,-4.932 22.793,22.793 0 0 1 0.794,-6.016 14.72,14.72 0 0 1 2.477,-5.063 12.241,12.241 0 0 1 4.224,-3.493 13.154,13.154 0 0 1 6.075,-1.318 c 1.102,0.008 2.202,0.102 3.29,0.28 1.165,0.188 2.32,0.44 3.457,0.757 z m -10.093,4.811 a 3.263,3.263 0 0 0 1.458,-0.327 c 0.463,-0.216 0.891,-0.5 1.271,-0.84 a 7.736,7.736 0 0 0 1.028,-1.122 c 0.299,-0.401 0.57,-0.775 0.794,-1.12 l 2.15,-10.07 a 4.87,4.87 0 0 0 -1.094,-0.318 6.937,6.937 0 0 0 -1.224,-0.112 4.328,4.328 0 0 0 -2.747,0.934 7.876,7.876 0 0 0 -2.047,2.41 c -0.575,1.06 -1,2.195 -1.262,3.372 a 16.723,16.723 0 0 0 -0.43,3.784 5.92,5.92 0 0 0 0.449,2.4 1.664,1.664 0 0 0 1.654,1.01 z m 14.261,-1.242 c 0.7,0.379 1.444,0.67 2.215,0.868 a 10.5,10.5 0 0 0 2.85,0.374 3.833,3.833 0 0 0 2.3,-0.588 2.148,2.148 0 0 0 0.831,-1.794 2.26,2.26 0 0 0 -0.514,-1.485 6.288,6.288 0 0 0 -1.308,-1.196 48.122,48.122 0 0 0 -1.692,-1.14 11.569,11.569 0 0 1 -1.7,-1.326 6.427,6.427 0 0 1 -1.309,-1.784 5.5,5.5 0 0 1 -0.523,-2.504 6.247,6.247 0 0 1 0.551,-2.615 6.035,6.035 0 0 1 1.57,-2.055 7.188,7.188 0 0 1 2.449,-1.336 10.284,10.284 0 0 1 3.242,-0.476 18.699,18.699 0 0 1 4.122,0.373 c 0.901,0.18 1.771,0.495 2.579,0.934 l -1.43,4.026 a 10.938,10.938 0 0 0 -2.084,-0.672 c -0.841,-0.182 -1.7,-0.273 -2.56,-0.271 a 4.216,4.216 0 0 0 -2.169,0.476 c -0.53,0.318 -0.833,0.908 -0.785,1.523 0,0.463 0.185,0.907 0.514,1.233 0.402,0.407 0.84,0.776 1.309,1.102 a 40.21,40.21 0 0 0 1.691,1.14 c 0.62,0.4 1.19,0.87 1.701,1.401 a 7.1,7.1 0 0 1 1.308,1.868 c 0.362,0.788 0.538,1.647 0.514,2.513 a 6.22,6.22 0 0 1 -2.317,5.306 10.068,10.068 0 0 1 -6.187,1.737 c -1.35,0.01 -2.698,-0.128 -4.018,-0.41 a 9.348,9.348 0 0 1 -2.804,-1.01 z"
         id="bachoco-slogan"
         style="fill:#f17516;fill-opacity:1" />
      <path
         d="M 1.076,170 H 0.88 a 0.847,0.847 0 0 1 -0.878,-0.807 0.808,0.808 0 0 1 0.663,-0.852 C 113.578,133.38 233.58,121 350.51,121 c 116.93,0 236.968,12.41 349.927,47.35 a 0.806,0.806 0 0 1 0.56,0.843 0.831,0.831 0 0 1 -0.266,0.582 0.844,0.844 0 0 1 -0.602,0.225 h -0.187 A 1924.826,1924.826 0 0 0 1.077,170 Z"
         id="bachoco-divider"
         style="fill:#8fc640;fill-opacity:1" />
      <path
         d="m 628.316,21.111 c 26.412,0 44.684,10.197 44.684,38.38 0,27.048 -20.354,38.5 -44.684,38.5 -24.331,0 -45.479,-11.452 -45.479,-38.51 0,-28.145 19.028,-38.37 45.479,-38.37 z m 0,61.831 c 15.685,0 16.292,-11.693 16.292,-23.451 0,-11.759 -0.57,-23.34 -16.292,-23.34 -15.723,0 -17.096,11.451 -17.096,23.33 0,11.88 1.373,23.461 17.096,23.461 z M 502.889,59.314 c 0,-25.664 18.589,-37.003 45.618,-37.003 9.273,-0.081 18.529,0.8 27.617,2.63 v 15.067 c -5.583,-0.409 -12.52,-1.106 -18.42,-1.106 -17.674,0 -26.432,5.215 -26.432,21.267 0,16.053 8.767,21.11 26.44,21.11 8.45,0 12.839,-0.698 18.263,-1.125 V 95.76 a 121.543,121.543 0 0 1 -23.705,2.23 c -28.234,0 -49.381,-10.373 -49.381,-38.676 z m -8.907,0.177 C 493.982,86.539 473.638,98 449.307,98 424.976,98 403.829,86.549 403.829,59.49 c 0,-28.182 19.074,-38.37 45.478,-38.37 26.403,0 44.675,10.197 44.675,38.37 z m -61.761,0 c 0,11.87 1.41,23.451 17.086,23.451 15.676,0 16.301,-11.693 16.301,-23.451 0,-11.759 -0.57,-23.33 -16.301,-23.33 -15.732,0 -17.086,11.58 -17.086,23.33 z M 337.465,45.855 V 96.94 H 308.95 V 0.095 h 28.533 v 31.882 c 8.953,-3.96 17.244,-7.324 29.67,-7.324 11.074,0 24.575,6.125 24.575,22.856 V 96.978 H 363.307 V 56.079 c -0.046,-2.398 -0.13,-5.186 -0.233,-7.045 0,0 -0.336,-5.8 -10.942,-5.8 a 49.203,49.203 0 0 0 -14.668,2.62 z M 270.56,97.99 c -28.243,0 -49.381,-10.374 -49.381,-38.705 0,-25.663 18.523,-36.975 45.6,-36.975 9.284,-0.082 18.553,0.8 27.654,2.63 v 15.067 c -5.602,-0.409 -12.539,-1.106 -18.43,-1.106 -17.684,0 -26.441,5.261 -26.441,21.267 0,16.006 8.757,21.11 26.44,21.11 8.45,0 12.829,-0.698 18.282,-1.125 V 95.76 A 122.077,122.077 0 0 1 270.56,97.99 Z M 211.74,46.365 V 95.64 c 0,0 -24.163,2.342 -38.83,2.342 -16.61,0 -43.826,1.107 -43.826,-24.167 0,-24.697 32.052,-22.782 54.702,-22.782 -0.14,-9.23 -1.204,-14.072 -19.158,-14.072 a 203.38,203.38 0 0 0 -27.814,2.37 V 24.68 a 251.032,251.032 0 0 1 35.04,-2.62 c 18.58,0 39.886,1.794 39.886,24.306 z M 184.244,83.201 V 64.984 c -2.41,-0.13 -9.972,-0.13 -11.932,-0.13 -7.544,0 -15.107,0.567 -15.107,9.518 0,9.118 7.563,9.667 15.107,9.667 3.992,0.004 7.98,-0.276 11.932,-0.837 z M 96.19,45.846 c 0,0 24.275,4.07 24.275,25.617 0,21.852 -26.301,25.44 -42.014,25.44 H 29.594 C 27.027,96.863 24.974,94.765 25,92.209 V 4.743 c 0,-2.538 2.045,-4.607 4.594,-4.648 h 44.703 c 2.54,0 6.666,-0.093 9.187,-0.093 0,0 34.181,-0.752 34.181,24.168 0,17.846 -20.055,19.64 -26.002,21.025 0,-0.056 2.035,0.25 4.528,0.65 z M 55.11,19.726 v 14.817 c -0.042,2.56 2.003,4.67 4.574,4.722 h 6.835 a 59.909,59.909 0 0 0 9.13,-0.874 c 0,0 10.103,-1.766 10.103,-11.145 0,-9.378 -4.827,-12.167 -14.65,-12.167 h -11.38 c -2.557,0.03 -4.613,2.102 -4.613,4.648 z M 77.965,80.87 c 0,0 11.205,-2.185 11.205,-12.196 0,-9.964 -5.135,-13.013 -15.713,-13.013 h -13.95 c -2.57,0.036 -4.628,2.134 -4.602,4.694 v 16.731 c 0,2.542 2.05,4.612 4.603,4.648 h 9.336 a 58.84,58.84 0 0 0 9.122,-0.865 z"
         id="bachoco-letters"
         style="fill:#f17516;fill-opacity:1" />
      <path
         d="m 695.35,91.007 0.064,-0.018 a 12.104,12.104 0 0 1 0,11.979 11.128,11.128 0 0 1 -4.431,4.441 12.02,12.02 0 0 1 -11.952,0 11.266,11.266 0 0 1 -4.441,-4.441 12.076,12.076 0 0 1 0,-11.979 11.164,11.164 0 0 1 4.487,-4.45 12.057,12.057 0 0 1 11.786,0 11.11,11.11 0 0 1 4.487,4.468 z m -1.701,11.003 a 10.036,10.036 0 0 0 0,-9.998 9.121,9.121 0 0 0 -3.733,-3.686 9.947,9.947 0 0 0 -9.828,0 9.287,9.287 0 0 0 -3.733,3.686 9.98,9.98 0 0 0 0,9.998 9.26,9.26 0 0 0 3.678,3.685 9.965,9.965 0 0 0 9.938,0 9.38,9.38 0 0 0 3.678,-3.685 z m -6.583,-3.428 c 0.726,0.78 1.367,1.636 1.912,2.552 l 1.573,2.543 h -2.52 l -1.158,-2.054 a 10.918,10.918 0 0 0 -2.188,-3.004 2.653,2.653 0 0 0 -1.683,-0.452 h -1.232 v 5.529 h -2.077 V 90.73 h 4.459 c 1.109,-0.05 2.219,0.071 3.291,0.36 a 3.191,3.191 0 0 1 1.627,1.253 c 0.393,0.554 0.605,1.217 0.607,1.898 a 3.45,3.45 0 0 1 -1.02,2.47 3.995,3.995 0 0 1 -2.685,1.179 c 0.403,0.162 0.774,0.396 1.094,0.69 z m -2.758,-2.175 h 0.028 a 4.24,4.24 0 0 0 2.51,-0.544 1.79,1.79 0 0 0 0.67,-1.446 c 0,-0.372 -0.112,-0.735 -0.321,-1.041 a 1.931,1.931 0 0 0 -0.92,-0.682 6.826,6.826 0 0 0 -2.123,-0.221 h -2.41 v 3.934 z"
         id="bachoco-copyright"
         style="fill:#f17516;fill-opacity:1" />
    </g>
  </g>
  <circle
     id="path5220"
     style="fill:#f17516;stroke:#ffffff"
     cx="-297.17999"
     cy="-455.53833"
     r="0.47087082" />
  <circle
     id="path5222"
     style="fill:#f17516;stroke:#ffffff"
     cx="-297.17999"
     cy="-455.53833"
     r="0.47087082" />
</svg>
