<?xml version="1.0" standalone="no"?>
<!DOCTYPE svg PUBLIC "-//W3C//DTD SVG 20010904//EN"
 "http://www.w3.org/TR/2001/REC-SVG-20010904/DTD/svg10.dtd">
<svg version="1.0" xmlns="http://www.w3.org/2000/svg"
 width="600.000000pt" height="300.000000pt" viewBox="0 0 600.000000 300.000000"
 preserveAspectRatio="xMidYMid meet">

<g transform="translate(0.000000,300.000000) scale(0.100000,-0.100000)"
fill="#000000" stroke="none">
<path d="M1639 2029 c-47 -27 -69 -66 -69 -121 0 -82 57 -138 141 -138 147 0
191 196 59 262 -46 23 -87 22 -131 -3z"/>
<path d="M1263 2015 c-36 -16 -73 -68 -73 -103 0 -65 56 -122 120 -122 132 0
165 175 44 226 -41 17 -50 17 -91 -1z"/>
<path d="M849 1971 c-53 -54 -29 -138 45 -157 32 -8 82 12 101 40 41 58 -7
146 -80 146 -27 0 -44 -8 -66 -29z"/>
<path d="M2680 1665 l0 -295 60 0 60 0 0 295 0 295 -60 0 -60 0 0 -295z"/>
<path d="M2203 1923 l-23 -4 0 -274 0 -274 36 -7 c71 -13 239 2 289 26 106 51
127 180 40 248 -14 12 -31 22 -36 24 -6 2 7 22 30 45 33 33 41 48 41 77 0 53
-24 93 -73 118 -36 19 -60 23 -162 24 -66 1 -130 0 -142 -3z m225 -99 c15 -10
22 -25 22 -49 0 -42 -26 -62 -93 -71 l-47 -7 0 72 0 71 48 0 c27 0 57 -7 70
-16z m4 -230 c31 -16 45 -63 28 -94 -14 -27 -68 -50 -115 -50 l-35 0 0 86 0
86 47 -7 c26 -4 60 -13 75 -21z"/>
<path d="M3838 1923 c-17 -4 -18 -26 -18 -278 0 -240 2 -274 16 -279 26 -10
189 -7 243 5 97 21 155 79 155 157 0 57 -27 101 -74 124 l-31 15 35 26 c90 69
56 194 -62 227 -36 10 -230 12 -264 3z m216 -95 c29 -13 40 -39 32 -72 -7 -29
-40 -46 -96 -49 l-45 -2 -3 54 c-2 29 -1 60 2 67 7 17 75 19 110 2z m16 -237
c27 -19 35 -48 25 -88 -7 -30 -63 -55 -113 -51 l-37 3 -3 69 c-4 95 -2 99 55
91 27 -4 59 -15 73 -24z"/>
<path d="M5165 1850 c-15 -17 -16 -24 -7 -45 6 -14 20 -25 29 -25 12 0 14 3 6
8 -8 5 -9 12 -2 22 8 13 10 13 19 0 9 -12 10 -10 8 10 -4 32 -30 32 -38 0 -4
-16 -8 -21 -13 -13 -11 18 10 53 32 53 10 0 24 -7 31 -15 13 -16 5 -55 -12
-55 -6 0 -8 -3 -5 -6 10 -10 37 16 37 37 0 23 -26 49 -49 49 -10 0 -26 -9 -36
-20z"/>
<path d="M3459 1757 c-145 -77 -142 -311 6 -378 67 -31 261 -20 250 14 -2 7
-6 24 -9 39 l-6 28 -73 -6 c-57 -5 -80 -3 -105 10 -27 14 -52 43 -52 60 0 3
61 6 135 6 l135 0 0 43 c0 91 -41 166 -107 193 -50 22 -123 17 -174 -9z m138
-79 c13 -12 23 -32 23 -45 0 -23 -2 -24 -72 -21 -41 2 -73 8 -75 14 -2 6 8 26
22 43 32 37 69 41 102 9z"/>
<path d="M4405 1761 c-50 -22 -91 -69 -105 -119 -43 -155 47 -282 198 -282
136 0 214 80 214 218 1 81 -36 144 -101 179 -56 29 -147 31 -206 4z m158 -103
c29 -38 28 -138 0 -176 -36 -48 -101 -42 -127 12 -28 59 -19 142 19 180 26 26
83 17 108 -16z"/>
<path d="M2892 1618 c4 -166 12 -196 64 -237 19 -15 41 -21 76 -21 52 0 79 10
116 43 l22 20 0 -26 c0 -26 2 -27 55 -27 l55 0 0 200 0 200 -65 0 -65 0 0
-138 c0 -124 -2 -141 -19 -156 -12 -11 -31 -16 -52 -14 -50 5 -59 31 -59 181
l0 127 -66 0 -66 0 4 -152z"/>
<path d="M4794 1675 c36 -52 66 -97 66 -100 0 -3 -26 -45 -58 -93 -32 -48 -62
-93 -66 -99 -5 -10 9 -13 61 -13 l68 0 35 65 34 65 36 -65 35 -65 72 0 73 0
-66 101 c-36 56 -63 107 -60 115 3 7 30 49 61 93 30 43 55 81 55 85 0 3 -29 6
-65 6 l-65 0 -31 -62 c-35 -69 -30 -70 -81 16 l-28 46 -71 0 -71 0 66 -95z"/>
<path d="M843 1630 c-60 -36 -82 -129 -46 -191 18 -30 84 -69 118 -69 34 0
100 39 119 70 22 39 23 113 1 146 -40 61 -130 82 -192 44z"/>
<path d="M1265 1621 c-79 -33 -93 -152 -25 -201 33 -24 95 -29 129 -11 30 16
61 70 61 104 0 80 -89 138 -165 108z"/>
<path d="M1648 1614 c-63 -34 -77 -122 -28 -178 90 -102 254 3 196 126 -30 62
-107 86 -168 52z"/>
<path d="M843 1259 c-80 -40 -111 -131 -71 -209 31 -61 77 -90 143 -90 168 0
222 226 71 299 -54 26 -90 26 -143 0z"/>
<path d="M1275 1253 c-72 -19 -118 -100 -97 -171 35 -116 189 -138 252 -37 64
103 -38 239 -155 208z"/>
<path d="M1683 1213 c-29 -6 -73 -58 -73 -88 0 -60 45 -105 104 -105 31 0 82
42 90 75 10 40 -18 94 -58 110 -20 8 -37 14 -38 14 -2 -1 -13 -4 -25 -6z"/>
<path d="M2173 1085 c55 -165 64 -165 123 0 24 66 44 121 44 123 0 1 -6 2 -14
2 -15 0 -28 -29 -69 -154 l-23 -69 -32 100 c-18 55 -32 106 -32 112 0 6 -9 11
-19 11 -18 0 -16 -10 22 -125z"/>
<path d="M2770 1165 c0 -16 -6 -25 -15 -25 -8 0 -15 -4 -15 -10 0 -5 7 -10 15
-10 12 0 15 -14 15 -69 0 -73 14 -101 49 -101 28 0 33 12 8 24 -19 10 -22 21
-25 79 -3 66 -3 67 23 67 14 0 25 5 25 10 0 6 -11 10 -25 10 -20 0 -25 5 -25
25 0 16 -6 25 -15 25 -9 0 -15 -9 -15 -25z"/>
<path d="M2371 1116 c-27 -29 -31 -94 -7 -130 17 -27 70 -42 105 -31 34 10 24
24 -13 18 -28 -4 -39 -1 -61 21 -39 39 -28 51 49 54 l68 3 -7 27 c-10 42 -34
62 -75 62 -26 0 -43 -7 -59 -24z m89 -6 c35 -35 26 -50 -29 -50 -60 0 -70 12
-37 45 30 30 40 31 66 5z"/>
<path d="M2550 1050 c0 -73 3 -90 15 -90 12 0 15 14 15 63 0 69 17 97 58 97
30 0 42 -29 42 -99 0 -48 3 -61 15 -61 22 0 21 127 -1 158 -17 24 -61 30 -95
12 -13 -7 -19 -7 -19 0 0 5 -7 10 -15 10 -12 0 -15 -17 -15 -90z"/>
<path d="M2890 1065 c0 -62 4 -79 20 -95 24 -24 48 -25 80 -3 17 12 25 13 28
5 2 -7 8 -12 13 -12 5 0 9 41 9 90 0 73 -3 90 -15 90 -12 0 -15 -14 -15 -70 0
-63 -2 -71 -24 -85 -19 -13 -29 -14 -45 -5 -18 9 -21 20 -21 85 0 60 -3 75
-15 75 -12 0 -15 -15 -15 -75z"/>
<path d="M3100 1050 c0 -73 3 -90 15 -90 12 0 15 14 15 63 0 64 17 97 48 97 7
0 12 5 12 10 0 16 -40 12 -46 -5 -4 -8 -10 -15 -15 -15 -5 0 -9 7 -9 15 0 8
-4 15 -10 15 -6 0 -10 -37 -10 -90z"/>
<path d="M3240 1122 c-15 -12 -24 -33 -27 -64 -5 -42 -3 -50 25 -78 30 -30 55
-36 100 -24 37 10 25 21 -24 20 -48 -1 -74 18 -74 56 0 16 9 18 65 18 63 0 65
1 65 25 0 57 -81 86 -130 47z m78 -8 c12 -8 22 -24 22 -35 0 -16 -7 -19 -50
-19 -56 0 -65 15 -30 50 24 24 29 24 58 4z"/>
<path d="M3422 1128 c-24 -24 -13 -57 28 -83 24 -15 40 -33 40 -44 0 -22 -30
-35 -59 -26 -11 3 -22 1 -25 -4 -4 -6 9 -13 29 -17 67 -12 112 48 67 89 -10
10 -24 17 -30 17 -18 0 -42 30 -36 45 4 9 19 15 40 15 19 0 34 5 34 10 0 14
-74 12 -88 -2z"/>
</g>
</svg>
