<?xml version="1.0" encoding="UTF-8"?>
<svg version="1.1" xmlns="http://www.w3.org/2000/svg" width="1000" height="150">
<path d="M0 0 C1.71388916 0.01353516 1.71388916 0.01353516 3.46240234 0.02734375 C12.01199353 0.202695 19.19664816 1.04100947 27.125 4.4375 C27.76050781 4.70062988 28.39601563 4.96375977 29.05078125 5.23486328 C39.46402851 9.63261852 47.32278084 15.31218281 55.125 23.4375 C56.13820312 24.45650391 56.13820312 24.45650391 57.171875 25.49609375 C71.63211963 40.88409744 75.68171435 60.31943495 75.3984375 80.7421875 C74.84093868 97.34019689 68.21520189 113.08755915 57.125 125.4375 C56.39667969 126.25863281 55.66835937 127.07976562 54.91796875 127.92578125 C42.71964575 140.91236422 25.19685172 150.10874163 7.18359375 150.7734375 C-17.05802272 151.10903734 -36.69273843 145.99932333 -54.4453125 128.890625 C-67.55120605 115.56988074 -75.13929139 97.54372743 -75.34375 78.8996582 C-75.3334375 77.819021 -75.323125 76.73838379 -75.3125 75.625 C-75.30347656 74.48571045 -75.29445313 73.3464209 -75.28515625 72.17260742 C-74.86238029 51.54613147 -66.53129121 33.85739941 -51.875 19.4375 C-37.2866615 6.29196421 -19.54597944 -0.18584797 0 0 Z " fill="#F9F5F7" transform="translate(74.875,-0.4375)"/>
<path d="M0 0 C3.45768012 -0.00973652 6.91477214 -0.04087133 10.37231445 -0.07226562 C43.74529347 -0.23264568 43.74529347 -0.23264568 55.53051758 8.24023438 C58.75833931 11.87430369 59.64800414 15.42328528 59.53051758 20.24023438 C58.10651423 25.74638065 55.61255462 28.7114894 51.06958008 31.88476562 C46.1840461 34.49288915 40.86926195 35.8567183 35.53051758 37.24023438 C36.60430664 37.60375 37.6780957 37.96726563 38.78442383 38.34179688 C55.42608294 44.15447115 55.42608294 44.15447115 59.67504883 51.11523438 C61.65669223 56.03767277 61.08421992 61.54655663 59.46801758 66.49023438 C53.30767158 75.23395127 44.76066779 78.18823586 34.59301758 80.42773438 C23.69991099 82.30850969 12.74086753 82.40417217 1.71801758 82.36523438 C0.99294006 82.36434814 0.26786255 82.36346191 -0.47918701 82.36254883 C-16.15432145 82.34029821 -31.80783629 81.86364947 -47.46948242 81.24023438 C-47.13948242 80.25023438 -46.80948242 79.26023437 -46.46948242 78.24023438 C-45.68573242 77.86898437 -44.90198242 77.49773437 -44.09448242 77.11523438 C-38.93929413 73.43295702 -38.39115048 66.30190732 -37.36279297 60.34082031 C-37.01821467 58.13681219 -36.68311093 55.93130737 -36.35620117 53.72460938 C-36.17813431 52.55061584 -36.00006744 51.37662231 -35.81660461 50.16705322 C-35.44533476 47.7002103 -35.0783129 45.23272465 -34.71533203 42.76464844 C-34.15631453 38.98571946 -33.57431927 35.21078633 -32.9909668 31.43554688 C-32.63214432 29.03210973 -32.27467505 26.62847008 -31.91870117 24.22460938 C-31.65484871 22.53389313 -31.65484871 22.53389313 -31.38566589 20.809021 C-31.23503189 19.75732727 -31.08439789 18.70563354 -30.92919922 17.62207031 C-30.79168747 16.70101501 -30.65417572 15.77995972 -30.51249695 14.83099365 C-30.46198951 11.78893707 -31.0469905 9.91835006 -32.46948242 7.24023438 C-34.99321143 5.87945402 -34.99321143 5.87945402 -37.46948242 5.24023438 C-37.46948242 3.92023437 -37.46948242 2.60023437 -37.46948242 1.24023438 C-24.98878556 0.13426845 -12.52319576 0.02128136 0 0 Z M2.53051758 6.24023438 C1.86871106 9.05106719 1.86871106 9.05106719 1.46020508 12.46289062 C1.28618164 13.72294922 1.1121582 14.98300781 0.93286133 16.28125 C0.75688481 17.62171917 0.58110614 18.96221433 0.40551758 20.30273438 C0.22275549 21.64724873 0.03917227 22.99165174 -0.14526367 24.3359375 C-0.59478356 27.63635987 -1.03579405 30.93770054 -1.46948242 34.24023438 C5.92781088 35.48959497 11.19556874 35.00209414 17.84301758 31.49023438 C21.56844639 28.37127071 24.08981926 25.76910137 24.94848633 20.84179688 C25.188942 16.51359478 25.05619253 13.24332102 22.34301758 9.74023438 C17.2488831 5.21211484 13.34806347 5.02271154 6.73754883 5.07226562 C4.48887046 5.10353757 4.48887046 5.10353757 2.53051758 6.24023438 Z M-2.46948242 40.24023438 C-3.17228323 44.61291859 -3.8540126 48.98863712 -4.53198242 53.36523438 C-4.73114258 54.60273437 -4.93030273 55.84023437 -5.13549805 57.11523438 C-5.31918945 58.3140625 -5.50288086 59.51289062 -5.69213867 60.74804688 C-5.86495361 61.84777832 -6.03776855 62.94750977 -6.21582031 64.08056641 C-6.48036779 67.37582473 -6.2471963 70.03256202 -5.46948242 73.24023438 C-3.34499576 75.50348255 -2.00788761 76.14743472 1.04614258 76.67382812 C8.42766977 76.68437316 13.87657948 75.75056792 19.31958008 70.52148438 C24.11992321 65.15238021 24.82998546 61.03702552 24.74536133 53.90039062 C24.36670785 49.21197209 22.5139125 47.14599286 19.15551758 44.05273438 C14.14066919 40.59010096 10.29773512 40.00159479 4.21801758 40.11523438 C2.96375977 40.13328125 1.70950195 40.15132812 0.41723633 40.16992188 C-1.01168945 40.20472656 -1.01168945 40.20472656 -2.46948242 40.24023438 Z " fill="#D02A3A" transform="translate(211.469482421875,34.759765625)"/>
<path d="M0 0 C1.71388916 0.01353516 1.71388916 0.01353516 3.46240234 0.02734375 C12.01199353 0.202695 19.19664816 1.04100947 27.125 4.4375 C27.76050781 4.70062988 28.39601563 4.96375977 29.05078125 5.23486328 C39.46402851 9.63261852 47.32278084 15.31218281 55.125 23.4375 C56.13820312 24.45650391 56.13820312 24.45650391 57.171875 25.49609375 C71.63211963 40.88409744 75.68171435 60.31943495 75.3984375 80.7421875 C74.84093868 97.34019689 68.21520189 113.08755915 57.125 125.4375 C56.39667969 126.25863281 55.66835937 127.07976562 54.91796875 127.92578125 C42.71964575 140.91236422 25.19685172 150.10874163 7.18359375 150.7734375 C-17.05802272 151.10903734 -36.69273843 145.99932333 -54.4453125 128.890625 C-67.55120605 115.56988074 -75.13929139 97.54372743 -75.34375 78.8996582 C-75.3334375 77.819021 -75.323125 76.73838379 -75.3125 75.625 C-75.30347656 74.48571045 -75.29445313 73.3464209 -75.28515625 72.17260742 C-74.86238029 51.54613147 -66.53129121 33.85739941 -51.875 19.4375 C-37.2866615 6.29196421 -19.54597944 -0.18584797 0 0 Z M-36.875 14.4375 C-36.875 14.7675 -36.875 15.0975 -36.875 15.4375 C-29.945 15.9325 -29.945 15.9325 -22.875 16.4375 C-22.875 16.7675 -22.875 17.0975 -22.875 17.4375 C-23.49246094 17.41429687 -24.10992187 17.39109375 -24.74609375 17.3671875 C-36.10968653 17.12504093 -44.0101712 19.32017478 -52.6328125 27.00390625 C-54.09328405 28.37326939 -54.09328405 28.37326939 -53.875 30.4375 C-52.885 30.7675 -51.895 31.0975 -50.875 31.4375 C-47.69024304 37.80701392 -48.6926322 47.01508059 -48.6875 54 C-48.67525391 54.88107422 -48.66300781 55.76214844 -48.65039062 56.66992188 C-48.63735742 62.55658601 -49.41000818 67.73387571 -50.875 73.4375 C-49.99183105 73.19978882 -49.99183105 73.19978882 -49.09082031 72.95727539 C-45.95253774 72.22111369 -42.83894748 72.08331141 -39.625 71.875 C-38.36171875 71.79121094 -37.0984375 71.70742187 -35.796875 71.62109375 C-34.83265625 71.56050781 -33.8684375 71.49992187 -32.875 71.4375 C-33.205 68.4675 -33.535 65.4975 -33.875 62.4375 C-27.01666408 63.4926286 -22.30274917 64.89453222 -17.875 70.4375 C-12.06836992 80.38732236 -9.0040944 91.85264835 -11.4921875 103.26953125 C-13.62364848 110.16377008 -16.73811863 114.57739006 -22.875 118.4375 C-28.39441398 120.70440217 -34.23273971 121.62460706 -39.984375 119.75 C-45.65690074 117.19096583 -49.29732583 113.78106209 -51.98828125 108.078125 C-53.93140163 102.29156386 -53.59051529 95.77392139 -51.6875 90 C-49.79305084 86.27642752 -48.36747566 84.65224066 -44.875 82.4375 C-44.276875 82.025 -43.67875 81.6125 -43.0625 81.1875 C-38.00790023 79.45449437 -33.43344501 79.90976178 -28.625 82 C-24.53790859 84.29295483 -22.31709609 86.97516493 -20.875 91.4375 C-19.90604926 97.09528132 -21.14810831 101.47066157 -23.875 106.4375 C-25.77811968 108.70660423 -27.04779087 109.31334103 -29.95703125 109.75 C-33.95460075 109.96214299 -36.29144911 109.77273136 -39.8125 107.75 C-42.49409627 104.74336176 -43.87930358 102.59359357 -43.87109375 98.48046875 C-43.59997793 95.37128941 -43.03564751 92.81549415 -41.8125 89.9375 C-38.67301475 87.50693078 -35.75965039 88.18276883 -31.875 88.4375 C-31.875 88.7675 -31.875 89.0975 -31.875 89.4375 C-32.7825 89.334375 -33.69 89.23125 -34.625 89.125 C-37.99817521 89.12549107 -37.99817521 89.12549107 -40.25 91.5625 C-42.1811052 94.97907074 -42.50604437 96.57235325 -41.875 100.4375 C-39.5991177 104.66231746 -39.5991177 104.66231746 -35.875 107.4375 C-32.50142666 107.93820321 -32.50142666 107.93820321 -28.875 107.4375 C-25.71545695 104.89612841 -24.15959114 103.29127341 -22.875 99.4375 C-22.47990277 94.20246164 -22.94119149 90.83821276 -25.875 86.4375 C-29.89437829 82.80091964 -33.31821427 81.67087838 -38.625 81.921875 C-42.71511559 82.85919316 -45.28137478 85.23230974 -47.875 88.4375 C-50.57142143 93.71310715 -50.92079144 99.94317889 -49.22265625 105.6171875 C-46.96722884 110.74755887 -43.78081984 113.78539786 -38.875 116.4375 C-34.52902177 117.88615941 -30.27124753 118.32643053 -25.9375 116.71875 C-20.71444072 113.92711487 -17.02338511 109.93590934 -14.875 104.4375 C-13.60566229 92.03486886 -13.60566229 92.03486886 -18.2421875 80.94921875 C-25.2899718 74.42411702 -31.90378976 73.00428282 -41.359375 73.1015625 C-48.29223424 73.76403572 -52.03911313 77.36051422 -56.6875 82.25 C-62.0732006 88.85301649 -63.475829 94.85333749 -63.21875 103.34765625 C-62.23282199 112.20980459 -58.68611994 119.61509102 -51.875 125.4375 C-43.7924794 130.54850568 -35.28003685 131.58853721 -25.875 130.4375 C-20.62459541 128.94584659 -15.74976641 126.8748832 -10.875 124.4375 C-10.875 125.0975 -10.875 125.7575 -10.875 126.4375 C-12.855 127.4275 -12.855 127.4275 -14.875 128.4375 C-14.875 129.4275 -14.875 130.4175 -14.875 131.4375 C-14.215 131.4375 -13.555 131.4375 -12.875 131.4375 C-13.205 132.4275 -13.535 133.4175 -13.875 134.4375 C-23.13292264 134.74762892 -31.08348403 134.72579958 -39.875 131.4375 C-41.20390883 131.08694301 -42.53618402 130.74808118 -43.875 130.4375 C-40.0828588 134.63960241 -36.32916989 137.11331319 -31.25 139.5625 C-30.53489258 139.90796875 -29.81978516 140.2534375 -29.08300781 140.609375 C-11.3402007 148.9814875 7.36381735 148.32381899 25.86083984 142.27197266 C35.60383256 138.68112199 43.78918298 132.73450318 51.125 125.4375 C50.465 125.1075 49.805 124.7775 49.125 124.4375 C47.76375 125.118125 47.76375 125.118125 46.375 125.8125 C43.18138354 127.40930823 40.643386 128.01864452 37.125 128.4375 C36.63 124.4775 36.63 124.4775 36.125 120.4375 C36.785 120.7675 37.445 121.0975 38.125 121.4375 C46.13126708 122.12769544 50.73030166 119.74589487 57.25 115.3125 C65.96000254 107.54923687 70.19017728 94.73036531 71.125 83.4375 C71.2706559 80.56054936 71.3099098 77.6928068 71.3125 74.8125 C71.32474609 74.08804688 71.33699219 73.36359375 71.34960938 72.6171875 C71.3617074 68.16511377 70.79956436 64.63383916 69.125 60.4375 C68.795 60.4375 68.465 60.4375 68.125 60.4375 C68.02703125 59.5196875 67.9290625 58.601875 67.828125 57.65625 C66.20609598 44.34442564 62.67585663 37.07258026 52.125 28.4375 C45.86154103 24.04526281 40.95960527 22.71981987 33.375 23.0625 C32.48192139 23.08320557 31.58884277 23.10391113 30.66870117 23.12524414 C27.81904711 23.20059497 24.97304277 23.31625571 22.125 23.4375 C20.13672888 23.50680155 18.14844759 23.57581225 16.16015625 23.64453125 C12.49784471 23.78671511 8.83614564 23.93503348 5.17578125 24.12109375 C4.07230347 24.17608032 4.07230347 24.17608032 2.9465332 24.23217773 C1.02792497 24.34261485 1.02792497 24.34261485 -0.875 25.4375 C-1.37 24.261875 -1.865 23.08625 -2.375 21.875 C-4.5395915 17.46738977 -7.47062471 14.82531159 -11.265625 11.78515625 C-11.79671875 11.34042969 -12.3278125 10.89570313 -12.875 10.4375 C-12.875 10.1075 -12.875 9.7775 -12.875 9.4375 C-11.10450311 9.38339313 -9.33353151 9.34465881 -7.5625 9.3125 C-6.57636719 9.28929687 -5.59023437 9.26609375 -4.57421875 9.2421875 C-1.875 9.4375 -1.875 9.4375 1.125 11.4375 C1.62 12.9225 1.62 12.9225 2.125 14.4375 C0.805 13.7775 -0.515 13.1175 -1.875 12.4375 C-1.60843428 15.37193402 -1.60843428 15.37193402 -0.875 18.4375 C3.19349409 21.14982939 5.28976784 20.74449887 10.125 20.4375 C12.42426298 18.56703174 12.42426298 18.56703174 12.375 15.5625 C12.13652253 12.58153168 11.67007335 10.9482442 10.125 8.4375 C16.875 11.0625 16.875 11.0625 19.125 14.4375 C19.51513716 16.4271995 19.85702649 18.42769869 20.125 20.4375 C21.66607422 20.38529297 21.66607422 20.38529297 23.23828125 20.33203125 C31.70047116 20.13561678 39.04447163 20.56137973 47.125 23.4375 C45.19788917 17.65616752 38.52996933 14.69548396 33.33203125 11.9765625 C9.94151235 1.08957909 -14.3791609 1.65577324 -36.875 14.4375 Z " fill="#FAF9FB" transform="translate(74.875,-0.4375)"/>
<path d="M0 0 C5.25524472 4.44609035 9.00652604 8.12258563 9.71484375 15.21484375 C9.90623411 20.18536389 9.92303631 24.03572637 7.84765625 28.6015625 C4.88915248 31.71178441 1.77326374 34.50002791 -1.58984375 37.1640625 C-1.16574219 37.53015625 -0.74164063 37.89625 -0.3046875 38.2734375 C7.65980741 45.62527895 13.80216955 55.38569292 14.65625 66.3125 C15.04021668 77.04029629 12.99314778 85.99227999 6.0859375 94.390625 C-2.0397885 102.98987816 -12.53411214 107.38316609 -24.33984375 107.7265625 C-33.69994112 107.36100885 -40.01316984 104.49563958 -46.86328125 98.1640625 C-52.70741672 91.39438522 -53.97504772 82.972032 -53.859375 74.328125 C-53.15468845 66.0557177 -49.65173014 60.54390781 -43.78515625 54.85546875 C-36.76944474 49.45012518 -30.16660118 49.28188174 -21.58984375 50.1640625 C-15.20829285 52.01004767 -10.92959514 56.04439398 -6.984375 61.3046875 C-5.16901589 65.02693644 -5.05567219 68.41724764 -5.08984375 72.4765625 C-5.09411377 73.23477295 -5.09838379 73.9929834 -5.1027832 74.77416992 C-5.28259892 80.66869436 -6.32979892 84.86919442 -10.58984375 89.1640625 C-14.96490574 93.22662006 -18.37068203 94.53411921 -24.3984375 94.4453125 C-29.51031146 93.78924312 -33.41892121 91.36579879 -36.96484375 87.7265625 C-40.46514964 82.20684937 -41.28993812 77.63160095 -40.58984375 71.1640625 C-38.89139481 65.50256602 -36.66365286 62.26472362 -31.58984375 59.1640625 C-26.89059257 58.20400043 -23.52573836 58.71344657 -19.21484375 60.7890625 C-15.26777458 64.36022032 -13.82270203 67.33446172 -13.15234375 72.6015625 C-13.70704572 77.11842141 -15.04000137 79.4142943 -17.58984375 83.1640625 C-20.72855563 84.73341844 -23.12840197 84.51607353 -26.58984375 84.1640625 C-30.19505966 81.18584066 -32.38112842 79.04250044 -32.90234375 74.3515625 C-32.50683112 70.31733365 -31.63940564 68.82265492 -28.58984375 66.1640625 C-24.83984375 65.8515625 -24.83984375 65.8515625 -21.58984375 66.1640625 C-22.81305997 64.72485349 -22.81305997 64.72485349 -26.46484375 64.8515625 C-29.76960033 64.90357427 -29.76960033 64.90357427 -32.52734375 66.6640625 C-34.63825499 71.63091248 -35.20276699 75.45432924 -33.40234375 80.4765625 C-31.07176349 83.99653945 -31.07176349 83.99653945 -27.58984375 86.1640625 C-23.06242393 86.85209441 -19.69770835 86.77692377 -15.65234375 84.5390625 C-11.99796382 80.33098865 -11.04429864 75.80728153 -11.21484375 70.25390625 C-11.93682843 66.23034577 -13.86192527 63.16063962 -16.58984375 60.1640625 C-21.3050176 57.31716508 -26.12711989 56.052824 -31.58984375 57.1640625 C-36.61515602 59.35250494 -40.35192498 62.03001355 -42.58984375 67.1640625 C-44.46676328 73.4249298 -44.7167317 80.53286722 -41.96484375 86.5390625 C-39.297513 91.13855864 -35.87125712 93.90328143 -31.21484375 96.4765625 C-24.4967372 98.2360666 -18.65852022 97.35042169 -12.58984375 94.1640625 C-6.76349959 90.67537577 -4.25669402 86.44131917 -2.24609375 80.01953125 C0.25210621 69.14938738 -2.4533584 57.51392129 -8.21875 48.0703125 C-12.59536356 41.98544806 -17.35984828 40.36906174 -24.58984375 39.1640625 C-24.25984375 42.1340625 -23.92984375 45.1040625 -23.58984375 48.1640625 C-24.5540625 48.22464844 -25.51828125 48.28523438 -26.51171875 48.34765625 C-27.775 48.43144531 -29.03828125 48.51523438 -30.33984375 48.6015625 C-31.5928125 48.68277344 -32.84578125 48.76398438 -34.13671875 48.84765625 C-36.7953083 49.09126004 -39.0391932 49.47753683 -41.58984375 50.1640625 C-41.26371094 48.89433594 -40.93757813 47.62460938 -40.6015625 46.31640625 C-39.44047811 41.07666706 -39.32801384 36.07440428 -39.40234375 30.7265625 C-39.40298828 29.84935547 -39.40363281 28.97214844 -39.40429688 28.06835938 C-39.09734144 17.83595611 -39.09734144 17.83595611 -41.58984375 8.1640625 C-42.57984375 7.8340625 -43.56984375 7.5040625 -44.58984375 7.1640625 C-43.18828616 3.82633257 -41.63887515 2.14657193 -38.71484375 0.0390625 C-38.03679688 -0.45851563 -37.35875 -0.95609375 -36.66015625 -1.46875 C-25.73093045 -8.68616327 -10.50188671 -7.4447764 0 0 Z " fill="#CF2435" transform="translate(65.58984375,22.8359375)"/>
<path d="M0 0 C2.27891579 -0.00219291 4.55735015 -0.02047332 6.83618164 -0.03930664 C14.46635989 -0.0687569 21.9732107 0.20494895 29.55688477 1.08374023 C30.2418956 1.16304276 30.92690643 1.24234528 31.63267517 1.3240509 C40.55118713 2.46722389 49.02027048 4.52669559 55.34594727 11.18530273 C58.42180408 16.11524746 58.02284189 21.58291955 57.34594727 27.18530273 C55.00490809 34.02659197 49.64508815 38.06352262 43.34594727 41.18530273 C32.31664543 45.45779218 21.99125415 46.35371887 10.28344727 46.24780273 C8.84195313 46.24103516 8.84195313 46.24103516 7.37133789 46.23413086 C5.02947305 46.22247979 2.68774545 46.20612299 0.34594727 46.18530273 C-2.17479071 60.73692965 -2.17479071 60.73692965 -1.65405273 75.18530273 C0.71864467 77.19394632 0.71864467 77.19394632 3.34594727 78.18530273 C3.34594727 79.17530273 3.34594727 80.16530273 3.34594727 81.18530273 C-12.16405273 81.18530273 -27.67405273 81.18530273 -43.65405273 81.18530273 C-43.65405273 80.19530273 -43.65405273 79.20530273 -43.65405273 78.18530273 C-42.72592773 77.93780273 -41.79780273 77.69030273 -40.84155273 77.43530273 C-34.95530301 73.28030293 -34.94136725 64.93873181 -33.76269531 58.14624023 C-32.94810037 53.30457006 -32.18441816 48.45572445 -31.43701172 43.60327148 C-30.96630465 40.55869813 -30.48157432 37.51657445 -29.99584961 34.47436523 C-29.68966184 32.51095581 -29.38429516 30.54741813 -29.07983398 28.58374023 C-28.93612869 27.68867767 -28.7924234 26.79361511 -28.6443634 25.87142944 C-27.74532155 19.93502576 -27.4889601 14.18603038 -27.65405273 8.18530273 C-29.63405273 7.19530273 -31.61405273 6.20530273 -33.65405273 5.18530273 C-33.65405273 4.19530273 -33.65405273 3.20530273 -33.65405273 2.18530273 C-25.0194069 -2.13202018 -9.63676574 -0.00103144 0 0 Z M6.34594727 6.18530273 C5.62981533 10.52628119 4.91785558 14.86791731 4.2097168 19.21020508 C3.96834402 20.68662892 3.72584167 22.16286857 3.48217773 23.63891602 C3.1316941 25.76327603 2.78530744 27.88827012 2.43969727 30.01342773 C2.23022461 31.29121094 2.02075195 32.56899414 1.80493164 33.88549805 C1.25410188 37.29035027 1.25410188 37.29035027 1.34594727 41.18530273 C7.76075475 41.59475853 14.13478498 40.95236811 19.18188477 36.60327148 C24.36440971 30.80137161 25.82475992 25.56860289 25.65844727 17.84545898 C25.20850181 14.01529832 23.98672986 11.96507389 21.34594727 9.18530273 C17.69338944 6.63700658 14.98691773 6.04377638 10.63891602 6.11499023 C9.83349365 6.1251416 9.02807129 6.13529297 8.19824219 6.14575195 C7.58698486 6.15880371 6.97572754 6.17185547 6.34594727 6.18530273 Z " fill="#D02A3A" transform="translate(680.654052734375,34.814697265625)"/>
<path d="M0 0 C4.26784237 4.61388364 5.23755974 7.99141102 5.16894531 14.26708984 C4.76185711 20.85227098 3.40083416 27.35835715 2.24609375 33.84570312 C2.05917969 34.96525391 1.87226562 36.08480469 1.6796875 37.23828125 C1.50163574 38.24930908 1.32358398 39.26033691 1.14013672 40.30200195 C0.98548891 43.27937645 1.26689938 44.59451103 3 47 C6.04199472 48.29231642 6.04199472 48.29231642 9 49 C8.67 50.32 8.34 51.64 8 53 C2.37362878 54.90069876 -2.64322768 55.3357493 -8.5625 55.3125 C-9.38685547 55.32861328 -10.21121094 55.34472656 -11.06054688 55.36132812 C-16.12115194 55.36537337 -19.62718214 54.82073745 -24 52 C-27.67525709 47.37628947 -27.14514983 43.12188384 -26.52734375 37.5546875 C-25.91921815 33.45547048 -25.1882673 29.38752036 -24.4375 25.3125 C-22.82477441 16.71076034 -22.82477441 16.71076034 -23 8 C-24.40444276 5.6757814 -24.40444276 5.6757814 -27 5 C-32.34980573 5.0972692 -35.17768179 6.32203863 -39 10 C-40.1414389 12.58514438 -40.1414389 12.58514438 -40.625 15.5625 C-40.85058594 16.70074219 -41.07617188 17.83898437 -41.30859375 19.01171875 C-41.54225971 20.34058761 -41.77246636 21.67006742 -42 23 C-42.13680176 23.77553223 -42.27360352 24.55106445 -42.41455078 25.35009766 C-42.85190896 27.85640165 -43.27386288 30.36467578 -43.6875 32.875 C-43.81914551 33.67107666 -43.95079102 34.46715332 -44.08642578 35.28735352 C-44.80151855 39.87963499 -45.41075434 44.34478411 -45 49 C-44.01 49.66 -43.02 50.32 -42 51 C-42 51.99 -42 52.98 -42 54 C-54.54 54 -67.08 54 -80 54 C-80 53.01 -80 52.02 -80 51 C-79.20722656 50.54882812 -78.41445313 50.09765625 -77.59765625 49.6328125 C-74.85909646 48.24809983 -74.85909646 48.24809983 -73.99609375 45.7421875 C-73.81175781 44.79601562 -73.62742187 43.84984375 -73.4375 42.875 C-73.21449219 41.73933594 -72.99148438 40.60367188 -72.76171875 39.43359375 C-72.5052823 37.9561661 -72.25174894 36.4782336 -72 35 C-71.82549316 34.01273926 -71.65098633 33.02547852 -71.47119141 32.00830078 C-70.88243596 28.65374077 -70.31225581 25.29659955 -69.75 21.9375 C-69.46854126 20.27726807 -69.46854126 20.27726807 -69.18139648 18.58349609 C-68.92918335 17.00882568 -68.92918335 17.00882568 -68.671875 15.40234375 C-68.44129395 13.98683228 -68.44129395 13.98683228 -68.20605469 12.54272461 C-68.00111833 10.01380019 -68.11716091 8.36576316 -69 6 C-69.66 5.34 -70.32 4.68 -71 4 C-71 3.01 -71 2.02 -71 1 C-67.06768872 0.42763997 -63.13498705 -0.14194927 -59.2019043 -0.70898438 C-57.86422917 -0.90223474 -56.52666276 -1.09623922 -55.18920898 -1.29101562 C-53.26575068 -1.57099916 -51.34186448 -1.84803815 -49.41796875 -2.125 C-48.26063232 -2.29257812 -47.1032959 -2.46015625 -45.91088867 -2.6328125 C-43 -3 -43 -3 -40 -3 C-40 -1.02 -40 0.96 -40 3 C-39.32195313 2.66226563 -38.64390625 2.32453125 -37.9453125 1.9765625 C-26.72195516 -3.40194393 -11.22337912 -8.05781065 0 0 Z " fill="#D02A3A" transform="translate(618,62)"/>
<path d="M0 0 C19.27178716 -0.90961236 19.27178716 -0.90961236 26.03515625 4.24169922 C27.05996094 5.18335938 27.05996094 5.18335938 28.10546875 6.14404297 C29.31589844 7.19398437 29.31589844 7.19398437 30.55078125 8.26513672 C36.98250487 14.23154271 41.46143393 20.62978913 42.34375 29.55419922 C42.57252885 37.73003269 41.49778964 45.12302941 36.08203125 51.54248047 C29.86833226 57.41686484 23.91137959 59.68922112 15.375 59.45654297 C10.05833161 58.72447159 5.7994805 56.23461158 2.23046875 52.26904297 C-2.28171956 45.63347193 -2.77066381 39.01841954 -1.89453125 31.14404297 C-0.20703125 27.64404297 -0.20703125 27.64404297 2.10546875 25.14404297 C2.82734375 24.36029297 3.54921875 23.57654297 4.29296875 22.76904297 C8.25315729 20.48093403 11.63441397 20.33259927 16.10546875 21.14404297 C19.57415638 23.21049517 21.91438847 25.24596206 23.10546875 29.14404297 C23.56364762 34.82546097 23.17865999 38.17965712 20.10546875 43.14404297 C17.59533912 45.6541726 16.63741638 45.44125906 13.16796875 45.45654297 C12.29269531 45.47330078 11.41742188 45.49005859 10.515625 45.50732422 C8.10546875 45.14404297 8.10546875 45.14404297 6.31640625 43.89794922 C4.0571991 40.62574273 4.47310023 36.94491061 5.10546875 33.14404297 C7.10546875 30.08154297 7.10546875 30.08154297 9.10546875 28.14404297 C11.98046875 28.33154297 11.98046875 28.33154297 15.10546875 29.14404297 C16.48046875 31.70654297 16.48046875 31.70654297 17.10546875 34.14404297 C16.65842889 29.66520601 16.65842889 29.66520601 14.10546875 26.14404297 C9.24778223 26.24747852 9.24778223 26.24747852 5.40234375 28.88623047 C3.88166261 31.53368137 3.73287029 33.11138199 3.79296875 36.14404297 C3.79876953 37.41248047 3.79876953 37.41248047 3.8046875 38.70654297 C4.12429372 41.29659856 4.71637952 42.94506072 6.10546875 45.14404297 C8.43142821 46.3070227 9.89270106 46.31004988 12.48046875 46.33154297 C13.25132813 46.34572266 14.0221875 46.35990234 14.81640625 46.37451172 C17.40666117 46.11371813 18.92579438 45.56037146 21.10546875 44.14404297 C24.9226567 39.44324669 25.8474469 33.94229535 25.625 28.02685547 C24.46344006 21.58150784 21.12632596 16.11678453 16.48046875 11.58154297 C15.69671875 11.10716797 14.91296875 10.63279297 14.10546875 10.14404297 C13.50734375 9.73154297 12.90921875 9.31904297 12.29296875 8.89404297 C8.89236979 7.72812332 5.65193097 7.53961512 2.10546875 8.14404297 C-0.86311282 10.35144977 -1.72318916 11.6300167 -2.89453125 15.14404297 C-2.99772391 16.97085803 -3.04304722 18.80117557 -3.05566406 20.63085938 C-3.06527161 21.75698639 -3.07487915 22.8831134 -3.08477783 24.04336548 C-3.08902771 25.26510468 -3.09327759 26.48684387 -3.09765625 27.74560547 C-3.10620636 29.6431105 -3.10620636 29.6431105 -3.1149292 31.57894897 C-3.12439096 34.26735012 -3.13127978 36.95563944 -3.13476562 39.64404297 C-3.13911453 42.36911678 -3.15286217 45.0938676 -3.17578125 47.81884766 C-3.29749893 62.56495024 -3.3367581 76.74217094 0.10546875 91.14404297 C0.31679443 92.13428467 0.52812012 93.12452637 0.74584961 94.14477539 C1.17411188 96.15002125 1.63380889 98.14855894 2.10546875 100.14404297 C0.62046875 99.64904297 0.62046875 99.64904297 -0.89453125 99.14404297 C-2.9961654 99.0233884 -5.10197158 98.96868287 -7.20703125 98.95654297 C-8.31691406 98.94236328 -9.42679688 98.92818359 -10.5703125 98.91357422 C-13.99071485 99.1507114 -16.70426568 99.92295796 -19.89453125 101.14404297 C-19.8287085 100.48436523 -19.76288574 99.8246875 -19.69506836 99.14501953 C-16.55773214 66.29691303 -17.75363145 33.59636665 -23.89453125 1.14404297 C-17.89992401 0.80392341 -11.90565965 0.51012212 -5.90625 0.26855469 C-3.93714794 0.18714726 -1.96834839 0.09795256 0 0 Z " fill="#CF2435" transform="translate(99.89453125,22.85595703125)"/>
<path d="M0 0 C1.48935059 -0.02066528 1.48935059 -0.02066528 3.00878906 -0.04174805 C11.05558437 0.00829421 21.44888756 0.83765877 27.75 6.375 C32.60191154 13.17088934 32.40325712 19.90905906 31.09375 27.91015625 C30.82006074 29.42066033 30.53878962 30.92981006 30.25 32.4375 C27.96701765 42.10058522 27.96701765 42.10058522 29.9375 51.25 C32.1228111 52.60639999 34.32647695 53.5234919 36.75 54.375 C36.42 55.365 36.09 56.355 35.75 57.375 C30.12062916 59.61625417 24.68989815 59.70978062 18.6875 59.6875 C17.81544922 59.70361328 16.94339844 59.71972656 16.04492188 59.73632812 C10.74489311 59.74034026 7.45172438 59.02277643 2.75 56.375 C-0.80642892 56.375 -2.08746377 56.56891541 -5.1875 57.8125 C-14.18904101 60.92158489 -24.16930337 61.41834942 -33.25 58.375 C-38.13380263 55.88870048 -40.45001413 53.57495917 -42.25 48.375 C-42.9546477 42.13383462 -42.09945424 37.44449984 -38.25 32.375 C-27.13775195 21.5617362 -9.75357511 21.68724058 4.75 21.375 C4.77715383 19.62508666 4.79646551 17.87505055 4.8125 16.125 C4.82410156 15.15046875 4.83570313 14.1759375 4.84765625 13.171875 C4.76195577 10.71741322 4.45706066 8.71331086 3.75 6.375 C-3.15030995 5.17933043 -9.00977078 4.83639803 -15.25 8.375 C-17.96594028 10.67773223 -20.50080546 13.06181526 -22.98828125 15.609375 C-23.73464844 16.19203125 -24.48101563 16.7746875 -25.25 17.375 C-26.57 17.045 -27.89 16.715 -29.25 16.375 C-29.91 13.075 -30.57 9.775 -31.25 6.375 C-22.45985632 -0.21760776 -10.61854619 0.08128952 0 0 Z M-13.0625 32.375 C-15.94031759 36.32172126 -16.42230123 39.04050069 -16.5 43.8125 C-16.52578125 44.75996094 -16.5515625 45.70742187 -16.578125 46.68359375 C-16.19537137 49.82308486 -15.47940432 51.15589316 -13.25 53.375 C-9.28880351 53.97291645 -6.75484752 53.55946352 -3 52.1875 C3.18354948 45.86341531 3.19269404 34.88832905 3.75 26.375 C-3.36378824 26.00704544 -8.16997641 26.75558719 -13.0625 32.375 Z " fill="#D12E3E" transform="translate(950.25,57.625)"/>
<path d="M0 0 C1.38264038 0.00241699 1.38264038 0.00241699 2.79321289 0.00488281 C12.82840933 0.18561735 22.03420908 2.62254765 29.24609375 10.04296875 C35.21406954 16.75515255 36.17228697 21.65048999 35.94140625 30.66796875 C35.53432688 35.43733077 34.41161879 38.53995038 31.625 42.375 C30.573125 43.921875 30.573125 43.921875 29.5 45.5 C22.50586975 53.29951495 11.33071826 57.74103154 1.05517578 58.58642578 C-1.81991045 58.72624608 -4.68415467 58.78983966 -7.5625 58.8125 C-8.47676758 58.82265137 -9.39103516 58.83280273 -10.33300781 58.84326172 C-20.73114098 58.71024056 -30.46030446 55.98738888 -38.1328125 48.70703125 C-43.55357493 42.77561729 -44.8672687 37.20204476 -44.68359375 29.25 C-43.91307108 22.07145972 -41.04600702 15.91253225 -35.6875 11.0390625 C-24.7468303 3.16621572 -13.31995717 -0.02432203 0 0 Z M-11.375 10.375 C-17.06758754 20.37692951 -19.56972705 35.3397733 -16.83984375 46.578125 C-15.45703769 50.17493203 -13.87939691 52.7201459 -10.375 54.375 C-5.9950155 55.02388659 -3.99275558 54.75049849 -0.1875 52.4375 C6.8414609 45.76467312 8.46100903 35.18795018 8.84765625 25.94921875 C8.88490915 24.34129848 8.91480146 22.73319158 8.9375 21.125 C8.95522461 20.35615479 8.97294922 19.58730957 8.99121094 18.79516602 C8.98361258 12.96406321 7.89271328 8.64271328 3.625 4.375 C-3.27058505 3.44000542 -7.04043078 4.86028089 -11.375 10.375 Z " fill="#D02C3C" transform="translate(318.375,58.625)"/>
<path d="M0 0 C0.87954346 0.00563965 1.75908691 0.0112793 2.6652832 0.01708984 C12.97505633 0.21029647 21.09485495 2.50046759 29.0625 9.3125 C35.07095976 15.97734612 36.41735226 21.0043106 36.34765625 29.9453125 C35.7523792 36.97447433 32.64949755 42.08084333 28.0625 47.3125 C17.41016967 55.8663746 6.27365586 58.63450401 -7.125 58.75 C-8.49652222 58.7653479 -8.49652222 58.7653479 -9.89575195 58.78100586 C-20.25548793 58.64753057 -30.10816732 55.96047566 -37.6953125 48.609375 C-43.3007629 42.38109678 -44.4740436 37.00014615 -44.3046875 28.6640625 C-43.37570731 20.18464754 -38.92071224 14.37801505 -32.4609375 9.06640625 C-22.57815989 2.19741686 -11.84626989 -0.07963497 0 0 Z M-9.9375 9.3125 C-16.55047501 19.18438716 -18.12643974 32.72430063 -16.9375 44.3125 C-16.08119118 47.68530819 -14.56610622 50.28687932 -12.75 53.25 C-9.5925936 55.10089341 -6.41556324 54.98567353 -2.9375 54.3125 C3.1833546 50.78123773 5.0893952 45.9242983 7.0625 39.3125 C9.52755841 30.110549 11.34259658 18.05712506 7.75 9 C6.18301513 6.09696113 6.18301513 6.09696113 3.0625 4.3125 C-3.29821083 3.59435523 -5.91291822 3.94639096 -9.9375 9.3125 Z " fill="#D02B3C" transform="translate(506.9375,58.6875)"/>
<path d="M0 0 C0.6084375 0.56074219 1.216875 1.12148438 1.84375 1.69921875 C1.84375 2.35921875 1.84375 3.01921875 1.84375 3.69921875 C1.2353125 3.48265625 0.626875 3.26609375 0 3.04296875 C-8.47899949 0.3496395 -16.37184631 0.40162916 -25.15625 0.69921875 C-25.45917969 -0.41839844 -25.76210937 -1.53601563 -26.07421875 -2.6875 C-27.22879007 -6.70233274 -27.22879007 -6.70233274 -30.15625 -9.30078125 C-32.75540538 -10.49106109 -32.75540538 -10.49106109 -35.15625 -11.30078125 C-34.66125 -10.49640625 -34.66125 -10.49640625 -34.15625 -9.67578125 C-32.90660402 -6.70787205 -32.87868416 -4.49278846 -33.15625 -1.30078125 C-35.15625 0.69921875 -35.15625 0.69921875 -39.03125 1.07421875 C-42.15276532 0.99461727 -43.03888293 0.77937187 -45.71875 -1.05078125 C-47.15625 -3.30078125 -47.15625 -3.30078125 -46.90625 -5.55078125 C-46.65875 -6.12828125 -46.41125 -6.70578125 -46.15625 -7.30078125 C-45.16625 -6.64078125 -44.17625 -5.98078125 -43.15625 -5.30078125 C-44.4652072 -8.42275603 -44.4652072 -8.42275603 -47.15625 -10.30078125 C-49.03004605 -10.37111894 -50.90626102 -10.38508345 -52.78125 -10.36328125 C-54.28558594 -10.34974609 -54.28558594 -10.34974609 -55.8203125 -10.3359375 C-56.97660156 -10.31853516 -56.97660156 -10.31853516 -58.15625 -10.30078125 C-57.455 -9.64078125 -56.75375 -8.98078125 -56.03125 -8.30078125 C-51.82477494 -4.10629045 -48.44264758 0.76962239 -45.15625 5.69921875 C-44.49625 6.35921875 -43.83625 7.01921875 -43.15625 7.69921875 C-36.3027987 30.4184098 -29.13140789 82.64953454 -40.15625 104.69921875 C-39.33125 104.20421875 -38.50625 103.70921875 -37.65625 103.19921875 C-33.22812141 101.30144936 -30.93533234 101.08256296 -26.15625 101.69921875 C-22.78956712 104.47673213 -22.22289984 106.04382865 -21.78125 110.38671875 C-22.15625 113.69921875 -22.15625 113.69921875 -24.15625 115.69921875 C-27.15625 115.51171875 -27.15625 115.51171875 -30.15625 114.69921875 C-30.81625 113.70921875 -31.47625 112.71921875 -32.15625 111.69921875 C-31.16625 111.69921875 -30.17625 111.69921875 -29.15625 111.69921875 C-29.15625 110.37921875 -29.15625 109.05921875 -29.15625 107.69921875 C-31.13625 108.68921875 -31.13625 108.68921875 -33.15625 109.69921875 C-32.81180119 112.1718864 -32.81180119 112.1718864 -32.15625 114.69921875 C-28.68745524 116.43361613 -24.94892767 116.17170721 -21.15625 115.69921875 C-17.77002224 114.02602125 -17.77002224 114.02602125 -15.15625 111.69921875 C-14.29 111.01859375 -14.29 111.01859375 -13.40625 110.32421875 C-11.61598282 107.99687141 -10.96404595 105.4954355 -10.15625 102.69921875 C-9.49625 103.02921875 -8.83625 103.35921875 -8.15625 103.69921875 C-8.15625 105.34921875 -8.15625 106.99921875 -8.15625 108.69921875 C-3.4022633 107.55170472 1.22267907 106.31659358 5.84375 104.69921875 C-4.24443712 118.48640781 -20.93596167 124.05213758 -37.15625 126.69921875 C-54.22562661 128.52695701 -69.69370426 125.26797322 -84.15625 115.69921875 C-85.86654179 114.07735021 -87.546643 112.42105523 -89.15625 110.69921875 C-88.56457031 110.90417969 -87.97289062 111.10914063 -87.36328125 111.3203125 C-86.57308594 111.58972656 -85.78289062 111.85914063 -84.96875 112.13671875 C-84.19144531 112.40355469 -83.41414063 112.67039062 -82.61328125 112.9453125 C-77.30983001 114.57260358 -72.37035426 114.82592416 -66.84375 114.76171875 C-65.73290039 114.75495117 -65.73290039 114.75495117 -64.59960938 114.74804688 C-62.78512101 114.7363405 -60.97067466 114.71840773 -59.15625 114.69921875 C-58.82625 113.70921875 -58.49625 112.71921875 -58.15625 111.69921875 C-59.14625 111.69921875 -60.13625 111.69921875 -61.15625 111.69921875 C-60.34375 109.76171875 -60.34375 109.76171875 -59.15625 107.69921875 C-57.67125 107.20421875 -57.67125 107.20421875 -56.15625 106.69921875 C-55.888125 105.95671875 -55.62 105.21421875 -55.34375 104.44921875 C-54.00689456 101.353343 -52.35456886 100.23513659 -49.74609375 98.20703125 C-43.12934668 91.93168882 -41.07611 82.69039096 -40.78125 73.94921875 C-41.03547137 59.83245537 -48.19407766 50.01929598 -57.15625 39.69921875 C-56.24875 39.14234375 -55.34125 38.58546875 -54.40625 38.01171875 C-50.73221747 35.3975033 -48.17701161 32.74074197 -46.15625 28.69921875 C-45.45587543 21.63544093 -45.15421264 15.27007286 -49.54296875 9.41015625 C-54.72787361 3.91139517 -60.11092226 1.17126357 -67.15625 -1.30078125 C-67.48625 -1.96078125 -67.81625 -2.62078125 -68.15625 -3.30078125 C-71.43180608 -3.77079158 -71.43180608 -3.77079158 -75.21875 -3.92578125 C-77.15427734 -4.03792969 -77.15427734 -4.03792969 -79.12890625 -4.15234375 C-80.62744141 -4.22582031 -80.62744141 -4.22582031 -82.15625 -4.30078125 C-59.24484558 -24.20532853 -22.1622565 -16.58910082 0 0 Z " fill="#F5F1F4" transform="translate(120.15625,19.30078125)"/>
<path d="M0 0 C1.16466797 -0.020625 2.32933594 -0.04125 3.52929688 -0.0625 C11.83556717 -0.09951959 20.37346095 0.46798047 27.9375 4.25 C27.57245936 9.91442374 26.8820679 14.25703705 23.9375 19.25 C22.9475 19.25 21.9575 19.25 20.9375 19.25 C17.0625 12.625 17.0625 12.625 15.9375 9.25 C14.15521064 8.10790183 14.15521064 8.10790183 11.9375 7.25 C11.17953125 6.90710938 10.4215625 6.56421875 9.640625 6.2109375 C4.17175118 4.26680028 -1.83840001 4.42141373 -7.25 6.4375 C-9.33201575 8.14450772 -9.33201575 8.14450772 -9.375 10.9375 C-9.2203125 12.0821875 -9.2203125 12.0821875 -9.0625 13.25 C-3.72423217 16.3166645 1.54006079 18.06503536 7.4375 19.6875 C15.97077295 22.07846981 22.77933957 24.61592256 27.9375 32.25 C29.73426606 35.84353212 29.48242322 39.51675023 28.2890625 43.3125 C25.59096916 49.40050549 21.79350115 52.64445248 15.6953125 55.18359375 C-0.99039305 61.05449015 -22.52894565 60.39680311 -39.0625 54.25 C-40.0525 53.59 -41.0425 52.93 -42.0625 52.25 C-41.79085443 46.13797464 -41.15234255 41.94128998 -37.0625 37.25 C-36.0725 37.25 -35.0825 37.25 -34.0625 37.25 C-32.73828125 39.26171875 -32.73828125 39.26171875 -31.375 41.9375 C-27.8722904 48.11978244 -23.72690636 51.02853121 -17.0625 53.25 C-14.9408532 53.39554833 -12.81393294 53.47080412 -10.6875 53.5 C-9.56601562 53.52578125 -8.44453125 53.5515625 -7.2890625 53.578125 C-3.73199 53.21638881 -1.88049568 52.41649576 0.9375 50.25 C1.85441437 47.79459933 1.85441437 47.79459933 0.9375 45.25 C-4.70692016 40.65527625 -11.30115707 39.08535035 -18.1875 37.0703125 C-25.68903573 34.73554057 -31.929412 31.74050763 -36.125 24.875 C-37.49647732 19.57195435 -37.5575439 15.81493468 -34.8125 11.10546875 C-26.40430284 0.21119406 -12.64572288 0.05471378 0 0 Z " fill="#D12F3F" transform="translate(394.0625,58.75)"/>
<path d="M0 0 C7.80575195 -0.02312792 15.61149595 -0.04091738 23.41727352 -0.05181217 C27.0414596 -0.05704002 30.6656223 -0.06413587 34.28979492 -0.07543945 C37.78459975 -0.08627184 41.27938204 -0.09227758 44.77420235 -0.09487724 C46.76239389 -0.09763551 48.75057631 -0.10544688 50.73875427 -0.11329651 C51.93992386 -0.11337204 53.14109344 -0.11344757 54.37866211 -0.11352539 C55.97417152 -0.11685631 55.97417152 -0.11685631 57.60191345 -0.12025452 C60 0 60 0 61 1 C61.3828125 3.1953125 61.3828125 3.1953125 61 6 C59.35557159 8.16245348 57.77682938 9.96607534 55.875 11.875 C54.76676506 13.02979245 53.65869883 14.18474682 52.55078125 15.33984375 C51.9676416 15.93909668 51.38450195 16.53834961 50.78369141 17.15576172 C47.83181938 20.20783417 44.95166592 23.32621504 42.0625 26.4375 C38.47355806 30.28941396 34.87674857 34.13326755 31.2578125 37.95703125 C30.06770475 39.2213508 28.87760046 40.48567359 27.6875 41.75 C27.13006104 42.33450928 26.57262207 42.91901855 25.99829102 43.52124023 C23.67350929 45.99844264 22.08783723 47.7364883 21 51 C32.99412823 49.76656128 42.7503841 45.89316676 51.37890625 37.3203125 C53 36 53 36 56 36 C55 43 55 43 48 56 C26.88 56 5.76 56 -16 56 C-14.87216925 50.36084625 -14.87216925 50.36084625 -12.03125 47.28125 C-11.39960937 46.59417969 -10.76796875 45.90710938 -10.1171875 45.19921875 C-5.50189268 40.40510255 -0.76989983 35.73404043 3.97265625 31.06640625 C8.34047469 26.74065348 12.5314861 22.34912237 16.53466797 17.68359375 C18.71684338 15.17638255 21.1038032 12.91815351 23.51953125 10.640625 C25.11191924 8.8759734 26.03618775 7.16270067 27 5 C14.85967452 5.0430508 6.04593038 9.11380428 -3 17 C-3.99 17 -4.98 17 -6 17 C-5.69223801 12.28098283 -4.6288579 8.96241387 -2.44921875 4.7421875 C-1.99248779 3.85128418 -1.53575684 2.96038086 -1.06518555 2.04248047 C-0.71367432 1.36846191 -0.36216309 0.69444336 0 0 Z " fill="#D13141" transform="translate(784,60)"/>
<path d="M0 0 C1.15459717 -0.00315216 2.30919434 -0.00630432 3.4987793 -0.009552 C4.75086182 -0.00752777 6.00294434 -0.00550354 7.29296875 -0.00341797 C8.57276611 -0.00437469 9.85256348 -0.00533142 11.17114258 -0.00631714 C13.88135991 -0.00779236 16.5915443 -0.0056452 19.30175781 -0.00097656 C22.77888104 0.00472064 26.25592709 0.00144069 29.73304749 -0.00454903 C33.04469413 -0.00902757 36.35631991 -0.00589363 39.66796875 -0.00341797 C40.92005127 -0.0054422 42.17213379 -0.00746643 43.4621582 -0.009552 C44.61675537 -0.00639984 45.77135254 -0.00324768 46.9609375 0 C48.49077271 0.00119339 48.49077271 0.00119339 50.05151367 0.00241089 C52.48046875 0.12939453 52.48046875 0.12939453 54.48046875 1.12939453 C54.93301385 4.56997713 54.69331767 5.84043331 52.6015625 8.68017578 C51.71597656 9.59154297 50.83039063 10.50291016 49.91796875 11.44189453 C49.42981689 11.95260498 48.94166504 12.46331543 48.4387207 12.98950195 C47.36676027 14.11087841 46.2899385 15.2276225 45.20898438 16.34033203 C42.79250025 18.84146136 40.42240356 21.3847659 38.04931641 23.92700195 C36.15793137 25.9526444 34.26128188 27.9732322 32.36328125 29.99267578 C28.41453274 34.19686084 24.47739433 38.41180761 20.54296875 42.62939453 C19.93348389 43.28270752 19.32399902 43.93602051 18.69604492 44.60913086 C17.29070217 46.11574486 15.88556093 47.62254683 14.48046875 49.12939453 C15.14046875 49.78939453 15.80046875 50.44939453 16.48046875 51.12939453 C27.61863766 50.97224224 37.09736008 45.01286107 44.82421875 37.44970703 C46.48046875 36.12939453 46.48046875 36.12939453 49.48046875 36.12939453 C48.48046875 43.12939453 48.48046875 43.12939453 41.48046875 56.12939453 C20.36046875 56.12939453 -0.75953125 56.12939453 -22.51953125 56.12939453 C-21.53380068 51.2007417 -21.26311344 50.34621055 -18.08203125 46.94189453 C-17.28152344 46.08466797 -16.48101563 45.22744141 -15.65625 44.34423828 C-10.87225612 39.39889553 -5.98360191 34.55304084 -1.08032227 29.72631836 C3.66663565 25.03483836 8.14542486 20.20231823 12.48046875 15.12939453 C16.35546875 10.75439453 16.35546875 10.75439453 18.09765625 8.79345703 C19.55738697 7.16529895 19.55738697 7.16529895 20.48046875 5.12939453 C9.162791 5.55248529 1.16339136 8.78305644 -7.70703125 15.87939453 C-9.51953125 17.12939453 -9.51953125 17.12939453 -12.51953125 17.12939453 C-12.02201016 11.28352169 -10.4336925 6.2539196 -7.51953125 1.12939453 C-4.89254517 -0.18409851 -2.94172022 0.00229477 0 0 Z " fill="#D12F3F" transform="translate(857.51953125,59.87060546875)"/>
<path d="M0 0 C0.99 0 1.98 0 3 0 C2.85761163 2.04190981 2.71092972 4.08352045 2.5625 6.125 C2.48128906 7.26195312 2.40007812 8.39890625 2.31640625 9.5703125 C2.02269035 12.7540478 1.56875687 15.85510907 1 19 C3.64 19 6.28 19 9 19 C9.5625 20.9375 9.5625 20.9375 10 23 C8.41727399 24.58272601 6.61965997 24.34735747 4.4375 24.5625 C3.19806641 24.68818359 3.19806641 24.68818359 1.93359375 24.81640625 C1.29550781 24.87699219 0.65742188 24.93757813 0 25 C-0.72116797 29.39106904 -1.43285468 33.78354473 -2.13623047 38.17749023 C-2.37621575 39.66845919 -2.61867568 41.15903222 -2.86376953 42.64916992 C-4.94240599 54.26603013 -4.94240599 54.26603013 -5 66 C-1.81237635 68.12508244 0.26512223 68.5020163 4 69 C3.505 70.98 3.505 70.98 3 73 C-6.07311554 76.11078247 -16.82843719 78.30369848 -26.125 74.8125 C-29.30824485 72.80567172 -30.92392233 71.13114253 -33 68 C-34.54075552 58.30739001 -32.29426273 48.14914052 -30.5 38.625 C-30.25799647 37.29186915 -30.01710617 35.95853573 -29.77734375 34.625 C-29.19573417 31.41451513 -28.60318182 28.20648889 -28 25 C-30.31 24.67 -32.62 24.34 -35 24 C-34.953125 22.13671875 -34.953125 22.13671875 -34 20 C-31.54844381 19.08828943 -29.27660522 18.42382679 -26.75 17.8125 C-17.18340659 15.17177199 -8.58479388 10.66481746 -2.32421875 2.71484375 C-1.17373047 1.37099609 -1.17373047 1.37099609 0 0 Z " fill="#D02B3B" transform="translate(461,41)"/>
<path d="M0 0 C1.28332604 2.56665207 0.69256887 3.26292988 0 6 C-0.09214964 8.01916119 -0.13000931 10.04124337 -0.125 12.0625 C-0.12757812 13.10535156 -0.13015625 14.14820313 -0.1328125 15.22265625 C-0.12137157 18.08680628 -0.12137157 18.08680628 1 21 C1.66 21.33 2.32 21.66 3 22 C2.67 21.01 2.34 20.02 2 19 C4.86724686 19.57344937 5.8614515 19.8614515 8 22 C8.33 17.71 8.66 13.42 9 9 C9.33 9 9.66 9 10 9 C10.08834684 12.31232698 10.14083584 15.62434435 10.1875 18.9375 C10.21263672 19.86369141 10.23777344 20.78988281 10.26367188 21.74414062 C10.33010773 28.05554674 9.40207858 33.15864318 7 39 C7.59329102 38.67854004 8.18658203 38.35708008 8.79785156 38.02587891 C11.78360163 36.63495631 14.47396756 36.57156195 17.75 36.375 C18.92046875 36.30023438 20.0909375 36.22546875 21.296875 36.1484375 C22.18890625 36.09945312 23.0809375 36.05046875 24 36 C24 33.36 24 30.72 24 28 C29.22296189 27.91536867 33.10232419 28.55844243 37.25 31.875 C44.94822816 39.35853654 47.86434728 50.41485561 48.375 60.875 C48.13174771 69.11997227 45.73771329 75.85299838 39.6875 81.5625 C34.25265651 85.90504651 29.0605613 87.53934631 22.04296875 87.30859375 C15.60685807 86.33640877 11.27844964 82.75701619 7.2265625 77.87890625 C3.16593595 71.65864711 3.03091916 64.82911714 4.46484375 57.68359375 C6.1157633 52.53546001 8.59111361 50.05922729 13 47 C13.61875 46.566875 14.2375 46.13375 14.875 45.6875 C19.87967575 44.0683402 24.42763635 44.46648547 29.1875 46.5 C33.62223458 48.98415113 36.14850539 52.29411787 38 57 C39.09074128 62.50614588 37.69808017 67.16206315 35 72 C32.78060129 74.54578088 31.22106078 75.76075334 27.88671875 76.4140625 C23.77802355 76.67646656 20.86847837 76.37301266 17.5625 73.8125 C14.60356673 70.56489032 13.03620661 68.53963529 12.97265625 64.08203125 C13.23053431 60.55769776 13.91612897 58.16103237 15.5625 55 C18.16847684 52.86176259 18.89684016 52.6406095 22.125 52.5 C23.40375 52.665 24.6825 52.83 26 53 C26.66 53.99 27.32 54.98 28 56 C26.741875 55.9175 25.48375 55.835 24.1875 55.75 C20.79097837 55.7351016 20.79097837 55.7351016 18 57.625 C16.71056362 60.68741139 16.59584421 62.69939439 17 66 C18.76473555 69.71156874 18.76473555 69.71156874 22 72 C27.0558397 72.51001121 27.0558397 72.51001121 31.375 70.1875 C34.30826443 66.23887481 34.32510968 62.79536773 34 58 C32.74244162 54.55826126 31.62080644 52.54777039 28.875 50.125 C24.81966126 48.53812832 21.29213689 48.19900262 17 49 C13.43923117 50.76529641 11.40723421 53.18553157 9.625 56.75 C8.31303106 63.57223847 8.26171574 69.09054734 11.72265625 75.2734375 C14.39828219 78.89003281 17.82694074 80.60898025 22 82 C27.98085646 82.4984047 32.25177724 81.99910995 37 78 C41.39417189 73.88323795 42.30874146 69.47763948 42.53149414 63.65893555 C42.54684204 62.52838745 42.54684204 62.52838745 42.5625 61.375 C42.57724365 60.64643799 42.5919873 59.91787598 42.60717773 59.16723633 C42.50873933 53.99126271 41.18340162 51.21500095 38 47 C38 46.34 38 45.68 38 45 C36.67741528 44.31225595 35.34013497 43.65288627 34 43 C33.05125 42.46375 32.1025 41.9275 31.125 41.375 C24.91505854 38.77299429 16.84247994 38.6341896 10.52734375 40.87890625 C8.45010087 42.09163186 6.76846365 43.37202178 5 45 C4.44828125 45.50789063 3.8965625 46.01578125 3.328125 46.5390625 C-0.98119654 51.04038351 -3.00908052 56.17081748 -5 62 C-5.4125 63.19625 -5.825 64.3925 -6.25 65.625 C-6.62125 66.800625 -6.62125 66.800625 -7 68 C-9.12567359 65.87432641 -9.63043192 64.67608418 -10.5625 61.875 C-10.81128906 61.15054688 -11.06007813 60.42609375 -11.31640625 59.6796875 C-16.55640611 39.13888805 -12.14635497 20.05232583 -2 2 C-1.34 1.34 -0.68 0.68 0 0 Z " fill="#FCF1F2" transform="translate(17,34)"/>
<path d="M0 0 C-0.69154717 9.87455868 -2.29635204 19.5758593 -3.91870117 29.32885742 C-5.94495284 40.11145734 -5.94495284 40.11145734 -6 51 C-5.01 51.66 -4.02 52.32 -3 53 C-3 53.99 -3 54.98 -3 56 C-15.87 56 -28.74 56 -42 56 C-41.67 55.01 -41.34 54.02 -41 53 C-39.78836182 52.66101685 -39.78836182 52.66101685 -38.55224609 52.31518555 C-35.6002126 51.17358419 -35.6002126 51.17358419 -34.86572266 47.48754883 C-34.60775064 45.98130366 -34.37553324 44.47050546 -34.1640625 42.95703125 C-34.03558929 42.1552092 -33.90711609 41.35338715 -33.77474976 40.52726746 C-33.50720266 38.82835059 -33.2506979 37.12766361 -33.00439453 35.42553711 C-32.62837711 32.83575947 -32.2177479 30.25338804 -31.80078125 27.66992188 C-31.54480014 26.01594479 -31.2908295 24.36165505 -31.0390625 22.70703125 C-30.91834381 21.94010452 -30.79762512 21.1731778 -30.67324829 20.38301086 C-30.0116753 15.71797052 -29.93526937 11.65791394 -31 7 C-31.66 6.67 -32.32 6.34 -33 6 C-32.67 5.01 -32.34 4.02 -32 3 C-28.08705673 2.40208337 -24.17272335 1.81441413 -20.25683594 1.23608398 C-18.27197767 0.94076991 -16.28832023 0.63742126 -14.3046875 0.33398438 C-13.05429687 0.15029297 -11.80390625 -0.03339844 -10.515625 -0.22265625 C-9.36352539 -0.39547119 -8.21142578 -0.56828613 -7.02441406 -0.74633789 C-4.30270685 -0.97461153 -2.55197591 -0.87895308 0 0 Z " fill="#CF2839" transform="translate(770,60)"/>
<path d="M0 0 C0.66 0.33 1.32 0.66 2 1 C6.32578054 15.52029519 2.597346 32.77597524 -4.05078125 45.7734375 C-8.34626678 52.88380033 -13.77088322 58.64882378 -22 61 C-26.77785408 61.45503372 -28.98027525 61.52947247 -33.25 59.3125 C-39.65630784 53.9253775 -39.65630784 53.9253775 -40.3828125 49.85546875 C-40.5876422 45.7383917 -40.34773123 43.55636997 -38.125 40 C-34.58453885 36.66780127 -31.90762489 36.64339131 -27.19921875 36.734375 C-25 37 -25 37 -22.4375 38.4375 C-20.30399277 42.24070853 -20.20150065 45.7413368 -21 50 C-23.09775994 52.56392881 -24.32047645 52.90055753 -27.5625 53.375 C-30 53 -30 53 -31.8125 51.875 C-33.52849028 49.16554166 -33.333728 47.13704316 -33 44 C-32.34 43.34 -31.68 42.68 -31 42 C-31.99 42 -32.98 42 -34 42 C-34.65149959 47.90756153 -34.65149959 47.90756153 -32.375 53.0625 C-29.26537429 54.28998383 -27.32705942 54.46578832 -24 54 C-19.68353449 51.71481238 -16.9023375 49.54447291 -15 45 C-14.61923282 40.34043098 -14.61923282 40.34043098 -16 36 C-17.51013898 35.70856967 -19.03501607 35.49206681 -20.5625 35.3125 C-26.50529101 34.23819345 -30.10320897 31.53976156 -34 27 C-35.5 24.0625 -35.5 24.0625 -36 22 C-35.236875 22.33 -34.47375 22.66 -33.6875 23 C-25.57395358 25.20028377 -18.61755777 24.75895125 -11.23046875 20.625 C-5.14884816 16.19425716 -1.75196577 9.98541859 -0.375 2.6875 C-0.189375 1.3571875 -0.189375 1.3571875 0 0 Z " fill="#194F95" transform="translate(143,60)"/>
<path d="M0 0 C0.99 0.495 0.99 0.495 2 1 C2 2.65 2 4.3 2 6 C6.7539867 4.85248597 11.37892907 3.61737483 16 2 C5.91181288 15.78718906 -10.77971167 21.35291883 -27 24 C-44.06937661 25.82773826 -59.53745426 22.56875447 -74 13 C-75.71029179 11.37813146 -77.390393 9.72183648 -79 8 C-78.40832031 8.20496094 -77.81664062 8.40992188 -77.20703125 8.62109375 C-76.41683594 8.89050781 -75.62664062 9.15992188 -74.8125 9.4375 C-73.64654297 9.83775391 -73.64654297 9.83775391 -72.45703125 10.24609375 C-67.15358001 11.87338483 -62.21410426 12.12670541 -56.6875 12.0625 C-55.94693359 12.05798828 -55.20636719 12.05347656 -54.44335938 12.04882812 C-52.62887101 12.03712175 -50.81442466 12.01918898 -49 12 C-48.67 11.01 -48.34 10.02 -48 9 C-48.99 9 -49.98 9 -51 9 C-49.63016497 5.83884224 -49.0109362 5.0072908 -46 3 C-42.9124407 2.67837924 -40.85984439 2.51275485 -38.125 4.0625 C-36.41803605 7.00227124 -36.81200234 9.67870803 -37 13 C-36.57589844 12.63648438 -36.15179688 12.27296875 -35.71484375 11.8984375 C-34.47835939 10.83859376 -33.23710239 9.78430322 -31.9921875 8.734375 C-30.71080214 7.61881598 -29.46184592 6.46425917 -28.2578125 5.265625 C-25.20075919 2.30718631 -23.1050772 0.60469675 -18.75 0.4375 C-15 1 -15 1 -13 2.0625 C-11.43742297 5.08999299 -11.6967136 7.66384962 -12 11 C-12.66 11.66 -13.32 12.32 -14 13 C-17 12.8125 -17 12.8125 -20 12 C-20.66 11.01 -21.32 10.02 -22 9 C-21.01 9 -20.02 9 -19 9 C-19 7.68 -19 6.36 -19 5 C-20.98 5.99 -20.98 5.99 -23 7 C-22.65555119 9.47266765 -22.65555119 9.47266765 -22 12 C-18.53120524 13.73439738 -14.79267767 13.47248846 -11 13 C-7.61377224 11.3268025 -7.61377224 11.3268025 -5 9 C-4.4225 8.54625 -3.845 8.0925 -3.25 7.625 C-1.45973282 5.29765266 -0.80779595 2.79621675 0 0 Z " fill="#1C5196" transform="translate(110,122)"/>
<path d="M0 0 C0.6084375 0.56074219 1.216875 1.12148438 1.84375 1.69921875 C1.84375 2.35921875 1.84375 3.01921875 1.84375 3.69921875 C1.2353125 3.48265625 0.626875 3.26609375 0 3.04296875 C-8.47899949 0.3496395 -16.37184631 0.40162916 -25.15625 0.69921875 C-25.45917969 -0.41839844 -25.76210937 -1.53601563 -26.07421875 -2.6875 C-27.22879007 -6.70233274 -27.22879007 -6.70233274 -30.15625 -9.30078125 C-32.75540538 -10.49106109 -32.75540538 -10.49106109 -35.15625 -11.30078125 C-34.66125 -10.49640625 -34.66125 -10.49640625 -34.15625 -9.67578125 C-32.90660402 -6.70787205 -32.87868416 -4.49278846 -33.15625 -1.30078125 C-35.15625 0.69921875 -35.15625 0.69921875 -39.03125 1.07421875 C-42.15276532 0.99461727 -43.03888293 0.77937187 -45.71875 -1.05078125 C-47.15625 -3.30078125 -47.15625 -3.30078125 -46.90625 -5.55078125 C-46.65875 -6.12828125 -46.41125 -6.70578125 -46.15625 -7.30078125 C-45.16625 -6.64078125 -44.17625 -5.98078125 -43.15625 -5.30078125 C-44.4652072 -8.42275603 -44.4652072 -8.42275603 -47.15625 -10.30078125 C-49.03004605 -10.37111894 -50.90626102 -10.38508345 -52.78125 -10.36328125 C-54.28558594 -10.34974609 -54.28558594 -10.34974609 -55.8203125 -10.3359375 C-56.97660156 -10.31853516 -56.97660156 -10.31853516 -58.15625 -10.30078125 C-57.455 -9.64078125 -56.75375 -8.98078125 -56.03125 -8.30078125 C-51.12995514 -3.35747529 -46.51870639 1.45009092 -46.15625 8.69921875 C-46.878125 7.95671875 -47.6 7.21421875 -48.34375 6.44921875 C-56.6440094 -1.66659044 -63.2483161 -3.24098562 -74.53125 -3.86328125 C-75.26730469 -3.90646484 -76.00335938 -3.94964844 -76.76171875 -3.99414062 C-78.55973068 -4.09921924 -80.35796958 -4.20040218 -82.15625 -4.30078125 C-59.24484558 -24.20532853 -22.1622565 -16.58910082 0 0 Z " fill="#1D5297" transform="translate(120.15625,19.30078125)"/>
<path d="M0 0 C1.28332604 2.56665207 0.69256887 3.26292988 0 6 C-0.09214964 8.01916119 -0.13000931 10.04124337 -0.125 12.0625 C-0.12757812 13.10535156 -0.13015625 14.14820313 -0.1328125 15.22265625 C-0.12137157 18.08680628 -0.12137157 18.08680628 1 21 C1.66 21.33 2.32 21.66 3 22 C2.67 21.01 2.34 20.02 2 19 C4.86724686 19.57344937 5.8614515 19.8614515 8 22 C7.81597683 25.37375813 7.59820495 28.0239814 5.8125 30.9375 C3.04411529 32.56034621 1.14454533 32.44922076 -2 32 C-4.375 30 -4.375 30 -6 28 C-6.31215868 31.98002315 -6.36368076 34.3565648 -4.375 37.875 C-1.55712024 40.39626084 0.27830274 40.74624791 4 41 C3.61328125 41.47308594 3.2265625 41.94617188 2.828125 42.43359375 C-3.5452309 50.5264937 -6.56839858 57.66314597 -7 68 C-9.12567359 65.87432641 -9.63043192 64.67608418 -10.5625 61.875 C-10.81128906 61.15054688 -11.06007813 60.42609375 -11.31640625 59.6796875 C-16.55640611 39.13888805 -12.14635497 20.05232583 -2 2 C-1.34 1.34 -0.68 0.68 0 0 Z " fill="#194F95" transform="translate(17,34)"/>
<path d="M0 0 C1.83932509 2.87894363 2.36768534 4.8290819 2.4375 8.25 C1.0944533 12.01053077 -0.865877 13.66392706 -4.25 15.5625 C-9.72000562 18.03153006 -14.17077126 18.15253915 -19.875 16 C-22.60124138 14.22477305 -24.07961784 13.13338197 -25.5625 10.25 C-26.10291657 6.62148874 -25.85951602 4.80529083 -24.125 1.5625 C-17.16519179 -4.71830253 -7.78802881 -5.31865382 0 0 Z " fill="#D12F3F" transform="translate(770.5625,38.75)"/>
<path d="M0 0 C0.96550781 -0.02578125 1.93101563 -0.0515625 2.92578125 -0.078125 C6.09737544 0.29869807 7.45930568 0.98475732 9.6875 3.25 C9.6875 4.24 9.6875 5.23 9.6875 6.25 C8.6975 5.92 7.7075 5.59 6.6875 5.25 C7.03194881 7.72266765 7.03194881 7.72266765 7.6875 10.25 C10.94053044 11.87651522 14.07975602 11.36453156 17.6875 11.25 C19.00881818 10.15368631 19.00881818 10.15368631 18.8125 7.4375 C18.70991728 4.82164058 18.45078117 2.7306638 17.6875 0.25 C21.16441229 0.54802105 22.70262296 1.2617623 25.5 3.4375 C28.04433282 6.70878506 28.15713359 8.21115115 27.6875 12.25 C28.6775 11.92 29.6675 11.59 30.6875 11.25 C38.99877809 10.63609878 46.88525781 11.1518419 54.6875 14.25 C55.3475 14.91 56.0075 15.57 56.6875 16.25 C52.9375 17.375 52.9375 17.375 50.6875 16.25 C49.32904807 16.16097507 47.96634026 16.13239868 46.60498047 16.13647461 C45.76425995 16.13655014 44.92353943 16.13662567 44.05734253 16.13670349 C43.14896637 16.14186478 42.24059021 16.14702606 41.3046875 16.15234375 C40.37528351 16.1537587 39.44587952 16.15517365 38.48831177 16.15663147 C35.51300876 16.16223947 32.53778036 16.17479332 29.5625 16.1875 C27.54817817 16.19251397 25.53385516 16.19707705 23.51953125 16.20117188 C18.57549198 16.2122115 13.63150865 16.22948151 8.6875 16.25 C8.3575 16.91 8.0275 17.57 7.6875 18.25 C7.0275 18.25 6.3675 18.25 5.6875 18.25 C5.31625 17.239375 4.945 16.22875 4.5625 15.1875 C2.17366476 9.57942489 -2.03127982 5.48025327 -6.3125 1.25 C-4.58915979 -0.47334021 -2.3456379 0.03728166 0 0 Z " fill="#F1ECF0" transform="translate(67.3125,7.75)"/>
<path d="M0 0 C2.97121653 1.21896063 3.78965532 2.26767634 5.4375 5 C6.37746411 11.10055139 6.01773605 16.82854792 2.4375 22 C-1.03292703 24.31361802 -2.48084173 24.51020728 -6.5625 24 C-8.87007682 22.23085777 -9.44662632 20.83364677 -9.84375 17.9765625 C-10.11308171 11.40038003 -8.67144422 6.81192563 -4.6875 1.5 C-2.5625 0 -2.5625 0 0 0 Z " fill="#FEFAFA" transform="translate(50.5625,30)"/>
<path d="M0 0 C0.33 0 0.66 0 1 0 C1.08834684 3.31232698 1.14083584 6.62434435 1.1875 9.9375 C1.21263672 10.86369141 1.23777344 11.78988281 1.26367188 12.74414062 C1.33010773 19.05554674 0.40207858 24.15864318 -2 30 C-1.34 30.33 -0.68 30.66 0 31 C-0.45890625 31.50789063 -0.9178125 32.01578125 -1.390625 32.5390625 C-7.35267584 39.22758172 -11.54894199 45.73948881 -15 54 C-15.33 54 -15.66 54 -16 54 C-15.51448585 46.55544977 -12.62832429 39.98350324 -7.6875 34.375 C-7.130625 33.92125 -6.57375 33.4675 -6 33 C-6.9075 32.773125 -7.815 32.54625 -8.75 32.3125 C-12.6465524 30.7388923 -13.96688822 29.67524052 -16 26 C-16.31543486 22.96775518 -16.23809056 20.03565462 -16 17 C-15.29875 17.825 -14.5975 18.65 -13.875 19.5 C-11.22560625 22.23476181 -11.22560625 22.23476181 -7.875 22.5625 C-4.88683489 22.28240057 -4.88683489 22.28240057 -3.25 20 C-2.8375 19.34 -2.425 18.68 -2 18 C-1.34 18 -0.68 18 0 18 C0 12.06 0 6.12 0 0 Z " fill="#F4ECEF" transform="translate(26,43)"/>
<path d="M0 0 C6.26702406 -0.44764458 10.89117002 0.12208215 16 4 C19.25970447 7.56752159 21.27264061 11.18374645 21.5 16.0625 C20.81084832 21.48956944 19.48967644 25.2912535 15.875 29.4375 C11.84678682 31.62674629 8.48543181 31.91603889 4 31 C0.6567863 29.27172851 -1.44798777 26.88801968 -3.4375 23.6875 C-4.49699418 18.62547224 -3.81881193 14.5721189 -1.4375 10 C1.16847684 7.86176259 1.89684016 7.6406095 5.125 7.5 C6.40375 7.665 7.6825 7.83 9 8 C9.99 9.485 9.99 9.485 11 11 C9.741875 10.9175 8.48375 10.835 7.1875 10.75 C3.79097837 10.7351016 3.79097837 10.7351016 1 12.625 C-0.28943638 15.68741139 -0.40415579 17.69939439 0 21 C1.76473555 24.71156874 1.76473555 24.71156874 5 27 C10.0558397 27.51001121 10.0558397 27.51001121 14.375 25.1875 C17.30826443 21.23887481 17.32510968 17.79536773 17 13 C15.71639877 9.48698612 14.66551703 7.53611094 11.75 5.1875 C8.92532382 3.82120718 8.92532382 3.82120718 5.3125 3.5 C4.219375 3.335 3.12625 3.17 2 3 C1.34 2.01 0.68 1.02 0 0 Z " fill="#FAEBEC" transform="translate(34,79)"/>
<path d="M0 0 C0 2 0 2 -2 4.125 C-2.66 4.74375 -3.32 5.3625 -4 6 C-2.515 6.495 -2.515 6.495 -1 7 C-1.66 8.32 -2.32 9.64 -3 11 C-12.21314022 11.30862877 -20.27618738 11.38708634 -29 8 C-30.19625 7.608125 -31.3925 7.21625 -32.625 6.8125 C-33.40875 6.544375 -34.1925 6.27625 -35 6 C-35 5.34 -35 4.68 -35 4 C-33.9790625 4.23589844 -33.9790625 4.23589844 -32.9375 4.4765625 C-22.5693747 6.32407419 -14.07184197 5.32701489 -4.51171875 1.09375 C-2 0 -2 0 0 0 Z " fill="#F4F0F3" transform="translate(64,124)"/>
<path d="M0 0 C2.375 2.1875 2.375 2.1875 4 5 C3.75 7.8125 3.75 7.8125 3 10 C1 6.25 1 6.25 1 4 C-3.23399749 3.56254065 -3.23399749 3.56254065 -6.875 5.4375 C-8.52306462 9.19142496 -8.60113883 12.95597511 -8 17 C-5.49936853 19.50063147 -4.52188302 19.32420142 -1.0625 19.375 C0.25041016 19.41753906 0.25041016 19.41753906 1.58984375 19.4609375 C4.13313906 19.2162273 4.13313906 19.2162273 5.75390625 17.1640625 C7.13138309 14.93809975 7.13138309 14.93809975 8 12 C8.66 12 9.32 12 10 12 C9.52048204 16.31566167 8.29764982 18.2019941 5 21 C1.55258453 22.72370774 -2.23035339 22.50306672 -6 22 C-8.50160818 20.12379387 -9.61945652 18.76108697 -11 16 C-11.53118252 11.08003072 -11.75105553 7.22672403 -9.125 2.9375 C-6.06093176 0.14379073 -4.13431247 -0.59061607 0 0 Z " fill="#F9E4E6" transform="translate(114,48)"/>
<path d="M0 0 C0.33 0 0.66 0 1 0 C1 6.93 1 13.86 1 21 C-2.62819486 17.37180514 -5.79441627 13.93828859 -9 10 C-8.51789063 9.61328125 -8.03578125 9.2265625 -7.5390625 8.828125 C-6.90742187 8.30734375 -6.27578125 7.7865625 -5.625 7.25 C-4.68527344 6.48429687 -4.68527344 6.48429687 -3.7265625 5.703125 C-1.91687682 3.91800519 -0.99882545 2.32050356 0 0 Z " fill="#194F95" transform="translate(76,50)"/>
<path d="M0 0 C3 0.25 3 0.25 5 2.25 C5.25 5.75 5.25 5.75 5 9.25 C3 11.25 3 11.25 0.0625 11.625 C-3 11.25 -3 11.25 -4.9375 9.5625 C-6.28233625 6.63550346 -6.03115662 5.26415011 -5 2.25 C-3 0.25 -3 0.25 0 0 Z M-3 3.25 C-3.33 4.24 -3.66 5.23 -4 6.25 C-3.34 6.91 -2.68 7.57 -2 8.25 C-2 6.6 -2 4.95 -2 3.25 C-2.33 3.25 -2.66 3.25 -3 3.25 Z M-1 6.25 C-1 7.24 -1 8.23 -1 9.25 C-0.34 8.92 0.32 8.59 1 8.25 C0.34 7.59 -0.32 6.93 -1 6.25 Z " fill="#E3808A" transform="translate(995,60.75)"/>
<path d="M0 0 C0.66 0.66 1.32 1.32 2 2 C1.67926064 7.45256915 -1.01694381 12.98715541 -4.8203125 16.84765625 C-6.50881439 18.29347872 -8.21478074 19.67612954 -10 21 C-10.33 19.68 -10.66 18.36 -11 17 C-9.9275 16.236875 -8.855 15.47375 -7.75 14.6875 C-3.04895428 10.73023028 -1.65029385 5.76065307 0 0 Z " fill="#EAE3EA" transform="translate(141,61)"/>
<path d="M0 0 C0.66 0.33 1.32 0.66 2 1 C1.34 1.66 0.68 2.32 0 3 C11.22 3.33 22.44 3.66 34 4 C34.33 3.34 34.66 2.68 35 2 C35 2.99 35 3.98 35 5 C22.13 5 9.26 5 -4 5 C-3 2 -3 2 0 0 Z " fill="#DC626E" transform="translate(732,111)"/>
<path d="M0 0 C0 0.66 0 1.32 0 2 C16.335 2.495 16.335 2.495 33 3 C33.33 2.34 33.66 1.68 34 1 C34 1.99 34 2.98 34 4 C21.46 4 8.92 4 -4 4 C-4 3.01 -4 2.02 -4 1 C-2 0 -2 0 0 0 Z " fill="#DB606D" transform="translate(542,112)"/>
<path d="M0 0 C0.33 0.66 0.66 1.32 1 2 C0.030625 1.979375 -0.93875 1.95875 -1.9375 1.9375 C-4.87465895 1.64381501 -4.87465895 1.64381501 -6 3 C-6.26293056 7.03160191 -6.29404844 8.55892734 -4 12 C-4.99 12 -5.98 12 -7 12 C-9 10 -9 10 -9.3125 6.5625 C-9 3 -9 3 -7.875 1.0625 C-5.214973 -0.44484863 -2.99793795 -0.19986253 0 0 Z " fill="#DAE2EE" transform="translate(117,101)"/>
<path d="M0 0 C0.70125 -0.01675781 1.4025 -0.03351563 2.125 -0.05078125 C2.74375 0.06910156 3.3625 0.18898438 4 0.3125 C4.66 1.3025 5.32 2.2925 6 3.3125 C4.7625 3.23 3.525 3.1475 2.25 3.0625 C-1.07809389 3.0389799 -1.71423603 3.07185666 -4.375 5.3125 C-4.91125 5.9725 -5.4475 6.6325 -6 7.3125 C-6.66 7.3125 -7.32 7.3125 -8 7.3125 C-6.26825084 2.61203799 -5.31241597 0.02929641 0 0 Z " fill="#F8E0E3" transform="translate(39,86.6875)"/>
<path d="M0 0 C0.33 0.66 0.66 1.32 1 2 C1.66 2 2.32 2 3 2 C3.33 1.34 3.66 0.68 4 0 C4 1.65 4 3.3 4 5 C3.34 5 2.68 5 2 5 C1.67 5.66 1.34 6.32 1 7 C1.66 7.33 2.32 7.66 3 8 C0.625 7.6875 0.625 7.6875 -2 7 C-4 4 -4 4 -4 1 C-3.34 1 -2.68 1 -2 1 C-1.67 1.66 -1.34 2.32 -1 3 C-0.67 2.01 -0.34 1.02 0 0 Z " fill="#DC646F" transform="translate(993,64)"/>
<path d="M0 0 C0.33 0.99 0.66 1.98 1 3 C-0.109375 4.7890625 -0.109375 4.7890625 -1.75 6.625 C-2.28109375 7.23601563 -2.8121875 7.84703125 -3.359375 8.4765625 C-5 10 -5 10 -8 11 C-7.49268371 6.60325886 -4.88085945 4.16191891 -2 1 C-1.34 0.67 -0.68 0.34 0 0 Z " fill="#EFE9EE" transform="translate(75,49)"/>
<path d="M0 0 C0.99 0 1.98 0 3 0 C3 1.32 3 2.64 3 4 C2.01 4.495 2.01 4.495 1 5 C1.99 5.99 2.98 6.98 4 8 C3.01 8.495 3.01 8.495 2 9 C-0.0625 7.25 -0.0625 7.25 -2 5 C-1.80984746 2.78155374 -1.58477845 1.58477845 0 0 Z " fill="#DEE6EF" transform="translate(88,127)"/>
<path d="M0 0 C0.66 0 1.32 0 2 0 C1.52153935 4.30614589 0.34073619 6.24880549 -3 9 C-6.47823115 10.15941038 -8.45895578 9.70820884 -12 9 C-12 8.67 -12 8.34 -12 8 C-10.1128125 7.87625 -10.1128125 7.87625 -8.1875 7.75 C-4.74011551 7.3312009 -4.74011551 7.3312009 -2.0625 5.125 C-0.88951457 2.90424596 -0.88951457 2.90424596 0 0 Z " fill="#F6D7DA" transform="translate(122,60)"/>
<path d="M0 0 C0.99 0.33 1.98 0.66 3 1 C2.38348417 2.6490302 1.75652258 4.29415841 1.125 5.9375 C0.77695313 6.85402344 0.42890625 7.77054687 0.0703125 8.71484375 C-1 11 -1 11 -3 12 C-2.49202991 7.6822542 -1.80317221 3.96697886 0 0 Z " fill="#E1D7E0" transform="translate(13,85)"/>
<path d="M0 0 C0.99 0.33 1.98 0.66 3 1 C1.7934375 2.0828125 1.7934375 2.0828125 0.5625 3.1875 C-2.02292072 6.02515689 -2.68042813 7.27166147 -3 11 C-3.33 11 -3.66 11 -4 11 C-4.36630156 7.06225823 -4.30233203 5.43460229 -2 2.125 C-1.34 1.42375 -0.68 0.7225 0 0 Z " fill="#E17781" transform="translate(749,38)"/>
<path d="M0 0 C0.66 0.33 1.32 0.66 2 1 C-0.64 3.64 -3.28 6.28 -6 9 C-6 6 -6 6 -3.5625 3.375 C-2.716875 2.59125 -1.87125 1.8075 -1 1 C-0.67 0.67 -0.34 0.34 0 0 Z " fill="#DF6D78" transform="translate(917,86)"/>
<path d="M0 0 C0.66 0.33 1.32 0.66 2 1 C2.625 3.5625 2.625 3.5625 3 6 C1.02 6.99 1.02 6.99 -1 8 C-1.66 7.34 -2.32 6.68 -3 6 C-2.505 5.566875 -2.01 5.13375 -1.5 4.6875 C0.33218192 3.00259517 0.33218192 3.00259517 0 0 Z " fill="#EAA1A8" transform="translate(997,64)"/>
<path d="M0 0 C0.66 0.66 1.32 1.32 2 2 C1.64700993 5.44165321 0.95418308 7.06872538 -1 10 C-2.31223496 6.06329512 -1.24296256 3.87511856 0 0 Z " fill="#E4D9E1" transform="translate(141,61)"/>
</svg>
