<?xml version="1.0" encoding="UTF-8" standalone="no"?>
<!-- Created with Inkscape (http://www.inkscape.org/) -->

<svg
   version="1.1"
   id="svg2"
   width="146.66667"
   height="40"
   viewBox="0 0 146.66667 40"
   sodipodi:docname="calimax.eps"
   xmlns:inkscape="http://www.inkscape.org/namespaces/inkscape"
   xmlns:sodipodi="http://sodipodi.sourceforge.net/DTD/sodipodi-0.dtd"
   xmlns="http://www.w3.org/2000/svg"
   xmlns:svg="http://www.w3.org/2000/svg">
  <defs
     id="defs6" />
  <sodipodi:namedview
     id="namedview4"
     pagecolor="#ffffff"
     bordercolor="#000000"
     borderopacity="0.25"
     inkscape:showpageshadow="2"
     inkscape:pageopacity="0.0"
     inkscape:pagecheckerboard="0"
     inkscape:deskcolor="#d1d1d1" />
  <g
     id="g8"
     inkscape:groupmode="layer"
     inkscape:label="ink_ext_XXXXXX"
     transform="matrix(1.3333333,0,0,-1.3333333,0,40)">
    <g
       id="g10"
       transform="scale(0.1)">
      <path
         d="m 442.375,99.8672 c -2.133,-0.8438 -4.613,-1.5899 -7.441,-2.2383 -2.825,-0.6484 -5.868,-1.1367 -9.079,-1.4922 -3.21,-0.3594 -6.425,-0.5508 -9.671,-0.5508 -9.746,0 -18.2,2.0118 -25.321,5.9371 -7.121,3.957 -12.64,9.805 -16.55,17.528 -3.883,7.691 -5.868,17.23 -5.907,28.523 0.039,9.055 1.293,16.91 3.77,23.594 2.445,6.687 5.871,12.207 10.238,16.59 4.399,4.347 9.461,7.625 15.258,9.765 5.801,2.145 12.016,3.215 18.719,3.215 5.554,-0.035 10.445,-0.515 14.703,-1.492 4.258,-0.941 7.926,-2.043 11.07,-3.375 l 6.078,23.367 c -1.539,0.813 -3.808,1.653 -6.812,2.496 -3.004,0.879 -6.742,1.59 -11.172,2.207 -4.403,0.618 -9.535,0.911 -15.332,0.946 -8.594,0 -16.801,-1.074 -24.621,-3.184 -7.86,-2.109 -15.055,-5.258 -21.653,-9.476 -6.601,-4.219 -12.324,-9.508 -17.214,-15.805 -4.891,-6.332 -8.7,-13.695 -11.387,-22.07 -2.727,-8.407 -4.086,-17.848 -4.121,-28.332 0,-11.133 1.675,-21.29 4.961,-30.446 3.277,-9.148 8.097,-17.0388 14.492,-23.6873 6.39,-6.6562 14.246,-11.75 23.605,-15.3554 9.325,-3.6016 20.043,-5.4493 32.164,-5.4805 5.551,0.0312 10.614,0.289 15.227,0.875 4.644,0.5508 8.66,1.2305 12.152,2.1094 3.461,0.8437 6.184,1.7187 8.242,2.6601 z m 112.52,38.5588 c 0.035,6.004 -0.668,11.679 -2.098,17.07 -1.465,5.418 -3.91,10.223 -7.367,14.442 -3.453,4.187 -8.172,7.531 -14.145,9.929 -5.969,2.438 -13.48,3.699 -22.484,3.735 -6.082,-0.036 -11.703,-0.524 -16.867,-1.43 -5.137,-0.906 -9.711,-2.043 -13.692,-3.438 -3.984,-1.398 -7.265,-2.824 -9.887,-4.285 l 5.868,-18.695 c 3.843,2.176 8.207,3.961 13.168,5.328 4.957,1.328 10.125,2.043 15.539,2.074 5.59,-0.031 9.922,-0.879 12.992,-2.5 3.039,-1.656 5.133,-3.894 6.32,-6.718 1.149,-2.856 1.711,-6.067 1.641,-9.668 -9.324,0 -17.848,-0.813 -25.598,-2.473 -7.754,-1.652 -14.461,-4.152 -20.152,-7.527 -5.688,-3.372 -10.086,-7.625 -13.199,-12.754 -3.145,-5.125 -4.715,-11.196 -4.75,-18.145 0,-4.414 0.839,-8.5663 2.445,-12.4608 1.605,-3.9258 3.91,-7.3672 6.949,-10.3516 3.039,-3.0195 6.703,-5.3867 11.035,-7.0742 4.297,-1.7227 9.149,-2.6016 14.567,-2.6328 4.359,0 8.449,0.5547 12.324,1.5937 3.879,1.0391 7.371,2.5625 10.543,4.543 3.18,2.0117 5.906,4.4453 8.144,7.3008 h 0.625 l 1.887,-11.293 h 27.867 c -0.418,2.2383 -0.734,4.7383 -0.976,7.4961 -0.246,2.7617 -0.418,5.6836 -0.559,8.7617 -0.105,3.1211 -0.14,6.2656 -0.14,9.4453 z m -30.172,-28.235 c -0.035,-3.441 -0.703,-6.363 -2.028,-8.761 -1.293,-2.3753 -2.933,-4.3206 -4.957,-5.7777 -2.027,-1.4648 -4.156,-2.5312 -6.355,-3.1835 -2.235,-0.6485 -4.262,-0.9727 -6.149,-0.9727 -2.621,0 -5.027,0.5195 -7.265,1.5586 -2.199,1.0039 -3.977,2.6289 -5.305,4.8008 -1.363,2.2075 -2.062,4.9995 -2.098,8.4375 0.036,3.93 1.047,7.141 2.969,9.703 1.953,2.531 4.539,4.512 7.824,5.942 3.282,1.425 6.914,2.433 10.965,3.019 4.016,0.551 8.172,0.844 12.399,0.813 z m 88.84,119.364 H 582.555 V 72.9961 h 31.008 z m 59.929,-18.496 c -0.035,3.019 -0.73,5.679 -2.094,7.98 -1.402,2.305 -3.355,4.09 -5.867,5.422 -2.48,1.301 -5.414,1.949 -8.801,1.98 -3.25,-0.031 -6.109,-0.679 -8.593,-1.98 -2.446,-1.332 -4.399,-3.117 -5.797,-5.422 -1.43,-2.301 -2.129,-4.961 -2.164,-7.98 0.035,-2.954 0.734,-5.582 2.094,-7.887 1.394,-2.305 3.316,-4.121 5.796,-5.453 2.481,-1.328 5.344,-2.012 8.664,-2.043 3.247,0.031 6.114,0.648 8.625,1.91 2.516,1.269 4.504,3.055 5.938,5.328 1.43,2.305 2.164,5.027 2.199,8.145 z m -1.051,-29.598 H 641.434 V 72.9961 h 31.007 z m 189.422,-42.648 c -0.035,7.824 -0.937,14.57 -2.754,20.222 -1.82,5.676 -4.371,10.32 -7.648,13.918 -3.25,3.637 -7.059,6.332 -11.422,8.051 -4.367,1.754 -9.113,2.598 -14.215,2.598 -4.332,0.031 -8.519,-0.555 -12.605,-1.754 -4.051,-1.196 -7.93,-3.114 -11.598,-5.774 -3.695,-2.664 -7.156,-6.199 -10.371,-10.582 h -0.418 c -1.535,3.735 -3.734,6.946 -6.598,9.641 -2.832,2.691 -6.218,4.765 -10.129,6.23 -3.914,1.492 -8.242,2.203 -13.027,2.239 -4.328,-0.036 -8.246,-0.524 -11.734,-1.524 -3.492,-0.976 -6.598,-2.305 -9.285,-3.93 -2.727,-1.621 -5.067,-3.437 -7.059,-5.386 -1.988,-1.949 -3.664,-3.926 -5.027,-5.907 h -0.629 l -1.469,14.606 h -26.402 c 0.215,-4.742 0.422,-9.805 0.593,-15.125 0.141,-5.324 0.247,-11.133 0.247,-17.461 V 72.9961 h 30.382 v 65.3629 c 0.035,3.602 0.594,6.782 1.711,9.512 1.117,2.758 2.586,5.027 4.399,6.848 1.816,1.847 3.808,3.211 6.008,4.152 2.167,0.91 4.367,1.363 6.531,1.363 4.015,-0.031 7.261,-1.105 9.707,-3.148 2.414,-2.043 4.191,-4.801 5.273,-8.309 1.082,-3.476 1.606,-7.367 1.571,-11.718 V 72.9961 h 30.386 v 65.8169 c 0.035,3.796 0.559,7.042 1.645,9.773 1.078,2.691 2.472,4.93 4.258,6.648 1.746,1.723 3.703,2.989 5.867,3.801 2.129,0.813 4.293,1.199 6.461,1.199 4.117,-0.031 7.402,-1.105 9.879,-3.246 2.519,-2.14 4.332,-5.125 5.449,-9.019 1.121,-3.864 1.68,-8.41 1.64,-13.633 V 72.9961 h 30.383 z m 114.617,-0.387 c 0.032,6.004 -0.664,11.679 -2.097,17.07 -1.469,5.418 -3.914,10.223 -7.367,14.442 -3.453,4.187 -8.176,7.531 -14.145,9.929 -5.969,2.438 -13.48,3.699 -22.488,3.735 -6.074,-0.036 -11.695,-0.524 -16.867,-1.43 -5.133,-0.906 -9.711,-2.043 -13.688,-3.438 -3.988,-1.398 -7.265,-2.824 -9.887,-4.285 l 5.868,-18.695 c 3.843,2.176 8.207,3.961 13.164,5.328 4.957,1.328 10.129,2.043 15.543,2.074 5.589,-0.031 9.918,-0.879 12.992,-2.5 3.039,-1.656 5.133,-3.894 6.32,-6.718 1.152,-2.856 1.707,-6.067 1.641,-9.668 -9.324,0 -17.844,-0.813 -25.598,-2.473 -7.754,-1.652 -14.461,-4.152 -20.152,-7.527 -5.692,-3.372 -10.09,-7.625 -13.199,-12.754 -3.145,-5.125 -4.715,-11.196 -4.75,-18.145 0,-4.414 0.843,-8.5663 2.445,-12.4608 1.605,-3.9258 3.906,-7.3672 6.949,-10.3516 3.043,-3.0195 6.703,-5.3867 11.035,-7.0742 4.297,-1.7227 9.153,-2.6016 14.563,-2.6328 4.363,0 8.453,0.5547 12.332,1.5937 3.875,1.0391 7.363,2.5625 10.539,4.543 3.18,2.0117 5.902,4.4453 8.14,7.3008 h 0.629 l 1.887,-11.293 h 27.867 c -0.418,2.2383 -0.73,4.7383 -0.972,7.4961 -0.25,2.7617 -0.426,5.6836 -0.563,8.7617 -0.109,3.1211 -0.141,6.2656 -0.141,9.4453 z m -30.171,-28.235 c -0.036,-3.441 -0.7,-6.363 -2.028,-8.761 -1.293,-2.3753 -2.933,-4.3206 -4.957,-5.7777 -2.023,-1.4648 -4.156,-2.5312 -6.355,-3.1835 -2.239,-0.6485 -4.258,-0.9727 -6.149,-0.9727 -2.617,0 -5.031,0.5195 -7.265,1.5586 -2.2,1.0039 -3.981,2.6289 -5.305,4.8008 -1.367,2.2075 -2.062,4.9995 -2.098,8.4375 0.036,3.93 1.047,7.141 2.969,9.703 1.953,2.531 4.543,4.512 7.824,5.942 3.282,1.425 6.91,2.433 10.961,3.019 4.02,0.551 8.176,0.844 12.403,0.813 z m 119.851,71.27 -10.48,-19.473 c -1.47,-2.828 -2.89,-5.683 -4.29,-8.605 -1.4,-2.883 -2.83,-5.809 -4.3,-8.731 h -0.42 c -1.43,2.731 -2.9,5.52 -4.33,8.348 -1.46,2.852 -3,5.773 -4.68,8.793 l -11.1,19.668 H 992.195 L 1026.77,127.91 991.359,72.9961 h 33.101 l 10.9,21.0312 c 1.46,2.8243 2.93,5.6446 4.36,8.5037 1.47,2.824 2.87,5.711 4.23,8.629 h 0.42 c 1.47,-2.918 2.9,-5.805 4.33,-8.629 1.43,-2.8591 2.9,-5.6794 4.47,-8.5037 l 11.52,-21.0312 h 34.79 l -35.2,56.0819 34.77,52.383 h -32.89"
         style="fill:#ed1c24;fill-opacity:1;fill-rule:nonzero;stroke:none"
         id="path12" />
      <path
         d="m 152.473,299.066 c 82.136,0 148.75,-66.66 148.75,-148.863 C 301.223,68.0039 234.609,1.34375 152.473,1.34375 70.332,1.34375 3.72266,68.0039 3.72266,150.203 c 0,82.203 66.60934,148.863 148.75034,148.863"
         style="fill:#2c5ba3;fill-opacity:1;fill-rule:evenodd;stroke:none"
         id="path14" />
      <path
         d="m 70.1016,230.172 c -12.9024,-50.918 169.3904,-7.828 173.0194,-37.379 2.789,-22.742 5.453,-61.77 -9.258,-62.902 -14.711,-1.133 -145.6872,-4.059 -143.8474,0.234 1.8399,4.293 -3.539,41.316 -3.539,49.352 0,11.695 24.2424,18.921 25.5584,-1.235 0.453,-6.941 14.395,-107.4529 -5.222,-114.1873 -11.0825,-3.8086 -13.5552,-4.6094 -18.7896,3.1094 -6.7265,9.9257 -7.2382,31.7851 2.0274,31.6093 L 235.129,95.9609 m -55.52,1.0743 c -9.281,-25.3399 8.418,-43.5157 25.121,-30.875 13.711,10.375 7.946,25.3593 0.379,30.3789"
         style="fill:none;stroke:#ffffff;stroke-width:15.0017;stroke-linecap:round;stroke-linejoin:round;stroke-miterlimit:22.9256;stroke-dasharray:none;stroke-opacity:1"
         id="path16" />
    </g>
  </g>
</svg>
