<?xml version="1.0" encoding="iso-8859-1"?>
<!-- Generator: Adobe Illustrator 24.3.0, SVG Export Plug-In . SVG Version: 6.00 Build 0)  -->
<svg version="1.1" id="Layer_2" xmlns="http://www.w3.org/2000/svg" xmlns:xlink="http://www.w3.org/1999/xlink" x="0px" y="0px"
	 viewBox="0 0 500 500" style="enable-background:new 0 0 500 500;" xml:space="preserve">
<g id="watermark_1_">
	<g>
		<g id="watermark" style="opacity:0.61;">
			<g>
				<g>
					<g>
						<g>
							<polygon style="fill:#FFFFFF;" points="213.765,461.172 208.204,474.017 205.268,474.017 199.726,461.172 202.938,461.172 
								206.846,470.347 210.81,461.172 							"/>
						</g>
						<g>
							<path style="fill:#FFFFFF;" d="M223.507,469.741h-7.469c0.275,1.23,1.321,1.982,2.826,1.982c1.046,0,1.798-0.312,2.477-0.954
								l1.523,1.651c-0.917,1.046-2.294,1.597-4.074,1.597c-3.413,0-5.634-2.147-5.634-5.083c0-2.954,2.257-5.083,5.267-5.083
								c2.899,0,5.138,1.945,5.138,5.12C223.562,469.191,223.526,469.503,223.507,469.741 M216.002,468.071h4.863
								c-0.202-1.248-1.138-2.055-2.422-2.055C217.139,466.016,216.204,466.805,216.002,468.071"/>
						</g>
						<g>
							<path style="fill:#FFFFFF;" d="M224.735,468.934c0-2.973,2.294-5.083,5.505-5.083c2.074,0,3.707,0.899,4.423,2.514
								l-2.22,1.193c-0.532-0.936-1.321-1.358-2.221-1.358c-1.45,0-2.587,1.009-2.587,2.734c0,1.725,1.138,2.734,2.587,2.734
								c0.899,0,1.688-0.404,2.221-1.358l2.22,1.211c-0.716,1.578-2.349,2.495-4.423,2.495
								C227.029,474.017,224.735,471.907,224.735,468.934"/>
						</g>
						<g>
							<path style="fill:#FFFFFF;" d="M242.828,473.393c-0.587,0.422-1.45,0.624-2.331,0.624c-2.33,0-3.688-1.193-3.688-3.542
								v-4.055h-1.523v-2.202h1.523v-2.404h2.863v2.404h2.459v2.202h-2.459v4.019c0,0.844,0.458,1.303,1.229,1.303
								c0.422,0,0.844-0.128,1.156-0.367L242.828,473.393z"/>
						</g>
					</g>
					<g>
						<path style="fill:#FFFFFF;" d="M262.474,463.997v2.643c-0.238-0.018-0.422-0.037-0.642-0.037
							c-1.578,0-2.624,0.862-2.624,2.753v4.661h-2.863v-9.873h2.734v1.303C259.776,464.493,260.951,463.997,262.474,463.997"/>
					</g>
					<g>
						<path style="fill:#FFFFFF;" d="M263.299,472.53l1.009-2.239c1.083,0.789,2.697,1.339,4.239,1.339
							c1.762,0,2.477-0.587,2.477-1.376c0-2.404-7.469-0.752-7.469-5.524c0-2.184,1.762-4,5.413-4c1.615,0,3.267,0.385,4.459,1.138
							l-0.918,2.257c-1.193-0.679-2.422-1.009-3.56-1.009c-1.761,0-2.44,0.66-2.44,1.468c0,2.367,7.468,0.734,7.468,5.45
							c0,2.147-1.78,3.982-5.45,3.982C266.492,474.017,264.437,473.411,263.299,472.53"/>
					</g>
					<g>
						<path style="fill:#FFFFFF;" d="M285.428,469.741h-7.469c0.275,1.23,1.321,1.982,2.826,1.982c1.046,0,1.798-0.312,2.477-0.954
							l1.523,1.651c-0.918,1.046-2.294,1.597-4.074,1.597c-3.413,0-5.634-2.147-5.634-5.083c0-2.954,2.257-5.083,5.267-5.083
							c2.9,0,5.138,1.945,5.138,5.12C285.484,469.191,285.447,469.503,285.428,469.741 M277.923,468.071h4.863
							c-0.202-1.248-1.138-2.055-2.422-2.055C279.061,466.016,278.125,466.805,277.923,468.071"/>
					</g>
					<g>
						<path style="fill:#FFFFFF;" d="M297.007,469.741h-7.469c0.275,1.23,1.321,1.982,2.826,1.982c1.046,0,1.798-0.312,2.477-0.954
							l1.523,1.651c-0.918,1.046-2.294,1.597-4.074,1.597c-3.413,0-5.634-2.147-5.634-5.083c0-2.954,2.257-5.083,5.267-5.083
							c2.899,0,5.138,1.945,5.138,5.12C297.062,469.191,297.025,469.503,297.007,469.741 M289.501,468.071h4.863
							c-0.202-1.248-1.138-2.055-2.422-2.055C290.639,466.016,289.703,466.805,289.501,468.071"/>
					</g>
					<g>
						<polygon style="fill:#FFFFFF;" points="303.208,470.145 301.831,471.503 301.831,474.017 298.969,474.017 298.969,460.401 
							301.831,460.401 301.831,468.108 306.016,464.144 309.429,464.144 305.318,468.328 309.796,474.017 306.327,474.017 						"/>
					</g>
					<g>
						<path style="fill:#FFFFFF;" d="M256.601,475.359L256.601,475.359l-2.86-2.86c-0.435,0.508-0.953,0.943-1.534,1.284
							c-0.092,0.069-0.186,0.136-0.283,0.199l3.027,3.027c0.456,0.456,1.195,0.456,1.65,0
							C257.057,476.554,257.057,475.815,256.601,475.359"/>
					</g>
					<g>
						<path style="fill:#FFFFFF;" d="M249.984,463.244c0.221-0.173,0.495-0.281,0.797-0.281c0.042,0,0.083,0.002,0.124,0.006
							c-0.214-0.156-0.478-0.249-0.764-0.249c-0.395,0-0.744,0.18-0.981,0.458c-0.051,0-0.1,0.006-0.151,0.008
							c0.039-0.077,0.064-0.162,0.064-0.255c0-0.234-0.143-0.434-0.346-0.519c0.087,0.126,0.138,0.279,0.138,0.445
							c0,0.122-0.031,0.237-0.081,0.341c-2.811,0.201-5.03,2.539-5.03,5.4c0,2.993,2.426,5.42,5.42,5.42
							c2.993,0,5.42-2.426,5.42-5.42C254.595,465.879,252.593,463.635,249.984,463.244 M247.983,464.656
							c0.435,0,0.844,0.112,1.199,0.309c0.374-0.245,0.82-0.387,1.299-0.387c0.711,0,1.348,0.312,1.784,0.806
							c-0.435-0.379-1.004-0.61-1.627-0.61c-0.449,0-0.87,0.12-1.234,0.329c-0.079,0.046-0.156,0.096-0.229,0.15
							c-0.065-0.048-0.133-0.093-0.204-0.134c-0.369-0.219-0.8-0.344-1.26-0.344c-0.3,0-0.588,0.054-0.854,0.152
							C247.196,464.754,247.578,464.656,247.983,464.656 M251.772,469.098c0.115,0.305,0.181,0.634,0.181,0.979
							c0,1.534-1.244,2.777-2.778,2.777c-1.534,0-2.777-1.243-2.777-2.777c0-0.345,0.066-0.674,0.181-0.979
							c-0.62-0.382-1.035-1.064-1.035-1.846c0-1.197,0.971-2.168,2.168-2.168c0.565,0,1.078,0.218,1.463,0.572
							c0.386-0.354,0.899-0.572,1.464-0.572c1.197,0,2.168,0.971,2.168,2.168C252.807,468.034,252.392,468.716,251.772,469.098"/>
					</g>
					<g>
						<path style="fill:#FFFFFF;" d="M251.666,467.061c0,0.497-0.404,0.901-0.901,0.901c-0.497,0-0.901-0.404-0.901-0.901
							s0.404-0.901,0.901-0.901c0.101,0,0.197,0.017,0.287,0.047c-0.03,0.062-0.045,0.132-0.045,0.204
							c0,0.273,0.221,0.494,0.494,0.494c0.05,0,0.099-0.008,0.146-0.022C251.66,466.941,251.666,467,251.666,467.061"/>
					</g>
					<g>
						<path style="fill:#FFFFFF;" d="M248.255,467.061c0,0.376-0.305,0.681-0.681,0.681c-0.376,0-0.681-0.305-0.681-0.681
							s0.305-0.681,0.681-0.681c0.076,0,0.149,0.013,0.217,0.035c-0.023,0.047-0.034,0.1-0.034,0.155
							c0,0.206,0.167,0.374,0.374,0.374c0.038,0,0.075-0.006,0.11-0.017C248.25,466.97,248.255,467.015,248.255,467.061"/>
					</g>
					<g>
						<g>
							<g>
								<rect x="242.908" y="467.83" style="fill:#FFFFFF;" width="0.616" height="0.616"/>
							</g>
							<g>
								<rect x="254.827" y="467.83" style="fill:#FFFFFF;" width="0.616" height="0.616"/>
							</g>
							<g>
								<path style="fill:#FFFFFF;" d="M255.205,468.082h-0.14c0-3.248-2.642-5.89-5.89-5.89c-3.248,0-5.89,2.642-5.89,5.89h-0.14
									c0-1.611,0.627-3.125,1.766-4.264c1.139-1.139,2.653-1.766,4.264-1.766c1.611,0,3.125,0.627,4.264,1.766
									C254.578,464.957,255.205,466.471,255.205,468.082"/>
							</g>
						</g>
						<g>
							<rect x="248.868" y="461.814" style="fill:#FFFFFF;" width="0.616" height="0.616"/>
						</g>
						<g>
							<rect x="244.95" y="462.052" style="fill:#FFFFFF;" width="8.45" height="0.14"/>
						</g>
						<g>
							<path style="fill:#FFFFFF;" d="M245.174,462.15c0,0.108-0.088,0.196-0.196,0.196c-0.108,0-0.196-0.088-0.196-0.196
								c0-0.108,0.088-0.196,0.196-0.196C245.086,461.954,245.174,462.042,245.174,462.15"/>
						</g>
						<g>
							<path style="fill:#FFFFFF;" d="M253.596,462.15c0,0.108-0.088,0.196-0.196,0.196c-0.108,0-0.196-0.088-0.196-0.196
								c0-0.108,0.088-0.196,0.196-0.196C253.509,461.954,253.596,462.042,253.596,462.15"/>
						</g>
					</g>
				</g>
				<g>
					<path style="fill:#FFFFFF;" d="M314.356,473.409c0,1.559-2.364,1.559-2.364,0C311.993,471.851,314.356,471.851,314.356,473.409
						z"/>
				</g>
				<g>
					<g>
						<g>
							<path style="fill:#FFFFFF;" d="M161.739,466.549l1.772,6.088l1.855-6.088h2.215l-2.823,8.14h-2.33l-0.837-2.396l-0.722-2.708
								l-0.722,2.708l-0.837,2.396h-2.33l-2.839-8.14h2.231l1.855,6.088l1.756-6.088H161.739z"/>
						</g>
						<g>
							<path style="fill:#FFFFFF;" d="M176.713,466.549l1.772,6.088l1.855-6.088h2.215l-2.823,8.14h-2.33l-0.837-2.396l-0.722-2.708
								l-0.722,2.708l-0.837,2.396h-2.33l-2.839-8.14h2.231l1.855,6.088l1.756-6.088H176.713z"/>
						</g>
						<g>
							<path style="fill:#FFFFFF;" d="M191.687,466.549l1.772,6.088l1.855-6.088h2.215l-2.823,8.14h-2.33l-0.837-2.396l-0.722-2.708
								l-0.722,2.708l-0.837,2.396h-2.33l-2.839-8.14h2.231l1.855,6.088l1.756-6.088H191.687z"/>
						</g>
					</g>
					<g>
						<path style="fill:#FFFFFF;" d="M200.908,473.52c0,1.559-2.364,1.559-2.364,0C198.545,471.962,200.908,471.962,200.908,473.52z
							"/>
					</g>
					<g>
						<path style="fill:#FFFFFF;" d="M322.71,473.409c-0.935,0.919-1.919,1.28-3.117,1.28c-2.346,0-4.3-1.411-4.3-4.282
							s1.953-4.284,4.3-4.284c1.149,0,2.035,0.329,2.921,1.199l-1.264,1.329c-0.476-0.428-1.066-0.64-1.623-0.64
							c-1.346,0-2.33,0.985-2.33,2.396c0,1.542,1.05,2.362,2.297,2.362c0.64,0,1.28-0.18,1.772-0.672L322.71,473.409z"/>
					</g>
					<g>
						<path style="fill:#FFFFFF;" d="M331.805,470.472c0,2.33-1.591,4.217-4.217,4.217c-2.626,0-4.201-1.887-4.201-4.217
							c0-2.314,1.609-4.217,4.185-4.217C330.149,466.255,331.805,468.158,331.805,470.472z M325.389,470.472
							c0,1.231,0.739,2.38,2.199,2.38c1.46,0,2.199-1.149,2.199-2.38c0-1.215-0.854-2.396-2.199-2.396
							C326.144,468.077,325.389,469.258,325.389,470.472z"/>
					</g>
					<g>
						<path style="fill:#FFFFFF;" d="M338.572,474.689v-4.332c0-1.068-0.559-2.035-1.658-2.035c-1.082,0-1.722,0.967-1.722,2.035
							v4.332h-2.003v-8.107h1.855l0.148,0.985c0.426-0.82,1.362-1.116,2.133-1.116c0.969,0,1.937,0.394,2.396,1.51
							c0.723-1.149,1.658-1.478,2.708-1.478c2.297,0,3.43,1.412,3.43,3.84v4.365h-2.003v-4.365c0-1.066-0.442-1.97-1.526-1.97
							c-1.082,0-1.756,0.935-1.756,2.003v4.332H338.572z"/>
					</g>
				</g>
			</g>
		</g>
		<g style="opacity:0.61;">
			<g>
				<g>
					<path style="fill:#FFFFFF;" d="M345.988,431.299c-0.006-1.224-0.959-2.121-2.189-2.14c-0.924-0.014-0.832,0.12-0.834-0.867
						c-0.003-1.097-0.007-2.194,0.003-3.292c0.003-0.379-0.112-0.691-0.362-0.976c-2.342-2.668-4.678-5.342-7.019-8.011
						c-0.12-0.137-0.275-0.244-0.414-0.366c-6.214,0-12.427,0-18.641,0c-0.794,0.293-1.14,0.868-1.138,1.709
						c0.01,3.748,0.004,7.496,0.004,11.243c0,0.556-0.003,0.589-0.55,0.551c-1.497-0.102-2.516,0.986-2.497,2.492
						c0.044,3.476,0.013,6.953,0.014,10.429c0.001,1.58,0.867,2.443,2.45,2.449c0.582,0.002,0.582,0.002,0.582,0.6
						c0,2.219-0.001,4.438,0.001,6.657c0.001,1.192,0.58,1.771,1.768,1.771c8.013,0.001,16.027,0.001,24.04,0
						c1.168,0,1.755-0.583,1.757-1.745c0.002-2.256,0-4.512,0.001-6.768c0-0.512,0.002-0.511,0.52-0.515
						c0.271-0.002,0.541,0.008,0.809-0.058c0.996-0.246,1.69-1.044,1.694-2.069C346.003,438.696,346.005,434.997,345.988,431.299z
						 M317.537,417.162c5.337,0,10.674,0,16.01,0c0.548,0,0.554,0.007,0.554,0.561c0.001,2.243-0.001,4.486,0.001,6.73
						c0.001,0.811,0.249,1.059,1.06,1.059c1.91,0.001,3.821,0,5.731,0.001c0.458,0,0.479,0.021,0.481,0.483
						c0.003,0.887,0.002,1.775,0,2.662c-0.001,0.477-0.024,0.498-0.504,0.499c-3.895,0.001-7.79,0-11.684,0
						c-3.882,0-7.765,0-11.647,0c-0.55,0-0.552-0.001-0.552-0.561c-0.001-3.624-0.001-7.247,0-10.871
						C316.987,417.166,316.991,417.162,317.537,417.162z M340.822,451.579c-3.883,0.001-7.766,0-11.65,0c-3.871,0-7.742,0-11.613,0
						c-0.572,0-0.574-0.002-0.574-0.579c-0.001-1.997-0.001-3.994,0.001-5.991c0-0.464,0.023-0.486,0.478-0.487
						c7.803-0.001,15.607-0.001,23.41,0c0.478,0,0.499,0.02,0.499,0.503c0.002,1.997,0.001,3.994,0,5.991
						C341.375,451.574,341.37,451.579,340.822,451.579z"/>
				</g>
				<g>
					<g>
						<rect x="327.418" y="417.053" style="fill:#FFFFFF;" width="1.757" height="1.054"/>
					</g>
					<g>
						<rect x="325.662" y="418.107" style="fill:#FFFFFF;" width="1.757" height="1.054"/>
					</g>
					<g>
						<rect x="327.418" y="419.161" style="fill:#FFFFFF;" width="1.757" height="1.054"/>
					</g>
					<g>
						<rect x="325.662" y="420.215" style="fill:#FFFFFF;" width="1.757" height="1.054"/>
					</g>
					<g>
						<rect x="327.418" y="421.269" style="fill:#FFFFFF;" width="1.757" height="1.054"/>
					</g>
					<g>
						<rect x="325.662" y="422.323" style="fill:#FFFFFF;" width="1.757" height="1.054"/>
					</g>
					<g>
						<rect x="327.418" y="423.378" style="fill:#FFFFFF;" width="1.757" height="1.054"/>
					</g>
					<g>
						<rect x="325.662" y="424.432" style="fill:#FFFFFF;" width="1.757" height="1.054"/>
					</g>
					<g>
						<rect x="327.418" y="425.486" style="fill:#FFFFFF;" width="1.757" height="1.054"/>
					</g>
					<g>
						<rect x="325.662" y="426.54" style="fill:#FFFFFF;" width="1.757" height="1.054"/>
					</g>
					<g>
						<rect x="327.418" y="427.594" style="fill:#FFFFFF;" width="1.757" height="1.054"/>
					</g>
					<g>
						<rect x="325.662" y="428.648" style="fill:#FFFFFF;" width="1.757" height="1.054"/>
					</g>
				</g>
			</g>
			<g>
				<path style="fill:#FFFFFF;" d="M187.637,431.299c-0.006-1.224-0.959-2.121-2.189-2.14c-0.924-0.014-0.832,0.12-0.834-0.867
					c-0.003-1.097-0.007-2.194,0.003-3.292c0.003-0.379-0.112-0.691-0.362-0.976c-2.342-2.668-4.678-5.342-7.019-8.011
					c-0.12-0.137-0.275-0.244-0.414-0.366c-6.214,0-12.427,0-18.641,0c-0.794,0.293-1.14,0.868-1.138,1.709
					c0.01,3.748,0.004,7.496,0.004,11.243c0,0.556-0.003,0.589-0.55,0.551c-1.497-0.102-2.516,0.986-2.497,2.492
					c0.044,3.476,0.013,6.953,0.014,10.429c0.001,1.58,0.867,2.443,2.45,2.449c0.582,0.002,0.582,0.002,0.582,0.6
					c0,2.219-0.001,4.438,0.001,6.657c0.001,1.192,0.58,1.771,1.768,1.771c8.013,0.001,16.027,0.001,24.04,0
					c1.168,0,1.755-0.583,1.757-1.745c0.002-2.256,0-4.512,0.001-6.768c0-0.512,0.002-0.511,0.52-0.515
					c0.271-0.002,0.541,0.008,0.809-0.058c0.996-0.246,1.69-1.044,1.694-2.069C187.652,438.696,187.655,434.997,187.637,431.299z
					 M159.187,417.162c5.337,0,10.674,0,16.01,0c0.548,0,0.554,0.007,0.554,0.561c0.001,2.243-0.001,4.486,0.001,6.73
					c0.001,0.811,0.249,1.059,1.06,1.059c1.91,0.001,3.821,0,5.731,0.001c0.458,0,0.479,0.021,0.481,0.483
					c0.003,0.887,0.002,1.775,0,2.662c-0.001,0.477-0.024,0.498-0.504,0.499c-3.895,0.001-7.79,0-11.684,0
					c-3.882,0-7.765,0-11.647,0c-0.55,0-0.552-0.001-0.552-0.561c-0.001-3.624-0.001-7.247,0-10.871
					C158.636,417.166,158.64,417.162,159.187,417.162z M182.472,451.579c-3.883,0.001-7.766,0-11.65,0c-3.871,0-7.742,0-11.613,0
					c-0.572,0-0.574-0.002-0.574-0.579c-0.001-1.997-0.001-3.994,0.001-5.991c0-0.464,0.023-0.486,0.478-0.487
					c7.803-0.001,15.607-0.001,23.41,0c0.478,0,0.499,0.02,0.499,0.503c0.002,1.997,0.001,3.994,0,5.991
					C183.024,451.574,183.019,451.579,182.472,451.579z"/>
			</g>
			<g>
				<path style="fill:#FFFFFF;" d="M159.779,440.669v-7.897h2.779c0.375,0,0.726,0.061,1.053,0.182
					c0.327,0.121,0.612,0.292,0.855,0.513c0.242,0.221,0.434,0.483,0.573,0.789c0.14,0.305,0.21,0.642,0.21,1.009
					c0,0.375-0.07,0.715-0.21,1.02c-0.14,0.305-0.331,0.568-0.573,0.789c-0.243,0.221-0.528,0.392-0.855,0.513
					c-0.327,0.121-0.678,0.182-1.053,0.182h-1.29v2.901H159.779z M162.58,436.356c0.39,0,0.684-0.111,0.882-0.331
					c0.199-0.22,0.298-0.474,0.298-0.761c0-0.14-0.024-0.276-0.072-0.408c-0.048-0.132-0.121-0.248-0.221-0.347
					c-0.099-0.099-0.223-0.178-0.37-0.237c-0.147-0.059-0.32-0.089-0.518-0.089h-1.312v2.173H162.58z"/>
				<path style="fill:#FFFFFF;" d="M166.308,432.771h1.731l3.177,5.294h0.088l-0.088-1.522v-3.772h1.478v7.897h-1.566l-3.353-5.592
					h-0.088l0.088,1.522v4.07h-1.467V432.771z"/>
				<path style="fill:#FFFFFF;" d="M177.922,436.334h3.872c0.022,0.089,0.04,0.195,0.055,0.32c0.014,0.125,0.022,0.25,0.022,0.375
					c0,0.507-0.077,0.985-0.231,1.434c-0.154,0.449-0.397,0.849-0.728,1.202c-0.353,0.375-0.776,0.666-1.268,0.871
					c-0.493,0.206-1.055,0.309-1.688,0.309c-0.574,0-1.114-0.103-1.622-0.309c-0.507-0.206-0.948-0.492-1.323-0.86
					c-0.375-0.367-0.673-0.803-0.894-1.307c-0.221-0.504-0.331-1.053-0.331-1.649c0-0.595,0.11-1.145,0.331-1.649
					c0.221-0.504,0.518-0.939,0.894-1.307c0.375-0.367,0.816-0.654,1.323-0.86c0.507-0.206,1.048-0.309,1.622-0.309
					c0.64,0,1.211,0.11,1.715,0.331c0.504,0.221,0.935,0.526,1.296,0.915l-1.025,1.004c-0.258-0.272-0.544-0.48-0.861-0.623
					c-0.316-0.143-0.695-0.215-1.136-0.215c-0.361,0-0.703,0.065-1.026,0.193c-0.324,0.129-0.607,0.311-0.85,0.546
					c-0.242,0.235-0.436,0.52-0.579,0.855c-0.143,0.335-0.215,0.708-0.215,1.119c0,0.412,0.072,0.785,0.215,1.12
					c0.143,0.335,0.338,0.62,0.584,0.855c0.246,0.235,0.531,0.418,0.855,0.546c0.323,0.129,0.669,0.193,1.037,0.193
					c0.419,0,0.773-0.061,1.064-0.182c0.29-0.121,0.538-0.278,0.744-0.469c0.148-0.132,0.275-0.3,0.381-0.502
					c0.106-0.202,0.189-0.428,0.248-0.678h-2.482V436.334z"/>
			</g>
			<g>
				<path style="fill:#FFFFFF;" d="M224.019,431.299c-0.006-1.224-0.959-2.121-2.189-2.14c-0.924-0.014-0.832,0.12-0.834-0.867
					c-0.003-1.097-0.007-2.194,0.003-3.292c0.003-0.379-0.112-0.691-0.362-0.976c-2.342-2.668-4.678-5.342-7.019-8.011
					c-0.12-0.137-0.275-0.244-0.414-0.366c-6.214,0-12.427,0-18.641,0c-0.794,0.293-1.14,0.868-1.138,1.709
					c0.01,3.748,0.004,7.496,0.004,11.243c0,0.556-0.003,0.589-0.55,0.551c-1.497-0.102-2.516,0.986-2.497,2.492
					c0.044,3.476,0.013,6.953,0.014,10.429c0.001,1.58,0.867,2.443,2.45,2.449c0.582,0.002,0.582,0.002,0.582,0.6
					c0,2.219-0.001,4.438,0.001,6.657c0.001,1.192,0.58,1.771,1.768,1.771c8.013,0.001,16.027,0.001,24.04,0
					c1.168,0,1.755-0.583,1.757-1.745c0.002-2.256,0-4.512,0.001-6.768c0-0.512,0.002-0.511,0.52-0.515
					c0.271-0.002,0.541,0.008,0.809-0.058c0.997-0.246,1.69-1.044,1.694-2.069C224.034,438.696,224.036,434.997,224.019,431.299z
					 M195.568,417.162c5.337,0,10.674,0,16.01,0c0.548,0,0.554,0.007,0.554,0.561c0.001,2.243-0.001,4.486,0.001,6.73
					c0.001,0.811,0.249,1.059,1.06,1.059c1.91,0.001,3.821,0,5.731,0.001c0.458,0,0.479,0.021,0.481,0.483
					c0.003,0.887,0.002,1.775,0,2.662c-0.001,0.477-0.024,0.498-0.504,0.499c-3.895,0.001-7.79,0-11.684,0
					c-3.882,0-7.765,0-11.647,0c-0.55,0-0.552-0.001-0.552-0.561c-0.001-3.624-0.001-7.247,0-10.871
					C195.018,417.166,195.022,417.162,195.568,417.162z M218.854,451.579c-3.883,0.001-7.766,0-11.65,0c-3.871,0-7.742,0-11.613,0
					c-0.572,0-0.574-0.002-0.574-0.579c-0.001-1.997-0.001-3.994,0.001-5.991c0-0.464,0.023-0.486,0.478-0.487
					c7.803-0.001,15.607-0.001,23.41,0c0.478,0,0.499,0.02,0.499,0.503c0.002,1.997,0.001,3.994,0,5.991
					C219.406,451.574,219.401,451.579,218.854,451.579z"/>
			</g>
			<g>
				<path style="fill:#FFFFFF;" d="M205.111,432.771h1.699l2.967,7.897h-1.644l-0.651-1.886h-3.044l-0.651,1.886h-1.643
					L205.111,432.771z M206.997,437.415l-0.706-1.974l-0.287-0.96h-0.088l-0.287,0.96l-0.706,1.974H206.997z"/>
				<path style="fill:#FFFFFF;" d="M211.331,434.536c-0.125,0-0.245-0.024-0.359-0.072c-0.114-0.048-0.213-0.114-0.298-0.199
					c-0.084-0.084-0.151-0.182-0.198-0.292c-0.048-0.11-0.072-0.232-0.072-0.364s0.024-0.254,0.072-0.364
					c0.048-0.11,0.114-0.208,0.198-0.292c0.084-0.084,0.184-0.151,0.298-0.198c0.114-0.048,0.233-0.072,0.359-0.072
					c0.257,0,0.478,0.09,0.662,0.27c0.184,0.181,0.276,0.399,0.276,0.656s-0.092,0.476-0.276,0.656
					C211.809,434.446,211.589,434.536,211.331,434.536z M210.615,440.669v-5.404h1.445v5.404H210.615z"/>
			</g>
			<g>
				<path style="fill:#FFFFFF;" d="M261.044,431.299c-0.006-1.224-0.959-2.121-2.189-2.14c-0.924-0.014-0.832,0.12-0.834-0.867
					c-0.003-1.097-0.007-2.194,0.003-3.292c0.003-0.379-0.112-0.691-0.362-0.976c-2.342-2.668-4.678-5.342-7.019-8.011
					c-0.12-0.137-0.275-0.244-0.414-0.366c-6.214,0-12.427,0-18.641,0c-0.794,0.293-1.14,0.868-1.138,1.709
					c0.01,3.748,0.004,7.496,0.004,11.243c0,0.556-0.003,0.589-0.55,0.551c-1.497-0.102-2.516,0.986-2.497,2.492
					c0.044,3.476,0.013,6.953,0.014,10.429c0.001,1.58,0.867,2.443,2.45,2.449c0.582,0.002,0.582,0.002,0.582,0.6
					c0,2.219-0.001,4.438,0.001,6.657c0.001,1.192,0.58,1.771,1.768,1.771c8.013,0.001,16.027,0.001,24.04,0
					c1.168,0,1.755-0.583,1.757-1.745c0.002-2.256,0-4.512,0.001-6.768c0-0.512,0.002-0.511,0.52-0.515
					c0.271-0.002,0.541,0.008,0.809-0.058c0.996-0.246,1.69-1.044,1.694-2.069C261.059,438.696,261.061,434.997,261.044,431.299z
					 M232.593,417.162c5.337,0,10.674,0,16.01,0c0.548,0,0.554,0.007,0.554,0.561c0.001,2.243-0.001,4.486,0.001,6.73
					c0.001,0.811,0.249,1.059,1.06,1.059c1.91,0.001,3.821,0,5.731,0.001c0.458,0,0.479,0.021,0.481,0.483
					c0.003,0.887,0.002,1.775,0,2.662c-0.001,0.477-0.024,0.498-0.504,0.499c-3.895,0.001-7.79,0-11.684,0
					c-3.882,0-7.765,0-11.647,0c-0.55,0-0.552-0.001-0.552-0.561c-0.001-3.624-0.001-7.247,0-10.871
					C232.042,417.166,232.047,417.162,232.593,417.162z M255.878,451.579c-3.883,0.001-7.766,0-11.65,0c-3.871,0-7.742,0-11.613,0
					c-0.572,0-0.574-0.002-0.574-0.579c-0.001-1.997-0.001-3.994,0.001-5.991c0-0.464,0.023-0.486,0.478-0.487
					c7.803-0.001,15.607-0.001,23.41,0c0.478,0,0.499,0.02,0.499,0.503c0.002,1.997,0.001,3.994,0,5.991
					C256.431,451.574,256.426,451.579,255.878,451.579z"/>
			</g>
			<g>
				<path style="fill:#FFFFFF;" d="M236.361,440.845c-0.338,0-0.662-0.048-0.971-0.143c-0.309-0.095-0.592-0.239-0.849-0.43
					c-0.257-0.191-0.481-0.425-0.673-0.7c-0.191-0.276-0.342-0.597-0.452-0.965l1.401-0.551c0.103,0.397,0.283,0.726,0.54,0.987
					c0.257,0.261,0.596,0.392,1.015,0.392c0.154,0,0.303-0.02,0.447-0.061c0.143-0.04,0.272-0.099,0.386-0.176
					s0.204-0.175,0.27-0.292c0.066-0.118,0.099-0.254,0.099-0.408c0-0.147-0.026-0.279-0.077-0.397
					c-0.051-0.117-0.138-0.227-0.259-0.331c-0.121-0.103-0.28-0.202-0.475-0.298c-0.195-0.095-0.435-0.195-0.722-0.298l-0.485-0.176
					c-0.213-0.073-0.429-0.173-0.645-0.298c-0.217-0.125-0.413-0.276-0.59-0.452c-0.177-0.176-0.322-0.384-0.436-0.623
					c-0.114-0.239-0.171-0.509-0.171-0.81c0-0.309,0.06-0.597,0.182-0.866c0.121-0.268,0.294-0.503,0.518-0.706
					c0.224-0.202,0.492-0.36,0.805-0.474s0.66-0.171,1.042-0.171c0.397,0,0.74,0.053,1.031,0.16
					c0.291,0.107,0.537,0.243,0.739,0.408c0.202,0.165,0.366,0.348,0.491,0.546c0.125,0.199,0.217,0.386,0.276,0.563l-1.312,0.551
					c-0.074-0.221-0.208-0.419-0.402-0.596c-0.195-0.176-0.462-0.265-0.8-0.265c-0.324,0-0.592,0.075-0.805,0.226
					c-0.213,0.151-0.32,0.348-0.32,0.59c0,0.235,0.103,0.436,0.309,0.601c0.206,0.165,0.533,0.325,0.982,0.48l0.497,0.165
					c0.316,0.111,0.605,0.237,0.866,0.381c0.261,0.143,0.485,0.314,0.673,0.513c0.187,0.199,0.331,0.425,0.43,0.678
					c0.1,0.254,0.149,0.546,0.149,0.877c0,0.412-0.083,0.767-0.248,1.064c-0.165,0.298-0.377,0.542-0.634,0.734
					c-0.258,0.191-0.548,0.335-0.872,0.43C236.986,440.797,236.67,440.845,236.361,440.845z"/>
				<path style="fill:#FFFFFF;" d="M239.516,432.771h1.61l1.633,4.754l0.287,1.015h0.088l0.309-1.015l1.699-4.754h1.61l-2.879,7.897
					h-1.566L239.516,432.771z"/>
				<path style="fill:#FFFFFF;" d="M251.097,436.334h3.871c0.022,0.089,0.04,0.195,0.055,0.32c0.015,0.125,0.023,0.25,0.023,0.375
					c0,0.507-0.078,0.985-0.232,1.434c-0.154,0.449-0.397,0.849-0.728,1.202c-0.353,0.375-0.775,0.666-1.268,0.871
					c-0.493,0.206-1.055,0.309-1.688,0.309c-0.574,0-1.114-0.103-1.621-0.309c-0.507-0.206-0.949-0.492-1.324-0.86
					c-0.375-0.367-0.673-0.803-0.894-1.307c-0.22-0.504-0.331-1.053-0.331-1.649c0-0.595,0.11-1.145,0.331-1.649
					c0.221-0.504,0.518-0.939,0.894-1.307c0.375-0.367,0.816-0.654,1.324-0.86c0.507-0.206,1.047-0.309,1.621-0.309
					c0.64,0,1.211,0.11,1.715,0.331c0.504,0.221,0.936,0.526,1.296,0.915l-1.026,1.004c-0.257-0.272-0.544-0.48-0.861-0.623
					c-0.316-0.143-0.694-0.215-1.136-0.215c-0.36,0-0.702,0.065-1.026,0.193c-0.323,0.129-0.607,0.311-0.849,0.546
					c-0.243,0.235-0.436,0.52-0.579,0.855c-0.143,0.335-0.215,0.708-0.215,1.119c0,0.412,0.072,0.785,0.215,1.12
					c0.143,0.335,0.338,0.62,0.585,0.855c0.246,0.235,0.531,0.418,0.854,0.546c0.324,0.129,0.669,0.193,1.037,0.193
					c0.419,0,0.774-0.061,1.064-0.182c0.29-0.121,0.539-0.278,0.745-0.469c0.147-0.132,0.274-0.3,0.38-0.502
					c0.107-0.202,0.189-0.428,0.248-0.678h-2.482V436.334z"/>
			</g>
			<g>
				<path style="fill:#FFFFFF;" d="M297.3,431.299c-0.006-1.224-0.959-2.121-2.189-2.14c-0.924-0.014-0.832,0.12-0.834-0.867
					c-0.003-1.097-0.007-2.194,0.003-3.292c0.003-0.379-0.112-0.691-0.362-0.976c-2.342-2.668-4.678-5.342-7.019-8.011
					c-0.12-0.137-0.275-0.244-0.414-0.366c-6.214,0-12.427,0-18.641,0c-0.794,0.293-1.14,0.868-1.138,1.709
					c0.01,3.748,0.004,7.496,0.004,11.243c0,0.556-0.003,0.589-0.55,0.551c-1.497-0.102-2.516,0.986-2.497,2.492
					c0.044,3.476,0.013,6.953,0.014,10.429c0.001,1.58,0.867,2.443,2.45,2.449c0.582,0.002,0.582,0.002,0.582,0.6
					c0,2.219-0.001,4.438,0.001,6.657c0.001,1.192,0.58,1.771,1.768,1.771c8.013,0.001,16.027,0.001,24.04,0
					c1.168,0,1.755-0.583,1.757-1.745c0.002-2.256,0-4.512,0.001-6.768c0-0.512,0.002-0.511,0.52-0.515
					c0.271-0.002,0.541,0.008,0.809-0.058c0.996-0.246,1.69-1.044,1.694-2.069C297.315,438.696,297.318,434.997,297.3,431.299z
					 M268.85,417.162c5.337,0,10.674,0,16.01,0c0.548,0,0.554,0.007,0.554,0.561c0.001,2.243-0.001,4.486,0.001,6.73
					c0.001,0.811,0.249,1.059,1.06,1.059c1.91,0.001,3.821,0,5.731,0.001c0.458,0,0.479,0.021,0.481,0.483
					c0.003,0.887,0.002,1.775,0,2.662c-0.001,0.477-0.024,0.498-0.504,0.499c-3.895,0.001-7.79,0-11.684,0
					c-3.882,0-7.765,0-11.647,0c-0.55,0-0.552-0.001-0.552-0.561c-0.001-3.624-0.001-7.247,0-10.871
					C268.299,417.166,268.303,417.162,268.85,417.162z M292.135,451.579c-3.883,0.001-7.766,0-11.65,0c-3.871,0-7.742,0-11.613,0
					c-0.572,0-0.574-0.002-0.574-0.579c-0.001-1.997-0.001-3.994,0.001-5.991c0-0.464,0.023-0.486,0.478-0.487
					c7.803-0.001,15.607-0.001,23.41,0c0.478,0,0.499,0.02,0.499,0.503c0.001,1.997,0.001,3.994,0,5.991
					C292.687,451.574,292.682,451.579,292.135,451.579z"/>
			</g>
			<g>
				<path style="fill:#FFFFFF;" d="M272.966,434.183v1.831h3.165v1.412h-3.165v1.831h3.518v1.412h-5.007v-7.897h5.007v1.412H272.966
					z"/>
				<path style="fill:#FFFFFF;" d="M277.852,440.669v-7.897h2.779c0.375,0,0.726,0.061,1.053,0.182
					c0.327,0.121,0.612,0.292,0.855,0.513c0.243,0.221,0.434,0.483,0.574,0.789c0.14,0.305,0.209,0.642,0.209,1.009
					c0,0.375-0.07,0.715-0.209,1.02c-0.14,0.305-0.331,0.568-0.574,0.789c-0.243,0.221-0.528,0.392-0.855,0.513
					c-0.327,0.121-0.678,0.182-1.053,0.182h-1.29v2.901H277.852z M280.653,436.356c0.389,0,0.684-0.111,0.882-0.331
					c0.199-0.22,0.298-0.474,0.298-0.761c0-0.14-0.024-0.276-0.072-0.408c-0.048-0.132-0.121-0.248-0.221-0.347
					c-0.099-0.099-0.222-0.178-0.37-0.237c-0.147-0.059-0.32-0.089-0.518-0.089h-1.312v2.173H280.653z"/>
				<path style="fill:#FFFFFF;" d="M286.797,440.845c-0.338,0-0.662-0.048-0.971-0.143c-0.309-0.095-0.592-0.239-0.849-0.43
					c-0.257-0.191-0.482-0.425-0.673-0.7c-0.191-0.276-0.342-0.597-0.452-0.965l1.401-0.551c0.103,0.397,0.283,0.726,0.541,0.987
					c0.257,0.261,0.595,0.392,1.015,0.392c0.154,0,0.303-0.02,0.447-0.061c0.143-0.04,0.272-0.099,0.386-0.176
					c0.114-0.077,0.204-0.175,0.27-0.292c0.066-0.118,0.1-0.254,0.1-0.408c0-0.147-0.026-0.279-0.077-0.397
					c-0.051-0.117-0.138-0.227-0.259-0.331c-0.121-0.103-0.279-0.202-0.474-0.298c-0.195-0.095-0.436-0.195-0.723-0.298
					l-0.485-0.176c-0.213-0.073-0.428-0.173-0.645-0.298c-0.217-0.125-0.414-0.276-0.59-0.452c-0.176-0.176-0.322-0.384-0.436-0.623
					c-0.114-0.239-0.171-0.509-0.171-0.81c0-0.309,0.061-0.597,0.182-0.866c0.121-0.268,0.294-0.503,0.518-0.706
					c0.224-0.202,0.493-0.36,0.805-0.474c0.312-0.114,0.66-0.171,1.042-0.171c0.397,0,0.741,0.053,1.031,0.16
					c0.29,0.107,0.537,0.243,0.739,0.408c0.202,0.165,0.365,0.348,0.491,0.546c0.125,0.199,0.217,0.386,0.276,0.563l-1.312,0.551
					c-0.074-0.221-0.208-0.419-0.403-0.596c-0.195-0.176-0.462-0.265-0.799-0.265c-0.324,0-0.592,0.075-0.805,0.226
					c-0.213,0.151-0.32,0.348-0.32,0.59c0,0.235,0.103,0.436,0.309,0.601c0.206,0.165,0.533,0.325,0.982,0.48l0.496,0.165
					c0.316,0.111,0.605,0.237,0.866,0.381c0.261,0.143,0.485,0.314,0.673,0.513c0.187,0.199,0.331,0.425,0.43,0.678
					c0.099,0.254,0.149,0.546,0.149,0.877c0,0.412-0.083,0.767-0.248,1.064c-0.165,0.298-0.377,0.542-0.634,0.734
					c-0.258,0.191-0.548,0.335-0.872,0.43C287.422,440.797,287.105,440.845,286.797,440.845z"/>
			</g>
			<g>
				<path style="fill:#FFFFFF;" d="M321.394,439.168l4.004-4.985h-3.827v-1.412h5.559v1.5l-3.96,4.985h4.004v1.412h-5.779V439.168z"
					/>
				<path style="fill:#FFFFFF;" d="M328.409,432.771h1.489v7.897h-1.489V432.771z"/>
				<path style="fill:#FFFFFF;" d="M331.486,440.669v-7.897h2.779c0.375,0,0.726,0.061,1.053,0.182
					c0.327,0.121,0.612,0.292,0.855,0.513s0.434,0.483,0.574,0.789c0.14,0.305,0.209,0.642,0.209,1.009
					c0,0.375-0.07,0.715-0.209,1.02c-0.14,0.305-0.331,0.568-0.574,0.789c-0.243,0.221-0.528,0.392-0.855,0.513
					c-0.327,0.121-0.678,0.182-1.053,0.182h-1.29v2.901H331.486z M334.288,436.356c0.389,0,0.684-0.111,0.882-0.331
					c0.199-0.22,0.298-0.474,0.298-0.761c0-0.14-0.024-0.276-0.072-0.408c-0.048-0.132-0.121-0.248-0.221-0.347
					c-0.099-0.099-0.222-0.178-0.37-0.237c-0.147-0.059-0.32-0.089-0.518-0.089h-1.312v2.173H334.288z"/>
			</g>
		</g>
		<g style="opacity:0.61;">
			<path style="fill:#FFFFFF;" d="M300.133,433.27h9.067v2.242h-9.067V433.27z M300.133,437.136h9.067v2.243h-9.067V437.136z"/>
		</g>
	</g>
	<g style="opacity:0.61;">
		<path style="fill:#FFFFFF;" d="M156.756,478.878h1.607c1.263,0,2.114,0.812,2.114,1.974c0,1.161-0.851,1.973-2.114,1.973h-1.607
			V478.878z M158.34,482.464c1.049,0,1.725-0.665,1.725-1.612c0-0.947-0.677-1.613-1.725-1.613h-1.167v3.225H158.34z"/>
		<path style="fill:#FFFFFF;" d="M165.139,480.851c0-1.15,0.879-2.007,2.075-2.007c1.184,0,2.069,0.851,2.069,2.007
			c0,1.156-0.885,2.007-2.069,2.007C166.019,482.858,165.139,482.002,165.139,480.851z M168.866,480.851
			c0-0.942-0.705-1.635-1.652-1.635c-0.953,0-1.663,0.693-1.663,1.635c0,0.941,0.71,1.635,1.663,1.635
			C168.162,482.486,168.866,481.793,168.866,480.851z"/>
		<path style="fill:#FFFFFF;" d="M179.596,478.878l-1.331,3.947h-0.44l-1.156-3.366l-1.161,3.366h-0.434l-1.331-3.947h0.429
			l1.139,3.394l1.178-3.394h0.389l1.161,3.411l1.156-3.411H179.596z"/>
		<path style="fill:#FFFFFF;" d="M187.731,478.878v3.947h-0.344l-2.537-3.202v3.202h-0.417v-3.947h0.344l2.543,3.203v-3.203H187.731
			z"/>
		<path style="fill:#FFFFFF;" d="M193.093,478.878h0.417v3.586h2.21v0.361h-2.627V478.878z"/>
		<path style="fill:#FFFFFF;" d="M200.061,480.851c0-1.15,0.879-2.007,2.075-2.007c1.184,0,2.069,0.851,2.069,2.007
			c0,1.156-0.885,2.007-2.069,2.007C200.941,482.858,200.061,482.002,200.061,480.851z M203.788,480.851
			c0-0.942-0.705-1.635-1.652-1.635c-0.953,0-1.663,0.693-1.663,1.635c0,0.941,0.71,1.635,1.663,1.635
			C203.083,482.486,203.788,481.793,203.788,480.851z"/>
		<path style="fill:#FFFFFF;" d="M211.636,481.77h-2.199l-0.474,1.054h-0.434l1.804-3.947h0.412l1.804,3.947h-0.44L211.636,481.77z
			 M211.484,481.432l-0.947-2.12l-0.947,2.12H211.484z"/>
		<path style="fill:#FFFFFF;" d="M217.28,478.878h1.607c1.263,0,2.114,0.812,2.114,1.974c0,1.161-0.851,1.973-2.114,1.973h-1.607
			V478.878z M218.864,482.464c1.049,0,1.725-0.665,1.725-1.612c0-0.947-0.677-1.613-1.725-1.613h-1.167v3.225H218.864z"/>
		<path style="fill:#FFFFFF;" d="M234.041,481.77h-2.199l-0.474,1.054h-0.434l1.804-3.947h0.412l1.804,3.947h-0.44L234.041,481.77z
			 M233.889,481.432l-0.947-2.12l-0.947,2.12H233.889z"/>
		<path style="fill:#FFFFFF;" d="M239.685,478.878h0.417v3.586h2.21v0.361h-2.627V478.878z"/>
		<path style="fill:#FFFFFF;" d="M247.082,478.878h0.417v3.586h2.21v0.361h-2.627V478.878z"/>
		<path style="fill:#FFFFFF;" d="M260.449,479.239v1.551h2.041v0.361h-2.041v1.675h-0.417v-3.947h2.706v0.361H260.449z"/>
		<path style="fill:#FFFFFF;" d="M267.678,478.878h0.417v3.947h-0.417V478.878z"/>
		<path style="fill:#FFFFFF;" d="M273.456,478.878h0.417v3.586h2.21v0.361h-2.627V478.878z"/>
		<path style="fill:#FFFFFF;" d="M283.644,482.464v0.361h-2.791v-3.947h2.706v0.361h-2.289v1.404h2.041v0.355h-2.041v1.466H283.644z
			"/>
		<path style="fill:#FFFFFF;" d="M294.672,479.239v1.551h2.041v0.361h-2.041v1.675h-0.417v-3.947h2.706v0.361H294.672z"/>
		<path style="fill:#FFFFFF;" d="M301.5,480.851c0-1.15,0.879-2.007,2.075-2.007c1.184,0,2.069,0.851,2.069,2.007
			c0,1.156-0.885,2.007-2.069,2.007C302.379,482.858,301.5,482.002,301.5,480.851z M305.226,480.851
			c0-0.942-0.705-1.635-1.652-1.635c-0.953,0-1.663,0.693-1.663,1.635c0,0.941,0.71,1.635,1.663,1.635
			C304.522,482.486,305.226,481.793,305.226,480.851z"/>
		<path style="fill:#FFFFFF;" d="M313.351,482.825l-0.902-1.269c-0.102,0.011-0.203,0.017-0.316,0.017h-1.06v1.252h-0.417v-3.947
			h1.477c1.004,0,1.613,0.507,1.613,1.353c0,0.62-0.327,1.054-0.902,1.24l0.964,1.353H313.351z M313.328,480.231
			c0-0.632-0.417-0.992-1.207-0.992h-1.048v1.979h1.048C312.911,481.218,313.328,480.851,313.328,480.231z"/>
		<path style="fill:#FFFFFF;" d="M322.907,478.878v3.947h-0.4v-3.158l-1.551,2.656h-0.197l-1.551-2.639v3.14h-0.4v-3.947h0.344
			l1.714,2.926l1.697-2.926H322.907z"/>
		<path style="fill:#FFFFFF;" d="M330.744,481.77h-2.199l-0.473,1.054h-0.434l1.804-3.947h0.411l1.804,3.947h-0.44L330.744,481.77z
			 M330.592,481.432l-0.947-2.12l-0.947,2.12H330.592z"/>
		<path style="fill:#FFFFFF;" d="M336.957,479.239h-1.387v-0.361h3.192v0.361h-1.387v3.586h-0.417V479.239z"/>
		<path style="fill:#FFFFFF;" d="M343.063,482.346l0.164-0.321c0.282,0.276,0.784,0.479,1.302,0.479c0.739,0,1.06-0.31,1.06-0.699
			c0-1.083-2.43-0.417-2.43-1.877c0-0.581,0.451-1.083,1.455-1.083c0.446,0,0.908,0.13,1.224,0.35l-0.141,0.333
			c-0.338-0.22-0.733-0.327-1.083-0.327c-0.722,0-1.043,0.321-1.043,0.716c0,1.083,2.43,0.429,2.43,1.866
			c0,0.581-0.462,1.077-1.472,1.077C343.937,482.858,343.356,482.65,343.063,482.346z"/>
	</g>
</g>
<g>
</g>
<g>
	<path d="M298.761,202.47c-77.346,22.211-143.605,27.801-148.004,12.492c-4.39-15.31,54.747-45.717,132.094-67.928
		c34.759-9.979,67.255-16.59,92.936-19.475c-28.52,0.171-70.65,7.117-116.441,20.265c-79.547,22.845-139.921,55.714-134.834,73.405
		c5.079,17.721,73.696,13.554,153.242-9.291c31.522-9.052,60.001-19.671,82.619-30.304
		C342.106,188.891,321.214,196.026,298.761,202.47z"/>
	<path d="M130.658,351.874c-0.946,0-1.256,0.631-1.572,2.358c-0.469,2.828-2.52,9.751-5.819,13.212
		c-6.288,6.441-15.566,7.861-27.361,7.861c-33.648,0-56.76-27.515-56.76-57.554c0-16.034,2.678-30.027,14.152-41.032
		c5.502-5.345,15.252-11.479,36.167-11.479c13.836,0,25.937,4.248,31.444,8.962c4.087,3.461,6.603,9.902,6.603,16.036
		c0,2.199,0.158,3.304,1.256,3.304c0.942,0,1.258-0.946,1.416-3.304c0.158-2.356,0.158-11.007,0.472-16.193
		c0.316-5.662,0.789-7.546,0.789-8.805c0-0.938-0.315-1.571-2.051-1.727c-5.029-0.315-10.06-1.263-16.035-2.358
		c-7.703-1.418-16.509-1.892-22.8-1.892c-24.212,0-38.521,7.395-47.957,16.823C28.61,290.08,25,308.482,25,319.014
		c0,14.939,3.768,32.859,19.024,46.537c12.421,11.163,28.303,16.982,51.883,16.982c10.068,0,22.015-1.095,28.303-3.611
		c2.83-1.259,3.146-1.575,4.091-4.565c1.57-5.345,3.458-19.021,3.458-20.125C131.759,352.979,131.447,351.874,130.658,351.874z
		 M208.803,359.113c-0.789,0-1.096,0.622-1.411,2.356c-1.104,6.449-2.989,9.586-7.08,11.32c-4.083,1.727-11.006,1.727-15.089,1.727
		c-15.413,0-17.771-2.043-18.243-12.891c-0.158-3.302,0-21.544,0-26.892v-13.835c0-0.622,0.314-1.095,1.104-1.095
		c2.672,0,18.235,0.315,22.484,0.779c6.125,0.631,7.544,3.302,8.176,5.503c0.621,2.049,0.621,3.617,0.621,5.196
		c0,0.779,0.316,1.412,1.105,1.412c1.104,0,1.104-1.727,1.104-2.991c0-1.095,0.315-6.913,0.624-10.059
		c0.472-5.186,1.261-7.861,1.261-8.807c0-0.944-0.316-1.259-0.789-1.259c-0.623,0-1.253,0.785-2.357,2.049
		c-1.411,1.569-3.619,1.884-7.387,2.199c-3.618,0.315-22.958,0.315-24.999,0.315c-0.789,0-0.946-0.472-0.946-1.577v-43.392
		c0-1.105,0.314-1.579,0.946-1.579c1.726,0,18.866,0.159,21.538,0.474c8.491,0.948,10.059,2.832,11.163,5.345
		c0.788,1.894,0.946,4.565,0.946,5.662c0,1.261,0.315,2.049,1.253,2.049c0.632,0,0.947-0.944,1.104-1.733
		c0.315-1.884,0.631-8.805,0.789-10.374c0.464-4.409,1.253-6.293,1.253-7.398c0-0.779-0.158-1.412-0.632-1.412
		c-0.78,0-1.411,0.633-2.199,0.789c-1.253,0.315-3.777,0.622-6.756,0.781c-3.619,0.157-34.911,0.157-36.01,0.157l-6.445-0.315
		c-3.462-0.149-7.707-0.149-11.321-0.149c-1.734,0-2.515,0.307-2.515,1.253c0,0.631,0.627,0.946,1.253,0.946
		c1.419,0,4.091,0.159,5.345,0.474c5.192,1.097,6.449,3.609,6.765,8.954c0.315,5.039,0.315,9.44,0.315,33.964v27.671
		c0,15.1,0,27.525-0.789,34.123c-0.63,4.565-1.414,8.018-4.555,8.649c-1.419,0.315-3.304,0.629-4.723,0.629
		c-0.938,0-1.253,0.474-1.253,0.948c0,0.938,0.784,1.253,2.515,1.253c2.358,0,5.976-0.315,9.122-0.315
		c3.3-0.159,5.972-0.159,6.288-0.159c2.357,0,6.13,0.159,12.264,0.474c6.132,0.157,14.781,0.474,26.576,0.474
		c6.125,0,7.386,0,8.483-4.094c0.788-3.294,2.05-13.993,2.05-15.246C209.749,360.366,209.749,359.113,208.803,359.113z
		 M308.801,260.366c-0.631,0-2.041,0.474-4.399,0.789c-2.523,0.464-6.134,0.779-11.163,0.779h-58.963
		c-1.893,0-7.869-0.315-12.425-0.779c-4.242-0.315-5.819-1.892-6.914-1.892c-0.632,0-1.262,2.049-1.577,2.987
		c-0.316,1.263-3.462,14.783-3.462,16.351c0,0.946,0.315,1.42,0.787,1.42c0.632,0,1.105-0.315,1.57-1.579
		c0.473-1.095,0.947-2.197,2.681-4.871c2.515-3.77,6.283-4.872,16.035-5.029l23.274-0.315v66.506c0,15.1,0,27.525-0.789,34.123
		c-0.631,4.565-1.419,8.018-4.564,8.649c-1.412,0.315-3.295,0.629-4.714,0.629c-0.947,0-1.253,0.474-1.253,0.948
		c0,0.938,0.779,1.253,2.515,1.253c4.715,0,14.615-0.474,15.404-0.474c0.789,0,10.691,0.474,19.34,0.474
		c1.733,0,2.515-0.474,2.515-1.253c0-0.474-0.317-0.948-1.253-0.948c-1.42,0-4.873-0.313-7.08-0.629
		c-4.716-0.631-5.66-4.083-6.126-8.649c-0.787-6.598-0.787-19.023-0.787-34.123v-66.506l19.81,0.315
		c15.092,0.315,18.868,3.933,19.34,8.647l0.159,1.727c0.155,2.207,0.474,2.673,1.253,2.673c0.629,0,1.103-0.625,1.103-2.043
		c0-1.725,0.472-12.573,0.472-17.297C309.589,261.312,309.589,260.366,308.801,260.366z M424.687,263.67
		c1.253,0,2.043-0.472,2.043-1.261c0-0.631-0.948-0.946-2.043-0.946c-2.989,0-14.311,0.472-15.255,0.472
		c-1.253,0-6.293-0.472-10.378-0.472c-1.575,0.008-2.513,0.315-2.513,0.946c0,0.789,0.938,1.105,2.356,1.579
		c1.884,0.464,2.515,2.197,2.515,4.397c0,2.043-0.631,4.714-2.673,8.02c-3.143,5.186-23.114,39.624-26.103,46.228
		c-2.828-4.564-26.412-45.125-28.925-49.691c-1.263-2.356-2.049-4.242-2.049-6.126c0-1.259,0.785-2.207,2.049-2.828
		c1.41-0.633,2.358-0.789,2.358-1.422c0-0.631-0.315-1.095-2.051-1.095c-6.126-0.008-12.101,0.464-13.204,0.464
		c-0.789,0-12.575-0.472-15.564-0.472c-1.418,0.008-2.051,0.472-2.051,1.103c0,0.789,0.788,1.105,1.577,1.105
		c1.412,0,4.401,0.938,6.765,2.515c2.822,1.884,6.757,5.819,10.691,11.637c5.501,8.175,26.569,42.761,27.671,45.284
		c2.043,4.555,3.617,8.018,3.617,16.508v13.521c0,2.517,0,9.123-0.47,15.721c-0.315,4.565-1.735,8.018-4.881,8.649
		c-1.412,0.315-3.296,0.629-4.716,0.629c-0.946,0-1.253,0.474-1.253,0.948c0,0.938,0.781,1.253,2.515,1.253
		c4.714,0,14.618-0.474,15.407-0.474c0.785,0,10.689,0.474,19.338,0.474c1.735,0,2.515-0.474,2.515-1.253
		c0-0.474-0.315-0.948-1.253-0.948c-1.42,0-4.871-0.313-7.08-0.629c-4.714-0.631-6.126-4.083-6.441-8.649
		c-0.474-6.598-0.474-13.204-0.474-15.721v-13.521c0-5.196,0-10.067,2.358-15.729c2.83-6.755,24.843-43.705,30.031-49.998
		c3.459-4.24,5.186-6.134,8.331-8.018C419.962,264.303,422.951,263.67,424.687,263.67z M452.043,312.881l-4.407-3.461
		c-15.09-11.786-19.183-17.446-19.183-26.412c0-11.479,8.492-18.241,19.34-18.241c14.467,0,18.715,6.608,19.653,8.331
		c0.948,1.735,1.894,5.977,2.053,7.867c0.149,1.253,0.305,2.043,1.253,2.043c0.785,0,1.103-1.103,1.103-3.617
		c0-10.691,0.623-15.877,0.623-16.667s-0.307-1.105-1.569-1.105c-1.261,0-2.515-0.149-5.503-0.779
		c-3.933-0.948-8.49-1.577-14.626-1.577c-19.969,0-32.542,11.479-32.542,28.304c0,10.689,3.768,20.441,20.443,34.121l7.07,5.817
		c13.521,11.165,18.087,17.454,18.087,28.302c0,10.061-7.395,20.909-22.483,20.909c-10.543,0-20.917-4.396-23.275-16.034
		c-0.474-2.201-0.474-4.401-0.474-5.819c0-1.253-0.157-1.727-1.101-1.727c-0.783,0-1.099,0.789-1.253,2.517
		c-0.159,2.512-0.789,8.805-0.789,16.667c0,4.24,0.157,4.871,2.356,5.973c6.449,3.147,13.678,4.242,21.075,4.242
		c8.49,0,16.982-1.884,23.735-6.598c10.85-7.713,13.373-19.655,13.373-26.103C475,337.25,470.593,327.504,452.043,312.881z"/>
	<path d="M74.025,412.937c-1.278,0-3.277,0.132-3.569,0.132c-0.256,0-2.598-0.132-4.506-0.132c-0.466,0-0.682,0.092-0.682,0.34
		c0,0.173,0.167,0.256,0.34,0.256c0.385,0,1.105,0.043,1.444,0.126c1.404,0.297,1.744,0.979,1.827,2.423
		c0.083,1.359,0.083,2.547,0.083,9.18v5.312c0,4.382-0.506,7.994-2.466,10.417c-1.526,1.825-4.075,3.054-6.665,3.054
		c-2.423,0-4.34-0.38-6.425-2.334c-1.825-1.742-3.186-4.38-3.186-10.496v-5.953c0-6.633,0-7.821,0.092-9.18
		c0.083-1.485,0.423-2.248,1.569-2.423c0.515-0.083,0.763-0.126,1.062-0.126c0.175,0,0.34-0.084,0.34-0.256
		c0-0.248-0.216-0.34-0.68-0.34c-1.27,0-3.827,0.132-4.209,0.132c-0.38,0-2.97-0.132-4.889-0.132c-0.464,0-0.671,0.092-0.671,0.34
		c0,0.173,0.167,0.256,0.34,0.256c0.382,0,1.105,0.043,1.445,0.126c1.404,0.297,1.744,0.979,1.827,2.423
		c0.084,1.359,0.084,2.547,0.084,9.18v6.207c0,6.201,1.618,9.182,3.693,11.174c3.021,2.846,7.312,3.021,8.757,3.021
		c2.506,0,5.695-0.425,8.756-3.147c3.396-3.019,3.908-8.116,3.908-12.706v-4.549c0-6.633,0-7.821,0.083-9.18
		c0.084-1.485,0.425-2.165,1.579-2.423c0.505-0.083,0.763-0.126,1.06-0.126c0.167,0,0.342-0.084,0.342-0.256
		C74.707,413.029,74.491,412.937,74.025,412.937z M121.403,412.937c-1.744,0-3.145,0.132-3.611,0.132
		c-0.466,0-2.506-0.132-4.415-0.132c-0.515,0-0.855,0.049-0.855,0.297c0,0.175,0.041,0.299,0.34,0.299
		c0.34,0,1.32,0.043,2.083,0.218c1.32,0.34,1.62,1.269,1.66,4.032l0.464,21.588c-1.361-1.404-5.992-6.59-10.201-11.088
		c-6.539-7.013-12.872-13.853-13.511-14.575c-0.423-0.431-1.145-1.361-1.485-1.361c-0.342,0-0.466,0.466-0.466,2.124l-0.041,24.345
		c0,3.868-0.216,5.105-1.28,5.402c-0.639,0.21-1.402,0.252-1.741,0.252c-0.216,0-0.34,0.089-0.34,0.256
		c0,0.297,0.256,0.34,0.68,0.34c1.908,0,3.692-0.124,4.075-0.124c0.391,0,2.083,0.124,4.506,0.124c0.517,0,0.765-0.083,0.765-0.34
		c0-0.167-0.124-0.256-0.342-0.256c-0.38,0-1.31-0.043-2.124-0.252c-1.145-0.338-1.569-1.443-1.652-4.93l-0.555-20.357
		c1.361,1.534,6.167,6.887,11.088,12.201c4.509,4.838,10.624,11.088,11.098,11.511c2.248,2.258,2.763,2.722,3.103,2.722
		c0.291,0,0.382-0.216,0.382-3.021l0.083-24.902c0-2.545,0.165-3.485,1.569-3.782c0.515-0.126,0.814-0.126,1.021-0.126
		c0.297,0,0.472-0.124,0.472-0.299C122.174,412.986,121.875,412.937,121.403,412.937z M148.859,444.47
		c-0.38,0-1.32-0.085-1.908-0.169c-1.28-0.173-1.536-1.105-1.66-2.34c-0.216-1.784-0.216-5.137-0.216-9.223v-7.477
		c0-6.633,0-7.821,0.092-9.18c0.081-1.485,0.423-2.207,1.569-2.423c0.507-0.083,0.763-0.126,1.062-0.126
		c0.165,0,0.342-0.084,0.342-0.256c0-0.248-0.217-0.34-0.681-0.34c-1.28,0-3.951,0.132-4.167,0.132
		c-0.208,0-2.889-0.132-4.291-0.132c-0.466,0-0.681,0.092-0.681,0.34c0,0.173,0.175,0.256,0.34,0.256
		c0.299,0,0.856,0.043,1.32,0.175c0.938,0.209,1.361,0.93,1.444,2.374c0.084,1.359,0.084,2.547,0.084,9.18v7.477
		c0,4.085,0,7.438-0.208,9.223c-0.175,1.235-0.383,2.167-1.237,2.34c-0.383,0.084-0.889,0.169-1.27,0.169
		c-0.258,0-0.34,0.132-0.34,0.256c0,0.256,0.206,0.34,0.68,0.34c1.27,0,3.951-0.124,4.159-0.124c0.216,0,2.887,0.124,5.229,0.124
		c0.464,0,0.679-0.124,0.679-0.34C149.198,444.603,149.115,444.47,148.859,444.47z M193.18,412.937c-1.237,0-3.062,0.132-3.32,0.132
		c-0.505,0-2.456-0.132-4.159-0.132c-0.68,0-0.938,0.092-0.938,0.34c0,0.216,0.216,0.256,0.466,0.256c0.472,0,1.113,0,1.619,0.175
		c0.421,0.209,0.555,0.631,0.555,0.972c0,0.381-0.175,0.979-0.391,1.617c-0.93,3.064-6.622,17.888-9.088,23.58l-8.158-21.753
		c-0.639-1.662-1.154-2.97-1.154-3.528c0-0.299,0.089-0.641,0.555-0.846c0.383-0.175,1.145-0.218,1.619-0.218
		c0.289,0,0.421-0.084,0.421-0.299c0-0.205-0.381-0.297-1.145-0.297c-1.618,0-3.526,0.132-3.957,0.132
		c-0.506,0-2.93-0.132-4.972-0.132c-0.679,0-1.105,0.049-1.105,0.297c0,0.175,0.083,0.299,0.342,0.299c0.256,0,0.979,0,1.617,0.175
		c1.485,0.425,2.126,0.889,3.054,3.269l10.417,26.046c0.806,2.043,1.021,2.641,1.528,2.641c0.423,0,0.598-0.681,1.784-3.229
		c0.979-2.083,2.889-6.675,5.487-12.883c2.167-5.22,4.291-10.325,4.755-11.511c1.145-2.887,1.784-3.611,2.342-3.992
		c0.804-0.517,1.741-0.517,2.033-0.517c0.342,0,0.515-0.084,0.515-0.299C193.902,413.029,193.646,412.937,193.18,412.937z
		 M223.608,439.331c-0.216,0-0.299,0.167-0.38,0.639c-0.301,1.742-0.814,2.59-1.919,3.054c-1.105,0.474-2.97,0.474-4.075,0.474
		c-4.167,0-4.806-0.555-4.93-3.487c-0.043-0.895,0-5.825,0-7.271v-3.733c0-0.175,0.083-0.297,0.299-0.297
		c0.722,0,4.93,0.081,6.075,0.214c1.652,0.167,2.043,0.889,2.208,1.487c0.175,0.547,0.175,0.97,0.175,1.402
		c0,0.205,0.083,0.38,0.289,0.38c0.299,0,0.299-0.472,0.299-0.812c0-0.291,0.083-1.87,0.175-2.714
		c0.124-1.404,0.34-2.126,0.34-2.382c0-0.258-0.09-0.34-0.216-0.34c-0.167,0-0.34,0.216-0.639,0.555
		c-0.38,0.423-0.979,0.505-1.992,0.588c-0.979,0.092-6.209,0.092-6.757,0.092c-0.216,0-0.256-0.132-0.256-0.429v-11.729
		c0-0.301,0.083-0.423,0.256-0.423c0.464,0,5.096,0.041,5.819,0.122c2.291,0.258,2.722,0.773,3.013,1.453
		c0.216,0.506,0.256,1.231,0.256,1.528c0,0.342,0.083,0.547,0.342,0.547c0.173,0,0.256-0.248,0.299-0.464
		c0.081-0.507,0.165-2.38,0.216-2.806c0.124-1.186,0.34-1.701,0.34-1.992c0-0.216-0.051-0.389-0.175-0.389
		c-0.216,0-0.38,0.173-0.596,0.216c-0.342,0.083-1.013,0.173-1.827,0.216c-0.981,0.041-9.428,0.041-9.729,0.041l-1.741-0.083
		c-0.938-0.049-2.083-0.049-3.064-0.049c-0.464,0-0.68,0.092-0.68,0.34c0,0.173,0.175,0.256,0.34,0.256
		c0.382,0,1.105,0.043,1.445,0.126c1.402,0.297,1.744,0.979,1.827,2.423c0.092,1.359,0.092,2.547,0.092,9.18v7.477
		c0,4.085,0,7.438-0.216,9.223c-0.167,1.235-0.382,2.167-1.229,2.34c-0.383,0.084-0.897,0.169-1.278,0.169
		c-0.258,0-0.342,0.132-0.342,0.256c0,0.256,0.216,0.34,0.681,0.34c0.637,0,1.617-0.083,2.464-0.083
		c0.889-0.041,1.62-0.041,1.701-0.041c0.641,0,1.654,0.041,3.312,0.124c1.66,0.041,3.992,0.124,7.18,0.124
		c1.66,0,2.002,0,2.299-1.105c0.207-0.889,0.547-3.776,0.547-4.116C223.857,439.673,223.857,439.331,223.608,439.331z M271.2,444.47
		c-0.256,0-0.846,0-1.656-0.126c-1.066-0.165-2.889-0.639-5.18-3.064c-2.466-2.629-5.355-6.415-8.842-10.87
		c3.829-3.528,5.139-6.675,5.139-9.821c0-2.928-1.868-5.013-2.93-5.776c-2.25-1.617-5.098-1.876-7.778-1.876
		c-1.32,0-4.549,0.132-5.013,0.132c-0.216,0-2.889-0.132-4.807-0.132c-0.464,0-0.671,0.092-0.671,0.34
		c0,0.173,0.167,0.256,0.332,0.256c0.391,0,1.113,0.043,1.453,0.126c1.404,0.297,1.735,0.979,1.827,2.423
		c0.083,1.359,0.083,2.547,0.083,9.18v7.477c0,4.085,0,7.438-0.216,9.223c-0.167,1.235-0.383,2.167-1.229,2.34
		c-0.383,0.084-0.897,0.169-1.278,0.169c-0.25,0-0.342,0.132-0.342,0.256c0,0.256,0.218,0.34,0.682,0.34
		c1.278,0,3.951-0.124,4-0.124c0.207,0,2.889,0.124,5.221,0.124c0.474,0,0.681-0.124,0.681-0.34c0-0.124-0.083-0.256-0.34-0.256
		c-0.382,0-1.312-0.085-1.91-0.169c-1.277-0.173-1.526-1.105-1.66-2.34c-0.208-1.784-0.208-5.137-0.208-9.223v-1.019
		c0-0.207,0.083-0.34,0.291-0.34l5.229,0.089c0.258,0,0.384,0.084,0.555,0.25c0.85,1.113,2.848,3.957,4.635,6.291
		c2.421,3.188,3.906,5.271,5.733,6.25c1.103,0.598,2.165,0.806,4.549,0.806h3.015c0.769,0,1.021-0.083,1.021-0.34
		C271.586,444.603,271.415,444.47,271.2,444.47z M251.314,430.151c-1.868,0-3.827-0.299-4.466-0.681
		c-0.208-0.124-0.291-0.297-0.291-0.507v-13.902c0-0.248,0.126-0.423,0.342-0.507c0.421-0.124,1.567-0.256,2.846-0.256
		c4.539,0,7.347,3.186,7.347,8.498c0,3.229-1.103,5.528-2.588,6.549C253.524,430.027,252.336,430.151,251.314,430.151z
		 M290.068,426.839l-1.188-0.938c-4.077-3.188-5.188-4.714-5.188-7.137c0-3.105,2.299-4.93,5.229-4.93
		c3.91,0,5.058,1.784,5.314,2.248c0.256,0.474,0.513,1.618,0.557,2.126c0.041,0.338,0.081,0.555,0.338,0.555
		c0.207,0,0.301-0.301,0.301-0.981c0-2.887,0.167-4.291,0.167-4.506c0-0.208-0.085-0.291-0.427-0.291
		c-0.338,0-0.679-0.049-1.485-0.216c-1.062-0.256-2.295-0.423-3.959-0.423c-5.391,0-8.789,3.097-8.789,7.644
		c0,2.889,1.021,5.528,5.522,9.222l1.916,1.577c3.65,3.013,4.879,4.714,4.879,7.646c0,2.722-1.99,5.65-6.075,5.65
		c-2.844,0-5.652-1.186-6.283-4.331c-0.134-0.598-0.134-1.186-0.134-1.571c0-0.338-0.041-0.47-0.297-0.47
		c-0.207,0-0.301,0.216-0.338,0.68c-0.045,0.68-0.211,2.38-0.211,4.506c0,1.145,0.041,1.318,0.643,1.619
		c1.733,0.846,3.691,1.145,5.693,1.145c2.291,0,4.586-0.515,6.413-1.784c2.934-2.085,3.613-5.312,3.613-7.056
		C296.277,433.423,295.089,430.79,290.068,426.839z M323.344,444.47c-0.387,0-1.314-0.085-1.913-0.169
		c-1.278-0.173-1.526-1.105-1.66-2.34c-0.203-1.784-0.203-5.137-0.203-9.223v-7.477c0-6.633,0-7.821,0.081-9.18
		c0.081-1.485,0.423-2.207,1.567-2.423c0.517-0.083,0.773-0.126,1.062-0.126c0.175,0,0.342-0.084,0.342-0.256
		c0-0.248-0.207-0.34-0.671-0.34c-1.278,0-3.959,0.132-4.167,0.132c-0.216,0-2.889-0.132-4.293-0.132c-0.472,0-0.68,0.092-0.68,0.34
		c0,0.173,0.167,0.256,0.338,0.256c0.301,0,0.851,0.043,1.314,0.175c0.936,0.209,1.363,0.93,1.445,2.374
		c0.089,1.359,0.089,2.547,0.089,9.18v7.477c0,4.085,0,7.438-0.216,9.223c-0.167,1.235-0.383,2.167-1.225,2.34
		c-0.386,0.084-0.899,0.169-1.282,0.169c-0.256,0-0.342,0.132-0.342,0.256c0,0.256,0.216,0.34,0.684,0.34
		c1.277,0,3.951-0.124,4.167-0.124c0.208,0,2.889,0.124,5.229,0.124c0.464,0,0.671-0.124,0.671-0.34
		C323.682,444.603,323.6,444.47,323.344,444.47z M350.708,412.937c-2.547,0-5.22,0.132-5.737,0.132
		c-0.207,0-2.889-0.132-4.797-0.132c-0.472,0-0.68,0.092-0.68,0.34c0,0.173,0.167,0.256,0.342,0.256c0.378,0,1.103,0.043,1.44,0.126
		c1.404,0.297,1.746,0.979,1.827,2.423c0.085,1.359,0.085,2.547,0.085,9.18v7.477c0,4.085,0,7.438-0.208,9.223
		c-0.175,1.235-0.382,2.167-1.237,2.34c-0.383,0.084-0.887,0.169-1.27,0.169c-0.26,0-0.342,0.132-0.342,0.256
		c0,0.256,0.208,0.34,0.679,0.34c0.631,0,1.611-0.083,2.458-0.083c0.899-0.041,1.62-0.041,1.701-0.041
		c0.216,0,1.66,0.124,3.528,0.248c1.827,0.132,4.085,0.258,5.912,0.258c7.218,0,11.047-2.973,12.87-4.891
		c2.385-2.506,4.59-6.62,4.59-11.975c0-5.064-1.99-8.592-4.118-10.799C362.691,412.555,354.915,412.937,350.708,412.937z
		 M364.652,440.053c-2.506,2.506-6.169,3.949-10.12,3.949c-5.013,0-6.673-0.887-7.222-1.701c-0.338-0.464-0.419-2.165-0.464-3.229
		c-0.049-0.806-0.089-4.714-0.089-9.22v-5.271c0-3.269,0-7.603,0.041-9.045c0-0.474,0.134-0.681,0.513-0.855
		c0.342-0.167,1.913-0.299,2.767-0.299c5.054,0,9.9,0.596,13.896,4.804c1.742,1.827,4.073,5.312,4.073,10.71
		C368.046,433.803,366.858,437.887,364.652,440.053z M413.481,444.47c-0.423,0-1.062-0.043-1.701-0.252
		c-0.891-0.254-2.128-0.936-3.654-4.72c-2.596-6.46-9.261-24.005-9.9-25.623c-0.517-1.32-0.684-1.528-0.94-1.528
		c-0.256,0-0.423,0.25-0.928,1.652l-9.656,26.394c-0.761,2.124-1.607,3.735-3.569,3.992c-0.342,0.043-0.928,0.085-1.229,0.085
		c-0.216,0-0.383,0.089-0.383,0.256c0,0.256,0.252,0.34,0.806,0.34c2.002,0,4.334-0.124,4.797-0.124c0.476,0,2.303,0.124,3.32,0.124
		c0.382,0,0.639-0.083,0.639-0.34c0-0.167-0.13-0.256-0.431-0.256h-0.423c-0.72,0-1.607-0.385-1.607-1.231
		c0-0.763,0.203-1.782,0.586-2.846l2.555-7.519c0.085-0.216,0.211-0.34,0.427-0.34h9.135c0.212,0,0.293,0.083,0.383,0.248
		l3.951,10.457c0.26,0.681,0,1.062-0.256,1.145c-0.167,0.043-0.301,0.134-0.301,0.301c0,0.256,0.476,0.256,1.282,0.297
		c2.93,0.083,6.034,0.083,6.673,0.083c0.464,0,0.846-0.083,0.846-0.34C413.904,444.519,413.737,444.47,413.481,444.47z M400.773,431
		h-8.118c-0.126,0-0.216-0.086-0.126-0.293l3.735-11.479c0.216-0.639,0.423-0.639,0.639,0l4.036,11.479
		C400.989,430.874,400.989,431,400.773,431z M453.035,417.784c-5.054-5.229-12.83-4.846-17.037-4.846
		c-2.551,0-5.221,0.132-5.737,0.132c-0.204,0-2.889-0.132-4.797-0.132c-0.472,0-0.68,0.092-0.68,0.34
		c0,0.173,0.167,0.256,0.342,0.256c0.382,0,1.103,0.043,1.441,0.126c1.404,0.297,1.745,0.979,1.827,2.423
		c0.085,1.359,0.085,2.547,0.085,9.18v7.477c0,4.085,0,7.438-0.207,9.223c-0.175,1.235-0.383,2.167-1.237,2.34
		c-0.383,0.084-0.891,0.169-1.27,0.169c-0.256,0-0.342,0.132-0.342,0.256c0,0.256,0.207,0.34,0.68,0.34
		c0.631,0,1.611-0.083,2.458-0.083c0.895-0.041,1.619-0.041,1.701-0.041c0.216,0,1.66,0.124,3.528,0.248
		c1.827,0.132,4.085,0.258,5.912,0.258c7.219,0,11.043-2.973,12.87-4.891c2.384-2.506,4.594-6.62,4.594-11.975
		C457.166,423.519,455.164,419.991,453.035,417.784z M449.943,440.053c-2.507,2.506-6.169,3.949-10.12,3.949
		c-5.013,0-6.673-0.887-7.223-1.701c-0.338-0.464-0.423-2.165-0.464-3.229c-0.049-0.806-0.09-4.714-0.09-9.22v-5.271
		c0-3.269,0-7.603,0.041-9.045c0-0.474,0.134-0.681,0.513-0.855c0.342-0.167,1.913-0.299,2.767-0.299
		c5.054,0,9.892,0.596,13.891,4.804c1.746,1.827,4.077,5.312,4.077,10.71C453.337,433.803,452.152,437.887,449.943,440.053z"/>
	<path style="fill:#FFA400;" d="M263.155,78.804c0,33.641-32.784,40.015-32.784,73.305c0,18.766,14.142,40.725,14.142,40.725
		c0-33.64,32.786-40.015,32.786-73.306C277.299,100.762,263.155,78.804,263.155,78.804z M256.63,83.779
		c0-13.566-10.225-29.443-10.225-29.443c0,24.323-23.704,28.934-23.704,53c0,13.57,10.225,29.443,10.225,29.443
		C232.926,112.459,256.63,107.849,256.63,83.779z"/>
</g>
</svg>
