<?xml version="1.0" encoding="UTF-8" standalone="no"?>
<svg
   xmlns:dc="http://purl.org/dc/elements/1.1/"
   xmlns:cc="http://creativecommons.org/ns#"
   xmlns:rdf="http://www.w3.org/1999/02/22-rdf-syntax-ns#"
   xmlns:svg="http://www.w3.org/2000/svg"
   xmlns="http://www.w3.org/2000/svg"
   viewBox="0 0 1632 1056"
   height="1056"
   width="1632"
   xml:space="preserve"
   id="svg2"
   version="1.1"><metadata
     id="metadata8"><rdf:RDF><cc:Work
         rdf:about=""><dc:format>image/svg+xml</dc:format><dc:type
           rdf:resource="http://purl.org/dc/dcmitype/StillImage" /></cc:Work></rdf:RDF></metadata><defs
     id="defs6"><clipPath
       id="clipPath18"
       clipPathUnits="userSpaceOnUse"><path
         id="path16"
         d="M 0,792 H 1224 V 0 H 0 Z" /></clipPath></defs><g
     transform="matrix(1.3333333,0,0,-1.3333333,0,1056)"
     id="g10"><g
       id="g12"><g
         clip-path="url(#clipPath18)"
         id="g14"><path
           id="path20"
           style="fill:#fddd04;fill-opacity:1;fill-rule:evenodd;stroke:none"
           d="m 634.385,471.238 c -9.737,9.825 -21.257,32.948 -20.134,47.165 1.225,15.483 8.835,22.846 17.273,35.885 4.235,6.544 7.867,9.387 11.894,16.06 9.951,16.503 10.546,29.021 14.927,47.109 3.581,-14.909 22.051,-42.636 11.343,-66.787 -4.072,-9.184 -9.179,-12.753 -15.158,-20.828 -5.407,-7.305 -9.522,-10.776 -14.004,-18.629 -7.815,-13.7 -7.463,-20.908 -6.141,-39.975" /><path
           id="path22"
           style="fill:#fddd04;fill-opacity:1;fill-rule:evenodd;stroke:none"
           d="m 613.763,540.766 c -6.066,6.121 -13.242,20.525 -12.543,29.381 0.762,9.646 5.504,14.232 10.76,22.355 2.637,4.076 4.901,5.849 7.409,10.005 6.2,10.281 6.571,18.078 9.299,29.347 2.232,-9.287 13.738,-26.561 7.068,-41.605 -2.537,-5.722 -5.721,-7.945 -9.443,-12.976 -3.371,-4.55 -5.932,-6.713 -8.725,-11.605 -4.869,-8.534 -4.65,-13.024 -3.825,-24.902" /><path
           id="path24"
           style="fill:#231f20;fill-opacity:1;fill-rule:evenodd;stroke:none"
           d="m 662.826,534.241 c 41.906,11.469 99.808,24.362 132.801,25.338 -32.752,-0.49 -78.874,-7.706 -128.83,-20.486 z" /><path
           id="path26"
           style="fill:#231f20;fill-opacity:1;fill-rule:evenodd;stroke:none"
           d="M 766.847,473.045 C 675.516,448.27 517.636,429.648 511.416,450.919 c -4.861,16.621 36.574,43.549 99.538,66.922 -0.055,3.244 0.4,4.306 1.16,5.899 -83.377,-27.993 -141.496,-64.087 -133.008,-83.871 9.559,-22.281 165.991,-6.966 287.741,33.176" /><path
           id="path28"
           style="fill:#231f20;fill-opacity:1;fill-rule:evenodd;stroke:none"
           d="m 641.161,166.941 c 0,1.326 -0.293,1.545 -1.543,1.545 h -3.379 l -8.887,15.498 c 2.716,1.399 8.373,4.116 8.373,13.59 0,13.811 -11.458,14.177 -17.115,14.177 h -17.19 c -1.249,0 -1.543,-0.22 -1.543,-1.542 v -3.965 c 0,-1.325 0.294,-1.545 1.543,-1.545 h 3.747 v -36.213 h -3.747 c -1.249,0 -1.543,-0.219 -1.543,-1.545 v -3.964 c 0,-1.323 0.294,-1.542 1.543,-1.542 h 17.115 c 1.25,0 1.544,0.219 1.544,1.542 v 3.964 c 0,1.326 -0.294,1.545 -1.544,1.545 h -3.452 v 13.737 h 3.527 l 9.917,-19.759 c 0.514,-0.956 0.514,-1.029 1.688,-1.029 h 9.403 c 1.25,0 1.543,0.219 1.543,1.542 z m -26.078,22.993 v 14.106 h 2.719 c 3.82,0 8.007,-0.223 8.007,-6.612 0,-6.758 -4.04,-7.494 -8.817,-7.494 z" /><path
           id="path30"
           style="fill:#231f20;fill-opacity:1;fill-rule:evenodd;stroke:none"
           d="m 742.35,169.368 v 34.449 h 2.79 c 8.226,0 11.385,-3.672 11.385,-16.82 0,-14.029 -3.086,-17.629 -11.385,-17.629 z m -13.591,42.383 c -1.324,0 -1.617,-0.22 -1.617,-1.542 v -3.965 c 0,-1.325 0.293,-1.545 1.544,-1.545 h 3.746 v -36.213 h -3.746 c -1.251,0 -1.544,-0.219 -1.544,-1.545 v -3.964 c 0,-1.249 0.293,-1.542 1.544,-1.542 h 16.673 c 13.078,0 21.597,4.332 21.597,25.416 0,20.345 -7.345,24.9 -21.374,24.9 z" /><path
           id="path32"
           style="fill:#231f20;fill-opacity:1;fill-rule:evenodd;stroke:none"
           d="m 798.951,181.487 h -9.698 l 3.232,12.635 c 0.736,2.94 1.396,7.198 1.689,10.284 h 0.149 c 0.366,-3.086 0.806,-7.421 1.615,-10.284 z m 17.998,-14.546 c 0,1.326 -0.297,1.545 -1.545,1.545 h -2.497 l -12.561,42.092 c -0.293,1.026 -0.443,1.173 -1.616,1.173 h -7.64 c -1.248,0 -1.321,-0.147 -1.617,-1.173 l -12.855,-42.092 h -2.204 c -1.249,0 -1.542,-0.219 -1.542,-1.545 v -3.964 c 0,-1.323 0.293,-1.542 1.542,-1.542 h 14.546 c 1.248,0 1.541,0.219 1.541,1.542 v 3.964 c 0,1.326 -0.293,1.545 -1.541,1.545 h -2.424 l 1.614,6.389 h 12.635 l 1.692,-6.389 h -2.351 c -1.249,0 -1.542,-0.219 -1.542,-1.545 v -3.964 c 0,-1.323 0.293,-1.542 1.542,-1.542 h 15.278 c 1.248,0 1.545,0.219 1.545,1.542 z" /><path
           id="path34"
           style="fill:#231f20;fill-opacity:1;fill-rule:evenodd;stroke:none"
           d="m 839.654,169.368 v 34.449 h 2.79 c 8.227,0 11.386,-3.672 11.386,-16.82 0,-14.029 -3.083,-17.629 -11.386,-17.629 z m -13.59,42.383 c -1.322,0 -1.615,-0.22 -1.615,-1.542 v -3.965 c 0,-1.325 0.293,-1.545 1.541,-1.545 h 3.746 v -36.213 h -3.746 c -1.248,0 -1.541,-0.219 -1.541,-1.545 v -3.964 c 0,-1.249 0.293,-1.542 1.541,-1.542 h 16.677 c 13.074,0 21.598,4.332 21.598,25.416 0,20.345 -7.348,24.9 -21.378,24.9 z" /><path
           id="path36"
           style="fill:#231f20;fill-opacity:1;fill-rule:evenodd;stroke:none"
           d="m 450.457,204.659 h 3.747 c 1.248,0 1.542,0.221 1.542,1.542 v 3.969 c 0,1.321 -0.294,1.541 -1.542,1.541 h -15.867 c -1.248,0 -1.542,-0.22 -1.542,-1.541 v -3.969 c 0,-1.321 0.294,-1.542 1.542,-1.542 h 3.673 v -17.774 c 0,-2.351 0.293,-7.201 0.293,-9.552 h -0.147 c -0.882,3.013 -2.35,6.758 -4.407,10.653 l -12.193,22.77 c -0.442,0.808 -0.588,0.955 -1.691,0.955 h -11.311 c -1.248,0 -1.544,-0.22 -1.544,-1.541 v -3.969 c 0,-1.321 0.296,-1.542 1.544,-1.542 h 3.746 v -36.213 h -3.746 c -1.248,0 -1.544,-0.219 -1.544,-1.544 v -3.965 c 0,-1.322 0.296,-1.541 1.544,-1.541 h 15.866 c 1.249,0 1.543,0.219 1.543,1.541 v 3.965 c 0,1.325 -0.294,1.544 -1.543,1.544 h -3.672 v 20.935 c 0,3.38 -0.368,5.654 -0.368,8.081 h 0.147 c 1.395,-4.189 2.131,-5.95 4.334,-9.991 l 13.515,-25.047 c 0.442,-0.882 0.662,-1.028 1.69,-1.028 h 4.848 c 1.323,0 1.543,0.219 1.543,1.541 z" /><path
           id="path38"
           style="fill:#231f20;fill-opacity:1;fill-rule:evenodd;stroke:none"
           d="m 395.117,204.659 h 3.746 c 1.249,0 1.544,0.221 1.544,1.542 v 3.969 c 0,1.321 -0.295,1.541 -1.544,1.541 h -17.335 c -1.249,0 -1.543,-0.22 -1.543,-1.541 v -3.969 c 0,-1.321 0.294,-1.542 1.543,-1.542 h 3.673 v -26.224 c 0,-5.288 -0.367,-10.355 -7.786,-10.355 -7.419,0 -7.787,5.067 -7.787,10.355 v 26.224 h 3.673 c 1.249,0 1.543,0.221 1.543,1.542 v 3.969 c 0,1.321 -0.294,1.541 -1.543,1.541 h -17.336 c -1.249,0 -1.542,-0.22 -1.542,-1.541 v -3.969 c 0,-1.321 0.293,-1.542 1.542,-1.542 h 3.747 v -26.224 c 0,-10.944 3.82,-18.289 17.703,-18.289 13.883,0 17.702,7.345 17.702,18.289 z" /><path
           id="path40"
           style="fill:#231f20;fill-opacity:1;fill-rule:evenodd;stroke:none"
           d="m 488.666,166.902 c 0,1.325 -0.294,1.544 -1.543,1.544 h -3.746 v 36.213 h 3.746 c 1.249,0 1.543,0.221 1.543,1.542 v 3.969 c 0,1.321 -0.294,1.541 -1.543,1.541 h -17.409 c -1.248,0 -1.542,-0.22 -1.542,-1.541 v -3.969 c 0,-1.321 0.294,-1.542 1.542,-1.542 h 3.747 v -36.213 h -3.747 c -1.248,0 -1.542,-0.219 -1.542,-1.544 v -3.965 c 0,-1.322 0.294,-1.541 1.542,-1.541 h 17.409 c 1.249,0 1.543,0.219 1.543,1.541 z" /><path
           id="path42"
           style="fill:#231f20;fill-opacity:1;fill-rule:evenodd;stroke:none"
           d="m 672.118,198.206 c 0,-1.028 0.22,-1.248 1.248,-1.248 h 5.437 c 0.953,0 1.249,0.22 1.249,1.248 v 9.915 c 0,2.94 -8.007,4.848 -13.151,4.848 -8.52,0 -16.161,-4.406 -16.161,-14.983 0,-6.098 2.497,-9.035 6.393,-11.385 7.491,-4.555 14.985,-5.217 14.985,-11.753 0,-4.555 -2.5,-6.758 -6.612,-6.758 -3.159,0 -5.803,1.101 -6.904,1.468 v 6.685 c 0,1.028 -0.221,1.248 -1.249,1.248 h -5.437 c -1.029,0 -1.249,-0.293 -1.249,-1.248 v -11.094 c 0,-3.229 9.622,-4.994 15.132,-4.994 9.256,0 15.868,6.17 15.868,15.498 0,5.584 -2.57,9.479 -6.316,12.269 -6.465,4.774 -15.062,5.804 -15.062,11.387 0,4.408 3.525,5.729 6.908,5.729 2.421,0 4.112,-0.662 4.921,-0.955 z" /><path
           id="path44"
           style="fill:#231f20;fill-opacity:1;fill-rule:evenodd;stroke:none"
           d="m 587.872,174.476 c 0,1.321 -0.221,1.545 -1.543,1.545 h -4.849 c -1.395,0 -1.542,-0.297 -1.542,-1.545 v -5.141 h -9.329 v 14.395 h 12.488 c 1.249,0 1.543,0.224 1.543,1.542 v 4.851 c 0,1.322 -0.22,1.542 -1.543,1.542 h -12.488 v 12.121 h 9.329 v -4.48 c 0,-1.323 0.294,-1.545 1.542,-1.545 h 4.849 c 1.175,0 1.543,0.222 1.543,1.545 v 11.163 c 0,1.101 -0.368,1.248 -1.543,1.248 h -29.384 c -1.248,0 -1.542,-0.22 -1.542,-1.541 v -3.966 c 0,-1.324 0.294,-1.544 1.542,-1.544 h 3.746 v -36.213 h -3.746 c -1.248,0 -1.542,-0.221 -1.542,-1.542 v -3.969 c 0,-1.321 0.294,-1.541 1.542,-1.541 h 29.457 c 1.249,0 1.47,0.22 1.47,1.541 z" /><path
           id="path46"
           style="fill:#231f20;fill-opacity:1;fill-rule:evenodd;stroke:none"
           d="m 540.099,204.672 h 2.864 c 1.029,0 1.249,0.22 1.249,1.248 v 4.555 c 0,1.029 -0.22,1.249 -1.249,1.249 h -9.99 c -0.955,0 -1.102,-0.074 -1.323,-1.03 l -7.199,-29.31 c -0.588,-2.348 -1.763,-7.861 -2.204,-11.238 h -0.146 c -0.441,3.377 -1.323,8.89 -1.837,11.238 l -6.465,29.31 c -0.22,0.956 -0.366,1.03 -1.321,1.03 h -10.727 c -1.027,0 -1.248,-0.22 -1.248,-1.249 v -4.555 c 0,-1.028 0.221,-1.248 1.248,-1.248 h 2.866 l 11.754,-43.268 c 0.293,-1.029 0.367,-1.249 1.615,-1.249 h 8.375 c 1.249,0 1.323,0.22 1.617,1.249 z" /><path
           id="path48"
           style="fill:#231f20;fill-opacity:1;fill-rule:evenodd;stroke:none"
           d="m 713.878,166.911 c 0,1.321 -0.296,1.542 -1.545,1.542 h -3.745 v 36.213 h 3.745 c 1.249,0 1.545,0.22 1.545,1.544 v 3.966 c 0,1.321 -0.296,1.541 -1.545,1.541 h -17.409 c -1.248,0 -1.541,-0.22 -1.541,-1.541 v -3.966 c 0,-1.324 0.293,-1.544 1.541,-1.544 h 3.746 v -36.213 h -3.746 c -1.248,0 -1.541,-0.221 -1.541,-1.542 v -3.969 c 0,-1.321 0.293,-1.541 1.541,-1.541 h 17.409 c 1.249,0 1.545,0.22 1.545,1.541 z" /><path
           id="path50"
           style="fill:#231f20;fill-opacity:1;fill-rule:evenodd;stroke:none"
           d="m 751.938,276.805 c 0,-2.845 0,-10.315 -0.535,-17.784 -0.354,-5.16 -1.96,-9.07 -5.522,-9.781 -1.6,-0.357 -3.736,-0.712 -5.339,-0.712 -1.068,0 -1.426,-0.534 -1.426,-1.068 0,-1.065 0.892,-1.422 2.849,-1.422 5.342,0 16.563,0.534 17.451,0.534 0.892,0 12.11,-0.534 21.906,-0.534 1.956,0 2.848,0.534 2.848,1.422 0,0.534 -0.357,1.068 -1.426,1.068 -1.602,0 -5.521,0.355 -8.013,0.712 -5.341,0.711 -6.944,4.621 -7.301,9.781 -0.534,7.469 -0.534,14.939 -0.534,17.784 V 292.1 c 0,5.869 0,11.381 2.67,17.786 3.205,7.647 28.139,49.44 34.016,56.555 3.916,4.802 5.873,6.936 9.436,9.07 2.85,1.778 6.233,2.489 8.192,2.489 1.423,0 2.314,0.534 2.314,1.423 0,0.713 -1.068,1.067 -2.314,1.067 -3.385,0 -16.206,-0.533 -17.274,-0.533 -1.426,0 -7.122,0.533 -11.752,0.533 -1.781,0 -2.849,-0.354 -2.849,-1.067 0,-0.889 1.068,-1.244 2.671,-1.778 2.137,-0.535 2.848,-2.49 2.848,-4.979 0,-2.314 -0.711,-5.336 -3.028,-9.071 -3.559,-5.868 -26.176,-44.817 -29.558,-52.288 -3.205,5.159 -29.919,51.045 -32.767,56.2 -1.426,2.668 -2.317,4.804 -2.317,6.937 0,1.422 0.891,2.49 2.317,3.201 1.603,0.71 2.671,0.889 2.671,1.601 0,0.713 -0.358,1.244 -2.317,1.244 -6.942,0 -13.709,-0.533 -14.958,-0.533 -0.888,0 -14.247,0.533 -17.628,0.533 -1.603,0 -2.314,-0.531 -2.314,-1.244 0,-0.891 0.888,-1.246 1.779,-1.246 1.603,0 4.985,-1.066 7.657,-2.845 3.208,-2.134 7.658,-6.58 12.109,-13.161 6.233,-9.246 30.096,-48.375 31.341,-51.22 2.317,-5.157 4.097,-9.071 4.097,-18.674 z" /><path
           id="path52"
           style="fill:#231f20;fill-opacity:1;fill-rule:evenodd;stroke:none"
           d="m 856.065,245.25 c 9.426,0 18.853,2.091 26.359,7.32 12.046,8.544 14.839,21.796 14.839,28.945 0,13.948 -4.887,24.756 -25.487,40.972 l -4.889,3.834 c -16.408,13.426 -21.295,19.354 -21.295,29.291 0,12.728 9.426,20.226 21.471,20.226 16.06,0 20.774,-7.323 21.821,-9.24 1.047,-1.919 2.094,-6.626 2.267,-8.719 0.178,-1.395 0.352,-2.267 1.399,-2.267 0.873,0 1.221,1.22 1.221,4.01 0,11.857 0.699,17.61 0.699,18.481 0,0.873 -0.348,1.22 -1.746,1.22 -1.395,0 -2.793,0.175 -6.109,0.873 -4.365,1.046 -9.429,1.743 -16.236,1.743 -22.168,0 -36.134,-12.727 -36.134,-31.381 0,-11.859 4.189,-22.667 22.693,-37.836 l 7.854,-6.451 c 15.013,-12.377 20.074,-19.353 20.074,-31.383 0,-11.158 -8.202,-23.188 -24.961,-23.188 -11.694,0 -23.217,4.881 -25.837,17.784 -0.522,2.44 -0.522,4.882 -0.522,6.451 0,1.395 -0.174,1.919 -1.221,1.919 -0.873,0 -1.224,-0.872 -1.398,-2.791 -0.174,-2.789 -0.873,-9.763 -0.873,-18.482 0,-4.707 0.174,-5.402 2.619,-6.624 7.158,-3.486 15.186,-4.707 23.392,-4.707" /><path
           id="path54"
           style="fill:#231f20;fill-opacity:1;fill-rule:evenodd;stroke:none"
           d="m 631.654,372.843 22.439,-0.356 c 17.095,-0.355 21.19,-4.446 21.902,-9.782 l 0.18,-1.957 c 0.177,-2.487 0.531,-3.021 1.423,-3.021 0.714,0 1.248,0.711 1.248,2.312 0,1.955 0.534,14.227 0.534,19.563 0,1.068 0,2.133 -0.892,2.133 -1.425,0 -6.232,-1.776 -17.628,-1.776 h -66.78 c -2.138,0 -8.905,0.354 -14.069,0.888 -4.807,0.355 -6.588,2.133 -7.834,2.133 -0.712,0 -1.425,-2.31 -1.781,-3.378 -0.356,-1.423 -3.918,-16.718 -3.918,-18.497 0,-1.066 0.356,-1.599 0.89,-1.599 0.713,0 1.246,0.354 1.78,1.778 0.536,1.244 1.07,2.489 3.029,5.512 2.848,4.268 7.122,5.515 18.163,5.691 l 26.356,0.356 v -75.229 c 0,-17.073 0,-31.124 -0.891,-38.593 -0.711,-5.16 -1.603,-9.07 -5.165,-9.781 -1.603,-0.357 -3.74,-0.712 -5.342,-0.712 -1.069,0 -1.424,-0.534 -1.424,-1.068 0,-1.065 0.89,-1.422 2.85,-1.422 5.341,0 16.56,0.534 17.452,0.534 0.887,0 12.107,-0.534 21.902,-0.534 1.958,0 2.85,0.534 2.85,1.422 0,0.534 -0.356,1.068 -1.426,1.068 -1.602,0 -5.52,0.355 -8.014,0.712 -5.342,0.711 -6.41,4.621 -6.944,9.781 -0.89,7.469 -0.89,21.52 -0.89,38.593 z" /><path
           id="path56"
           style="fill:#231f20;fill-opacity:1;fill-rule:evenodd;stroke:none"
           d="m 486.474,297.627 c 0,-17.073 0,-31.121 -0.892,-38.591 -0.712,-5.159 -1.602,-9.073 -5.163,-9.784 -1.603,-0.357 -3.739,-0.711 -5.343,-0.711 -1.068,0 -1.425,-0.534 -1.425,-1.068 0,-1.066 0.891,-1.423 2.85,-1.423 5.343,0 16.562,0.534 17.452,0.534 5.164,0 17.096,-1.065 43.985,-1.065 6.944,0 8.37,0 9.616,4.625 0.89,3.733 2.315,15.828 2.315,17.25 0,1.246 0,2.668 -1.068,2.668 -0.891,0 -1.247,-0.711 -1.604,-2.668 -1.246,-7.293 -3.384,-10.849 -8.013,-12.806 -4.63,-1.957 -12.465,-1.957 -17.095,-1.957 -17.45,0 -20.123,2.314 -20.656,14.583 -0.179,3.736 0,24.365 0,30.413 v 15.65 c 0,0.711 0.355,1.245 1.245,1.245 3.028,0 20.657,-0.356 25.466,-0.89 6.944,-0.71 8.546,-3.734 9.258,-6.225 0.714,-2.31 0.714,-4.091 0.714,-5.868 0,-0.891 0.356,-1.6 1.247,-1.6 1.246,0 1.246,1.956 1.246,3.377 0,1.247 0.356,7.827 0.712,11.384 0.534,5.87 1.424,8.892 1.424,9.959 0,1.067 -0.355,1.424 -0.89,1.424 -0.711,0 -1.424,-0.89 -2.671,-2.313 -1.604,-1.778 -4.096,-2.134 -8.37,-2.49 -4.095,-0.356 -25.999,-0.356 -28.313,-0.356 -0.892,0 -1.068,0.534 -1.068,1.778 v 49.086 c 0,1.246 0.355,1.78 1.068,1.78 1.958,0 21.368,-0.178 24.396,-0.534 9.615,-1.067 11.396,-3.201 12.642,-6.046 0.892,-2.134 1.07,-5.159 1.07,-6.404 0,-1.423 0.356,-2.312 1.424,-2.312 0.712,0 1.069,1.068 1.247,1.957 0.356,2.134 0.711,9.959 0.89,11.738 0.534,4.978 1.425,7.114 1.425,8.359 0,0.889 -0.178,1.6 -0.713,1.6 -0.891,0 -1.602,-0.711 -2.492,-0.888 -1.425,-0.356 -4.274,-0.712 -7.657,-0.891 -4.096,-0.176 -39.534,-0.176 -40.78,-0.176 -0.89,0 -12.109,0.531 -20.123,0.531 -1.96,0 -2.85,-0.355 -2.85,-1.421 0,-0.711 0.712,-1.067 1.425,-1.067 1.603,0 4.631,-0.177 6.054,-0.535 5.877,-1.243 7.303,-4.089 7.657,-10.137 0.358,-5.69 0.358,-10.669 0.358,-38.414 z" /><path
           id="path58"
           style="fill:#231f20;fill-opacity:1;fill-rule:evenodd;stroke:none"
           d="m 407.085,243.303 c 11.401,0 24.941,1.245 32.067,4.093 3.208,1.422 3.564,1.78 4.633,5.159 1.78,6.05 3.92,21.53 3.92,22.775 0,1.423 -0.357,2.668 -1.247,2.668 -1.069,0 -1.427,-0.711 -1.782,-2.668 -0.534,-3.202 -2.852,-11.031 -6.592,-14.945 -7.127,-7.296 -17.638,-8.896 -30.999,-8.896 -38.125,0 -64.314,31.137 -64.314,65.122 0,18.149 3.029,33.985 16.035,46.439 6.234,6.051 17.281,12.991 40.974,12.991 15.679,0 29.397,-4.806 35.63,-10.143 4.634,-3.914 7.485,-11.209 7.485,-18.149 0,-2.489 0.176,-3.735 1.424,-3.735 1.07,0 1.426,1.065 1.604,3.735 0.179,2.67 0.179,12.456 0.535,18.326 0.356,6.407 0.89,8.541 0.89,9.966 0,1.068 -0.357,1.777 -2.317,1.958 -5.7,0.354 -11.4,1.422 -18.171,2.668 -8.73,1.601 -18.706,2.134 -25.833,2.134 -27.435,0 -43.647,-8.362 -54.337,-19.038 -15.855,-15.835 -19.953,-36.655 -19.953,-48.575 0,-16.905 4.275,-37.19 21.557,-52.669 14.074,-12.632 32.067,-19.216 58.791,-19.216" /><path
           id="path60"
           style="fill:#231f20;fill-opacity:1;fill-rule:evenodd;stroke:none"
           d="m 879.833,170.607 c 0,-1.211 0.226,-2.337 0.674,-3.37 0.452,-1.019 1.059,-1.91 1.823,-2.676 0.778,-0.748 1.679,-1.334 2.695,-1.752 1.035,-0.418 2.131,-0.629 3.285,-0.629 1.154,0 2.241,0.211 3.256,0.629 1.02,0.418 1.912,1.004 2.678,1.752 0.763,0.766 1.37,1.657 1.819,2.676 0.449,1.033 0.675,2.159 0.675,3.37 0,1.185 -0.226,2.288 -0.675,3.307 -0.449,1.017 -1.056,1.901 -1.819,2.652 -0.766,0.748 -1.658,1.331 -2.678,1.752 -1.015,0.434 -2.102,0.651 -3.256,0.651 -1.154,0 -2.25,-0.217 -3.285,-0.651 -1.016,-0.421 -1.917,-1.004 -2.695,-1.752 -0.764,-0.751 -1.371,-1.635 -1.823,-2.652 -0.448,-1.019 -0.674,-2.122 -0.674,-3.307 m 1.529,0 c 0,1.005 0.174,1.942 0.519,2.812 0.357,0.867 0.846,1.618 1.459,2.247 0.629,0.645 1.365,1.147 2.204,1.505 0.854,0.376 1.776,0.564 2.766,0.564 0.973,0 1.88,-0.188 2.719,-0.564 0.84,-0.358 1.567,-0.86 2.18,-1.505 0.629,-0.629 1.117,-1.38 1.462,-2.247 0.357,-0.87 0.538,-1.807 0.538,-2.812 0,-1.034 -0.181,-1.993 -0.538,-2.875 -0.345,-0.87 -0.833,-1.627 -1.462,-2.271 -0.613,-0.644 -1.34,-1.153 -2.18,-1.529 -0.839,-0.361 -1.746,-0.54 -2.719,-0.54 -0.99,0 -1.912,0.179 -2.766,0.54 -0.839,0.376 -1.575,0.885 -2.204,1.529 -0.613,0.644 -1.102,1.401 -1.459,2.271 -0.345,0.882 -0.519,1.841 -0.519,2.875 m 3.663,4.879 v -9.824 h 1.53 v 4.229 h 1.617 l 2.678,-4.229 h 1.638 L 889.681,170 c 0.732,0.076 1.348,0.314 1.843,0.721 0.495,0.418 0.742,1.071 0.742,1.957 0,0.943 -0.287,1.648 -0.855,2.112 -0.556,0.464 -1.416,0.696 -2.586,0.696 z m 1.53,-4.359 v 3.123 h 2.023 c 0.254,0 0.51,-0.021 0.764,-0.067 0.271,-0.031 0.503,-0.098 0.699,-0.203 0.207,-0.106 0.372,-0.255 0.494,-0.451 0.134,-0.192 0.201,-0.455 0.201,-0.785 0,-0.39 -0.076,-0.698 -0.225,-0.922 -0.135,-0.21 -0.321,-0.369 -0.562,-0.472 -0.238,-0.104 -0.515,-0.171 -0.83,-0.202 -0.3,-0.015 -0.623,-0.021 -0.968,-0.021 z" /></g></g></g></svg>