<?xml version="1.0" encoding="UTF-8"?>
<svg version="1.1" xmlns="http://www.w3.org/2000/svg" width="3229" height="1122">
<path d="M0 0 C1.14578522 -0.00067474 2.29157043 -0.00134949 3.47207642 -0.00204468 C23.19011147 0.01630119 42.6213795 0.79536061 62.1875 3.25 C62.8690918 3.33485657 63.55068359 3.41971313 64.25292969 3.50714111 C117.40608265 10.20258536 168.94107754 24.85466142 217.1875 48.25 C218.22535645 48.74580566 219.26321289 49.24161133 220.33251953 49.75244141 C243.38059365 60.78753774 265.18627892 73.70306724 286.1875 88.25 C286.81156738 88.68119141 287.43563477 89.11238281 288.07861328 89.55664062 C297.04944577 95.78432599 305.67376372 102.41394801 314.1875 109.25 C315.65896484 110.42755859 315.65896484 110.42755859 317.16015625 111.62890625 C322.45141387 115.90805271 327.58288492 120.32248849 332.60546875 124.9140625 C334.70869987 126.81683437 336.8323525 128.68635637 338.97265625 130.546875 C350.18505466 140.3401981 360.87803961 150.61500593 370.80224609 161.71191406 C372.20347859 163.26774147 373.62337566 164.80411129 375.05078125 166.3359375 C381.03495915 172.76453088 386.69881922 179.39141708 392.1875 186.25 C393.10990375 187.38083957 394.03312196 188.51101515 394.95703125 189.640625 C402.76409748 199.23009095 410.08927057 209.12595258 417.1875 219.25 C417.61740234 219.86246582 418.04730469 220.47493164 418.49023438 221.10595703 C472.1671794 298.18553147 502.0241325 388.10425217 510.1875 481.25 C510.26097656 482.08418457 510.33445312 482.91836914 510.41015625 483.77783203 C512.48214723 508.90072266 513.75677398 537.40697259 509.1875 562.25 C502.61019247 560.91595478 496.42431966 559.11835176 490.125 556.8125 C489.18035889 556.46687012 488.23571777 556.12124023 487.26245117 555.76513672 C450.7943013 542.11690393 417.72863075 521.84592691 386.1875 499.25 C385.37845215 498.67121094 384.5694043 498.09242188 383.73583984 497.49609375 C379.2649389 494.29183965 374.80921241 491.0671627 370.36132812 487.83105469 C363.65118094 482.9506736 356.92358137 478.09450457 350.1875 473.25 C349.52524414 472.77272461 348.86298828 472.29544922 348.18066406 471.80371094 C270.65887224 416.05465625 186.02705848 378.78566012 71.921875 394.53515625 C21.16808088 402.90697072 -27.43070901 419.12909174 -73.8125 441.25 C-74.73627441 441.68924805 -75.66004883 442.12849609 -76.61181641 442.58105469 C-117.5728532 462.19292288 -156.17160388 487.91446635 -190.8125 517.25 C-191.35422852 517.70826172 -191.89595703 518.16652344 -192.45410156 518.63867188 C-194.26401176 520.17235887 -196.07040355 521.71006476 -197.875 523.25 C-198.41697021 523.71245117 -198.95894043 524.17490234 -199.51733398 524.65136719 C-200.05946533 525.11704102 -200.60159668 525.58271484 -201.16015625 526.0625 C-202.02930664 526.78397217 -202.02930664 526.78397217 -202.91601562 527.52001953 C-204.93052262 529.28523795 -204.93052262 529.28523795 -206.89648438 531.69482422 C-210.53897668 535.68367442 -212.97512677 538.11755485 -218.51098633 538.51660156 C-222.80724006 538.17530747 -226.98232054 537.28646747 -231.1875 536.375 C-232.6292665 536.09663914 -234.07198547 535.82316526 -235.515625 535.5546875 C-237.64437325 535.15731508 -239.77239286 534.75801535 -241.89820862 534.34521484 C-254.71151405 531.87308895 -267.62286808 532.00814134 -280.625 532 C-281.59681213 531.99932526 -282.56862427 531.99865051 -283.56988525 531.99795532 C-300.82624199 532.01688026 -317.69630584 532.909741 -334.8125 535.25 C-336.01342285 535.41097168 -337.2143457 535.57194336 -338.45166016 535.73779297 C-395.92988637 543.71683464 -452.55293067 562.58619794 -498.8125 598.25 C-501.36014954 595.70235046 -501.31253818 594.24414924 -501.8125 590.703125 C-502.05842896 588.9869397 -502.05842896 588.9869397 -502.30932617 587.23608398 C-502.47537354 586.00317627 -502.6414209 584.77026855 -502.8125 583.5 C-502.98692627 582.23679932 -503.16135254 580.97359863 -503.34106445 579.67211914 C-504.84084296 568.55384532 -505.99556317 557.43780517 -506.8125 546.25 C-506.87034668 545.51749023 -506.92819336 544.78498047 -506.98779297 544.03027344 C-513.9347342 454.02924846 -494.31297485 362.78972417 -451.8125 276.25 C-451.39145996 275.4038916 -450.97041992 274.5577832 -450.53662109 273.68603516 C-431.93814769 236.61642384 -407.44939359 201.22097146 -379.19140625 170.83984375 C-377.92809665 169.46451655 -376.6705556 168.08275147 -375.4621582 166.65893555 C-369.90570707 160.12565943 -363.83147387 154.11803826 -357.76098633 148.06811523 C-355.87921726 146.19170525 -354.00285262 144.31001031 -352.12695312 142.42773438 C-346.19284361 136.49003633 -340.25085123 130.64650376 -333.8125 125.25 C-332.80239487 124.37353612 -331.79323221 123.49598451 -330.78515625 122.6171875 C-306.89795193 102.16076286 -281.0126462 84.01730613 -253.8125 68.25 C-253.15797852 67.87053223 -252.50345703 67.49106445 -251.82910156 67.10009766 C-175.20664741 22.99358683 -88.3252868 0.04700993 0 0 Z " fill="#72BA6F" transform="translate(626.8125,76.75)"/>
<path d="M0 0 C3.50887667 2.54841773 7.06836714 5.01028487 10.6484375 7.45703125 C15.25934879 10.60835725 19.85574876 13.77785216 24.42578125 16.98828125 C53.8854562 37.66712909 83.96304745 57.2571511 116.2109375 73.33203125 C116.9730957 73.71439941 117.73525391 74.09676758 118.52050781 74.49072266 C127.96226273 79.19458028 137.56600434 83.13505499 147.52197266 86.63183594 C148.806604 87.09638184 148.806604 87.09638184 150.1171875 87.5703125 C151.26670898 87.97310425 151.26670898 87.97310425 152.43945312 88.3840332 C154.2109375 89.33203125 154.2109375 89.33203125 155.2109375 92.33203125 C154.97996607 94.34935135 154.65316792 96.35614666 154.27734375 98.3515625 C154.04499023 99.58592041 153.81263672 100.82027832 153.57324219 102.09204102 C153.30793422 103.44312576 153.04129557 104.79394977 152.7734375 106.14453125 C152.57095398 107.17669266 152.57095398 107.17669266 152.36437988 108.22970581 C140.3947403 168.85811455 116.61546536 226.96655378 82.2109375 278.33203125 C65.1575416 270.03717705 48.5396778 260.9110176 31.92114258 251.78393555 C-12.55996002 227.39213129 -57.41680343 206.7763026 -107.7890625 198.33203125 C-108.76762207 198.16687012 -109.74618164 198.00170898 -110.75439453 197.83154297 C-147.74572832 191.90041716 -186.38759997 194.58112125 -222.96020508 201.79370117 C-224.06001709 202.00744385 -225.1598291 202.22118652 -226.29296875 202.44140625 C-227.74425171 202.7348291 -227.74425171 202.7348291 -229.22485352 203.03417969 C-233.24930006 203.50164849 -235.1054929 202.8558191 -238.3125 200.3984375 C-239.25351562 199.57214844 -240.19453125 198.74585938 -241.1640625 197.89453125 C-247.10547166 192.79719682 -253.33913218 188.22593762 -259.7578125 183.75390625 C-261.9647503 182.20904979 -264.15845229 180.64644987 -266.3515625 179.08203125 C-344.32879413 123.66375764 -439.30156747 70.23896104 -539.7890625 55.33203125 C-537.99782842 51.4344338 -535.52142759 48.96318404 -532.3515625 46.14453125 C-531.81370117 45.65968262 -531.27583984 45.17483398 -530.72167969 44.67529297 C-526.516952 40.91375296 -522.20560738 37.29694287 -517.80859375 33.76171875 C-515.5823909 31.97038864 -513.37418134 30.16464822 -511.17578125 28.33984375 C-442.47163042 -28.49164914 -357.86020728 -69.69275632 0 0 Z " fill="#2F934D" transform="translate(976.7890625,580.66796875)"/>
<path d="M0 0 C29.04 0 58.08 0 88 0 C98.16103726 11.2900414 98.16103726 11.2900414 102.3125 16.75 C106.61936936 22.32422935 111.11293011 27.69884734 115.72314453 33.02368164 C119.28165044 37.14041872 122.72077002 41.33384125 126.09765625 45.6015625 C132.55354448 53.74101911 139.22901173 61.70969456 145.83520508 69.72729492 C150.56976372 75.47433947 155.28918786 81.23346913 160 87 C161.49985696 88.83345036 162.9998594 90.66678171 164.5 92.5 C191.5 125.5 218.5 158.5 245.5 191.5 C246.24894531 192.41523437 246.99789062 193.33046875 247.76953125 194.2734375 C249.20499935 196.02817784 250.63993796 197.78335155 252.07421875 199.5390625 C256.70323818 205.2034079 261.34813906 210.85440553 266 216.5 C271.34685204 222.98905001 276.68056318 229.48844833 282 236 C283.49985696 237.83345036 284.9998594 239.66678171 286.5 241.5 C295.5 252.5 295.5 252.5 297.7265625 255.22265625 C299.30300376 257.1485149 300.88125492 259.0728929 302.4609375 260.99609375 C303.25757812 261.96675781 304.05421875 262.93742187 304.875 263.9375 C305.59429688 264.81277344 306.31359375 265.68804688 307.0546875 266.58984375 C308.74965977 268.68983951 310.38078761 270.84105015 312 273 C312.33 182.91 312.66 92.82 313 0 C347.32 0 381.64 0 417 0 C417 149.82 417 299.64 417 454 C387.96 454 358.92 454 329 454 C324.38 448.39 319.76 442.78 315 437 C312.12503358 433.51071452 312.12503358 433.51071452 309.25 430.02148438 C304.29099107 424.00248729 299.34069134 417.97666701 294.40625 411.9375 C291.27823847 408.11888852 288.13915083 404.30945577 285 400.5 C280.45786868 394.98798441 275.92539199 389.4683902 271.40625 383.9375 C268.27823847 380.11888852 265.13915083 376.30945577 262 372.5 C257.45786868 366.98798441 252.92539199 361.4683902 248.40625 355.9375 C245.27823847 352.11888852 242.13915083 348.30945577 239 344.5 C234.45786868 338.98798441 229.92539199 333.4683902 225.40625 327.9375 C222.27823843 324.11888847 219.13913708 320.30946716 216 316.5 C209.96460706 309.17537717 203.94905759 301.83496785 197.9453125 294.484375 C192.69686804 288.0632012 187.42755621 281.6594752 182.15356445 275.25927734 C178.22747162 270.49373259 174.31301136 265.71890943 170.40625 260.9375 C167.27823847 257.11888852 164.13915083 253.30945577 161 249.5 C156.45786868 243.98798441 151.92539199 238.4683902 147.40625 232.9375 C144.27823847 229.11888852 141.13915083 225.30945577 138 221.5 C133.4666656 215.99865974 128.94161804 210.49086671 124.43359375 204.96875 C122.43150151 202.52639029 120.42275352 200.08994294 118.41015625 197.65625 C117.7759375 196.88861328 117.14171875 196.12097656 116.48828125 195.33007812 C115.22514142 193.8017558 113.96085716 192.27437845 112.6953125 190.74804688 C112.11652344 190.04744141 111.53773438 189.34683594 110.94140625 188.625 C110.42263916 187.99851562 109.90387207 187.37203125 109.36938477 186.7265625 C108.16705035 185.21062222 107.07326719 183.60990078 106 182 C105.67 271.76 105.34 361.52 105 454 C70.35 454 35.7 454 0 454 C0 304.18 0 154.36 0 0 Z " fill="#31508E" transform="translate(2224,344)"/>
<path d="M0 0 C3.39406423 2.01027422 6.80061332 3.99846241 10.2109375 5.98095703 C25.23286119 14.72103809 40.09073619 23.69281239 54.87011719 32.83886719 C72.76835688 43.89521561 90.77375773 54.68563934 109.1796875 64.88330078 C106.76899805 67.63658821 104.33689651 68.90491233 101.0078125 70.37939453 C99.96278564 70.84917725 98.91775879 71.31895996 97.84106445 71.80297852 C96.71531006 72.30385986 95.58955566 72.80474121 94.4296875 73.32080078 C43.00492435 96.65237336 -5.14313103 127.60472025 -53.28662109 156.99951172 C-71.01826407 167.82473387 -88.85765222 178.44577622 -106.8203125 188.88330078 C-107.94211914 189.53572754 -109.06392578 190.1881543 -110.21972656 190.86035156 C-131.77679923 203.38521958 -153.40416395 215.74044615 -175.5703125 227.16064453 C-178.71690659 228.78296623 -181.84484657 230.42842751 -184.9453125 232.13720703 C-206.59559168 244.03805232 -229.61014121 253.93567627 -252.98681641 261.88085938 C-255.52667498 262.77941696 -257.98231958 263.77864169 -260.45703125 264.84033203 C-264.37864674 266.38474483 -267.53891182 267.22201919 -271.8203125 266.88330078 C-277.62334484 264.17583506 -282.32498151 259.85927569 -286.99316406 255.55419922 C-289.25351526 253.48714368 -291.64072475 251.621771 -294.0703125 249.75830078 C-303.31473518 242.28442007 -312.29388881 234.56087975 -321.0078125 226.47705078 C-323.47759586 224.19936168 -325.9838264 221.9753156 -328.5078125 219.75830078 C-333.3271317 215.4318665 -337.92136093 210.89099008 -342.5078125 206.32080078 C-343.57745239 205.25804932 -343.57745239 205.25804932 -344.66870117 204.17382812 C-348.69933398 200.13148517 -352.55426409 195.99082319 -356.28149414 191.66723633 C-358.21133393 189.42999385 -360.20185818 187.25138013 -362.1953125 185.07080078 C-366.45387784 180.33985677 -370.53782694 175.49874433 -374.50683594 170.52246094 C-375.41848806 169.38475976 -376.33625665 168.25194346 -377.25878906 167.12304688 C-417.45773719 117.87614503 -446.12380853 59.75146843 -463.9453125 -1.05419922 C-464.1439389 -1.72722076 -464.34256531 -2.40024231 -464.54721069 -3.09365845 C-465.10762656 -5.0038294 -465.65563386 -6.91762749 -466.203125 -8.83154297 C-466.67322998 -10.47304321 -466.67322998 -10.47304321 -467.15283203 -12.14770508 C-467.79817759 -15.01824177 -468.27825843 -17.20664686 -467.8203125 -20.11669922 C-466.11401367 -21.68457031 -466.11401367 -21.68457031 -463.67578125 -23.01513672 C-462.75716309 -23.52012695 -461.83854492 -24.02511719 -460.89208984 -24.54541016 C-455.35113776 -27.37974235 -449.77886082 -30.12284916 -444.1328125 -32.74169922 C-443.48614624 -33.04250397 -442.83947998 -33.34330872 -442.17321777 -33.65322876 C-390.63656993 -57.53145749 -335.37017735 -73.39038144 -278.8203125 -79.11669922 C-277.42522461 -79.26026855 -277.42522461 -79.26026855 -276.00195312 -79.40673828 C-177.09118436 -88.3259705 -83.52277892 -49.69229601 0 0 Z " fill="#235F3B" transform="translate(601.8203125,726.11669921875)"/>
<path d="M0 0 C1.46335281 0.00273422 1.46335281 0.00273422 2.95626831 0.00552368 C19.4670748 0.05714465 35.64836048 0.86252717 52 3.3125 C53.13002441 3.47878906 54.26004883 3.64507813 55.42431641 3.81640625 C117.41768706 13.23709575 177.75592259 37.24429862 232 68.3125 C230.50565541 72.87238577 227.92097224 76.2595945 224.9375 79.9375 C224.44435303 80.55431641 223.95120605 81.17113281 223.44311523 81.80664062 C221.96833967 83.64707679 220.48508792 85.48038122 219 87.3125 C218.23945312 88.25867188 217.47890625 89.20484375 216.6953125 90.1796875 C200.76169689 109.84865622 200.76169689 109.84865622 192.55078125 117.765625 C190.89337921 119.41885222 189.3901415 121.15324578 187.875 122.9375 C180.88696535 131.02973878 173.16079135 138.66300734 165.01171875 145.58203125 C162.51716397 147.72783274 160.10781018 149.95835677 157.6875 152.1875 C152.28275991 157.10492746 146.71807326 161.76606619 141 166.3125 C140.38334473 166.8070166 139.76668945 167.3015332 139.13134766 167.81103516 C120.3988012 182.79979178 100.80878571 196.37059661 80 208.3125 C79.04399902 208.86647461 78.08799805 209.42044922 77.10302734 209.99121094 C34.53615916 234.59943104 -11.18309023 252.81683665 -59 264.3125 C-60.07491699 264.57224609 -61.14983398 264.83199219 -62.25732422 265.09960938 C-102.92470353 274.75252578 -145.21430465 279.20266062 -187 278.3125 C-187.90669434 278.29461426 -188.81338867 278.27672852 -189.74755859 278.25830078 C-231.61312418 277.31942658 -273.40375414 271.56347331 -314 261.3125 C-315.19705566 261.01118164 -316.39411133 260.70986328 -317.62744141 260.39941406 C-346.27211383 253.0784633 -374.04074486 243.44865802 -401 231.3125 C-401.9178125 230.90177246 -402.835625 230.49104492 -403.78125 230.06787109 C-421.88720545 221.89979563 -439.08656546 212.11962761 -455.9375 201.625 C-456.75492676 201.11984863 -457.57235352 200.61469727 -458.41455078 200.09423828 C-459.15302246 199.62614746 -459.89149414 199.15805664 -460.65234375 198.67578125 C-461.62675415 198.06150269 -461.62675415 198.06150269 -462.62084961 197.43481445 C-463.30352905 196.8792688 -463.30352905 196.8792688 -464 196.3125 C-464 195.6525 -464 194.9925 -464 194.3125 C-463.13648926 194.08699463 -462.27297852 193.86148926 -461.38330078 193.62915039 C-424.65113103 183.9780196 -390.03048684 171.28265236 -356 154.3125 C-354.97793457 153.80348145 -353.95586914 153.29446289 -352.90283203 152.77001953 C-336.14281786 144.36747485 -320.03243774 135.01979168 -304 125.3125 C-302.02107691 124.1232925 -300.04191936 122.93447504 -298.0625 121.74609375 C-287.06126688 115.11814401 -276.20280709 108.28633116 -265.39916992 101.34155273 C-254.33045833 94.22748096 -243.19176521 87.23126585 -232 80.3125 C-230.89785156 79.6304248 -229.79570313 78.94834961 -228.66015625 78.24560547 C-174.22281168 44.60936082 -117.79203629 15.51741254 -54.25 4.0625 C-53.42556396 3.91135742 -52.60112793 3.76021484 -51.75170898 3.60449219 C-34.61047146 0.69480037 -17.35479344 -0.06802586 0 0 Z " fill="#245939" transform="translate(810,817.6875)"/>
<path d="M0 0 C113.52 0 227.04 0 344 0 C344 28.05 344 56.1 344 85 C265.46 85 186.92 85 106 85 C106 117.34 106 149.68 106 183 C175.3 183 244.6 183 316 183 C316 210.06 316 237.12 316 265 C246.7 265 177.4 265 106 265 C106 299.32 106 333.64 106 369 C187.18 369 268.36 369 352 369 C352 397.05 352 425.1 352 454 C235.84 454 119.68 454 0 454 C0 304.18 0 154.36 0 0 Z " fill="#31508E" transform="translate(1789,344)"/>
<path d="M0 0 C1.00363586 0.00182281 2.00727173 0.00364563 3.0413208 0.00552368 C19.00943171 0.05418472 34.65989726 0.64216111 50.4375 3.3125 C51.43185059 3.47878906 52.42620117 3.64507812 53.45068359 3.81640625 C94.82475183 11.01769452 135.61333762 27.42166106 167.4375 55.3125 C168.25089844 56.01632812 169.06429688 56.72015625 169.90234375 57.4453125 C174.73107714 61.70192108 179.39653748 66.1270492 184 70.625 C184.5252124 71.12878174 185.0504248 71.63256348 185.59155273 72.15161133 C188.16840124 74.7054256 190.07617024 76.60226024 190.4375 80.3125 C189.88964844 80.79976563 189.34179688 81.28703125 188.77734375 81.7890625 C182.81598171 87.12036189 176.95219051 92.54679256 171.11352539 98.01171875 C166.23577419 102.57483568 161.32399308 107.09834368 156.39453125 111.60546875 C151.62066171 115.97128801 146.87383599 120.3664688 142.12255859 124.75683594 C140.36042333 126.383658 138.5964298 128.00844558 136.83203125 129.6328125 C136.24284912 130.17558838 135.65366699 130.71836426 135.04663086 131.27758789 C133.9189893 132.31632628 132.79091995 133.35460053 131.66235352 134.39233398 C128.62081744 137.18551606 128.62081744 137.18551606 125.8203125 140.21484375 C124.4375 141.3125 124.4375 141.3125 122.47265625 141.21875 C119.99720113 140.11643601 118.70770092 138.80749193 116.875 136.8125 C93.00354628 112.1042241 60.35664777 96.60859235 26.4375 92.3125 C25.63441406 92.20164062 24.83132813 92.09078125 24.00390625 91.9765625 C-15.06621727 87.46612702 -58.54336445 96.18368901 -89.79296875 120.96484375 C-120.02320575 146.59019275 -137.75289691 179.64453577 -141.3515625 219.35253906 C-144.27618313 260.39200719 -134.82533599 300.11741385 -107.62475586 331.73364258 C-83.54168029 359.22685836 -49.74164416 374.64740432 -13.5625 378.3125 C-7.6919023 378.6585629 -1.81621853 378.65384106 4.0625 378.625 C5.25070847 378.62176727 5.25070847 378.62176727 6.46292114 378.61846924 C18.6613783 378.56529013 30.51644488 378.12464634 42.4375 375.3125 C43.68080078 375.02246094 43.68080078 375.02246094 44.94921875 374.7265625 C58.90467609 371.34721409 71.11481651 366.0222215 84.4375 360.3125 C84.7675 316.4225 85.0975 272.5325 85.4375 227.3125 C117.4475 227.3125 149.4575 227.3125 182.4375 227.3125 C182.92113641 273.34304319 182.92113641 273.34304319 183.0234375 292.63476562 C183.09463859 305.95474699 183.17833036 319.27381737 183.34277344 332.59301758 C183.46248212 342.29355431 183.53982176 351.993352 183.56656194 361.69460684 C183.58219107 366.83056332 183.61884162 371.96440584 183.70626068 377.09968376 C183.787943 381.93732782 183.81279752 386.77199565 183.79479218 391.61026382 C183.79808385 393.38207389 183.82183098 395.15398712 183.8679657 396.92519951 C184.19054159 409.95260323 184.19054159 409.95260323 181.25313091 413.90686536 C178.05284187 417.05878295 174.38967951 419.1933411 170.4375 421.3125 C169.21672577 422.11211207 168.00052442 422.91884334 166.79296875 423.73828125 C96.04087501 465.87547148 8.80970194 482.41899926 -71.87646484 462.49414062 C-78.84318907 460.65264147 -85.71684594 458.55989666 -92.5625 456.3125 C-93.64217041 455.96348633 -93.64217041 455.96348633 -94.74365234 455.60742188 C-120.04489806 447.27523479 -143.72584782 433.79796893 -164.5625 417.3125 C-165.3771875 416.70148438 -166.191875 416.09046875 -167.03125 415.4609375 C-183.00042242 403.08975763 -197.08786177 387.89785594 -208.5625 371.3125 C-209.03977539 370.62623535 -209.51705078 369.9399707 -210.00878906 369.23291016 C-231.2021104 338.42263301 -244.12254516 303.44111322 -248.5625 266.3125 C-248.6567627 265.55557861 -248.75102539 264.79865723 -248.84814453 264.01879883 C-249.87044201 254.58494992 -249.80619459 245.10288633 -249.8125 235.625 C-249.81317474 234.71309906 -249.81384949 233.80119812 -249.81454468 232.86166382 C-249.79768056 218.4898078 -249.23182178 204.47094005 -246.5625 190.3125 C-246.39621094 189.41192871 -246.22992187 188.51135742 -246.05859375 187.58349609 C-238.39417164 147.48011707 -220.49678905 109.44432182 -192.5625 79.46484375 C-190.72168281 77.48380806 -188.98525357 75.44812746 -187.25 73.375 C-153.85466587 35.33931192 -101.86544559 13.14876966 -53.1875 4 C-52.40608643 3.85256348 -51.62467285 3.70512695 -50.81958008 3.55322266 C-33.97308918 0.63633303 -17.06341267 -0.06471876 0 0 Z " fill="#31508E" transform="translate(1511.5625,335.6875)"/>
<path d="M0 0 C8.49074779 6.65403954 14.63065251 15.5225972 16.8125 26.296875 C18.43527602 41.57157631 15.86395954 54.0358771 6.43359375 66.23828125 C-1.61044324 75.06011316 -12.92801247 79.79334539 -24.64453125 80.9921875 C-37.76926768 81.41077477 -48.94611126 78.27358821 -58.94140625 69.61328125 C-68.89728405 60.18324207 -73.73036799 49.39390415 -74.25390625 35.73828125 C-73.94388918 23.39572684 -69.32768601 12.56453105 -61.015625 3.53125 C-44.20946394 -12.00891022 -18.48214478 -13.27683484 0 0 Z M-55.62890625 11.390625 C-63.22190807 20.67306973 -65.04746256 30.85631229 -63.94140625 42.61328125 C-62.13912726 53.41206032 -55.71876623 61.32549973 -46.94140625 67.61328125 C-42.55606718 70.03328442 -37.96152052 72.11126982 -32.94140625 72.61328125 C-32.33296875 72.67644531 -31.72453125 72.73960937 -31.09765625 72.8046875 C-21.16110699 73.36271835 -11.40610833 70.06473643 -3.875 63.59765625 C4.53014548 54.97176957 7.59039295 45.89339327 7.47387695 34.04077148 C7.09849294 23.48035293 3.80123772 16.39461846 -3.57421875 8.77734375 C-12.11821231 0.96649816 -20.73875795 -0.88030097 -32.21484375 -0.69921875 C-41.54841574 0.08347072 -49.24368594 4.66545083 -55.62890625 11.390625 Z " fill="#344D90" transform="translate(2768.94140625,336.38671875)"/>
<path d="M0 0 C30.36363636 0 30.36363636 0 36.5 5.0625 C38.92325755 9.80804604 39.68315268 14.80792375 38.55859375 20.0625 C36.37798361 25.84423202 32.31040926 28.41808127 27 31 C27.68707031 32.01320313 28.37414063 33.02640625 29.08203125 34.0703125 C29.99237411 35.42174932 30.90251992 36.77331888 31.8125 38.125 C32.26431641 38.79015625 32.71613281 39.4553125 33.18164062 40.140625 C35.76016905 43.98018558 38.03089855 47.8001225 40 52 C36.512393 52.58743225 33.46956803 52.76844934 30 52 C27.03849467 49.32186011 25.32050438 46.11520253 23.4375 42.625 C22.91865234 41.73554688 22.39980469 40.84609375 21.86523438 39.9296875 C20.16251765 36.99166649 18.51867314 34.03734629 17 31 C14.36 30.67 11.72 30.34 9 30 C9 37.26 9 44.52 9 52 C6.03 52 3.06 52 0 52 C0 34.84 0 17.68 0 0 Z M9 8 C9 12.95 9 17.9 9 23 C19.68781389 23.65902821 19.68781389 23.65902821 29 19.25 C30.41064113 16.07605745 30.04568764 14.27648795 29 11 C26.41317103 8.1970562 24.97742784 7.99830029 21.109375 7.70703125 C19.65595991 7.72685055 18.20268833 7.76245155 16.75 7.8125 C15.63238281 7.83280273 15.63238281 7.83280273 14.4921875 7.85351562 C12.66114584 7.88872796 10.83047831 7.94253149 9 8 Z " fill="#344D90" transform="translate(2723,346)"/>
<path d="" fill="#216A40" transform="translate(0,0)"/>
</svg>
