<?xml version="1.0" encoding="UTF-8"?>
<svg version="1.1" xmlns="http://www.w3.org/2000/svg" width="1022" height="351">
<path d="M0 0 C0.7051474 -0.00067474 1.4102948 -0.00134949 2.1368103 -0.00204468 C14.18834675 0.01618399 25.87137654 0.76342555 37.6875 3.25 C38.47833984 3.41628906 39.26917969 3.58257812 40.08398438 3.75390625 C81.97523856 12.95702963 118.38893908 37.83316409 143.6875 72.25 C144.1088623 72.81638184 144.53022461 73.38276367 144.96435547 73.96630859 C163.8642584 99.68523155 175.70962589 132.85961837 175.890625 164.89453125 C175.89632507 165.70379562 175.90202515 166.51306 175.90789795 167.34684753 C175.91729274 169.05535602 175.92385979 170.76388218 175.92773438 172.47241211 C175.93733132 175.01776203 175.96836164 177.56226449 176 180.10742188 C176.09565511 194.90357349 174.3779575 209.44114225 170.5 223.75 C170.29640869 224.51425293 170.09281738 225.27850586 169.88305664 226.06591797 C167.33832464 235.13377881 163.54957536 243.68060758 159.6875 252.25 C158.93799398 253.93453651 158.18927849 255.61942501 157.44140625 257.3046875 C156.85680053 258.61980487 156.27217643 259.93491407 155.6875 261.25 C156.52925781 261.76304687 157.37101562 262.27609375 158.23828125 262.8046875 C167.36016291 268.41504835 176.29413102 274.28675238 185.1875 280.25 C193.07545529 285.53886511 200.98178292 290.7700255 209.07250977 295.74584961 C214.33052013 298.99142121 219.4845506 302.38418573 224.625 305.8125 C225.41398682 306.33827637 226.20297363 306.86405273 227.01586914 307.40576172 C232.5521372 311.1146372 232.5521372 311.1146372 233.6875 312.25 C233.875 315.6875 233.875 315.6875 233.6875 319.25 C231.6875 321.25 231.6875 321.25 229.43298435 321.4809866 C228.4860921 321.47223035 227.53919985 321.4634741 226.56361389 321.45445251 C224.93467445 321.4473526 224.93467445 321.4473526 223.27282715 321.44010925 C222.07557007 321.42498795 220.87831299 321.40986664 219.64477539 321.39428711 C217.71451293 321.3825825 215.78425028 321.37089605 213.85398376 321.35988247 C211.77292498 321.3465902 209.69193756 321.32883111 207.61091805 321.31043816 C203.25789264 321.27414504 198.90502524 321.26261816 194.55186462 321.25697327 C193.44801653 321.25537646 193.44801653 321.25537646 192.32186848 321.2537474 C190.81626454 321.25160766 189.31066053 321.24952069 187.80505645 321.24748528 C177.67214552 321.23266936 167.53994185 321.20171346 157.4074707 321.1027832 C150.57346033 321.03624682 143.74051756 321.00977995 136.90619081 321.02733427 C133.29683086 321.03504279 129.69001279 321.02362359 126.08110237 320.96290398 C109.18219851 320.69152439 96.61488335 321.68948996 82.69480705 331.89003181 C66.50610835 342.85801759 44.74089853 347.59360843 25.6875 350.25 C25.0495752 350.3442627 24.41165039 350.43852539 23.75439453 350.53564453 C-20.79334563 356.40741693 -68.39447556 345.63456911 -104.25 318.1875 C-109.82963127 313.78547084 -115.16362216 309.1473522 -120.3125 304.25 C-121.15167969 303.45964355 -121.15167969 303.45964355 -122.0078125 302.65332031 C-136.21333179 289.19585762 -147.38630749 274.66757284 -156.3125 257.25 C-156.66296387 256.57356445 -157.01342773 255.89712891 -157.37451172 255.20019531 C-174.4203546 221.92582981 -179.8666764 182.05976925 -173.3125 145.25 C-173.18891113 144.55213379 -173.06532227 143.85426758 -172.93798828 143.13525391 C-167.99288129 116.39571173 -157.60096796 92.01840549 -141.3125 70.25 C-140.30896484 68.88101563 -140.30896484 68.88101563 -139.28515625 67.484375 C-127.58572278 52.37936386 -113.18143895 38.85810783 -97.3125 28.25 C-96.7158252 27.8463623 -96.11915039 27.44272461 -95.50439453 27.02685547 C-67.34660174 8.26785457 -33.49598169 0.0289626 0 0 Z " fill="#F90000" transform="translate(175.3125,-0.25)"/>
<path d="M0 0 C12.87 0 25.74 0 39 0 C38.96221436 3.55773193 38.92442871 7.11546387 38.88549805 10.78100586 C38.77003761 22.54751713 38.72560711 34.31370868 38.71759319 46.08071041 C38.71100683 53.21411239 38.6803158 60.3458623 38.59204102 67.47875977 C38.5151228 73.69902381 38.48428438 79.91755752 38.50781661 86.13828188 C38.51868641 89.43052313 38.50027192 92.71829287 38.44031334 96.01011467 C37.5879579 108.95117128 37.5879579 108.95117128 41.26330185 120.95476151 C44.64894033 124.41384464 48.54926866 126.15122137 53 128 C54.76184586 129.14634726 56.50252259 130.32711976 58.203125 131.5625 C59.88504712 132.70887571 61.5673477 133.85469633 63.25 135 C64.16894043 135.62592041 65.08788086 136.25184082 66.03466797 136.89672852 C67.9959158 138.2323577 69.95734535 139.56772007 71.91894531 140.90283203 C74.57811036 142.71283423 77.23678607 144.52355255 79.89526367 146.33456421 C82.63811142 148.2027938 85.38158715 150.07010033 88.125 151.9375 C89.13079102 152.62263672 90.13658203 153.30777344 91.17285156 154.01367188 C96.14498666 157.39623293 101.13022296 160.75637391 106.140625 164.08203125 C111.36213143 167.55610971 116.50477078 171.12896547 121.625 174.75 C131.98453782 182.03909686 142.50609022 189.06729989 153.0859375 196.03125 C159.34138214 200.16650192 165.49210527 204.43619405 171.625 208.75 C180.97907278 215.32799126 190.45790551 221.69898139 200 228 C208.28335919 233.48422655 216.49824477 239.06174496 224.67944336 244.69702148 C225.46843018 245.23915283 226.25741699 245.78128418 227.0703125 246.33984375 C227.77945801 246.82831787 228.48860352 247.31679199 229.21923828 247.82006836 C230.99222288 249.046626 230.99222288 249.046626 233 250 C233 250.66 233 251.32 233 252 C166.16492517 256.48187986 166.16492517 256.48187986 142.35546875 235.78125 C141.25864239 234.78123956 140.16525313 233.77744353 139.07568359 232.76953125 C134.76024175 228.7977493 129.93142376 225.62283471 125.0625 222.375 C123.49167313 221.27265975 121.92382641 220.16605732 120.359375 219.0546875 C113.96048238 214.54957444 107.43200062 210.24203966 100.90625 205.92382812 C94.53636037 201.70720092 88.17265289 197.48129773 81.8125 193.25 C81.10065552 192.77656158 80.38881104 192.30312317 79.65539551 191.81533813 C69.24219847 184.88468373 58.91074155 177.85284316 48.67700195 170.65917969 C47.38475708 169.75087402 47.38475708 169.75087402 46.06640625 168.82421875 C45.32334229 168.29916748 44.58027832 167.77411621 43.81469727 167.2331543 C42.018824 165.9540708 42.018824 165.9540708 40 165 C39.67 193.71 39.34 222.42 39 252 C26.13 252 13.26 252 0 252 C0 168.84 0 85.68 0 0 Z " fill="#FEF9F9" transform="translate(110,50)"/>
<path d="M0 0 C9.57 0 19.14 0 29 0 C29 80.85 29 161.7 29 245 C19.76 245 10.52 245 1 245 C0 244 0 244 -0.0625 240.9375 C-0.041875 239.968125 -0.02125 238.99875 0 238 C-1.28583984 238.72316406 -1.28583984 238.72316406 -2.59765625 239.4609375 C-3.74105469 240.09257812 -4.88445312 240.72421875 -6.0625 241.375 C-7.18785156 242.00148438 -8.31320312 242.62796875 -9.47265625 243.2734375 C-22.18686293 249.49678119 -37.80711032 249.31172269 -51.08984375 244.99609375 C-58.01092206 242.35159598 -63.4984782 238.93136409 -69 234 C-70.12535156 233.03126953 -70.12535156 233.03126953 -71.2734375 232.04296875 C-84.1373622 220.21079228 -90.8506003 203.22303616 -92 186 C-92.25856485 167.16632136 -87.28225369 149.74341027 -74.04663086 135.98974609 C-72.71166683 134.64586554 -71.3565032 133.32213576 -70 132 C-69.39285156 131.38382813 -68.78570313 130.76765625 -68.16015625 130.1328125 C-57.55416038 120.12324183 -42.4327439 116.3078295 -28.1875 116.71875 C-17.89425205 117.62697776 -10.43187421 121.2840629 -1 126 C-0.67 84.42 -0.34 42.84 0 0 Z M-54 157 C-61.86172093 167.95931144 -63.2265221 178.86088204 -62 192 C-59.92048622 201.41688911 -53.9723084 209.2763314 -46.1328125 214.74609375 C-38.89026752 219.00407349 -31.52317114 220.21655752 -23.33984375 218.4140625 C-15.11185061 215.89127417 -8.42967535 211.03762613 -3.55859375 203.8828125 C1.87844466 193.57049611 2.82870013 180.88640298 -0.0625 169.625 C-3.16653159 161.00913663 -8.93538696 153.46191675 -17 149 C-30.08871523 143.68385516 -44.60141523 146.45469795 -54 157 Z " fill="#0B0B0B" transform="translate(860,63)"/>
<path d="M0 0 C0 -2.31 0 -4.62 0 -7 C3.96930989 -7.02465881 7.93859034 -7.04284023 11.90795898 -7.05493164 C13.25920386 -7.05997057 14.61044326 -7.06680177 15.96166992 -7.07543945 C17.90020434 -7.08752419 19.838778 -7.09269828 21.77734375 -7.09765625 C23.52905884 -7.10551147 23.52905884 -7.10551147 25.31616211 -7.11352539 C28 -7 28 -7 29 -6 C29.09814195 -4.40810027 29.12631906 -2.81184093 29.12698364 -1.21691895 C29.13121338 0.33538673 29.13121338 0.33538673 29.13552856 1.91905212 C29.13249222 3.6365139 29.13249222 3.6365139 29.12939453 5.38867188 C29.13202301 7.18601524 29.13202301 7.18601524 29.13470459 9.01966858 C29.13836275 12.31504792 29.1374897 15.61036484 29.1343255 18.90574074 C29.13180149 22.34727693 29.13413956 25.78881038 29.13571167 29.23034668 C29.13753325 35.01082847 29.13512737 40.79129749 29.13037109 46.57177734 C29.12492849 53.26383534 29.12669116 59.95586287 29.1321975 66.64792013 C29.13672897 72.3837922 29.13737901 78.11965508 29.13475883 83.85552835 C29.13319624 87.28560288 29.13300179 90.71566307 29.13629532 94.14573669 C29.13970843 97.96761264 29.13498373 101.7894542 29.12939453 105.61132812 C29.13141876 106.75630264 29.13344299 107.90127716 29.13552856 109.08094788 C29.13270874 110.11581833 29.12988892 111.15068878 29.12698364 112.21691895 C29.1264181 113.57415447 29.1264181 113.57415447 29.12584114 114.9588089 C29 117 29 117 28 118 C25.92737924 118.08767112 23.85179706 118.10695873 21.77734375 118.09765625 C20.51728516 118.09443359 19.25722656 118.09121094 17.95898438 118.08789062 C16.61848891 118.07953403 15.27799412 118.07106907 13.9375 118.0625 C12.59310058 118.0574866 11.2486994 118.05292342 9.90429688 118.04882812 C6.60282059 118.03699488 3.30143197 118.02050971 0 118 C0 115.69 0 113.38 0 111 C-0.84820313 111.47050781 -1.69640625 111.94101562 -2.5703125 112.42578125 C-18.5792387 121.0303775 -33.4648521 123.08711983 -51 118 C-67.13364426 111.81609704 -78.72239477 100.01151293 -86.375 84.6875 C-93.440631 68.20102766 -94.87044593 47.9033106 -88.21777344 31.01416016 C-81.26561158 14.79629864 -70.50131721 0.95630603 -53.84375 -5.96875 C-35.12499227 -12.75687094 -16.69320458 -11.12880305 0 0 Z M-54.46875 29.984375 C-61.39753874 39.10492344 -64.17898257 49.6817673 -63 61 C-61.3101461 69.14202332 -58.76365891 75.93079773 -53 82 C-52.47535156 82.55300781 -51.95070313 83.10601562 -51.41015625 83.67578125 C-45.73796485 89.05435333 -38.8319837 92.13114676 -31 92.5 C-22.25059434 92.08858594 -14.2617474 88.01935718 -8 82 C-0.79706126 73.78440321 1.65335098 63.4980805 1.28125 52.72265625 C0.05183843 40.8212692 -4.8721559 32.33530245 -13.77734375 24.5078125 C-27.00823709 15.53219768 -43.93652621 18.55790579 -54.46875 29.984375 Z " fill="#0B0B0B" transform="translate(993,190)"/>
<path d="M0 0 C12.9043569 10.56218354 22.43406406 25.31316049 25 42 C26.8259 62.06479831 24.55837429 80.44122438 11.828125 96.7890625 C9.63427029 99.29308288 7.37010763 101.66292523 5 104 C4.04480469 104.97066406 4.04480469 104.97066406 3.0703125 105.9609375 C-7.13442394 115.65755428 -20.54921229 119.73889522 -34.4375 120.375 C-53.8767723 119.49473107 -67.80410515 112.14671394 -80.83984375 98.00390625 C-93.4581491 82.44021397 -96.64236747 63.49220881 -95 44 C-92.40087056 25.36264052 -81.85508246 9.25450369 -67 -2 C-46.58598344 -14.82526692 -19.43644841 -14.60374453 0 0 Z M-57.3984375 28.8359375 C-65.2513972 39.44700988 -67.15524755 50.1600688 -66 63 C-63.83043401 73.2031589 -58.37796372 80.61810206 -50.125 86.7734375 C-42.90714755 90.93962439 -35.0943514 90.80607649 -27 90 C-19.06326703 87.64837542 -12.70887516 82.55935352 -8.49609375 75.46875 C-2.98532934 64.79262521 -1.77753201 51.59544404 -5.4375 40 C-9.24781338 31.24839683 -16.45086295 24.15851689 -25 20 C-37.0638764 15.97870787 -48.93957751 19.73564737 -57.3984375 28.8359375 Z " fill="#0A0A0A" transform="translate(725,191)"/>
<path d="M0 0 C9.9 0 19.8 0 30 0 C30.04898437 4.7953125 30.09796875 9.590625 30.1484375 14.53125 C30.1839 17.60288335 30.21990306 20.67449199 30.2578125 23.74609375 C30.31768959 28.6016856 30.37576403 33.45724363 30.421875 38.31298828 C30.45925461 42.23591685 30.50574186 46.15864895 30.55806351 50.08140564 C30.57633239 51.56416818 30.59153692 53.04697235 30.60334396 54.52980042 C30.6669456 62.25470397 30.94169899 69.91953397 31.77587891 77.60351562 C31.91136139 78.85700806 32.04684387 80.11050049 32.18643188 81.40197754 C33.34830437 86.54038355 35.473237 90.38342741 39.125 94.25 C45.80273039 98.31470546 53.46458173 100.18828299 61.18359375 98.53125 C68.25706448 96.52729876 73.17977206 93.15506176 76.875 86.75 C79.83082047 76.8972651 79.20663421 66.25937085 79.31640625 56.0546875 C79.33701809 54.43229698 79.35801553 52.80991131 79.37937927 51.18753052 C79.43416378 46.94950331 79.48376248 42.71143121 79.53222656 38.47332764 C79.58276335 34.13582437 79.6382802 29.79838504 79.69335938 25.4609375 C79.8004061 16.97401129 79.9015051 8.48702977 80 0 C89.9 0 99.8 0 110 0 C110.06819273 10.0239817 110.1230541 20.04780546 110.15543652 30.07196808 C110.17099042 34.72824325 110.1920371 39.3843494 110.22631836 44.04052734 C110.2592832 48.54689661 110.27692991 53.05310489 110.28463173 57.55958557 C110.29010948 59.2656965 110.30080261 60.97180017 110.31719017 62.67784119 C110.49667334 82.16548213 108.49801882 101.28983373 94.21484375 116.0390625 C82.1592552 126.71261709 66.90376585 130.92975862 51 130 C34.29377795 128.49686948 21.97891492 122.30647246 11.04296875 109.6953125 C-0.31863046 94.70582214 -0.15776978 74.87976112 -0.09765625 56.93359375 C-0.09578815 55.28735904 -0.0943661 53.64112377 -0.09336853 51.99488831 C-0.08957421 47.68938629 -0.07977071 43.38391871 -0.06866455 39.07843018 C-0.05838366 34.67403631 -0.05385668 30.26963681 -0.04882812 25.86523438 C-0.0381453 17.24347212 -0.02057393 8.62174433 0 0 Z " fill="#090909" transform="translate(391,181)"/>
<path d="M0 0 C0.7051474 -0.00067474 1.4102948 -0.00134949 2.1368103 -0.00204468 C14.18834675 0.01618399 25.87137654 0.76342555 37.6875 3.25 C38.47833984 3.41628906 39.26917969 3.58257812 40.08398438 3.75390625 C81.97523856 12.95702963 118.38893908 37.83316409 143.6875 72.25 C144.1088623 72.81638184 144.53022461 73.38276367 144.96435547 73.96630859 C163.8642584 99.68523155 175.70962589 132.85961837 175.890625 164.89453125 C175.89632507 165.70379562 175.90202515 166.51306 175.90789795 167.34684753 C175.91729274 169.05535602 175.92385979 170.76388218 175.92773438 172.47241211 C175.93733132 175.01776203 175.96836164 177.56226449 176 180.10742188 C176.09565511 194.90357349 174.3779575 209.44114225 170.5 223.75 C170.29640869 224.51425293 170.09281738 225.27850586 169.88305664 226.06591797 C167.33832464 235.13377881 163.54957536 243.68060758 159.6875 252.25 C158.93799398 253.93453651 158.18927849 255.61942501 157.44140625 257.3046875 C156.85680053 258.61980487 156.27217643 259.93491407 155.6875 261.25 C156.52925781 261.76304687 157.37101562 262.27609375 158.23828125 262.8046875 C167.36016291 268.41504835 176.29413102 274.28675238 185.1875 280.25 C193.07545529 285.53886511 200.98178292 290.7700255 209.07250977 295.74584961 C214.33052013 298.99142121 219.4845506 302.38418573 224.625 305.8125 C225.41398682 306.33827637 226.20297363 306.86405273 227.01586914 307.40576172 C232.5521372 311.1146372 232.5521372 311.1146372 233.6875 312.25 C233.875 315.6875 233.875 315.6875 233.6875 319.25 C231.6875 321.25 231.6875 321.25 229.43298435 321.4809866 C228.4860921 321.47223035 227.53919985 321.4634741 226.56361389 321.45445251 C224.93467445 321.4473526 224.93467445 321.4473526 223.27282715 321.44010925 C222.07557007 321.42498795 220.87831299 321.40986664 219.64477539 321.39428711 C217.71451293 321.3825825 215.78425028 321.37089605 213.85398376 321.35988247 C211.77292498 321.3465902 209.69193756 321.32883111 207.61091805 321.31043816 C203.25789264 321.27414504 198.90502524 321.26261816 194.55186462 321.25697327 C193.44801653 321.25537646 193.44801653 321.25537646 192.32186848 321.2537474 C190.81626454 321.25160766 189.31066053 321.24952069 187.80505645 321.24748528 C177.67214552 321.23266936 167.53994185 321.20171346 157.4074707 321.1027832 C150.57346033 321.03624682 143.74051756 321.00977995 136.90619081 321.02733427 C133.29683086 321.03504279 129.69001279 321.02362359 126.08110237 320.96290398 C109.18219851 320.69152439 96.61488335 321.68948996 82.69480705 331.89003181 C66.50610835 342.85801759 44.74089853 347.59360843 25.6875 350.25 C25.0495752 350.3442627 24.41165039 350.43852539 23.75439453 350.53564453 C-20.79334563 356.40741693 -68.39447556 345.63456911 -104.25 318.1875 C-109.82963127 313.78547084 -115.16362216 309.1473522 -120.3125 304.25 C-121.15167969 303.45964355 -121.15167969 303.45964355 -122.0078125 302.65332031 C-136.21333179 289.19585762 -147.38630749 274.66757284 -156.3125 257.25 C-156.66296387 256.57356445 -157.01342773 255.89712891 -157.37451172 255.20019531 C-174.4203546 221.92582981 -179.8666764 182.05976925 -173.3125 145.25 C-173.18891113 144.55213379 -173.06532227 143.85426758 -172.93798828 143.13525391 C-167.99288129 116.39571173 -157.60096796 92.01840549 -141.3125 70.25 C-140.30896484 68.88101563 -140.30896484 68.88101563 -139.28515625 67.484375 C-127.58572278 52.37936386 -113.18143895 38.85810783 -97.3125 28.25 C-96.7158252 27.8463623 -96.11915039 27.44272461 -95.50439453 27.02685547 C-67.34660174 8.26785457 -33.49598169 0.0289626 0 0 Z M-127.41943359 63.09814453 C-157.89651461 97.74155336 -171.55929379 142.66601064 -169.3125 188.25 C-168.25170392 201.89611795 -165.3436557 215.18963975 -161.3125 228.25 C-161.10818359 228.91241699 -160.90386719 229.57483398 -160.69335938 230.25732422 C-153.08874269 254.06701695 -139.53761524 275.29869946 -122.3125 293.25 C-121.43464844 294.19101562 -120.55679688 295.13203125 -119.65234375 296.1015625 C-91.83674874 325.39117893 -50.53002779 343.93363366 -10.15112305 345.36181641 C23.37101894 345.9398277 66.38041686 341.3549844 93.04902649 318.1995697 C97.89184954 314.99080906 103.61167993 315.68032805 109.21044922 315.70410156 C110.46953598 315.69376389 111.72862274 315.68342621 113.02586365 315.67277527 C116.4655693 315.6449798 119.90491491 315.64150913 123.34471655 315.64249516 C126.94425815 315.63936044 130.54363892 315.61373069 134.14309692 315.59051514 C140.95338552 315.54999414 147.76357845 315.52962367 154.57396901 315.51654124 C162.3297899 315.50065792 170.08544831 315.46223674 177.84117484 315.42194796 C193.78990157 315.33960247 209.73859598 315.28547703 225.6875 315.25 C222.49712539 312.67528013 219.31263612 310.26437211 215.87109375 308.03515625 C214.95263672 307.43832031 214.03417969 306.84148437 213.08789062 306.2265625 C212.11013672 305.59492188 211.13238281 304.96328125 210.125 304.3125 C208.59069336 303.31669922 208.59069336 303.31669922 207.02539062 302.30078125 C204.92111117 300.93527978 202.81612921 299.5708603 200.71044922 298.20751953 C196.36573201 295.3940853 192.02671976 292.57190226 187.6875 289.75 C186.06904062 288.6978702 184.45055058 287.64578757 182.83203125 286.59375 C182.00912598 286.05878906 181.1862207 285.52382813 180.33837891 284.97265625 C178.45816409 283.750811 176.57759397 282.52951243 174.69677734 281.30859375 C171.58854707 279.29055277 168.48167921 277.27042774 165.375 275.25 C164.41400391 274.62673828 163.45300781 274.00347656 162.46289062 273.36132812 C157.45144063 270.09945855 152.52120702 266.77027214 147.6875 263.25 C148.99333254 258.88796364 150.74610462 254.94645876 152.7590332 250.8828125 C164.17247852 227.80528478 169.87569539 203.96533257 169.87280273 178.2409668 C169.87497804 176.08426831 169.89315938 173.92809213 169.91210938 171.77148438 C170.09263712 128.29542438 151.35577386 89.03484682 122.6875 57.25 C121.67429687 56.12658203 121.67429687 56.12658203 120.640625 54.98046875 C110.86329579 44.72262978 98.84302597 36.43208437 86.6875 29.25 C86.05537598 28.87633301 85.42325195 28.50266602 84.77197266 28.11767578 C68.0043981 18.37777924 49.71335832 11.8794308 30.6875 8.25 C29.58921875 8.02570312 28.4909375 7.80140625 27.359375 7.5703125 C-30.57013479 -2.26423219 -88.17533416 20.71135468 -127.41943359 63.09814453 Z " fill="#FEF9F9" transform="translate(175.3125,-0.25)"/>
<path d="M0 0 C1.10279297 0.00265869 2.20558594 0.00531738 3.34179688 0.00805664 C25.88895209 0.13895209 25.88895209 0.13895209 27.875 2.125 C27.96283542 4.34355264 27.98194609 6.56488496 27.97265625 8.78515625 C27.9712413 9.44962265 27.96982635 10.11408905 27.96836853 10.7986908 C27.96275518 12.92833899 27.95020054 15.05788339 27.9375 17.1875 C27.93248671 18.62825369 27.92792351 20.06900903 27.92382812 21.50976562 C27.91278145 25.04821102 27.89550792 28.58659539 27.875 32.125 C25.99965576 32.14687378 25.99965576 32.14687378 24.08642578 32.16918945 C19.40825067 32.22755364 14.73053786 32.30478179 10.05273438 32.38745117 C8.03555861 32.42052227 6.01829426 32.44860852 4.00097656 32.47143555 C1.08620773 32.50531145 -1.82776225 32.557641 -4.7421875 32.61328125 C-5.63114716 32.61967117 -6.52010681 32.6260611 -7.43600464 32.63264465 C-13.58283439 32.7741004 -19.46541688 33.58920057 -25.125 36.125 C-31.64370721 44.81660961 -29.28545229 61.90002517 -29.38536072 72.45890427 C-29.40685619 74.71197583 -29.43381163 76.96492923 -29.46203613 79.21792603 C-29.53091316 84.79351631 -29.59162613 90.36918724 -29.65106201 95.94488525 C-29.70192218 100.70119989 -29.75660258 105.45743713 -29.81687927 110.21364212 C-29.843434 112.43450905 -29.86423148 114.65538379 -29.8848877 116.87631226 C-29.90147282 118.22272103 -29.91834304 119.56912633 -29.93554688 120.91552734 C-29.95433899 122.6829982 -29.95433899 122.6829982 -29.97351074 124.48617554 C-30.125 127.125 -30.125 127.125 -31.125 128.125 C-40.365 128.125 -49.605 128.125 -59.125 128.125 C-59.125 86.215 -59.125 44.305 -59.125 1.125 C-49.555 1.125 -39.985 1.125 -30.125 1.125 C-29.795 2.115 -29.465 3.105 -29.125 4.125 C-28.568125 3.92003906 -28.01125 3.71507812 -27.4375 3.50390625 C-26.674375 3.23449219 -25.91125 2.96507812 -25.125 2.6875 C-24.3825 2.42066406 -23.64 2.15382812 -22.875 1.87890625 C-15.35841056 -0.18174966 -7.73446127 -0.03321762 0 0 Z " fill="#0C0C0C" transform="translate(589.125,179.875)"/>
<path d="M0 0 C14.52 0 29.04 0 44 0 C41.75276947 6.74169158 41.75276947 6.74169158 39.86328125 10.03125 C39.45456787 10.75199707 39.04585449 11.47274414 38.62475586 12.21533203 C38.19171143 12.96927246 37.75866699 13.72321289 37.3125 14.5 C34.21130751 19.98146202 31.2072915 25.46838355 28.4375 31.125 C23.98331203 40.17975771 18.95743505 48.90794016 13.89453125 57.6328125 C9.90719022 64.51934249 6.22279003 71.48964752 2.71484375 78.6328125 C0.57286557 82.83870133 -1.82127004 86.86217405 -4.23828125 90.9140625 C-6.81702008 95.43114382 -9.06795099 100.08858558 -11.32421875 104.7734375 C-13.02547414 108.0490481 -14.90002845 110.97128286 -17 114 C-20.32335343 113.36516514 -22.60688277 112.13728153 -25.4140625 110.26953125 C-26.25839844 109.71330078 -27.10273438 109.15707031 -27.97265625 108.58398438 C-28.84792969 107.99939453 -29.72320312 107.41480469 -30.625 106.8125 C-37.32251134 102.36944596 -44.0728665 98.07778619 -51 94 C-49.68249401 88.99347722 -47.32170169 85.04948511 -44.6328125 80.69140625 C-43.04902504 78.08080921 -41.57366906 75.43755818 -40.125 72.75 C-37.81211556 68.46329271 -35.42715886 64.222764 -33 60 C-28.85138466 52.76838831 -24.82789741 45.47953949 -20.9453125 38.1015625 C-16.46539349 29.58902821 -11.88943718 21.14703888 -7.140625 12.78125 C-4.73638682 8.53434752 -2.37004408 4.26607934 0 0 Z " fill="#FEFAFA" transform="translate(210,66)"/>
<path d="M0 0 C0.99 0 1.98 0 3 0 C3 0.66 3 1.32 3 2 C3.515625 1.67 4.03125 1.34 4.5625 1 C7.9260416 -0.3799145 10.39238959 -0.37974846 14 0 C17.38939556 2.13679285 18.72582557 3.1774767 20 7 C20.34231315 12.30585376 20.53140599 15.73795828 17 20 C13.74327158 22.71394035 12.48043713 23.03938009 8.1875 22.6875 C6.6096875 22.3471875 6.6096875 22.3471875 5 22 C4.67 24.97 4.34 27.94 4 31 C2.35 31 0.7 31 -1 31 C-1.02465622 26.74585377 -1.04283899 22.49174502 -1.05493164 18.23754883 C-1.05997101 16.78929927 -1.06680253 15.34105483 -1.07543945 13.89282227 C-1.08752247 11.81525412 -1.09323211 9.73775303 -1.09765625 7.66015625 C-1.10289307 6.40855713 -1.10812988 5.15695801 -1.11352539 3.86743164 C-1 1 -1 1 0 0 Z M4 7 C3.38683601 10.04924794 3.4875791 12.93686175 4 16 C5.52077886 18.28765772 5.52077886 18.28765772 8 19 C10.63537508 19.00635246 10.63537508 19.00635246 13 18 C15.53637054 14.19544419 15.59473663 11.46052469 15 7 C13.97578739 4.89061215 13.97578739 4.89061215 12 4 C8.08322246 3.41248337 6.42409896 3.89218082 4 7 Z " fill="#464646" transform="translate(489,128)"/>
<path d="M0 0 C5.28 0 10.56 0 16 0 C16.33 1.32 16.66 2.64 17 4 C13.04 4 9.08 4 5 4 C5 6.64 5 9.28 5 12 C8.3 12 11.6 12 15 12 C15.33 13.32 15.66 14.64 16 16 C15 17 15 17 12.71484375 17.09765625 C11.34005859 17.08025391 11.34005859 17.08025391 9.9375 17.0625 C9.01839844 17.05347656 8.09929687 17.04445312 7.15234375 17.03515625 C6.44207031 17.02355469 5.73179687 17.01195312 5 17 C5 19.97 5 22.94 5 26 C8.96 26 12.92 26 17 26 C17 27.32 17 28.64 17 30 C11.39 30 5.78 30 0 30 C0 20.1 0 10.2 0 0 Z " fill="#505050" transform="translate(447,120)"/>
<path d="M0 0 C3.23613354 1.74253345 3.82395315 2.47185944 5 6 C5.07051114 8.73865287 5.09357765 11.45027588 5.0625 14.1875 C5.05798828 14.93708984 5.05347656 15.68667969 5.04882812 16.45898438 C5.03706354 18.30602383 5.01912865 20.15302213 5 22 C2.9190156 22.24959784 0.83499188 22.47394907 -1.25 22.6875 C-2.41015625 22.81511719 -3.5703125 22.94273437 -4.765625 23.07421875 C-8.35556947 22.9918408 -9.52043892 22.52690354 -12 20 C-13.2622587 16.80227795 -13.20854002 15.49817893 -11.875 12.3125 C-9.68914745 9.61661519 -8.33431336 8.87327255 -5 8 C-2.1875 7.875 -2.1875 7.875 0 8 C-0.33 7.01 -0.66 6.02 -1 5 C-3.97 5 -6.94 5 -10 5 C-10.33 3.68 -10.66 2.36 -11 1 C-7.29839178 -0.23386941 -3.85206234 -0.44267652 0 0 Z M-8 14 C-7.67958603 16.60280568 -7.67958603 16.60280568 -7 19 C-3.18186553 18.72459296 -3.18186553 18.72459296 0 17 C0.04063832 15.33382885 0.042721 13.66611905 0 12 C-4.49304582 11.57496554 -4.49304582 11.57496554 -8 14 Z " fill="#232323" transform="translate(646,128)"/>
<path d="M0 0 C1.32 0 2.64 0 4 0 C4 0.66 4 1.32 4 2 C4.53625 1.67 5.0725 1.34 5.625 1 C8.72046073 -0.30335189 10.66574641 -0.47632194 14 0 C16.7164385 2.00952907 18.71527668 3.57534239 19.40063477 7.00463867 C19.49171382 9.29328522 19.43709914 11.52562652 19.3125 13.8125 C19.28994141 14.60076172 19.26738281 15.38902344 19.24414062 16.20117188 C19.18554161 18.13493929 19.09586827 20.06772167 19 22 C17.35 22 15.7 22 14 22 C13.67 16.72 13.34 11.44 13 6 C8.52297636 4.93462795 8.52297636 4.93462795 6 5 C5.67 10.61 5.34 16.22 5 22 C3.35 22 1.7 22 0 22 C0 14.74 0 7.48 0 0 Z " fill="#5C5C5C" transform="translate(581,128)"/>
<path d="M0 0 C0.77085937 -0.03738281 1.54171875 -0.07476562 2.3359375 -0.11328125 C5.69658602 0.51182231 6.68592875 1.49007408 8.625 4.3125 C9.24455674 7.39127203 9.32113713 10.42866043 9.375 13.5625 C9.40464844 14.40296875 9.43429687 15.2434375 9.46484375 16.109375 C9.53531636 18.1765715 9.58244939 20.24454033 9.625 22.3125 C8.53445313 22.29703125 7.44390625 22.2815625 6.3203125 22.265625 C2.68834709 22.17555127 2.68834709 22.17555127 -0.5 23.0625 C-3.375 23.3125 -3.375 23.3125 -6.25 21.75 C-8.375 19.3125 -8.375 19.3125 -8.9375 16.3125 C-8.375 13.3125 -8.375 13.3125 -6.9375 11 C-3.26421892 8.58101002 0.30316914 8.49719363 4.625 8.3125 C3.965 7.3225 3.305 6.3325 2.625 5.3125 C0.41774927 4.94887182 0.41774927 4.94887182 -2 5.125 C-2.81726563 5.15207031 -3.63453125 5.17914063 -4.4765625 5.20703125 C-5.41628906 5.25923828 -5.41628906 5.25923828 -6.375 5.3125 C-6.375 3.9925 -6.375 2.6725 -6.375 1.3125 C-4.07513269 0.16256634 -2.56030912 0.0808071 0 0 Z M-3.375 14.3125 C-3.05458603 16.91530568 -3.05458603 16.91530568 -2.375 19.3125 C-0.395 18.9825 1.585 18.6525 3.625 18.3125 C3.955 16.3325 4.285 14.3525 4.625 12.3125 C0.13195418 11.88746554 0.13195418 11.88746554 -3.375 14.3125 Z " fill="#262626" transform="translate(725.375,127.6875)"/>
<path d="M0 0 C0.76183594 -0.03996094 1.52367187 -0.07992187 2.30859375 -0.12109375 C4.5625 0.4375 4.5625 0.4375 6.83203125 2.4140625 C9.16576629 6.49151379 9.01309099 9.64797982 8.8125 14.25 C8.79445313 15.03826172 8.77640625 15.82652344 8.7578125 16.63867188 C8.71094048 18.57214261 8.6392041 20.50498285 8.5625 22.4375 C7.17417969 22.41816406 7.17417969 22.41816406 5.7578125 22.3984375 C2.55364112 22.3395429 2.55364112 22.3395429 -0.5625 23.0625 C-3.70997352 23.47304002 -4.87524637 23.24056737 -7.4375 21.4375 C-8.85791821 18.59666359 -8.75202272 16.58272722 -8.4375 13.4375 C-6.73531752 10.81330202 -5.46625145 9.67112867 -2.390625 8.97265625 C-0.4147303 8.71691101 1.57453595 8.57003094 3.5625 8.4375 C3.2325 7.4475 2.9025 6.4575 2.5625 5.4375 C-0.4075 5.4375 -3.3775 5.4375 -6.4375 5.4375 C-6.7675 4.4475 -7.0975 3.4575 -7.4375 2.4375 C-4.4017775 0.413685 -3.47977513 0.09975747 0 0 Z M-3.4375 13.4375 C-3.4375 15.0875 -3.4375 16.7375 -3.4375 18.4375 C-0.9625 18.9325 -0.9625 18.9325 1.5625 19.4375 C4.15027208 16.38169026 4.15027208 16.38169026 4.5625 12.4375 C0.42156302 12.22779441 0.42156302 12.22779441 -3.4375 13.4375 Z " fill="#232323" transform="translate(423.4375,127.5625)"/>
<path d="M0 0 C3 2.0625 3 2.0625 5 5 C5 7.31 5 9.62 5 12 C0.38 12 -4.24 12 -9 12 C-8.34 13.65 -7.68 15.3 -7 17 C-3.26513121 17.5745952 0.21293268 18 4 18 C3.67 19.32 3.34 20.64 3 22 C-4.94345642 23.43639844 -4.94345642 23.43639844 -8.875 21.8125 C-13.77650734 17.63180256 -13.77650734 17.63180256 -14.28515625 13.91796875 C-14.4674829 9.13783962 -14.13287439 5.8290687 -11 2 C-7.3106 -0.4596 -4.28167192 -0.7996897 0 0 Z M-9 6 C-9 6.99 -9 7.98 -9 9 C-6.03 9 -3.06 9 0 9 C0.33 8.34 0.66 7.68 1 7 C-0.28965176 5.62437146 -1.62689293 4.29233607 -3 3 C-5.82328089 3 -6.93969425 4.14572482 -9 6 Z " fill="#3B3B3B" transform="translate(572,128)"/>
<path d="M0 0 C2.4375 1.5 2.4375 1.5 4 4 C4.60385912 6.70446305 4.81448364 9.21725459 5 12 C0.05 12 -4.9 12 -10 12 C-9.01 13.65 -8.02 15.3 -7 17 C-3.56592619 17.83582968 -3.56592619 17.83582968 0 18 C1.33917261 18.30903983 2.67653254 18.62942911 4 19 C3.67 19.99 3.34 20.98 3 22 C-2.87485958 23.08358521 -6.82102482 23.5368611 -12 20 C-14.91211297 15.63183055 -15.26531546 12.53882968 -14.375 7.375 C-11.45453755 0.20659218 -7.16704147 -0.9101005 0 0 Z M-8 4 C-9.21869929 6.50447516 -9.21869929 6.50447516 -10 9 C-6.7 9 -3.4 9 0 9 C-0.33 7.35 -0.66 5.7 -1 4 C-4.01031744 3.06576355 -4.86650268 2.95550089 -8 4 Z " fill="#3B3B3B" transform="translate(526,128)"/>
<path d="M0 0 C2.4375 1.5 2.4375 1.5 4 4 C4.60385912 6.70446305 4.81448364 9.21725459 5 12 C0.05 12 -4.9 12 -10 12 C-9.34 13.65 -8.68 15.3 -8 17 C-6.741875 17.165 -5.48375 17.33 -4.1875 17.5 C-3.12595703 17.63921875 -3.12595703 17.63921875 -2.04296875 17.78125 C0.15471706 18.053233 0.15471706 18.053233 3 18 C3.33 18.99 3.66 19.98 4 21 C0.14493207 23.04800484 -2.85277066 23.29469505 -7.06640625 22.59375 C-10.48602854 21.54368417 -11.97416673 19.88527768 -14 17 C-15.38756994 12.81143483 -15.30207403 9.84262756 -13.8125 5.6875 C-10.10989816 0.1974352 -6.4911601 -1.15961176 0 0 Z M-7.1875 3.6875 C-9.46612121 5.0412072 -9.46612121 5.0412072 -10 9 C-6.7 9 -3.4 9 0 9 C-0.33 7.35 -0.66 5.7 -1 4 C-3.44507934 3.12675738 -4.67700322 2.89848673 -7.1875 3.6875 Z " fill="#3F3F3F" transform="translate(762,128)"/>
<path d="M0 0 C2.43119623 1.87015094 3.64069173 3.28138345 5 6 C5 7.98 5 9.96 5 12 C0.05 12 -4.9 12 -10 12 C-9.01 13.65 -8.02 15.3 -7 17 C-3.56592619 17.83582968 -3.56592619 17.83582968 0 18 C1.33917261 18.30903983 2.67653254 18.62942911 4 19 C3.67 19.99 3.34 20.98 3 22 C-1.55979556 22.84102896 -4.98568739 23.3503989 -9.4375 21.8125 C-12.14870572 19.8948179 -12.80015294 19.00233224 -14 16 C-14.75015822 11.20247649 -14.43135757 7.8052008 -12.125 3.5 C-8.68821934 -0.54327137 -5.11619955 -0.75983162 0 0 Z M-7.25 4.25 C-7.8275 4.8275 -8.405 5.405 -9 6 C-9 6.99 -9 7.98 -9 9 C-6.03 9 -3.06 9 0 9 C-0.33 7.35 -0.66 5.7 -1 4 C-3.74964065 2.91978403 -4.60487717 2.78048732 -7.25 4.25 Z " fill="#3B3B3B" transform="translate(678,128)"/>
<path d="M0 0 C2.475 0.495 2.475 0.495 5 1 C5.66 0.67 6.32 0.34 7 0 C13.21856639 -0.57579318 13.21856639 -0.57579318 16.375 1.75 C19.45189937 6.0103222 19.11024758 10.09326114 19.0625 15.25 C19.05347656 16.51328125 19.04445313 17.7765625 19.03515625 19.078125 C19.02355469 20.04234375 19.01195312 21.0065625 19 22 C17.35 22 15.7 22 14 22 C13.93941406 20.94039062 13.87882813 19.88078125 13.81640625 18.7890625 C13.73199873 17.40102779 13.64735083 16.01300768 13.5625 14.625 C13.52318359 13.92632812 13.48386719 13.22765625 13.44335938 12.5078125 C13.25719866 8.62639508 13.25719866 8.62639508 12 5 C9.58380177 4.74969023 9.58380177 4.74969023 7 5 C4.57520264 8.63719605 4.61337423 10.85703482 4.375 15.1875 C4.26285156 17.09595703 4.26285156 17.09595703 4.1484375 19.04296875 C4.09945312 20.01878906 4.05046875 20.99460938 4 22 C2.68 22 1.36 22 0 22 C0 14.74 0 7.48 0 0 Z " fill="#4A4A4A" transform="translate(771,128)"/>
<path d="M0 0 C4.83256305 0.41421969 6.82679218 2.46413986 10 6 C10.7425 5.01 11.485 4.02 12.25 3 C13.515625 1.3125 13.515625 1.3125 15 0 C16.32 0 17.64 0 19 0 C17.54955729 4.10958767 15.48889248 7.43258745 13 11 C13.433125 11.62648437 13.86625 12.25296875 14.3125 12.8984375 C14.869375 13.71570313 15.42625 14.53296875 16 15.375 C16.556875 16.18710938 17.11375 16.99921875 17.6875 17.8359375 C19 20 19 20 19 22 C16.75 22.375 16.75 22.375 14 22 C11.8125 19.0625 11.8125 19.0625 10 16 C9.34 15.67 8.68 15.34 8 15 C7.690625 15.78375 7.38125 16.5675 7.0625 17.375 C6 20 6 20 5 22 C3.02 22 1.04 22 -1 22 C-0.55527344 21.40832031 -0.11054688 20.81664062 0.34765625 20.20703125 C0.91355469 19.41683594 1.47945313 18.62664062 2.0625 17.8125 C2.63097656 17.03519531 3.19945312 16.25789063 3.78515625 15.45703125 C5.22551459 13.06595693 5.22551459 13.06595693 4.8125 10.3984375 C3.73364885 7.2137519 1.89944127 4.75725345 0 2 C0 1.34 0 0.68 0 0 Z " fill="#434343" transform="translate(466,128)"/>
<path d="M0 0 C1.65 0 3.3 0 5 0 C5 8.58 5 17.16 5 26 C8.96 26 12.92 26 17 26 C17 27.32 17 28.64 17 30 C11.39 30 5.78 30 0 30 C0 20.1 0 10.2 0 0 Z " fill="#4C4C4C" transform="translate(396,120)"/>
<path d="M0 0 C1.22589844 0.01353516 1.22589844 0.01353516 2.4765625 0.02734375 C3.41628906 0.04474609 3.41628906 0.04474609 4.375 0.0625 C4.705 1.3825 5.035 2.7025 5.375 4.0625 C3.375 5.0625 3.375 5.0625 -0.125 5 C-3.68378466 4.65837188 -3.68378466 4.65837188 -5.625 7.0625 C-5.90505058 8.97430549 -5.90505058 8.97430549 -5.8125 11.0625 C-5.80605469 11.76375 -5.79960938 12.465 -5.79296875 13.1875 C-5.73206133 15.15306373 -5.73206133 15.15306373 -4.625 17.0625 C-1.24464088 17.68849243 1.93669885 18.0625 5.375 18.0625 C5.375 19.3825 5.375 20.7025 5.375 22.0625 C-2.56845642 23.49889844 -2.56845642 23.49889844 -6.5 21.875 C-11.33120017 17.75427044 -11.33120017 17.75427044 -11.98046875 14.015625 C-12.24507752 9.75327828 -12.00082441 6.93185297 -9.25 3.5625 C-5.87115468 0.34455208 -4.5169288 -0.06452755 0 0 Z " fill="#474747" transform="translate(615.625,127.9375)"/>
<path d="M0 0 C0.33 1.32 0.66 2.64 1 4 C-1.86177057 5.43088528 -3.93375773 4.59991697 -7 4 C-7 5.32 -7 6.64 -7 8 C-6.071875 8.268125 -5.14375 8.53625 -4.1875 8.8125 C0.40883978 10.52486188 0.40883978 10.52486188 2 13 C2.5 15.9375 2.5 15.9375 2 19 C0.0625 21.4375 0.0625 21.4375 -3 23 C-6.07952672 23.02574855 -8.985226 22.60426843 -12 22 C-12 20.68 -12 19.36 -12 18 C-9.36 18 -6.72 18 -4 18 C-4 16.68 -4 15.36 -4 14 C-4.94875 13.566875 -5.8975 13.13375 -6.875 12.6875 C-10 11 -10 11 -12 8 C-11.79874167 5.31655567 -11.29749125 3.50748507 -9.9375 1.1875 C-6.75444301 -0.7634059 -3.67569327 -0.1807718 0 0 Z " fill="#414141" transform="translate(698,128)"/>
<path d="M0 0 C1.32 0 2.64 0 4 0 C4 1.32 4 2.64 4 4 C5.65 4 7.3 4 9 4 C9 5.32 9 6.64 9 8 C7.35 8 5.7 8 4 8 C4.33 12.62 4.66 17.24 5 22 C6.32 22.33 7.64 22.66 9 23 C8.67 24.32 8.34 25.64 8 27 C4.625 26.6875 4.625 26.6875 1 26 C-1.45391569 22.31912647 -1.22802759 19.55644412 -1.125 15.3125 C-1.11597656 14.61060547 -1.10695313 13.90871094 -1.09765625 13.18554688 C-1.07413704 11.45688475 -1.03826713 9.72839855 -1 8 C-1.99 8 -2.98 8 -4 8 C-3.67 6.68 -3.34 5.36 -3 4 C-2.34 4 -1.68 4 -1 4 C-0.67 2.68 -0.34 1.36 0 0 Z " fill="#4D4D4D" transform="translate(706,124)"/>
<path d="M0 0 C1.32 0 2.64 0 4 0 C4.33 0.66 4.66 1.32 5 2 C5.66 1.34 6.32 0.68 7 0 C8.32 0 9.64 0 11 0 C11 1.32 11 2.64 11 4 C9.35 4.33 7.7 4.66 6 5 C5.67 10.61 5.34 16.22 5 22 C3.35 22 1.7 22 0 22 C0 14.74 0 7.48 0 0 Z " fill="#4E4E4E" transform="translate(535,128)"/>
<path d="M0 0 C0.33 0.99 0.66 1.98 1 3 C-1.31 3.33 -3.62 3.66 -6 4 C-6.33 6.64 -6.66 9.28 -7 12 C-3.535 11.505 -3.535 11.505 0 11 C0 11.66 0 12.32 0 13 C0.66 13 1.32 13 2 13 C2 13.66 2 14.32 2 15 C2.66 15 3.32 15 4 15 C4 10.05 4 5.1 4 0 C4.33 0 4.66 0 5 0 C5 5.28 5 10.56 5 16 C-7.36167341 17.35978408 -7.36167341 17.35978408 -10.36328125 15.66796875 C-12.54820419 13.4413289 -12.92591507 12.11156696 -13 9 C-11.66387001 5.80813391 -10.66579031 4.36793675 -7.625 2.6875 C-4.95981317 1.98947488 -2.74175514 1.84332828 0 2 C0 1.34 0 0.68 0 0 Z " fill="#5F5F5F" transform="translate(646,134)"/>
<path d="M0 0 C2.475 0.495 2.475 0.495 5 1 C5 7.93 5 14.86 5 22 C3.35 22 1.7 22 0 22 C0 14.74 0 7.48 0 0 Z " fill="#565656" transform="translate(625,128)"/>
<path d="M0 0 C1.98 0.495 1.98 0.495 4 1 C4 7.93 4 14.86 4 22 C2.35 22 0.7 22 -1 22 C-1.02887814 18.52085059 -1.04675687 15.04173169 -1.0625 11.5625 C-1.07087891 10.56927734 -1.07925781 9.57605469 -1.08789062 8.55273438 C-1.09111328 7.60849609 -1.09433594 6.66425781 -1.09765625 5.69140625 C-1.10289307 4.81685791 -1.10812988 3.94230957 -1.11352539 3.04125977 C-1 1 -1 1 0 0 Z " fill="#525252" transform="translate(550,128)"/>
<path d="M0 0 C0.66 0 1.32 0 2 0 C2 1.65 2 3.3 2 5 C-0.31 5.66 -2.62 6.32 -5 7 C-4.67 7.66 -4.34 8.32 -4 9 C-4.66 9 -5.32 9 -6 9 C-5.67 10.65 -5.34 12.3 -5 14 C-1.06924356 13.42547254 -1.06924356 13.42547254 2 11 C2.33 12.98 2.66 14.96 3 17 C3.99 17.33 4.98 17.66 6 18 C5.13375 17.979375 4.2675 17.95875 3.375 17.9375 C0.02061438 17.89950015 0.02061438 17.89950015 -3.125 18.625 C-6.27247352 19.03554002 -7.43774637 18.80306737 -10 17 C-11.42041821 14.15916359 -11.31452272 12.14522722 -11 9 C-9.29781752 6.37580202 -8.02875145 5.23362867 -4.953125 4.53515625 C-2.9772303 4.27941101 -0.98796405 4.13253094 1 4 C0.67 2.68 0.34 1.36 0 0 Z " fill="#565656" transform="translate(426,132)"/>
<path d="M0 0 C0 0.33 0 0.66 0 1 C-2.31 1.66 -4.62 2.32 -7 3 C-7 3.99 -7 4.98 -7 6 C-7 7.32 -7 8.64 -7 10 C-5.576875 9.9690625 -5.576875 9.9690625 -4.125 9.9375 C-1 10 -1 10 1 11 C1 11.66 1 12.32 1 13 C1.99 13 2.98 13 4 13 C4.33 12.34 4.66 11.68 5 11 C5 11.99 5 12.98 5 14 C3.453125 13.9690625 3.453125 13.9690625 1.875 13.9375 C-1.90747187 13.85789833 -1.90747187 13.85789833 -5.125 14.75 C-8 15 -8 15 -10.875 13.4375 C-13 11 -13 11 -13.5625 8 C-12.88355363 4.37895268 -11.88564803 3.22607134 -9 1 C-5.8035914 -0.06546953 -3.34252724 -0.07427838 0 0 Z " fill="#525252" transform="translate(730,136)"/>
<path d="M0 0 C0.99 0 1.98 0 3 0 C3 1.32 3 2.64 3 4 C3.66 4 4.32 4 5 4 C4.67 9.94 4.34 15.88 4 22 C2.68 22 1.36 22 0 22 C0 14.74 0 7.48 0 0 Z " fill="#373737" transform="translate(771,128)"/>
<path d="M0 0 C0.66 0 1.32 0 2 0 C2 0.99 2 1.98 2 3 C2.66 3 3.32 3 4 3 C4 8.94 4 14.88 4 21 C2.68 21 1.36 21 0 21 C0 14.07 0 7.14 0 0 Z " fill="#252525" transform="translate(582,129)"/>
<path d="M0 0 C0.66 0.66 1.32 1.32 2 2 C1.34 2 0.68 2 0 2 C0.66 4.31 1.32 6.62 2 9 C1 10 1 10 -1.50390625 10.09765625 C-3.01791016 10.08025391 -3.01791016 10.08025391 -4.5625 10.0625 C-5.57441406 10.05347656 -6.58632813 10.04445312 -7.62890625 10.03515625 C-8.41136719 10.02355469 -9.19382812 10.01195312 -10 10 C-10.33 8.68 -10.66 7.36 -11 6 C-11.99 6.495 -11.99 6.495 -13 7 C-10.5141226 -0.26641085 -7.00775503 -0.44493683 0 0 Z M-9 6 C-9 6.99 -9 7.98 -9 9 C-6.03 9 -3.06 9 0 9 C0.33 8.34 0.66 7.68 1 7 C-0.28965176 5.62437146 -1.62689293 4.29233607 -3 3 C-5.82328089 3 -6.93969425 4.14572482 -9 6 Z " fill="#5A5A5A" transform="translate(572,128)"/>
<path d="M0 0 C0.33 1.32 0.66 2.64 1 4 C-1.93945984 5.46972992 -4.74955436 5 -8 5 C-8.99 5.495 -8.99 5.495 -10 6 C-10.33 5.34 -10.66 4.68 -11 4 C-11.99 4 -12.98 4 -14 4 C-9.57391359 -0.5688634 -5.97980322 -0.46900417 0 0 Z " fill="#7E7E7E" transform="translate(620,128)"/>
<path d="M0 0 C0.75667969 0.0928125 1.51335937 0.185625 2.29296875 0.28125 C2.29296875 0.94125 2.29296875 1.60125 2.29296875 2.28125 C1.63296875 2.28125 0.97296875 2.28125 0.29296875 2.28125 C-0.01640625 3.065 -0.32578125 3.84875 -0.64453125 4.65625 C-1.70703125 7.28125 -1.70703125 7.28125 -2.70703125 9.28125 C-4.68703125 9.28125 -6.66703125 9.28125 -8.70703125 9.28125 C-7.83342369 7.76819773 -6.93225362 6.27103362 -6.01953125 4.78125 C-5.27123047 3.52828125 -5.27123047 3.52828125 -4.5078125 2.25 C-2.70703125 0.28125 -2.70703125 0.28125 0 0 Z " fill="#494949" transform="translate(473.70703125,140.71875)"/>
<path d="M0 0 C0.66 0.33 1.32 0.66 2 1 C-3.61 6.61 -9.22 12.22 -15 18 C-15 12.50089132 -9.68936771 8.76735434 -6 5 C-4.05347234 3.22256464 -2.09090037 1.6083849 0 0 Z " fill="#5B5B5B" transform="translate(658,189)"/>
<path d="M0 0 C0.33 1.32 0.66 2.64 1 4 C-1.86177057 5.43088528 -3.93375773 4.59991697 -7 4 C-6.34 3.34 -5.68 2.68 -5 2 C-8.36720387 3.39332574 -9.9859524 4.9789286 -12 8 C-11.65447612 5.44312331 -11.24912987 3.42498625 -9.9375 1.1875 C-6.75444301 -0.7634059 -3.67569327 -0.1807718 0 0 Z " fill="#7E7E7E" transform="translate(698,128)"/>
<path d="M0 0 C0.66 0.33 1.32 0.66 2 1 C-2.95 5.95 -7.9 10.9 -13 16 C-13 10.79628205 -8.49504984 7.5790344 -5 4 C-3.37707762 2.6137538 -1.7331451 1.24569804 0 0 Z " fill="#656565" transform="translate(928,190)"/>
<path d="M0 0 C1.21236328 0.02707031 1.21236328 0.02707031 2.44921875 0.0546875 C3.37154297 0.08949219 3.37154297 0.08949219 4.3125 0.125 C3.3225 0.785 2.3325 1.445 1.3125 2.125 C1.6425 2.785 1.9725 3.445 2.3125 4.125 C-2.1425 4.62 -2.1425 4.62 -6.6875 5.125 C-7.0175 4.135 -7.3475 3.145 -7.6875 2.125 C-4.48369983 -0.01086678 -3.66810033 -0.10632175 0 0 Z " fill="#797979" transform="translate(423.6875,127.875)"/>
<path d="M0 0 C1.32 0 2.64 0 4 0 C2.83242263 3.32310483 1.85051143 5.83361132 -1 8 C-1.99 8 -2.98 8 -4 8 C-2.87548273 5.0280615 -1.77706209 2.66559313 0 0 Z " fill="#6F6F6F" transform="translate(728,119)"/>
<path d="M0 0 C1.22589844 0.01353516 1.22589844 0.01353516 2.4765625 0.02734375 C3.41628906 0.04474609 3.41628906 0.04474609 4.375 0.0625 C3.385 0.7225 2.395 1.3825 1.375 2.0625 C1.705 2.7225 2.035 3.3825 2.375 4.0625 C-2.08 4.5575 -2.08 4.5575 -6.625 5.0625 C-6.625 3.7425 -6.625 2.4225 -6.625 1.0625 C-4.21954362 -0.14022819 -2.67503047 -0.03821472 0 0 Z " fill="#797979" transform="translate(725.625,127.9375)"/>
<path d="M0 0 C1.32 0 2.64 0 4 0 C4 1.32 4 2.64 4 4 C3.195625 4.12375 2.39125 4.2475 1.5625 4.375 C0.2940625 4.684375 0.2940625 4.684375 -1 5 C-1.33 5.66 -1.66 6.32 -2 7 C-2 6.34 -2 5.68 -2 5 C-2.66 4.67 -3.32 4.34 -4 4 C-3.34 4 -2.68 4 -2 4 C-1.34 2.68 -0.68 1.36 0 0 Z " fill="#4B4B4B" transform="translate(542,128)"/>
<path d="M0 0 C-0.99 0.495 -0.99 0.495 -2 1 C-1.67 1.99 -1.34 2.98 -1 4 C-3.31 4.33 -5.62 4.66 -8 5 C-8 4.01 -8 3.02 -8 2 C-8.66 1.67 -9.32 1.34 -10 1 C-6.78548731 -0.60725635 -3.56387464 -0.05748185 0 0 Z " fill="#6B6B6B" transform="translate(678,128)"/>
<path d="M0 0 C-0.75 2.4375 -0.75 2.4375 -2 5 C-3.9375 5.6875 -3.9375 5.6875 -6 6 C-6.99 6.66 -7.98 7.32 -9 8 C-7.07834179 2.53066508 -6.10288444 0 0 0 Z " fill="#686868" transform="translate(485,128)"/>
<path d="M0 0 C1.8871875 0.0309375 1.8871875 0.0309375 3.8125 0.0625 C3.8125 0.3925 3.8125 0.7225 3.8125 1.0625 C1.5025 1.3925 -0.8075 1.7225 -3.1875 2.0625 C-0.2175 2.5575 -0.2175 2.5575 2.8125 3.0625 C2.8125 3.3925 2.8125 3.7225 2.8125 4.0625 C-1.6425 4.5575 -1.6425 4.5575 -6.1875 5.0625 C-6.5175 3.7425 -6.8475 2.4225 -7.1875 1.0625 C-4.43671116 0.14557039 -2.82801087 -0.04636083 0 0 Z " fill="#919191" transform="translate(642.1875,127.9375)"/>
<path d="M0 0 C1.91015625 0.23046875 1.91015625 0.23046875 3.91015625 2.23046875 C3.25015625 2.23046875 2.59015625 2.23046875 1.91015625 2.23046875 C2.24015625 3.88046875 2.57015625 5.53046875 2.91015625 7.23046875 C2.00265625 6.61171875 1.09515625 5.99296875 0.16015625 5.35546875 C-2.23933192 3.78657264 -4.49945987 2.42603054 -7.08984375 1.23046875 C-5.19495423 -0.66442077 -2.51845229 0.05027763 0 0 Z " fill="#777777" transform="translate(570.08984375,127.76953125)"/>
<path d="M0 0 C1.65 0.33 3.3 0.66 5 1 C4.67 2.32 4.34 3.64 4 5 C2.35 4.67 0.7 4.34 -1 4 C-0.67 2.68 -0.34 1.36 0 0 Z " fill="#585858" transform="translate(625,120)"/>
<path d="M0 0 C2 3.75 2 3.75 2 6 C2.99 6.33 3.98 6.66 5 7 C2.69 7 0.38 7 -2 7 C-2 6.34 -2 5.68 -2 5 C-3.65 5 -5.3 5 -7 5 C-6.67 4.34 -6.34 3.68 -6 3 C-4.33333333 2.66666667 -2.66666667 2.33333333 -1 2 C-0.67 1.34 -0.34 0.68 0 0 Z " fill="#7D7D7D" transform="translate(427,143)"/>
<path d="M0 0 C1.65 0 3.3 0 5 0 C5 1.65 5 3.3 5 5 C3.35 5 1.7 5 0 5 C0 3.35 0 1.7 0 0 Z " fill="#4E4E4E" transform="translate(549,120)"/>
<path d="M0 0 C2.64 0 5.28 0 8 0 C7.34 1.65 6.68 3.3 6 5 C4.68 5 3.36 5 2 5 C1.34 3.35 0.68 1.7 0 0 Z " fill="#5C5C5C" transform="translate(495,146)"/>
<path d="M0 0 C0.99 0 1.98 0 3 0 C3 0.66 3 1.32 3 2 C4.65 2 6.3 2 8 2 C8 2.66 8 3.32 8 4 C5.36 4 2.72 4 0 4 C0 2.68 0 1.36 0 0 Z " fill="#3B3B3B" transform="translate(686,146)"/>
<path d="M0 0 C6.75 -0.125 6.75 -0.125 9 1 C9 1.66 9 2.32 9 3 C9.99 3 10.98 3 12 3 C12.33 2.34 12.66 1.68 13 1 C13 1.99 13 2.98 13 4 C8.65535464 3.39174965 4.32448133 2.73832608 0 2 C0 1.34 0 0.68 0 0 Z " fill="#858585" transform="translate(722,146)"/>
<path d="M0 0 C0.763125 0.0825 1.52625 0.165 2.3125 0.25 C2.3125 0.91 2.3125 1.57 2.3125 2.25 C1.6525 2.25 0.9925 2.25 0.3125 2.25 C-0.3475 3.57 -1.0075 4.89 -1.6875 6.25 C-2.0175 5.59 -2.3475 4.93 -2.6875 4.25 C-3.6775 4.25 -4.6675 4.25 -5.6875 4.25 C-3.34903846 0.31153846 -3.34903846 0.31153846 0 0 Z " fill="#5A5A5A" transform="translate(473.6875,140.75)"/>
<path d="M0 0 C3.5625 0.25 3.5625 0.25 7 1 C7.33 1.66 7.66 2.32 8 3 C7.05125 3.12375 6.1025 3.2475 5.125 3.375 C1.91332809 3.71687177 1.91332809 3.71687177 0 6 C0 5.01 0 4.02 0 3 C-0.66 2.67 -1.32 2.34 -2 2 C-1.34 1.34 -0.68 0.68 0 0 Z " fill="#686868" transform="translate(752,129)"/>
<path d="M0 0 C1.65 0 3.3 0 5 0 C5 0.66 5 1.32 5 2 C6.32 2.33 7.64 2.66 9 3 C8.030625 3.12375 7.06125 3.2475 6.0625 3.375 C5.051875 3.58125 4.04125 3.7875 3 4 C2.67 4.66 2.34 5.32 2 6 C2 5.01 2 4.02 2 3 C1.34 3 0.68 3 0 3 C0 2.01 0 1.02 0 0 Z " fill="#717171" transform="translate(584,129)"/>
<path d="M0 0 C3.3 0 6.6 0 10 0 C10 1.32 10 2.64 10 4 C8.51882199 3.71872579 7.04006751 3.42466268 5.5625 3.125 C4.73878906 2.96257812 3.91507813 2.80015625 3.06640625 2.6328125 C2.38449219 2.42398438 1.70257812 2.21515625 1 2 C0.67 1.34 0.34 0.68 0 0 Z " fill="#7B7B7B" transform="translate(519,146)"/>
<path d="M0 0 C0.66 0 1.32 0 2 0 C1.67 2.31 1.34 4.62 1 7 C-0.32 6.34 -1.64 5.68 -3 5 C-1.125 1.125 -1.125 1.125 0 0 Z " fill="#606060" transform="translate(516,129)"/>
<path d="M0 0 C2.64 0 5.28 0 8 0 C7.67 1.32 7.34 2.64 7 4 C6.67 3.34 6.34 2.68 6 2 C3.69 2 1.38 2 -1 2 C-0.67 1.34 -0.34 0.68 0 0 Z " fill="#262626" transform="translate(613,129)"/>
<path d="M0 0 C-0.33 0.99 -0.66 1.98 -1 3 C-3.64 2.34 -6.28 1.68 -9 1 C-9 0.67 -9 0.34 -9 0 C-5.62182575 -0.84454356 -3.32534757 -1.10844919 0 0 Z " fill="#6F6F6F" transform="translate(682,147)"/>
<path d="M0 0 C1.32 0 2.64 0 4 0 C4 0.66 4 1.32 4 2 C5.32 2.33 6.64 2.66 8 3 C6.02 3.66 4.04 4.32 2 5 C2 4.34 2 3.68 2 3 C1.34 3 0.68 3 0 3 C0 2.01 0 1.02 0 0 Z " fill="#7D7D7D" transform="translate(774,129)"/>
<path d="M0 0 C0 0.66 0 1.32 0 2 C1.65 2 3.3 2 5 2 C5 2.33 5 2.66 5 3 C2.69 3.66 0.38 4.32 -2 5 C-2 4.34 -2 3.68 -2 3 C-2.66 3 -3.32 3 -4 3 C-4 2.34 -4 1.68 -4 1 C-2 0 -2 0 0 0 Z " fill="#828282" transform="translate(496,129)"/>
</svg>
