<?xml version="1.0" encoding="UTF-8"?>
<svg version="1.1" xmlns="http://www.w3.org/2000/svg" width="5905" height="850">
<path d="M0 0 C5.80329951 4.28338773 9.7823428 10.38996415 13.66015625 16.38671875 C14.12741119 17.10018463 14.59466614 17.81365051 15.07608032 18.54873657 C16.0871973 20.09393953 17.09605809 21.64062077 18.10287476 23.18862915 C19.72603412 25.68424645 21.35504508 28.17595445 22.9855957 30.66674805 C25.32260214 34.23727037 27.65753082 37.80913876 29.99121094 41.38183594 C36.0735309 50.68751086 42.19409119 59.96803295 48.3125 69.25 C49.22613815 70.63679459 49.22613815 70.63679459 50.15823364 72.05160522 C59.1028951 85.62799767 68.08525152 99.17854505 77.13549805 112.68481445 C82.33993432 120.45937492 87.46309368 128.28371907 92.55415344 136.13298035 C101.90234962 150.54005638 111.37960464 164.86277883 120.84848022 179.19070435 C124.66508284 184.96626259 128.47373095 190.74695338 132.27607727 196.53190613 C134.65410611 200.14620265 137.03907776 203.75587767 139.42593384 207.36434937 C140.55100572 209.0682144 141.67326075 210.77394305 142.79257202 212.4815979 C144.34372885 214.84700031 145.90494217 217.20544912 147.46875 219.5625 C147.9195845 220.25522507 148.37041901 220.94795013 148.83491516 221.66166687 C152.66309111 227.39205381 156.65325044 231.46270682 163.625 232.9375 C169.78888972 232.79934272 175.04538219 231.32180572 180.6640625 228.90234375 C181.41002182 228.59250549 182.15598114 228.28266724 182.92454529 227.96343994 C185.37096182 226.94458878 187.81027622 225.90976234 190.25 224.875 C191.99094094 224.14696268 193.73240681 223.4201795 195.47436523 222.69458008 C199.0840688 221.18987227 202.69147211 219.6798354 206.29736328 218.16601562 C213.61914609 215.09707032 220.96861094 212.09630978 228.31781006 209.09378052 C244.41912122 202.51121615 260.49454258 195.86578625 276.56985474 189.22006226 C290.53611218 183.44658483 304.5112704 177.69541412 318.49575806 171.96624756 C331.77860049 166.52385941 345.04748547 161.04818243 358.3125 155.5625 C374.31131551 148.94644847 390.32547567 142.36918671 406.3531189 135.82330322 C420.45783879 130.06190751 434.54598665 124.26141564 448.625 118.4375 C463.61173778 112.23809565 478.61058458 106.06956898 493.625 99.9375 C508.7431938 93.76287572 523.84639217 87.55303429 538.9375 81.3125 C553.13846692 75.44027543 567.34392395 69.57947216 581.5625 63.75 C582.75462097 63.26120865 582.75462097 63.26120865 583.9708252 62.76254272 C590.31009172 60.16355946 596.64996146 57.56604906 602.98986816 54.96862793 C608.55603596 52.68812704 614.12195022 50.40700878 619.6875 48.125 C620.48123016 47.79956207 621.27496033 47.47412415 622.09274292 47.13882446 C635.61282272 41.59424815 649.12047475 36.0198391 662.625 30.4375 C677.43100308 24.31746622 692.24148872 18.20860744 707.0625 12.125 C707.85325928 11.80015625 708.64401855 11.4753125 709.45874023 11.140625 C713.13697421 9.62985957 716.81652469 8.12256747 720.49975586 6.62402344 C723.27421993 5.49459776 726.03893219 4.34462885 728.79907227 3.18066406 C730.12640813 2.6294207 731.45379823 2.07830792 732.78125 1.52734375 C733.93302734 1.04257568 735.08480469 0.55780762 736.27148438 0.05834961 C743.00558475 -2.19239696 749.65219902 -2.44272903 756.125 0.5625 C762.20279036 6.33640084 765.2155875 10.3526316 765.625 18.9375 C765.35981624 28.86531716 757.19805293 35.29820464 750.67773438 41.85205078 C747.10823699 45.47843597 743.65801561 49.21673229 740.1875 52.9375 C736.46488121 56.91417517 732.72511474 60.86096419 728.859375 64.69921875 C726.57005003 66.97276859 724.385525 69.27466287 722.3125 71.75 C719.54881971 74.96083755 716.63880404 77.96017165 713.625 80.9375 C710.67316975 83.85376603 707.82111141 86.78355835 705.125 89.9375 C701.64047893 94.01373219 697.84418019 97.73300873 694.03125 101.5 C691.97050655 103.58750635 690.02984374 105.70919223 688.125 107.9375 C684.64167458 112.0123335 680.84681292 115.73042992 677.03515625 119.49609375 C674.35645468 122.20952727 671.87891882 125.04527023 669.40234375 127.94140625 C666.67400715 131.00553813 663.72832092 133.84231832 660.80859375 136.72265625 C658.84525329 138.71409461 657.00420331 140.75052578 655.1875 142.875 C652.46880752 146.0478592 649.59748325 149.00088382 646.625 151.9375 C643.67316975 154.85376603 640.82111141 157.78355835 638.125 160.9375 C634.64047893 165.01373219 630.84418019 168.73300873 627.03125 172.5 C624.97050655 174.58750635 623.02984374 176.70919223 621.125 178.9375 C617.64047893 183.01373219 613.84418019 186.73300873 610.03125 190.5 C607.97050655 192.58750635 606.02984374 194.70919223 604.125 196.9375 C600.64047893 201.01373219 596.84418019 204.73300873 593.03125 208.5 C590.97050655 210.58750635 589.02984374 212.70919223 587.125 214.9375 C583.64167458 219.0123335 579.84681292 222.73042992 576.03515625 226.49609375 C573.35645468 229.20952727 570.87891882 232.04527023 568.40234375 234.94140625 C565.67400715 238.00553813 562.72832092 240.84231832 559.80859375 243.72265625 C557.84525329 245.71409461 556.00420331 247.75052578 554.1875 249.875 C551.46880752 253.0478592 548.59748325 256.00088382 545.625 258.9375 C542.67316975 261.85376603 539.82111141 264.78355835 537.125 267.9375 C533.64047893 272.01373219 529.84418019 275.73300873 526.03125 279.5 C523.97050655 281.58750635 522.02984374 283.70919223 520.125 285.9375 C516.64047893 290.01373219 512.84418019 293.73300873 509.03125 297.5 C506.97050655 299.58750635 505.02984374 301.70919223 503.125 303.9375 C499.64167458 308.0123335 495.84681292 311.73042992 492.03515625 315.49609375 C489.35645468 318.20952727 486.87891882 321.04527023 484.40234375 323.94140625 C481.67400715 327.00553813 478.72832092 329.84231832 475.80859375 332.72265625 C473.84525329 334.71409461 472.00420331 336.75052578 470.1875 338.875 C467.46880752 342.0478592 464.59748325 345.00088382 461.625 347.9375 C458.67316975 350.85376603 455.82111141 353.78355835 453.125 356.9375 C449.64047893 361.01373219 445.84418019 364.73300873 442.03125 368.5 C439.97050655 370.58750635 438.02984374 372.70919223 436.125 374.9375 C432.64047893 379.01373219 428.84418019 382.73300873 425.03125 386.5 C422.97050655 388.58750635 421.02984374 390.70919223 419.125 392.9375 C415.64167458 397.0123335 411.84681292 400.73042992 408.03515625 404.49609375 C405.35645468 407.20952727 402.87891882 410.04527023 400.40234375 412.94140625 C397.67400715 416.00553813 394.72832092 418.84231832 391.80859375 421.72265625 C389.84525329 423.71409461 388.00420331 425.75052578 386.1875 427.875 C383.46880752 431.0478592 380.59748325 434.00088382 377.625 436.9375 C374.67316975 439.85376603 371.82111141 442.78355835 369.125 445.9375 C365.64047893 450.01373219 361.84418019 453.73300873 358.03125 457.5 C355.97050655 459.58750635 354.02984374 461.70919223 352.125 463.9375 C348.64047893 468.01373219 344.84418019 471.73300873 341.03125 475.5 C338.97050655 477.58750635 337.02984374 479.70919223 335.125 481.9375 C331.64047893 486.01373219 327.84418019 489.73300873 324.03125 493.5 C321.97050655 495.58750635 320.02984374 497.70919223 318.125 499.9375 C314.64167458 504.0123335 310.84681292 507.73042992 307.03515625 511.49609375 C304.35645468 514.20952727 301.87891882 517.04527023 299.40234375 519.94140625 C296.67400715 523.00553813 293.72832092 525.84231832 290.80859375 528.72265625 C288.84525329 530.71409461 287.00420331 532.75052578 285.1875 534.875 C282.46880752 538.0478592 279.59748325 541.00088382 276.625 543.9375 C273.0688587 547.45079622 269.73441044 551.05087053 266.4921875 554.8515625 C263.37373178 558.33536031 260.00932246 561.57152975 256.6640625 564.8359375 C254.58373909 566.76846046 254.58373909 566.76846046 253.625 568.9375 C251.11831284 570.09227892 248.62808707 571.13965525 246.0625 572.1484375 C244.86737289 572.62809715 244.86737289 572.62809715 243.64810181 573.1174469 C241.90162597 573.8175222 240.15389046 574.51446093 238.40509033 575.20870972 C234.6046753 576.71760356 230.81036314 578.24157568 227.01553345 579.76445007 C224.99743728 580.5740865 222.97901747 581.38291664 220.96029663 582.19099426 C209.70184966 586.69927992 198.47554421 591.28554729 187.25 595.875 C185.17190655 596.7238728 183.09378143 597.57266809 181.015625 598.42138672 C165.74513928 604.65860631 150.47847542 610.90517395 135.2121582 617.15258789 C121.62352875 622.71305936 108.03135492 628.26481644 94.4375 633.8125 C92.91076157 634.43557037 92.91076157 634.43557037 91.35317993 635.07122803 C83.07245527 638.4505512 74.79154124 641.82941023 66.51062012 645.20825195 C59.27782538 648.15945228 52.04510476 651.11083412 44.8125 654.0625 C43.79427155 654.47804138 42.77604309 654.89358276 41.72695923 655.32171631 C27.35673312 661.1865505 12.98960234 667.05890617 -1.375 672.9375 C-16.76770672 679.23683699 -32.16365036 685.52819393 -47.5625 691.8125 C-49.08923843 692.43557037 -49.08923843 692.43557037 -50.64682007 693.07122803 C-58.92754473 696.4505512 -67.20845876 699.82941023 -75.48937988 703.20825195 C-82.72217462 706.15945228 -89.95489524 709.11083412 -97.1875 712.0625 C-98.71484268 712.68581207 -98.71484268 712.68581207 -100.27304077 713.32171631 C-114.64326688 719.1865505 -129.01039766 725.05890617 -143.375 730.9375 C-158.76770672 737.23683699 -174.16365036 743.52819393 -189.5625 749.8125 C-191.08923843 750.43557037 -191.08923843 750.43557037 -192.64682007 751.07122803 C-200.92754473 754.4505512 -209.20845876 757.82941023 -217.48937988 761.20825195 C-224.72217462 764.15945228 -231.95489524 767.11083412 -239.1875 770.0625 C-240.71484268 770.68581207 -240.71484268 770.68581207 -242.27304077 771.32171631 C-257.5329245 777.54964113 -272.78925188 783.78621309 -288.0428772 790.02944946 C-298.89082053 794.46940676 -309.74076211 798.90441734 -320.59375 803.33203125 C-321.70371338 803.78488495 -322.81367676 804.23773865 -323.95727539 804.70431519 C-329.35015773 806.90443989 -334.7432702 809.10399808 -340.13671875 811.30273438 C-342.10156328 812.10416476 -344.06640705 812.90559699 -346.03125 813.70703125 C-346.95802048 814.0845755 -347.88479095 814.46211975 -348.83964539 814.85110474 C-354.61036622 817.20523038 -360.36080743 819.59954123 -366.08325195 822.0690918 C-372.23535566 824.40029803 -377.97970047 824.61671395 -384.12426758 822.14575195 C-391.67876346 818.09030124 -396.19828352 808.81743217 -400.5 801.75 C-401.47549805 800.16832031 -401.47549805 800.16832031 -402.47070312 798.5546875 C-403.80547505 796.3894197 -405.13719481 794.22226738 -406.46582031 792.05322266 C-408.73280895 788.35356678 -411.01606489 784.66419198 -413.30175781 780.97607422 C-414.35669555 779.27383297 -415.41072192 777.57102659 -416.46386719 775.86767578 C-420.54023573 769.27486209 -424.64041482 762.69715262 -428.75 756.125 C-429.69081421 754.62042236 -429.69081421 754.62042236 -430.65063477 753.08544922 C-433.79757685 748.05436869 -436.94678535 743.02471451 -440.09765625 737.99609375 C-447.31824622 726.46593668 -454.48095082 714.90231962 -461.59863281 703.30834961 C-466.01887505 696.11707201 -470.49298268 688.962972 -475.01513672 681.83544922 C-478.61063534 676.16352281 -482.15861489 670.46358532 -485.6875 664.75 C-490.35397624 657.19508636 -495.04151833 649.65381217 -499.75 642.125 C-500.69045166 640.62102661 -500.69045166 640.62102661 -501.64990234 639.08666992 C-504.79705914 634.05516406 -507.94653343 629.02511656 -511.09765625 623.99609375 C-514.86478652 617.98154749 -518.62305418 611.96152945 -522.375 605.9375 C-522.90691956 605.08402985 -522.90691956 605.08402985 -523.44958496 604.21331787 C-525.67592454 600.64030896 -527.89736053 597.0643219 -530.11282349 593.48455811 C-531.1637075 591.78840176 -532.2184072 590.09461138 -533.27319336 588.40087891 C-534.23044312 586.85086182 -534.23044312 586.85086182 -535.20703125 585.26953125 C-535.77139893 584.35921143 -536.3357666 583.4488916 -536.91723633 582.51098633 C-540.09330063 576.90407059 -541.20252664 572.32127692 -540.375 565.9375 C-538.24294004 558.5826086 -532.50739999 553.34002631 -527.375 547.9375 C-526.28126951 546.76682196 -525.18889809 545.59487317 -524.09765625 544.421875 C-521.71084245 541.8570853 -519.3200626 539.29610114 -516.92578125 536.73828125 C-513.68703188 533.27538485 -510.46404757 529.7983217 -507.25 526.3125 C-506.76152588 525.78277588 -506.27305176 525.25305176 -505.76977539 524.70727539 C-504.3045127 523.11766089 -502.83967174 521.52765901 -501.375 519.9375 C-494.44863461 512.41771107 -487.4982884 504.92163695 -480.51611328 497.45361328 C-476.05215779 492.67441018 -471.6307427 487.85848907 -467.21875 483.03125 C-463.36502945 478.82719122 -459.46218356 474.66893815 -455.56640625 470.50390625 C-451.98112869 466.6675808 -448.41747746 462.8133871 -444.875 458.9375 C-440.14168149 453.75869269 -435.35905276 448.62779399 -430.56640625 443.50390625 C-426.98112869 439.6675808 -423.41747746 435.8133871 -419.875 431.9375 C-415.14168149 426.75869269 -410.35905276 421.62779399 -405.56640625 416.50390625 C-401.98112869 412.6675808 -398.41747746 408.8133871 -394.875 404.9375 C-390.14168149 399.75869269 -385.35905276 394.62779399 -380.56640625 389.50390625 C-376.98112869 385.6675808 -373.41747746 381.8133871 -369.875 377.9375 C-365.16512285 372.78499122 -360.40858235 367.67782252 -355.64111328 362.57861328 C-349.85786005 356.39051651 -344.11321227 350.16733956 -338.375 343.9375 C-331.44863461 336.41771107 -324.4982884 328.92163695 -317.51611328 321.45361328 C-313.05215779 316.67441018 -308.6307427 311.85848907 -304.21875 307.03125 C-300.36502945 302.82719122 -296.46218356 298.66893815 -292.56640625 294.50390625 C-288.98112869 290.6675808 -285.41747746 286.8133871 -281.875 282.9375 C-277.14168149 277.75869269 -272.35905276 272.62779399 -267.56640625 267.50390625 C-263.98112869 263.6675808 -260.41747746 259.8133871 -256.875 255.9375 C-252.14168149 250.75869269 -247.35905276 245.62779399 -242.56640625 240.50390625 C-238.98112869 236.6675808 -235.41747746 232.8133871 -231.875 228.9375 C-227.14168149 223.75869269 -222.35905276 218.62779399 -217.56640625 213.50390625 C-213.98112869 209.6675808 -210.41747746 205.8133871 -206.875 201.9375 C-202.14168149 196.75869269 -197.35905276 191.62779399 -192.56640625 186.50390625 C-188.98112869 182.6675808 -185.41747746 178.8133871 -181.875 174.9375 C-177.16512285 169.78499122 -172.40858235 164.67782252 -167.64111328 159.57861328 C-161.85786005 153.39051651 -156.11321227 147.16733956 -150.375 140.9375 C-143.44863461 133.41771107 -136.4982884 125.92163695 -129.51611328 118.45361328 C-125.05215779 113.67441018 -120.6307427 108.85848907 -116.21875 104.03125 C-112.36502945 99.82719122 -108.46218356 95.66893815 -104.56640625 91.50390625 C-100.98112869 87.6675808 -97.41747746 83.8133871 -93.875 79.9375 C-89.14168149 74.75869269 -84.35905276 69.62779399 -79.56640625 64.50390625 C-75.98112869 60.6675808 -72.41747746 56.8133871 -68.875 52.9375 C-64.14168149 47.75869269 -59.35905276 42.62779399 -54.56640625 37.50390625 C-50.98112869 33.6675808 -47.41747746 29.8133871 -43.875 25.9375 C-42.04252246 23.936706 -40.20939797 21.93653114 -38.375 19.9375 C-37.80185059 19.31246582 -37.22870117 18.68743164 -36.63818359 18.04345703 C-34.78375022 16.02512296 -32.92371943 14.01207616 -31.0625 12 C-30.48757813 11.37287109 -29.91265625 10.74574219 -29.3203125 10.09960938 C-20.80880202 0.92653138 -12.95265105 -4.07768644 0 0 Z " fill="#EA0928" transform="translate(1256.375,1.0625)"/>
<path d="M0 0 C4.53468294 4.30794879 8.29097673 8.08807899 9.5 14.375 C9.63704518 24.85895624 4.7136632 30.41984943 -2.25 37.6875 C-3.60027198 39.11196821 -4.950532 40.53644775 -6.30078125 41.9609375 C-6.99510254 42.69022461 -7.68942383 43.41951172 -8.40478516 44.17089844 C-11.76366231 47.70433387 -15.09906933 51.25976149 -18.4375 54.8125 C-19.7797654 56.23845307 -21.12221418 57.66423356 -22.46484375 59.08984375 C-26.47737757 63.35079562 -30.48879946 67.61279302 -34.5 71.875 C-38.51120054 76.13720698 -42.52262243 80.39920438 -46.53515625 84.66015625 C-53.03059739 91.55841545 -59.52159864 98.46073248 -66 105.375 C-74.49156956 114.43788147 -83.00596907 123.47921171 -91.52050781 132.52050781 C-98.68782987 140.13166984 -105.85180072 147.74587063 -113 155.375 C-120.14961563 163.00564102 -127.31509103 170.62126716 -134.48388672 178.23388672 C-137.82325611 181.78029863 -141.16159032 185.3276847 -144.5 188.875 C-148.51120054 193.13720698 -152.52262243 197.39920438 -156.53515625 201.66015625 C-163.03059739 208.55841545 -169.52159864 215.46073248 -176 222.375 C-184.49156956 231.43788147 -193.00596907 240.47921171 -201.52050781 249.52050781 C-208.68782987 257.13166984 -215.85180072 264.74587063 -223 272.375 C-230.14961563 280.00564102 -237.31509103 287.62126716 -244.48388672 295.23388672 C-247.82325611 298.78029863 -251.16159032 302.3276847 -254.5 305.875 C-258.51120054 310.13720698 -262.52262243 314.39920438 -266.53515625 318.66015625 C-273.03059739 325.55841545 -279.52159864 332.46073248 -286 339.375 C-294.49156956 348.43788147 -303.00596907 357.47921171 -311.52050781 366.52050781 C-318.68782987 374.13166984 -325.85180072 381.74587063 -333 389.375 C-340.14961563 397.00564102 -347.31509103 404.62126716 -354.48388672 412.23388672 C-357.82325611 415.78029863 -361.16159032 419.3276847 -364.5 422.875 C-368.51120054 427.13720698 -372.52262243 431.39920438 -376.53515625 435.66015625 C-383.03059739 442.55841545 -389.52159864 449.46073248 -396 456.375 C-404.49156956 465.43788147 -413.00596907 474.47921171 -421.52050781 483.52050781 C-428.68782987 491.13166984 -435.85180072 498.74587063 -443 506.375 C-450.14961563 514.00564102 -457.31509103 521.62126716 -464.48388672 529.23388672 C-467.15808177 532.07388315 -469.83163926 534.91447903 -472.50488281 537.75537109 C-473.82800352 539.16106541 -475.15156664 540.56634344 -476.47558594 541.97119141 C-479.9562004 545.66537734 -483.42765677 549.36764845 -486.88671875 553.08203125 C-487.60666016 553.85289062 -488.32660156 554.62375 -489.06835938 555.41796875 C-490.44348553 556.8906845 -491.81604012 558.36580722 -493.18554688 559.84375 C-493.80880859 560.51019531 -494.43207031 561.17664063 -495.07421875 561.86328125 C-495.88765747 562.73786987 -495.88765747 562.73786987 -496.7175293 563.63012695 C-501.4639147 568.27639684 -506.1817784 570.76430931 -512.25 573.25390625 C-513.11870728 573.61802109 -513.98741455 573.98213593 -514.88244629 574.35728455 C-517.75192561 575.55811577 -520.62593985 576.74767929 -523.5 577.9375 C-525.52835167 578.78430193 -527.55634072 579.6319729 -529.58398438 580.48046875 C-533.79808016 582.24312158 -538.01371434 584.00201814 -542.23046875 585.75830078 C-550.90900068 589.37619301 -559.56832769 593.03935067 -568.2277832 596.7026062 C-572.90093357 598.67892079 -577.57554578 600.65177184 -582.25 602.625 C-584.12500688 603.41665036 -586.00000689 604.20831702 -587.875 605 C-644.12500014 628.75000006 -644.12500014 628.75000006 -646.93739319 629.93745422 C-648.81274987 630.72927194 -650.68810591 631.5210912 -652.5634613 632.31291199 C-657.24549869 634.28978012 -661.92754727 636.26662174 -666.60961914 638.2434082 C-675.11232616 641.83331058 -683.61494562 645.42341971 -692.11715698 649.01449585 C-711.3446754 657.13559861 -730.57420797 665.25180748 -749.81219482 673.3480835 C-768.46889022 681.20009571 -787.11553849 689.07587306 -805.76220703 696.95166016 C-816.10887846 701.32168969 -826.45626682 705.6900215 -836.80352783 710.05865479 C-839.60990852 711.2435195 -842.41628433 712.42839577 -845.22265625 713.61328125 C-846.14937134 714.004552 -847.07608643 714.39582275 -848.03088379 714.7989502 C-853.72646455 717.20376195 -859.42187323 719.60898078 -865.11715698 722.01449585 C-884.3446754 730.13559861 -903.57420797 738.25180748 -922.81219482 746.3480835 C-935.73262822 751.78588471 -948.64865992 757.23406002 -961.5625 762.6875 C-962.50070587 763.08369537 -963.43891174 763.47989075 -964.4055481 763.88809204 C-971.10381425 766.71678786 -977.80192439 769.54585302 -984.5 772.375 C-999.49914135 778.71036823 -1014.49872702 785.04468051 -1029.5 791.375 C-1030.77067322 791.91123993 -1030.77067322 791.91123993 -1032.0670166 792.45831299 C-1041.5538482 796.46159851 -1051.0432488 800.45861927 -1060.53779602 804.443573 C-1065.37986361 806.47787499 -1070.21478784 808.52837796 -1075.04606628 810.58816528 C-1078.35921637 811.99889098 -1081.67573942 813.40156588 -1084.9928894 814.80285645 C-1086.55979005 815.46697806 -1088.1252093 816.13460767 -1089.68899536 816.80603027 C-1091.84873944 817.7328733 -1094.01346464 818.64701653 -1096.1796875 819.55859375 C-1096.80506912 819.83068161 -1097.43045074 820.10276947 -1098.07478333 820.38310242 C-1104.90974563 823.22696747 -1111.29783729 824.2046366 -1118.31640625 821.6015625 C-1122.76412627 819.10320099 -1126.22827249 814.91845503 -1128.5 810.375 C-1129.61970128 797.25063255 -1129.61970128 797.25063255 -1126.09375 792.17578125 C-1122.96299461 788.6383346 -1119.60561721 785.33571554 -1116.21484375 782.05078125 C-1114.10131724 779.96766519 -1112.15288466 777.89363392 -1110.25 775.625 C-1106.7236839 771.48243449 -1102.86238394 767.70008424 -1099 763.875 C-1093.32499611 758.2895569 -1093.32499611 758.2895569 -1088 752.375 C-1083.9619844 747.57985648 -1079.41874941 743.2704922 -1074.96875 738.86328125 C-1071.86994552 735.78292204 -1068.81670228 732.71983396 -1066 729.375 C-1061.9619844 724.57985648 -1057.41874941 720.2704922 -1052.96875 715.86328125 C-1049.86994552 712.78292204 -1046.81670228 709.71983396 -1044 706.375 C-1039.9619844 701.57985648 -1035.41874941 697.2704922 -1030.96875 692.86328125 C-1027.86994552 689.78292204 -1024.81670228 686.71983396 -1022 683.375 C-1017.96264775 678.58064421 -1013.42023917 674.27194244 -1008.97094727 669.86547852 C-1005.29007002 666.20653029 -1001.7783384 662.49759909 -998.43359375 658.52734375 C-994.99042913 654.69464939 -991.27185033 651.1285319 -987.61083984 647.50537109 C-984.65106268 644.56451128 -981.75288637 641.63102356 -979.0625 638.4375 C-975.60961385 634.34878827 -971.79922582 630.63765524 -968 626.875 C-962.32499967 621.28955393 -962.32499967 621.28955393 -957 615.375 C-952.9619844 610.57985648 -948.41874941 606.2704922 -943.96875 601.86328125 C-940.86994552 598.78292204 -937.81670228 595.71983396 -935 592.375 C-930.9619844 587.57985648 -926.41874941 583.2704922 -921.96875 578.86328125 C-918.86994552 575.78292204 -915.81670228 572.71983396 -913 569.375 C-908.9619844 564.57985648 -904.41874941 560.2704922 -899.96875 555.86328125 C-896.86994552 552.78292204 -893.81670228 549.71983396 -891 546.375 C-886.9619844 541.57985648 -882.41874941 537.2704922 -877.96875 532.86328125 C-874.86994552 529.78292204 -871.81670228 526.71983396 -869 523.375 C-864.9619844 518.57985648 -860.41874941 514.2704922 -855.96875 509.86328125 C-852.86994552 506.78292204 -849.81670228 503.71983396 -847 500.375 C-842.9619844 495.57985648 -838.41874941 491.2704922 -833.96875 486.86328125 C-830.86994552 483.78292204 -827.81670228 480.71983396 -825 477.375 C-820.9619844 472.57985648 -816.41874941 468.2704922 -811.96875 463.86328125 C-808.86994552 460.78292204 -805.81670228 457.71983396 -803 454.375 C-798.96264775 449.58064421 -794.42023917 445.27194244 -789.97094727 440.86547852 C-786.29007002 437.20653029 -782.7783384 433.49759909 -779.43359375 429.52734375 C-775.99042913 425.69464939 -772.27185033 422.1285319 -768.61083984 418.50537109 C-765.65106268 415.56451128 -762.75288637 412.63102356 -760.0625 409.4375 C-756.60961385 405.34878827 -752.79922582 401.63765524 -749 397.875 C-743.32499967 392.28955393 -743.32499967 392.28955393 -738 386.375 C-733.9619844 381.57985648 -729.41874941 377.2704922 -724.96875 372.86328125 C-721.86994552 369.78292204 -718.81670228 366.71983396 -716 363.375 C-711.9619844 358.57985648 -707.41874941 354.2704922 -702.96875 349.86328125 C-699.86994552 346.78292204 -696.81670228 343.71983396 -694 340.375 C-689.9619844 335.57985648 -685.41874941 331.2704922 -680.96875 326.86328125 C-677.86994552 323.78292204 -674.81670228 320.71983396 -672 317.375 C-667.9619844 312.57985648 -663.41874941 308.2704922 -658.96875 303.86328125 C-655.86994552 300.78292204 -652.81670228 297.71983396 -650 294.375 C-645.9619844 289.57985648 -641.41874941 285.2704922 -636.96875 280.86328125 C-633.86994552 277.78292204 -630.81670228 274.71983396 -628 271.375 C-623.96729143 266.58615857 -619.43066851 262.28209268 -614.98632812 257.88085938 C-611.19464723 254.11190584 -607.55444704 250.2848864 -604.0847168 246.21485901 C-598.52641922 239.76166567 -593.65538022 236.0172777 -585.6875 232.87890625 C-584.73831192 232.48850159 -583.78912384 232.09809692 -582.81117249 231.69586182 C-579.71393162 230.42646297 -576.60730549 229.18203326 -573.5 227.9375 C-571.32541082 227.05138946 -569.15150841 226.16359179 -566.97827148 225.27416992 C-562.57761849 223.47617645 -558.17327333 221.68776925 -553.76513672 219.90820312 C-548.20121423 217.66141564 -542.64670828 215.39261223 -537.09765625 213.109375 C-536.29616653 212.77966705 -535.49467682 212.44995911 -534.66889954 212.11026001 C-533.0842472 211.45834614 -531.49961655 210.80637953 -529.91500854 210.15435791 C-526.75101986 208.85398963 -523.58500571 207.55859277 -520.41902161 206.26309204 C-509.74527212 201.89471979 -499.08913794 197.48447497 -488.4375 193.0625 C-469.06267524 185.01973142 -449.67555882 177.00699415 -430.28494263 169.00238037 C-423.43396787 166.17405863 -416.58396408 163.34339444 -409.734375 160.51171875 C-391.72796882 153.0685207 -373.71738218 145.63617101 -355.6875 138.25 C-340.88085068 132.18412181 -326.09422374 126.07110019 -311.31591797 119.93652344 C-293.6481319 112.60283179 -275.96696334 105.30167118 -258.28494263 98.00238037 C-251.43396787 95.17405863 -244.58396408 92.34339444 -237.734375 89.51171875 C-219.72796882 82.0685207 -201.71738218 74.63617101 -183.6875 67.25 C-168.88085068 61.18412181 -154.09422374 55.07110019 -139.31591797 48.93652344 C-121.68440611 41.61788879 -104.03954865 34.33170256 -86.39370728 27.04769897 C-80.28107923 24.52416617 -74.16945347 21.99822117 -68.05854797 19.47052002 C-63.89454 17.74814065 -59.73027803 16.02637581 -55.56600952 14.30462646 C-53.59666746 13.49018859 -51.62744524 12.67546085 -49.65835571 11.8604126 C-44.39038411 9.67996926 -39.11935915 7.50724811 -33.84475708 5.34289551 C-31.59432108 4.41393493 -29.35031124 3.47084514 -27.10717773 2.52441406 C-25.77990159 1.97302692 -24.45251651 1.42190193 -23.125 0.87109375 C-22.00480469 0.39986084 -20.88460938 -0.07137207 -19.73046875 -0.55688477 C-13.04141574 -2.76853886 -6.41631576 -2.97900375 0 0 Z " fill="#EA0928" transform="translate(1128.5,1.625)"/>
<path d="M0 0 C7.17645098 3.33192367 11.44410084 10.43119539 15.640625 16.90625 C16.0756131 17.57058548 16.5106012 18.23492096 16.95877075 18.91938782 C18.39258205 21.11072274 19.82121617 23.3053845 21.25 25.5 C22.27123091 27.06236524 23.29288693 28.62445268 24.31494141 30.1862793 C26.46102379 33.46621747 28.60550438 36.74719473 30.74902344 40.02880859 C35.42382345 47.18173801 40.12354807 54.31825009 44.82287598 61.45507812 C47.4427694 65.43426662 50.06110972 69.41447691 52.6796875 73.39453125 C53.73404161 74.99691273 54.78840359 76.59928903 55.84277344 78.20166016 C60.54207217 85.34352712 65.24077123 92.4857886 69.93951416 99.62802124 C72.54298475 103.58536374 75.14649435 107.54268057 77.75 111.5 C78.79166685 113.08333321 79.83333352 114.66666654 80.875 116.25 C81.390625 117.03375 81.90625 117.8175 82.4375 118.625 C87.12499997 125.74999995 87.12499997 125.74999995 88.68743896 128.12490845 C89.72930759 129.70854794 90.77117771 131.29218645 91.81304932 132.87582397 C94.41413831 136.82946502 97.01520148 140.78312304 99.61621094 144.73681641 C105.40658715 153.53847395 111.19755608 162.33974087 116.98950195 171.1403656 C119.61160343 175.12473231 122.23316657 179.10945124 124.85351562 183.0949707 C125.87629599 184.65055739 126.89908242 186.20614009 127.921875 187.76171875 C128.42356201 188.52476822 128.92524902 189.28781769 129.44213867 190.07398987 C132.51349889 194.74402817 135.59020417 199.41049533 138.67095947 204.07434082 C140.64842771 207.0688625 142.62332146 210.0650766 144.59777832 213.06158447 C145.52453604 214.46664664 146.45249386 215.87091805 147.38171387 217.27435303 C148.65338281 219.19521797 149.92090726 221.11875429 151.1875 223.04296875 C152.26064453 224.66755005 152.26064453 224.66755005 153.35546875 226.32495117 C155.86803042 230.41196694 156.20889897 233.58502131 156.3125 238.3125 C156.34988281 239.42238281 156.38726563 240.53226563 156.42578125 241.67578125 C155.60267804 248.10202738 150.98669364 252.3250636 146.6875 256.875 C145.69981733 257.93554318 144.71283664 258.99674055 143.7265625 260.05859375 C143.25379883 260.56632324 142.78103516 261.07405273 142.29394531 261.59716797 C140.68032613 263.34657472 139.11633448 265.13489892 137.5625 266.9375 C133.98197688 271.06755185 130.26420238 275.0660407 126.54980469 279.07519531 C121.98403358 284.00645654 117.48255338 288.99297968 113 294 C108.15529061 299.40337858 103.28790925 304.78364423 98.375 310.125 C95.39781719 313.36217216 92.44047144 316.61137729 89.5625 319.9375 C85.93787911 324.12109857 82.16614933 328.1643461 78.40258789 332.22241211 C75.72598962 335.11364128 73.07688821 338.01889404 70.5 341 C66.94316962 345.11204293 63.24416316 349.0876962 59.54956055 353.07543945 C54.98389615 358.00664258 50.48247674 362.99306529 46 368 C41.15529061 373.40337858 36.28790925 378.78364423 31.375 384.125 C28.39781719 387.36217216 25.44047144 390.61137729 22.5625 393.9375 C18.98197688 398.06755185 15.26420238 402.0660407 11.54980469 406.07519531 C6.98403358 411.00645654 2.48255338 415.99297968 -2 421 C-6.84470939 426.40337858 -11.71209075 431.78364423 -16.625 437.125 C-19.60218281 440.36217216 -22.55952856 443.61137729 -25.4375 446.9375 C-29.06212089 451.12109857 -32.83385067 455.1643461 -36.59741211 459.22241211 C-39.27401038 462.11364128 -41.92311179 465.01889404 -44.5 468 C-48.05683038 472.11204293 -51.75583684 476.0876962 -55.45043945 480.07543945 C-60.01610385 485.00664258 -64.51752326 489.99306529 -69 495 C-73.84470939 500.40337858 -78.71209075 505.78364423 -83.625 511.125 C-86.60218281 514.36217216 -89.55952856 517.61137729 -92.4375 520.9375 C-96.01802312 525.06755185 -99.73579762 529.0660407 -103.45019531 533.07519531 C-108.01596642 538.00645654 -112.51744662 542.99297968 -117 548 C-121.84470939 553.40337858 -126.71209075 558.78364423 -131.625 564.125 C-134.60218281 567.36217216 -137.55952856 570.61137729 -140.4375 573.9375 C-144.06212089 578.12109857 -147.83385067 582.1643461 -151.59741211 586.22241211 C-154.27401038 589.11364128 -156.92311179 592.01889404 -159.5 595 C-163.05683038 599.11204293 -166.75583684 603.0876962 -170.45043945 607.07543945 C-175.01610385 612.00664258 -179.51752326 616.99306529 -184 622 C-188.84470939 627.40337858 -193.71209075 632.78364423 -198.625 638.125 C-201.60218281 641.36217216 -204.55952856 644.61137729 -207.4375 647.9375 C-211.01802312 652.06755185 -214.73579762 656.0660407 -218.45019531 660.07519531 C-223.01596642 665.00645654 -227.51744662 669.99297968 -232 675 C-236.84470939 680.40337858 -241.71209075 685.78364423 -246.625 691.125 C-249.60218281 694.36217216 -252.55952856 697.61137729 -255.4375 700.9375 C-259.06212089 705.12109857 -262.83385067 709.1643461 -266.59741211 713.22241211 C-269.27401038 716.11364128 -271.92311179 719.01889404 -274.5 722 C-278.05683038 726.11204293 -281.75583684 730.0876962 -285.45043945 734.07543945 C-290.01610385 739.00664258 -294.51752326 743.99306529 -299 749 C-303.84470939 754.40337858 -308.71209075 759.78364423 -313.625 765.125 C-316.60218281 768.36217216 -319.55952856 771.61137729 -322.4375 774.9375 C-326.01802312 779.06755185 -329.73579762 783.0660407 -333.45019531 787.07519531 C-338.01598562 792.00647728 -342.51601582 796.99424311 -347 802 C-349.2659396 804.51511509 -351.532612 807.02948782 -353.8046875 809.5390625 C-355.2694771 811.18108642 -356.71240101 812.84287738 -358.1328125 814.5234375 C-363.31565819 820.61278852 -367.53650965 824.28587447 -375.8515625 825.06640625 C-382.16965408 824.87111978 -387.46914041 822.30572371 -392 818 C-393.72707615 815.41770858 -395.13611973 812.6945977 -396.5625 809.9375 C-400.01078417 803.51029765 -403.62077296 797.26206021 -407.5625 791.125 C-412.5759502 783.29912652 -417.44074627 775.38997548 -422.25 767.4375 C-423.71182817 765.02188618 -425.17408061 762.60652972 -426.63671875 760.19140625 C-427.00058685 759.5905722 -427.36445496 758.98973816 -427.73934937 758.37069702 C-431.48640117 752.18864994 -435.27043147 746.02952442 -439.0625 739.875 C-440.04404053 738.28196045 -440.04404053 738.28196045 -441.04541016 736.65673828 C-443.02975003 733.43750249 -445.01485819 730.21874132 -447 727 C-449.70939373 722.60481927 -452.41771591 718.20898051 -455.125 713.8125 C-455.78806152 712.73572998 -456.45112305 711.65895996 -457.13427734 710.54956055 C-462.09094426 702.49330185 -467.0118508 694.41574655 -471.92236328 686.33129883 C-476.27811208 679.1674505 -480.68400572 672.0358096 -485.10620117 664.9128418 C-489.7048456 657.49722305 -494.24055739 650.04424765 -498.76953125 642.5859375 C-503.17013546 635.34591904 -507.61921146 628.13721588 -512.09008789 620.94042969 C-516.83408576 613.29390652 -521.50866722 605.60587162 -526.15625 597.90039062 C-529.24695704 592.79670535 -532.42854983 587.79328741 -535.82055664 582.88378906 C-539.17157041 577.53160064 -538.38371213 571.07168013 -538 565 C-536.44112325 559.59589394 -532.54415299 556.32371932 -528.546875 552.5390625 C-525.84274793 549.8432303 -523.36790709 547.01288619 -520.86962891 544.12792969 C-517.77401571 540.60463841 -514.54032654 537.21429074 -511.3125 533.8125 C-504.97029889 527.10119158 -498.67616366 520.3494323 -492.42675781 513.55175781 C-485.05393526 505.53299324 -477.64968292 497.54452835 -470.21142578 489.58642578 C-465.97002318 485.04615199 -461.75057412 480.48627185 -457.54125977 475.91625977 C-453.69119951 471.73989081 -449.81711262 467.58641328 -445.9375 463.4375 C-441.76878397 458.97878634 -437.61830224 454.50533799 -433.5 450 C-428.79012285 444.84749122 -424.03358235 439.74032252 -419.26611328 434.64111328 C-413.48286005 428.45301651 -407.73821227 422.22983956 -402 416 C-395.09610561 408.5046073 -388.16989476 401.03120872 -381.21142578 393.58642578 C-376.97002318 389.04615199 -372.75057412 384.48627185 -368.54125977 379.91625977 C-364.69119951 375.73989081 -360.81711262 371.58641328 -356.9375 367.4375 C-352.76878397 362.97878634 -348.61830224 358.50533799 -344.5 354 C-339.78872712 348.84596432 -335.03100608 343.7370629 -330.26171875 338.63671875 C-326.492981 334.60466307 -322.739094 330.559552 -319 326.5 C-314.6654737 321.79398433 -310.30737358 317.11070537 -305.9375 312.4375 C-301.76878397 307.97878634 -297.61830224 303.50533799 -293.5 299 C-288.79012285 293.84749122 -284.03358235 288.74032252 -279.26611328 283.64111328 C-273.48286005 277.45301651 -267.73821227 271.22983956 -262 265 C-255.09610561 257.5046073 -248.16989476 250.03120872 -241.21142578 242.58642578 C-236.97002318 238.04615199 -232.75057412 233.48627185 -228.54125977 228.91625977 C-224.69119951 224.73989081 -220.81711262 220.58641328 -216.9375 216.4375 C-212.76878397 211.97878634 -208.61830224 207.50533799 -204.5 203 C-199.78872712 197.84596432 -195.03100608 192.7370629 -190.26171875 187.63671875 C-186.492981 183.60466307 -182.739094 179.559552 -179 175.5 C-174.6654737 170.79398433 -170.30737358 166.11070537 -165.9375 161.4375 C-161.76878397 156.97878634 -157.61830224 152.50533799 -153.5 148 C-148.79012285 142.84749122 -144.03358235 137.74032252 -139.26611328 132.64111328 C-133.48286005 126.45301651 -127.73821227 120.22983956 -122 114 C-115.09610561 106.5046073 -108.16989476 99.03120872 -101.21142578 91.58642578 C-96.97002318 87.04615199 -92.75057412 82.48627185 -88.54125977 77.91625977 C-84.69119951 73.73989081 -80.81711262 69.58641328 -76.9375 65.4375 C-72.76878397 60.97878634 -68.61830224 56.50533799 -64.5 52 C-59.78872712 46.84596432 -55.03100608 41.7370629 -50.26171875 36.63671875 C-46.98247886 33.12836166 -43.71133403 29.6130314 -40.45727539 26.08129883 C-39.49017277 25.03188961 -38.52192049 23.98353866 -37.55249023 22.9362793 C-34.79952343 19.96149862 -32.0673217 16.96975401 -29.3515625 13.9609375 C-28.1095219 12.59882437 -26.86733691 11.23684289 -25.625 9.875 C-25.05394531 9.23498047 -24.48289062 8.59496094 -23.89453125 7.93554688 C-16.86364067 0.27072353 -10.26386238 -1.16515785 0 0 Z " fill="#EA0928" transform="translate(2139,0)"/>
<path d="M0 0 C1.42073822 0.00323273 1.42073822 0.00323273 2.87017822 0.00653076 C31.5870791 0.111379 60.92044267 3.70782012 85.8125 19.3125 C84.72485081 22.57544757 84.32398783 22.93419918 81.62890625 24.7734375 C80.95770752 25.23830566 80.28650879 25.70317383 79.5949707 26.18212891 C78.86238037 26.67890137 78.12979004 27.17567383 77.375 27.6875 C75.816999 28.76459968 74.25973107 29.84276036 72.703125 30.921875 C71.89552734 31.47939453 71.08792969 32.03691406 70.25585938 32.61132812 C66.34224505 35.33615472 62.48394015 38.13603185 58.625 40.9375 C51.04393229 46.42848717 43.43708097 51.88213124 35.8125 57.3125 C36.85921875 56.80203125 37.9059375 56.2915625 38.984375 55.765625 C95.86299623 28.28190611 155.41008194 11.11353545 218.125 4.0625 C219.13490997 3.94693756 219.13490997 3.94693756 220.16522217 3.82904053 C225.37436867 3.24211021 230.58968258 2.76018199 235.8125 2.3125 C236.80571259 2.2249646 237.79892517 2.1374292 238.82223511 2.04724121 C260.25670773 0.21682139 281.6155841 -0.00086843 303.1159668 0.05175781 C307.80577101 0.06314305 312.49534796 0.05637201 317.18514442 0.04488182 C344.56330285 -0.01207438 371.89396024 0.42025671 399.0625 4.1875 C400.34060547 4.35967041 401.61871094 4.53184082 402.93554688 4.70922852 C429.45957808 8.39703483 459.59187743 14.36848877 477.9296875 35.78515625 C484.29528628 44.32985004 487.05340008 52.64075931 485.8125 63.3125 C482.31790595 80.43848927 470.96924421 96.43735451 460.8125 110.3125 C460.05066406 111.35792969 459.28882812 112.40335937 458.50390625 113.48046875 C456.30384043 116.44918502 454.06911009 119.38655641 451.8125 122.3125 C451.39000977 122.86115723 450.96751953 123.40981445 450.53222656 123.97509766 C444.68172688 131.55425119 438.65027279 138.94885525 432.4296875 146.2265625 C430.00558244 149.06855565 427.65518601 151.96540065 425.3125 154.875 C421.66798394 159.35905637 417.82991994 163.60717403 413.89624023 167.83447266 C410.92511881 171.04545968 408.11285294 174.33882337 405.375 177.75 C401.53139943 182.52871628 397.44289836 187.00407687 393.25415039 191.47631836 C390.13696055 194.82349327 387.17676202 198.24255023 384.3125 201.8125 C380.96948041 205.9791621 377.46134863 209.91669812 373.8125 213.8125 C369.35375556 218.57338994 365.1745217 223.4771782 361.08984375 228.56640625 C358.15172549 232.10928299 355.03018822 235.46691772 351.89599609 238.83447266 C348.92519934 242.04566873 346.11281679 245.33886841 343.375 248.75 C340.00901492 252.93490095 336.48050278 256.89539979 332.8125 260.8125 C328.40879243 265.52003032 324.25173716 270.34921445 320.21484375 275.37890625 C317.36288425 278.86154297 314.40407875 282.24011293 311.4375 285.625 C305.82982848 292.0503219 300.50365169 298.64527462 295.29736328 305.39794922 C293.67850959 307.48526436 292.041688 309.55764992 290.40234375 311.62890625 C282.79768781 321.2642446 275.53456176 331.03960796 268.8125 341.3125 C268.41192383 341.91594238 268.01134766 342.51938477 267.59863281 343.14111328 C255.48686938 361.54839761 248.53704664 382.51612687 245.8125 404.3125 C194.0025 404.3125 142.1925 404.3125 88.8125 404.3125 C90.87830744 396.04927023 93.01036733 388.77837436 96.3125 381.0625 C97.09480099 379.20356694 97.87606958 377.34419904 98.65625 375.484375 C99.02363281 374.61232422 99.39101563 373.74027344 99.76953125 372.84179688 C101.20446547 369.36194704 102.51822919 365.84685491 103.8125 362.3125 C103.14234863 362.58288086 102.47219727 362.85326172 101.78173828 363.13183594 C19.77471338 396.08935007 -66.05988048 418.52006109 -212.2421875 400.48779297 C-227.86119404 393.77993148 -239.08196437 383.86095521 -246.0234375 368.36328125 C-251.09616157 355.06865877 -248.11670745 340.75183903 -242.6237793 328.12915039 C-238.48988136 319.05801821 -233.35865678 311.11548662 -227.1875 303.3125 C-225.97513672 301.765625 -225.97513672 301.765625 -224.73828125 300.1875 C-212.94207666 285.55231771 -199.29888837 272.45783747 -184.1875 261.3125 C-182.73537109 260.18521484 -182.73537109 260.18521484 -181.25390625 259.03515625 C-168.06712601 248.85431777 -153.91467572 240.33101066 -139.26757812 232.44287109 C-137.39928467 231.42758955 -135.54912255 230.38711618 -133.703125 229.33203125 C-58.94598481 187.56104854 32.15276923 179.1372664 128.99768066 167.61343384 C172.06804212 162.51045603 215.13358255 157.16946438 257.76245117 149.06762695 C260.51741794 148.54422862 263.27545037 148.0703011 266.04418945 147.62573242 C267.3927796 147.39394256 268.74133268 147.16193696 270.08984375 146.9296875 C271.26796631 146.73874512 272.44608887 146.54780273 273.65991211 146.35107422 C279.66102908 144.37409353 282.42848709 139.35508051 285.8125 134.3125 C287.15683535 132.7415334 288.51083511 131.17877854 289.875 129.625 C296.6236628 121.09751461 302.95833596 110.82844295 302.2890625 99.64453125 C301.73310394 96.92397995 301.15263226 94.75844692 299.8125 92.3125 C297.46347669 91.0426029 297.46347669 91.0426029 294.8125 90.3125 C294.12671875 89.99410156 293.4409375 89.67570312 292.734375 89.34765625 C251.12673734 70.71401996 185.24692072 79.74472613 144.0390625 95.18359375 C123.49261765 103.30724539 101.94132588 114.42633082 85.359375 129.21484375 C78.13071936 132.33026129 66.83333117 126.0263787 59.63793945 123.54745483 C-17.32071022 97.15629375 -107.85223404 79.37113561 -186.765625 116.48828125 C-214.60569497 130.30320909 -241.48171199 150.00529121 -263.19140625 172.3125 C-265.06075175 174.18550371 -266.98529684 175.91106029 -269 177.625 C-276.68038779 184.2301335 -283.7894473 191.54119597 -290.34765625 199.25390625 C-292.69246372 201.87750187 -295.18401448 204.34217601 -297.6875 206.8125 C-301.32260137 210.40444214 -304.79603839 214.06560552 -308.11328125 217.953125 C-311.06383691 221.30931261 -314.12935254 224.55447622 -317.1875 227.8125 C-321.38733908 232.2917815 -325.55445548 236.7810585 -329.55859375 241.4375 C-331.52415089 243.70001181 -333.54423309 245.90940683 -335.5625 248.125 C-338.67278851 251.56628205 -341.65228312 255.07571298 -344.5625 258.6875 C-348.24257009 263.23950307 -352.11272884 267.54502248 -356.09667969 271.82714844 C-359.92044676 275.96131228 -363.47592028 280.2774775 -367.0078125 284.6640625 C-369.16507399 287.28525119 -371.40061 289.80404281 -373.6875 292.3125 C-376.80208668 295.72989372 -379.7793662 299.2177235 -382.6875 302.8125 C-386.29782442 307.27526213 -390.07177929 311.53969533 -393.9375 315.78125 C-396.26612053 318.4009481 -398.48312947 321.0876531 -400.6875 323.8125 C-404.29782442 328.27526213 -408.07177929 332.53969533 -411.9375 336.78125 C-414.26612053 339.4009481 -416.48312947 342.0876531 -418.6875 344.8125 C-422.29782442 349.27526213 -426.07177929 353.53969533 -429.9375 357.78125 C-432.26612053 360.4009481 -434.48312947 363.0876531 -436.6875 365.8125 C-440.29782442 370.27526213 -444.07177929 374.53969533 -447.9375 378.78125 C-451.04646881 382.27883991 -453.96579637 385.91926469 -456.90625 389.55859375 C-459.96685248 393.25332791 -463.18664189 396.78899944 -466.4375 400.31640625 C-468.23531979 402.19700675 -468.23531979 402.19700675 -469.1875 404.3125 C-521.6575 404.3125 -574.1275 404.3125 -628.1875 404.3125 C-625.89039687 400.48399478 -624.02986784 397.86758238 -621.0625 394.6875 C-617.81662126 391.14749632 -614.70459748 387.54946635 -611.6875 383.8125 C-608.07717558 379.34973787 -604.30322071 375.08530467 -600.4375 370.84375 C-598.10887947 368.2240519 -595.89187053 365.5373469 -593.6875 362.8125 C-590.07717558 358.34973787 -586.30322071 354.08530467 -582.4375 349.84375 C-580.10887947 347.2240519 -577.89187053 344.5373469 -575.6875 341.8125 C-572.07717558 337.34973787 -568.30322071 333.08530467 -564.4375 328.84375 C-562.10887947 326.2240519 -559.89187053 323.5373469 -557.6875 320.8125 C-554.07717558 316.34973787 -550.30322071 312.08530467 -546.4375 307.84375 C-544.10887947 305.2240519 -541.89187053 302.5373469 -539.6875 299.8125 C-536.07717558 295.34973787 -532.30322071 291.08530467 -528.4375 286.84375 C-526.10887947 284.2240519 -523.89187053 281.5373469 -521.6875 278.8125 C-518.07717558 274.34973787 -514.30322071 270.08530467 -510.4375 265.84375 C-508.10887947 263.2240519 -505.89187053 260.5373469 -503.6875 257.8125 C-500.07717558 253.34973787 -496.30322071 249.08530467 -492.4375 244.84375 C-490.10887947 242.2240519 -487.89187053 239.5373469 -485.6875 236.8125 C-482.07717558 232.34973787 -478.30322071 228.08530467 -474.4375 223.84375 C-472.10887947 221.2240519 -469.89187053 218.5373469 -467.6875 215.8125 C-464.07600866 211.34829543 -460.30089306 207.08247886 -456.43359375 202.83984375 C-454.12562402 200.24287607 -451.93194137 197.57845987 -449.75 194.875 C-445.89041397 190.10253797 -441.81550009 185.58140891 -437.66015625 181.06640625 C-434.44040481 177.48042716 -431.42844824 173.74548508 -428.40234375 169.99609375 C-426.23117173 167.36541443 -423.98508643 164.83307576 -421.6875 162.3125 C-418.57291332 158.89510628 -415.5956338 155.4072765 -412.6875 151.8125 C-409.07717558 147.34973787 -405.30322071 143.08530467 -401.4375 138.84375 C-399.10887947 136.2240519 -396.89187053 133.5373469 -394.6875 130.8125 C-391.07717558 126.34973787 -387.30322071 122.08530467 -383.4375 117.84375 C-381.10887947 115.2240519 -378.89187053 112.5373469 -376.6875 109.8125 C-373.07717558 105.34973787 -369.30322071 101.08530467 -365.4375 96.84375 C-363.10887947 94.2240519 -360.89187053 91.5373469 -358.6875 88.8125 C-355.07717558 84.34973787 -351.30322071 80.08530467 -347.4375 75.84375 C-345.10887947 73.2240519 -342.89187053 70.5373469 -340.6875 67.8125 C-337.07717558 63.34973787 -333.30322071 59.08530467 -329.4375 54.84375 C-327.10887947 52.2240519 -324.89187053 49.5373469 -322.6875 46.8125 C-319.07600866 42.34829543 -315.30089306 38.08247886 -311.43359375 33.83984375 C-309.12562402 31.24287607 -306.93194137 28.57845987 -304.75 25.875 C-303.68724004 24.59157951 -303.68724004 24.59157951 -302.60301018 23.28223133 C-301.04201825 21.36308121 -299.52631631 19.40577836 -298.06875801 17.40693951 C-294.7868383 13.23320476 -292.12162267 9.90284958 -286.93444443 8.31957436 C-283.11631739 7.96279321 -279.3829909 7.9478872 -275.55810547 8.0637207 C-274.10837543 8.06682951 -272.65862812 8.06507012 -271.20890808 8.05885315 C-267.30105392 8.05571629 -263.39696751 8.12004723 -259.48998404 8.19716668 C-255.39693277 8.26626875 -251.30378018 8.27241871 -247.2102356 8.28544617 C-239.47135286 8.31953877 -231.73419409 8.40966794 -223.99606812 8.52029055 C-215.18125451 8.64355022 -206.3663554 8.70379883 -197.55089355 8.75894034 C-179.42878755 8.87369799 -161.30828271 9.06698363 -143.1875 9.3125 C-145.71174707 13.15597804 -148.23879586 16.63529282 -151.375 20 C-154.57996366 23.49822831 -157.6483453 27.0555704 -160.625 30.75 C-163.70086588 34.55337503 -166.87503166 38.21332652 -170.1875 41.8125 C-175.87037241 47.99262374 -181.52337705 54.31631557 -186.1875 61.3125 C-185.49640137 60.93665771 -184.80530273 60.56081543 -184.09326172 60.17358398 C-157.33220651 45.65148553 -130.50737453 31.59400793 -102.1875 20.3125 C-101.34219727 19.97283203 -100.49689453 19.63316406 -99.62597656 19.28320312 C-82.84655326 12.60421412 -65.37700219 7.61372011 -47.6875 4 C-46.97279541 3.85280518 -46.25809082 3.70561035 -45.52172852 3.55395508 C-30.38206954 0.65364377 -15.37830075 -0.06304102 0 0 Z M210.26782227 215.97998047 C209.30587952 216.12828308 208.34393677 216.27658569 207.35284424 216.42938232 C206.2889447 216.59448303 205.22504517 216.75958374 204.12890625 216.9296875 C201.79019409 217.28840367 199.45140412 217.64661278 197.11254883 218.00439453 C195.85648834 218.19664612 194.60042786 218.38889771 193.30630493 218.5869751 C169.2314851 222.26451451 145.13138096 225.64810283 120.98248291 228.80239868 C79.75660293 234.15678382 79.75660293 234.15678382 38.8125 241.3125 C38.11902466 241.44895935 37.42554932 241.5854187 36.71105957 241.72601318 C19.3209332 245.17038797 2.85454459 249.6531766 -13.1875 257.3125 C-14.03940918 257.71903809 -14.89131836 258.12557617 -15.76904297 258.54443359 C-36.2404225 268.48656417 -54.28940123 281.26887084 -64.1875 302.3125 C-66.02313542 308.06830598 -65.98345071 314.07002356 -63.2734375 319.52734375 C-57.72734828 328.64447602 -50.09198993 333.45874391 -39.82299805 336.21582031 C-30.67256805 338.11026733 -21.86873806 338.84019761 -12.5 338.75 C-11.78929352 338.74596161 -11.07858704 338.74192322 -10.34634399 338.73776245 C32.28486053 338.40225141 77.60006172 326.10694218 115.8125 307.3125 C116.57675293 306.94189453 117.34100586 306.57128906 118.12841797 306.18945312 C133.54693235 298.64495718 147.76396748 289.63996944 160.22265625 277.76171875 C162.3259583 275.77262315 164.46332091 273.88607411 166.66015625 272.00390625 C170.7729373 268.42286314 174.49582159 264.57101249 178.1875 260.5625 C179.16130615 259.51316284 179.16130615 259.51316284 180.15478516 258.44262695 C182.04477643 256.40298209 183.92891174 254.35805615 185.8125 252.3125 C186.77064378 251.27977203 187.72895643 250.24720067 188.6875 249.21484375 C193.51975288 243.96731914 198.09999142 238.5745666 202.57421875 233.01953125 C205.54471466 229.42694196 208.68750264 226.00918176 211.8671875 222.6015625 C213.82852241 220.29364632 215.33129056 217.94886649 216.8125 215.3125 C214.56136611 215.3125 212.49417968 215.63420135 210.26782227 215.97998047 Z " fill="#201E1F" transform="translate(4003.1875,254.6875)"/>
<path d="M0 0 C8.29109661 8.24063516 12.12874325 18.82105736 14.1237793 30.11499023 C14.298125 31.09532227 14.4724707 32.0756543 14.65209961 33.08569336 C14.78197266 33.82754883 14.9118457 34.5694043 15.0456543 35.33374023 C15.84555786 34.95173462 15.84555786 34.95173462 16.66162109 34.56201172 C95.93945848 -3.05701021 180.62956861 -28.36031636 328.68798828 -15.51293945 C342.96010464 -10.3369331 355.90068266 -2.84321434 363.7565918 10.54858398 C367.08837835 17.74726221 368.58280614 24.14481015 368.4831543 32.08374023 C368.47340576 32.9613501 368.46365723 33.83895996 368.45361328 34.74316406 C367.36747559 74.81244037 325.06831173 113.02786177 300.56176758 141.56762695 C298.05464444 144.48816299 295.55028102 147.41106335 293.0456543 150.33374023 C292.0456677 151.50041839 291.0456677 152.66708506 290.0456543 153.83374023 C289.5506543 154.41124023 289.0556543 154.98874023 288.5456543 155.58374023 C283.0456543 162.0004069 277.5456543 168.41707357 272.0456543 174.83374023 C271.55073486 175.41115967 271.05581543 175.9885791 270.54589844 176.58349609 C269.54513824 177.75102251 268.54432437 178.91850293 267.54345703 180.0859375 C265.05464754 182.98907652 262.56675339 185.89298973 260.08081055 188.79858398 C254.37837599 195.46142857 248.65179741 202.10245729 242.90356445 208.72583008 C237.75403681 214.66262501 232.63865196 220.62827479 227.52954102 226.59985352 C225.03669906 229.51268069 222.54102663 232.42308084 220.0456543 235.33374023 C219.0456409 236.50039541 218.04564089 237.66706208 217.0456543 238.83374023 C184.0456543 277.33374023 184.0456543 277.33374023 151.0456543 315.83374023 C150.55073486 316.41115967 150.05581543 316.9885791 149.54589844 317.58349609 C148.54513824 318.75102251 147.54432437 319.91850293 146.54345703 321.0859375 C144.05464754 323.98907652 141.56675339 326.89298973 139.08081055 329.79858398 C133.38142691 336.45786381 127.65901134 343.09630884 121.91235352 349.71484375 C117.70300777 354.56600428 113.51858793 359.43802567 109.35424805 364.32788086 C108.4605839 365.37434103 107.55492485 366.4106964 106.63661957 367.43560123 C104.98234858 369.33612557 104.98234858 369.33612557 103.54947662 371.59997463 C100.72783165 375.49864749 98.55983054 377.95324776 93.79504395 379.15057564 C89.71391406 379.44260799 85.7200245 379.44901548 81.63354492 379.35546875 C80.07573596 379.35292711 78.51791624 379.35436091 76.96011353 379.35945129 C72.74902302 379.3620249 68.54025796 379.30926287 64.32970619 379.24628568 C59.9229283 379.18987334 55.51609205 379.18472543 51.10900879 379.17405701 C42.77184444 379.14612733 34.43574721 379.07233302 26.09905195 378.9819116 C16.60463961 378.88117746 7.11017525 378.83179659 -2.38463879 378.78665268 C-21.90847854 378.6926783 -41.43132621 378.53446221 -60.9543457 378.33374023 C-60.01837182 377.07377449 -59.08069803 375.81507144 -58.14233398 374.55688477 C-57.62035431 373.85580597 -57.09837463 373.15472717 -56.56057739 372.43240356 C-54.11665991 369.23924031 -51.4859161 366.22524626 -48.8293457 363.20874023 C-47.68186503 361.89523968 -46.53473759 360.58143049 -45.38793945 359.26733398 C-44.81414551 358.61104004 -44.24035156 357.95474609 -43.64916992 357.27856445 C-41.04579072 354.2911662 -38.4676375 351.28242503 -35.8918457 348.27124023 C-35.40119629 347.69809082 -34.91054687 347.12494141 -34.4050293 346.53442383 C-33.41596171 345.37894066 -32.427029 344.22334204 -31.43823242 343.06762695 C-28.94539046 340.15479978 -26.44971804 337.24439963 -23.9543457 334.33374023 C-22.9543323 333.16708506 -21.9543323 332.00041839 -20.9543457 330.83374023 C117.0456543 169.83374023 117.0456543 169.83374023 118.54589844 168.08374023 C119.54546005 166.91739519 120.54464655 165.75072858 121.54345703 164.58374023 C124.04718194 161.65939606 126.55724678 158.74098953 129.08081055 155.83374023 C135.51112676 148.41024102 141.67895823 140.8313844 147.69116211 133.06616211 C149.02938334 131.35455111 150.38869656 129.66232235 151.7565918 127.97436523 C171.56798739 104.55700089 171.56798739 104.55700089 180.27612305 76.39624023 C179.93113261 73.30886823 178.59044171 70.99077459 177.0456543 68.33374023 C176.7156543 67.34374023 176.3856543 66.35374023 176.0456543 65.33374023 C174.20126238 64.20810815 174.20126238 64.20810815 172.0456543 63.33374023 C171.45268555 63.0153418 170.8597168 62.69694336 170.2487793 62.36889648 C137.37115168 45.99583793 90.70044886 59.09659861 58.06860352 69.86303711 C34.76956907 77.87135774 12.078592 88.96297003 -7.9543457 103.33374023 C-8.93032715 104.03370117 -8.93032715 104.03370117 -9.92602539 104.74780273 C-32.72194724 121.23049925 -54.86754972 140.64963587 -73.05981445 162.15795898 C-75.73516498 165.23047495 -78.54031101 168.17710182 -81.3293457 171.14624023 C-86.03160711 176.16817 -90.47611779 181.31704981 -94.77856445 186.68920898 C-97.0846627 189.49213271 -99.49586101 192.16377299 -101.9543457 194.83374023 C-106.06813479 199.30359144 -109.92521867 203.92418917 -113.73950195 208.65014648 C-115.91067397 211.2808258 -118.15675927 213.81316448 -120.4543457 216.33374023 C-123.56893239 219.75113396 -126.5462119 223.23896373 -129.4543457 226.83374023 C-133.06467013 231.29650237 -136.83862499 235.56093556 -140.7043457 239.80249023 C-143.03296623 242.42218833 -145.24997518 245.10889333 -147.4543457 247.83374023 C-151.06467013 252.29650237 -154.83862499 256.56093556 -158.7043457 260.80249023 C-161.03296623 263.42218833 -163.24997518 266.10889333 -165.4543457 268.83374023 C-169.06467013 273.29650237 -172.83862499 277.56093556 -176.7043457 281.80249023 C-179.03296623 284.42218833 -181.24997518 287.10889333 -183.4543457 289.83374023 C-187.06467013 294.29650237 -190.83862499 298.56093556 -194.7043457 302.80249023 C-197.03296623 305.42218833 -199.24997518 308.10889333 -201.4543457 310.83374023 C-205.06467013 315.29650237 -208.83862499 319.56093556 -212.7043457 323.80249023 C-215.03296623 326.42218833 -217.24997518 329.10889333 -219.4543457 331.83374023 C-223.06467013 336.29650237 -226.83862499 340.56093556 -230.7043457 344.80249023 C-233.82246919 348.31037916 -236.7496633 351.96238512 -239.70043945 355.61108398 C-242.53115251 359.03050686 -245.50224407 362.30252737 -248.52075195 365.55639648 C-250.94843816 368.15819639 -250.94843816 368.15819639 -252.39694214 370.75255394 C-255.14184125 374.98511264 -257.24107106 377.85593351 -262.22294617 379.24530411 C-266.33410497 379.56604662 -270.34071131 379.573053 -274.45825195 379.46899414 C-276.02591266 379.46617013 -277.59358658 379.46776314 -279.16123962 379.47341919 C-283.39940501 379.47627905 -287.63471836 379.41765344 -291.8722229 379.34767962 C-296.30700057 379.28500219 -300.74184971 379.27927965 -305.17700195 379.26742554 C-313.5674063 379.2363914 -321.95650172 379.15439722 -330.34633064 379.05393064 C-339.90116705 378.94200656 -349.45606726 378.88713706 -359.01139641 378.83697629 C-378.65977569 378.73255796 -398.30697811 378.55676074 -417.9543457 378.33374023 C-415.43009863 374.4902622 -412.90304984 371.01094741 -409.7668457 367.64624023 C-406.54279413 364.12669457 -403.453318 360.54700365 -400.4543457 356.83374023 C-396.84402128 352.3709781 -393.07006642 348.1065449 -389.2043457 343.86499023 C-386.87572517 341.24529214 -384.65871623 338.55858714 -382.4543457 335.83374023 C-378.84285436 331.36953566 -375.06773876 327.1037191 -371.20043945 322.86108398 C-368.89246973 320.26411631 -366.69878708 317.59970011 -364.5168457 314.89624023 C-360.65725967 310.1237782 -356.5823458 305.60264915 -352.42700195 301.08764648 C-349.20725052 297.5016674 -346.19529394 293.76672531 -343.16918945 290.01733398 C-340.99801744 287.38665466 -338.75193213 284.85431599 -336.4543457 282.33374023 C-333.33975902 278.91634651 -330.3624795 275.42851674 -327.4543457 271.83374023 C-323.84402128 267.3709781 -320.07006642 263.1065449 -316.2043457 258.86499023 C-313.87572517 256.24529214 -311.65871623 253.55858714 -309.4543457 250.83374023 C-305.84402128 246.3709781 -302.07006642 242.1065449 -298.2043457 237.86499023 C-295.87572517 235.24529214 -293.65871623 232.55858714 -291.4543457 229.83374023 C-287.84285436 225.36953566 -284.06773876 221.1037191 -280.20043945 216.86108398 C-277.89246973 214.26411631 -275.69878708 211.59970011 -273.5168457 208.89624023 C-269.65725967 204.1237782 -265.5823458 199.60264915 -261.42700195 195.08764648 C-258.20725052 191.5016674 -255.19529394 187.76672531 -252.16918945 184.01733398 C-249.99801744 181.38665466 -247.75193213 178.85431599 -245.4543457 176.33374023 C-242.33975902 172.91634651 -239.3624795 169.42851674 -236.4543457 165.83374023 C-233.5462119 162.23896373 -230.56893239 158.75113396 -227.4543457 155.33374023 C-223.64172814 151.13986091 -220.01580492 146.83212638 -216.4543457 142.42358398 C-214.63430998 140.17413358 -212.80215688 137.93900232 -210.9543457 135.71264648 C-186.19685536 108.2095405 -186.19685536 108.2095405 -176.0793457 74.45874023 C-176.87044859 69.92200735 -177.88831981 66.82092267 -181.7668457 64.02905273 C-208.20075572 48.0742999 -248.73343841 56.05780723 -277.02001953 62.72558594 C-296.7126236 67.62854656 -315.76042856 74.34143519 -333.9543457 83.33374023 C-334.67734863 83.68903809 -335.40035156 84.04433594 -336.14526367 84.41040039 C-357.34051627 94.94301058 -376.15803744 108.11102329 -393.5480957 124.13842773 C-394.8972992 125.3693569 -396.25506439 126.59155506 -397.64160156 127.78027344 C-403.54161802 132.84158032 -409.03366677 138.26457874 -414.5168457 143.77124023 C-415.42370117 144.67422852 -416.33055664 145.5772168 -417.26489258 146.50756836 C-421.80553044 151.05479163 -426.21214514 155.65345102 -430.39648438 160.53076172 C-432.79664245 163.30856573 -435.31805859 165.96930874 -437.8293457 168.64624023 C-442.32384062 173.47142908 -446.54814418 178.44337342 -450.67700195 183.58764648 C-453.17261196 186.59693265 -455.79203038 189.47309412 -458.4543457 192.33374023 C-462.76436342 196.96616967 -466.80496194 201.75496823 -470.7746582 206.68530273 C-472.93191969 209.30649142 -475.16745571 211.82528304 -477.4543457 214.33374023 C-480.56893239 217.75113396 -483.5462119 221.23896373 -486.4543457 224.83374023 C-489.3624795 228.42851674 -492.33975902 231.91634651 -495.4543457 235.33374023 C-498.47716991 238.6536351 -501.37946732 242.03138135 -504.2043457 245.52124023 C-509.41953086 251.96086016 -514.86766322 258.18829427 -520.30786133 264.43725586 C-522.89071979 267.41229212 -525.45491485 270.40318083 -528.0168457 273.39624023 C-528.50773682 273.96963135 -528.99862793 274.54302246 -529.50439453 275.13378906 C-530.49319774 276.28904541 -531.48188619 277.44439999 -532.47045898 278.59985352 C-534.96330094 281.51268069 -537.45897337 284.42308084 -539.9543457 287.33374023 C-540.9543591 288.50039541 -541.95435911 289.66706208 -542.9543457 290.83374023 C-569.9543457 322.33374023 -569.9543457 322.33374023 -596.9543457 353.83374023 C-597.4198798 354.38011202 -597.88541389 354.9264838 -598.36505508 355.48941231 C-599.36839006 356.65375487 -600.3833819 357.80824399 -601.41421127 358.94831657 C-603.99985161 361.84358598 -606.16859239 364.55191806 -607.90899658 368.0317688 C-610.44844379 372.60107733 -613.25040695 375.91233469 -617.9543457 378.33374023 C-628.68514341 380.82194417 -640.13753236 380.00945458 -651.07586956 379.75325537 C-655.47176698 379.66521862 -659.86782238 379.6574735 -664.26446533 379.64089966 C-672.57390104 379.59753343 -680.88073145 379.48286214 -689.18902421 379.3420068 C-698.65429075 379.18505016 -708.1196875 379.10843153 -717.58593321 379.03827071 C-737.04354311 378.89227189 -756.49873435 378.64632469 -775.9543457 378.33374023 C-774.33617395 374.92544086 -772.47668607 372.53843265 -769.8918457 369.77124023 C-766.62416098 366.21077095 -763.48955377 362.59441104 -760.4543457 358.83374023 C-756.84402128 354.3709781 -753.07006642 350.1065449 -749.2043457 345.86499023 C-746.87572517 343.24529214 -744.65871623 340.55858714 -742.4543457 337.83374023 C-738.84402128 333.3709781 -735.07006642 329.1065449 -731.2043457 324.86499023 C-728.87572517 322.24529214 -726.65871623 319.55858714 -724.4543457 316.83374023 C-720.84402128 312.3709781 -717.07006642 308.1065449 -713.2043457 303.86499023 C-710.87572517 301.24529214 -708.65871623 298.55858714 -706.4543457 295.83374023 C-702.84402128 291.3709781 -699.07006642 287.1065449 -695.2043457 282.86499023 C-692.87572517 280.24529214 -690.65871623 277.55858714 -688.4543457 274.83374023 C-684.84402128 270.3709781 -681.07006642 266.1065449 -677.2043457 261.86499023 C-674.87572517 259.24529214 -672.65871623 256.55858714 -670.4543457 253.83374023 C-666.84402128 249.3709781 -663.07006642 245.1065449 -659.2043457 240.86499023 C-656.87572517 238.24529214 -654.65871623 235.55858714 -652.4543457 232.83374023 C-649.5462119 229.23896373 -646.56893239 225.75113396 -643.4543457 222.33374023 C-640.43152149 219.01384537 -637.52922409 215.63609912 -634.7043457 212.14624023 C-629.48916055 205.7066203 -624.04102819 199.4791862 -618.60083008 193.23022461 C-616.01797161 190.25518835 -613.45377656 187.26429964 -610.8918457 184.27124023 C-610.40095459 183.69784912 -609.91006348 183.12445801 -609.40429688 182.53369141 C-608.41549367 181.37843506 -607.42680521 180.22308048 -606.43823242 179.06762695 C-603.94539046 176.15479978 -601.44971804 173.24439963 -598.9543457 170.33374023 C-597.9543323 169.16708506 -596.9543323 168.00041839 -595.9543457 166.83374023 C-481.9543457 33.83374023 -481.9543457 33.83374023 -480.45361328 32.08300781 C-479.45589376 30.91892046 -478.45833456 29.75469568 -477.4609375 28.59033203 C-474.92735827 25.63304137 -472.39084433 22.67835655 -469.84887695 19.72827148 C-465.25828018 14.39538701 -460.69673172 9.05188079 -456.2668457 3.58374023 C-452.65159541 -0.8728774 -448.87786076 -5.15029983 -444.99731445 -9.37719727 C-442.89120425 -11.63221482 -442.89120425 -11.63221482 -441.20314407 -14.27174664 C-438.9543457 -16.66625977 -438.9543457 -16.66625977 -436.18201828 -17.28149891 C-434.57256773 -17.27458546 -434.57256773 -17.27458546 -432.93060303 -17.26753235 C-431.69663788 -17.27440567 -430.46267273 -17.28127899 -429.1913147 -17.2883606 C-427.82683717 -17.27066606 -426.4623658 -17.25249203 -425.09790039 -17.23388672 C-423.65890553 -17.23247612 -422.21990707 -17.23326845 -420.78091431 -17.23609924 C-416.87600181 -17.2375344 -412.97185656 -17.20812949 -409.06712246 -17.17322946 C-404.98588891 -17.14198203 -400.90463794 -17.13903651 -396.82330322 -17.13310242 C-389.09550264 -17.11755916 -381.36805555 -17.07652439 -373.64041066 -17.02635497 C-364.84246998 -16.97047633 -356.04451245 -16.94297876 -347.2464385 -16.91787779 C-329.14887379 -16.86560879 -311.05163816 -16.77765733 -292.9543457 -16.66625977 C-294.73847929 -12.88922173 -297.10795338 -9.93067011 -299.8293457 -6.79125977 C-300.3147583 -6.22463623 -300.8001709 -5.6580127 -301.30029297 -5.07421875 C-302.32888751 -3.87438389 -303.3592845 -2.67609219 -304.39135742 -1.47924805 C-305.90731436 0.27918623 -307.41808631 2.04191855 -308.92700195 3.80639648 C-311.93190356 7.31913389 -314.9426884 10.82679459 -317.9543457 14.33374023 C-320.10070483 16.8332895 -322.24643628 19.33337581 -324.3918457 21.83374023 C-325.11778931 22.67859985 -325.11778931 22.67859985 -325.85839844 23.54052734 C-328.92276343 27.11198002 -331.94919963 30.71229378 -334.9543457 34.33374023 C-333.87024414 33.83487305 -332.78614258 33.33600586 -331.66918945 32.82202148 C-257.59934127 -1.02467871 -179.85827557 -26.02851316 0 0 Z " fill="#211E1F" transform="translate(2923.954345703125,280.666259765625)"/>
<path d="M0 0 C1.68490791 -0.00855011 1.68490791 -0.00855011 3.40385437 -0.01727295 C5.76768068 -0.02664879 8.13151962 -0.03322706 10.49536133 -0.03710938 C14.02775229 -0.04674821 17.5595434 -0.07781721 21.09179688 -0.109375 C58.28580204 -0.28310054 98.89781788 5.09230254 126.76171875 32.203125 C134.90934291 41.03509794 139.27738573 51.20612305 143.76171875 62.203125 C144.26058594 61.58308594 144.75945312 60.96304688 145.2734375 60.32421875 C150.37953119 54.02639763 155.62343827 47.87346526 160.95288086 41.76464844 C164.20704586 38.02519233 167.39330271 34.24503084 170.51171875 30.390625 C174.04689856 26.02516442 177.73055036 21.83038991 181.5234375 17.6875 C183.70427381 15.43163816 183.70427381 15.43163816 184.79445076 13.45719814 C186.99299918 10.1091971 188.67131689 8.44282012 192.65488815 7.56714058 C196.42576652 7.33950031 200.1632493 7.33651244 203.93701172 7.40844727 C205.3861532 7.41042325 206.83530168 7.40931057 208.28443909 7.40534973 C212.20813012 7.40334487 216.13031693 7.44443715 220.05365896 7.49336743 C224.15753096 7.53718871 228.26143917 7.54124338 232.36550903 7.54954529 C240.13236271 7.57128417 247.89852497 7.62870232 255.66507447 7.69899172 C264.50896196 7.77729026 273.35288285 7.81573542 282.19703078 7.85085976 C300.3856518 7.92398701 318.57362965 8.04707583 336.76171875 8.203125 C335.17938964 12.46081909 333.34955549 15.02495502 330.19921875 18.328125 C326.74162832 22.02878851 323.43685889 25.75259414 320.26171875 29.703125 C317.20823196 33.48772834 314.05503574 37.12520037 310.76171875 40.703125 C306.64792966 45.1729762 302.79084578 49.79357393 298.9765625 54.51953125 C296.80539048 57.15021057 294.55930518 59.68254924 292.26171875 62.203125 C289.14713207 65.62051872 286.16985255 69.1083485 283.26171875 72.703125 C279.65139433 77.16588713 275.87743946 81.43032033 272.01171875 85.671875 C269.68309822 88.2915731 267.46608928 90.9782781 265.26171875 93.703125 C261.65139433 98.16588713 257.87743946 102.43032033 254.01171875 106.671875 C251.68309822 109.2915731 249.46608928 111.9782781 247.26171875 114.703125 C243.65139433 119.16588713 239.87743946 123.43032033 236.01171875 127.671875 C233.68309822 130.2915731 231.46608928 132.9782781 229.26171875 135.703125 C225.65139433 140.16588713 221.87743946 144.43032033 218.01171875 148.671875 C215.68309822 151.2915731 213.46608928 153.9782781 211.26171875 156.703125 C207.65139433 161.16588713 203.87743946 165.43032033 200.01171875 169.671875 C197.68309822 172.2915731 195.46608928 174.9782781 193.26171875 177.703125 C189.65139433 182.16588713 185.87743946 186.43032033 182.01171875 190.671875 C179.68309822 193.2915731 177.46608928 195.9782781 175.26171875 198.703125 C171.65139433 203.16588713 167.87743946 207.43032033 164.01171875 211.671875 C161.68309822 214.2915731 159.46608928 216.9782781 157.26171875 219.703125 C153.65139433 224.16588713 149.87743946 228.43032033 146.01171875 232.671875 C143.68309822 235.2915731 141.46608928 237.9782781 139.26171875 240.703125 C135.65139433 245.16588713 131.87743946 249.43032033 128.01171875 253.671875 C125.68309822 256.2915731 123.46608928 258.9782781 121.26171875 261.703125 C117.65139433 266.16588713 113.87743946 270.43032033 110.01171875 274.671875 C107.68309822 277.2915731 105.46608928 279.9782781 103.26171875 282.703125 C99.65139433 287.16588713 95.87743946 291.43032033 92.01171875 295.671875 C89.68309822 298.2915731 87.46608928 300.9782781 85.26171875 303.703125 C81.65139433 308.16588713 77.87743946 312.43032033 74.01171875 316.671875 C71.68309822 319.2915731 69.46608928 321.9782781 67.26171875 324.703125 C63.65139433 329.16588713 59.87743946 333.43032033 56.01171875 337.671875 C53.68309822 340.2915731 51.46608928 342.9782781 49.26171875 345.703125 C45.64906045 350.16877207 41.8727833 354.43597115 38.00390625 358.6796875 C35.71655971 361.25394858 33.54623604 363.89601989 31.38671875 366.578125 C27.22259065 371.72504557 22.81088085 376.58587206 18.3125 381.4375 C16.27769992 383.64368447 14.28525637 385.86944761 12.32421875 388.140625 C2.73362935 399.16634647 -7.45878713 409.58425566 -17.80322266 419.8984375 C-20.00280197 422.09261002 -22.19692132 424.29214223 -24.390625 426.4921875 C-25.81348125 427.91438356 -27.23664734 429.33626971 -28.66015625 430.7578125 C-29.62450592 431.72519852 -29.62450592 431.72519852 -30.6083374 432.71212769 C-34.99084157 437.07239898 -39.54527441 441.18030237 -44.23828125 445.203125 C-45.04415932 445.90038948 -45.04415932 445.90038948 -45.86631775 446.61174011 C-53.76954583 453.43584212 -61.86632167 459.96229125 -70.23828125 466.203125 C-70.88861328 466.69006836 -71.53894531 467.17701172 -72.20898438 467.67871094 C-153.41891326 528.22327222 -251.21547408 555.33691613 -351.23828125 562.203125 C-351.98178833 562.25426453 -352.72529541 562.30540405 -353.49133301 562.35809326 C-551.73956777 575.72040028 -551.73956777 575.72040028 -602.21484375 532.6640625 C-612.06578226 523.4809008 -618.39186736 513.39535891 -619.51953125 499.81640625 C-620.14110242 476.2743983 -606.91598844 456.22021878 -591.82421875 439.140625 C-590.3018228 437.41125679 -588.81145847 435.65097979 -587.40234375 433.828125 C-585.10175922 431.04497884 -583.47774632 429.35744198 -579.7977972 428.89927769 C-571.53236077 429.08082881 -563.32801973 429.65407894 -555.09399414 430.38061523 C-553.61270773 430.50750067 -552.13138327 430.63394245 -550.65002441 430.75997925 C-546.66457479 431.10039107 -542.67970094 431.44714347 -538.69491887 431.79527164 C-534.510887 432.15985635 -530.32638893 432.51901529 -526.14195251 432.87892151 C-519.12549581 433.48322783 -512.10939384 434.09152084 -505.09350586 434.70239258 C-496.98787206 435.40811446 -488.88176912 436.10822704 -480.77537924 436.80520672 C-472.95831274 437.47737742 -465.14152815 438.15276926 -457.32488823 438.82988167 C-454.00491528 439.11745939 -450.68485873 439.40404269 -447.36473274 439.68984795 C-443.45989442 440.02618588 -439.55531498 440.36538738 -435.65091705 440.70679855 C-434.21952848 440.83152297 -432.78805654 440.95529483 -431.35649681 441.07803917 C-429.40122094 441.24585612 -427.44627503 441.41750427 -425.49134827 441.58934021 C-424.39801713 441.68428489 -423.30468599 441.77922956 -422.17822361 441.87705135 C-419.48276865 442.17600852 -416.88599382 442.62361827 -414.23828125 443.203125 C-415.20891346 445.67342771 -416.19821917 448.11612888 -417.30859375 450.52734375 C-419.92181909 456.38290424 -421.5315513 461.78255424 -420.23828125 468.203125 C-415.18153053 475.47220416 -406.31280158 477.83051232 -398.03125 479.54296875 C-335.10476285 490.49515858 -256.35401503 482.34107075 -203.23828125 445.265625 C-195.6745706 439.80940382 -188.86456823 433.7495772 -182.23828125 427.203125 C-181.51398926 426.4925293 -180.78969727 425.78193359 -180.04345703 425.04980469 C-172.17575004 417.31699124 -164.41545869 409.58680153 -157.23828125 401.203125 C-156.19226996 400.00055027 -155.14541269 398.7987108 -154.09765625 397.59765625 C-148.46872877 391.11773005 -142.86870806 384.61599693 -137.33740234 378.05249023 C-134.46227324 374.64251406 -131.56621047 371.25160081 -128.65649414 367.87109375 C-121.68866123 359.77557644 -114.90399154 351.55014168 -108.23828125 343.203125 C-108.86766602 343.51838135 -109.49705078 343.8336377 -110.14550781 344.15844727 C-181.731155 379.8042121 -263.21680655 407.69731259 -344.23828125 404.203125 C-345.34075195 404.15671875 -346.44322266 404.1103125 -347.57910156 404.0625 C-364.67379413 403.28123127 -381.49060695 401.89894027 -398.23828125 398.203125 C-399.03476074 398.02942383 -399.83124023 397.85572266 -400.65185547 397.67675781 C-417.768619 393.79977683 -433.89050833 386.73269167 -447.23828125 375.203125 C-448.22828125 374.36201172 -448.22828125 374.36201172 -449.23828125 373.50390625 C-462.06466613 361.67958269 -468.42766912 344.69402684 -469.45703125 327.5625 C-470.49274471 283.54467803 -443.70443744 244.43277679 -416.68554688 211.95458984 C-414.69202533 209.54205213 -412.75227054 207.08721435 -410.80078125 204.640625 C-405.48651447 198.14649348 -399.68908483 192.10692942 -393.93115234 186.00927734 C-391.48026022 183.39437975 -389.08047801 180.73557821 -386.67578125 178.078125 C-378.99273283 169.681165 -371.06853249 161.43555394 -362.3828125 154.06640625 C-360.07638733 152.06246307 -357.84587182 149.99043428 -355.61376953 147.90454102 C-349.35843324 142.06266852 -342.93223918 136.5421397 -336.23828125 131.203125 C-335.12036931 130.2938587 -334.00322065 129.3836534 -332.88671875 128.47265625 C-310.38791363 110.18221659 -286.4303012 93.58493293 -261.23828125 79.203125 C-260.25214844 78.63899902 -260.25214844 78.63899902 -259.24609375 78.06347656 C-253.94475114 75.04575133 -248.60135847 72.10948532 -243.23828125 69.203125 C-242.3879834 68.74035156 -241.53768555 68.27757812 -240.66162109 67.80078125 C-168.61259421 28.78248601 -82.5964829 0.33791454 0 0 Z M-133.23828125 111.203125 C-134.51590332 111.83154297 -134.51590332 111.83154297 -135.81933594 112.47265625 C-161.17873764 125.08728165 -184.22776413 141.2517372 -205.23828125 160.203125 C-206.24852485 161.10175709 -207.25893421 162.00020289 -208.26953125 162.8984375 C-214.19423157 168.23385311 -219.90018249 173.76734582 -225.55078125 179.390625 C-226.20876709 180.04393799 -226.86675293 180.69725098 -227.54467773 181.37036133 C-231.97769061 185.8179399 -236.15144331 190.43710974 -240.23828125 195.203125 C-241.12754224 196.22401228 -242.01686017 197.24484996 -242.90625 198.265625 C-257.93992097 215.79325379 -271.50510999 234.20120934 -281.23828125 255.203125 C-281.67140625 256.09515625 -282.10453125 256.9871875 -282.55078125 257.90625 C-286.96508103 267.70859215 -288.66504334 278.9849624 -285.46875 289.35546875 C-280.39719208 301.09250279 -271.73332052 308.08224187 -260.17578125 312.953125 C-246.77168262 317.62707861 -233.19607683 318.73228624 -219.11328125 318.578125 C-218.35648071 318.57380463 -217.59968018 318.56948425 -216.81994629 318.56503296 C-203.78210298 318.47833517 -191.07664158 317.58990891 -178.23828125 315.203125 C-177.32288574 315.03683594 -176.40749023 314.87054687 -175.46435547 314.69921875 C-127.85492433 305.80795373 -79.92187021 285.47978662 -41.23828125 256.203125 C-40.17867187 255.41679687 -39.1190625 254.63046875 -38.02734375 253.8203125 C-34.71484712 251.3422194 -31.46412326 248.79279117 -28.23828125 246.203125 C-27.70783203 245.77854004 -27.17738281 245.35395508 -26.63085938 244.91650391 C-17.14956156 237.23073398 -8.50516534 228.67825939 0.13671875 220.078125 C0.69475189 219.52535889 1.25278503 218.97259277 1.82772827 218.40307617 C8.95667693 211.32617895 15.51606041 204.080724 21.76171875 196.203125 C22.63643103 195.16351282 23.51655551 194.12838223 24.40625 193.1015625 C41.0265891 173.75608671 62.09027102 146.48747733 60.63671875 119.578125 C59.37497312 109.38264018 54.07668307 100.43068842 46.07421875 94.015625 C-3.10342535 59.84132995 -85.86147181 87.87605458 -133.23828125 111.203125 Z " fill="#201E1F" transform="translate(4854.23828125,254.796875)"/>
<path d="M0 0 C0.73476563 0.58007812 1.46953125 1.16015625 2.2265625 1.7578125 C13.76200306 11.23193722 22.25205777 25.2623466 24.71875 40.0625 C29.71274838 92.22203863 -5.93565809 140.03607553 -37.22827148 178.27148438 C-42.2470086 184.3484585 -47.36809634 190.33815671 -52.53710938 196.28759766 C-54.19979334 198.10778821 -54.19979334 198.10778821 -55.6231966 201.06502438 C-57.68746901 203.4997997 -58.84620588 203.97237318 -62.03437555 204.5450803 C-66.19827877 204.73889714 -70.32542592 204.73523671 -74.491745 204.67201233 C-76.11410267 204.66945062 -77.7364664 204.66956445 -79.35882407 204.67212671 C-83.82084334 204.67164497 -88.28189728 204.63389981 -92.74367559 204.59036911 C-97.55425882 204.55009673 -102.3648881 204.54467592 -107.1756134 204.5355835 C-115.51395629 204.51560078 -123.85199577 204.47512992 -132.19019127 204.42222786 C-144.25674364 204.34683907 -156.32310008 204.31675467 -168.3898618 204.30031734 C-187.98091398 204.27360663 -207.57187557 204.22967137 -227.1628418 204.16577148 C-228.33569341 204.16195905 -229.50854501 204.15814662 -230.71693758 204.15421867 C-249.72156718 204.09138045 -268.72599692 204.00011724 -287.73048034 203.90363211 C-307.24148829 203.80585604 -326.75223165 203.75813887 -346.26348239 203.75183862 C-358.29873445 203.74597316 -370.33237686 203.69812334 -382.36720649 203.59630232 C-390.61611798 203.5298348 -398.86429209 203.5103375 -407.11344995 203.52773107 C-411.87306967 203.5362387 -416.63015418 203.52347815 -421.38932419 203.45370293 C-425.74995855 203.39017582 -430.10639769 203.3869634 -434.46723423 203.43097024 C-436.04136418 203.43629035 -437.61575831 203.41971938 -439.18936106 203.37863649 C-447.34341313 203.04017527 -447.34341313 203.04017527 -454.58406319 206.24546067 C-458.01434087 209.7752222 -460.49430916 213.7856932 -463 218 C-463.75087405 219.16137591 -464.50751681 220.31904516 -465.27025717 221.47266251 C-473.29221529 233.73949548 -482.32605445 249.73690117 -480 265 C-477.20749827 275.98068478 -471.6845063 284.08972087 -462 290 C-431.55496905 307.62375164 -388.44636194 302.39546404 -356 294 C-340.75767277 289.73550624 -326.1966112 283.96908158 -312 277 C-310.89301758 276.45690186 -310.89301758 276.45690186 -309.76367188 275.90283203 C-297.18888294 269.65195952 -284.65700215 262.60022434 -273.83203125 253.59765625 C-273.14633057 253.03925049 -272.46062988 252.48084473 -271.75415039 251.90551758 C-270.46555978 250.84108428 -269.20022952 249.74749248 -267.96655273 248.61987305 C-265.08464155 246.24448196 -263.02758826 245.01697615 -259.22026539 244.95407772 C-257.66452069 245.10913202 -257.66452069 245.10913202 -256.0773468 245.26731873 C-254.92146372 245.37871626 -253.76558064 245.49011379 -252.57467079 245.60488701 C-251.39502943 245.7352743 -250.21538807 245.86566158 -249 246 C-247.92429434 246.11755205 -246.84858868 246.2351041 -245.74028587 246.35621834 C-242.35427669 246.74454815 -238.97248988 247.15979842 -235.59057617 247.58227539 C-234.32071365 247.73847855 -233.05085114 247.8946817 -231.74250793 248.05561829 C-228.30504023 248.4785211 -224.86802937 248.90503241 -221.43109679 249.33225942 C-217.82260035 249.78016689 -214.21368357 250.22466233 -210.60481262 250.66954041 C-203.79091793 251.51002853 -196.97739936 252.35352564 -190.16401511 253.19814056 C-182.39873577 254.16060477 -174.63303642 255.11965882 -166.8673023 256.07844555 C-150.91106893 258.04853869 -134.95536079 260.0228522 -119 262 C-120.13832134 265.41496403 -120.77211862 265.81090506 -123.65625 267.75 C-124.42235596 268.27013672 -125.18846191 268.79027344 -125.9777832 269.32617188 C-127.22628052 270.1547168 -127.22628052 270.1547168 -128.5 271 C-129.36004639 271.57814453 -130.22009277 272.15628906 -131.10620117 272.75195312 C-133.7312557 274.51083861 -136.36452772 276.25677373 -139 278 C-139.72912598 278.48597656 -140.45825195 278.97195313 -141.20947266 279.47265625 C-211.09658971 325.98676497 -290.42745953 357.61961551 -429 379 C-430.17780029 379.09643799 -431.35560059 379.19287598 -432.5690918 379.29223633 C-445.95355104 380.23893581 -459.35946909 380.18733103 -472.77075195 380.18530273 C-475.53253794 380.1852219 -478.29415652 380.19211008 -481.0559082 380.20581055 C-503.84961652 380.31696802 -526.54020366 379.581484 -549.125 376.25 C-550.84964478 375.99730347 -550.84964478 375.99730347 -552.60913086 375.73950195 C-583.67321601 370.94480473 -619.44420151 361.76710922 -639.5 335.5 C-643.02974041 330.26112213 -645.79379863 324.91663095 -648 319 C-648.3196875 318.16984375 -648.639375 317.3396875 -648.96875 316.484375 C-657.53386795 289.36150149 -646.94843149 260.38115162 -634.65234375 236.34765625 C-624.08915461 216.36488345 -610.33089884 198.25041053 -595.66015625 181.1328125 C-593.17016182 178.22019198 -590.77035021 175.24106339 -588.375 172.25 C-584.93058122 168.01213475 -581.28232378 164.13578461 -577.3359375 160.36328125 C-575.37985983 158.38430635 -573.56862985 156.37128417 -571.75390625 154.265625 C-567.87643114 149.79645051 -563.7562279 145.6085795 -559.5625 141.4375 C-558.85029297 140.72142578 -558.13808594 140.00535156 -557.40429688 139.26757812 C-553.34447092 135.21512697 -549.1870081 131.34155373 -544.84204102 127.59692383 C-542.23152499 125.33378462 -539.71562846 122.9798721 -537.1875 120.625 C-531.64356377 115.51075829 -525.90409662 110.69607685 -520 106 C-519.49307617 105.59346191 -518.98615234 105.18692383 -518.46386719 104.76806641 C-489.17790332 81.29451555 -457.90421613 61.02403678 -425 43 C-424.09088867 42.50145508 -423.18177734 42.00291016 -422.24511719 41.48925781 C-349.66723397 1.98418108 -267.00078357 -23.8403864 -175 -32 C-173.57678389 -32.11017405 -172.15360603 -32.22084353 -170.73046875 -32.33203125 C-117.03341372 -36.16536209 -43.1869883 -37.23016233 0 0 Z M-367 112 C-367.75667969 112.64582031 -368.51335937 113.29164063 -369.29296875 113.95703125 C-375.11869366 119.0606395 -380.62214253 124.49029578 -386.125 129.9375 C-386.89666504 130.69611328 -387.66833008 131.45472656 -388.46337891 132.23632812 C-389.17929199 132.95111328 -389.89520508 133.66589844 -390.6328125 134.40234375 C-391.28137207 135.04679443 -391.92993164 135.69124512 -392.59814453 136.35522461 C-394.21622256 137.89350218 -394.21622256 137.89350218 -394 140 C-364.5980261 140.25108258 -335.19612841 140.44567965 -305.79330126 140.56171862 C-302.31996275 140.57547596 -298.84662636 140.58971355 -295.37329102 140.60424805 C-294.33609827 140.60857617 -294.33609827 140.60857617 -293.27795213 140.61299173 C-282.09014394 140.66082216 -270.90295918 140.74753216 -259.71552051 140.84868076 C-248.23116585 140.95164578 -236.74724922 141.01184356 -225.26244205 141.03497344 C-218.81334773 141.04931204 -212.36566603 141.08299492 -205.91702461 141.16303062 C-199.84519247 141.23777807 -193.77535256 141.26071179 -187.70310402 141.24418449 C-185.47660742 141.24720719 -183.25004324 141.2690438 -181.02394485 141.31126022 C-169.16550943 142.0871847 -169.16550943 142.0871847 -158.72887993 137.6119175 C-156.4149856 134.83689933 -154.68594961 132.18576602 -153 129 C-152.06192247 127.61817232 -151.11328523 126.2433098 -150.14453125 124.8828125 C-149.35707246 123.6365424 -148.57956894 122.38392245 -147.8125 121.125 C-147.39742187 120.45227051 -146.98234375 119.77954102 -146.5546875 119.08642578 C-139.61256517 107.62165133 -132.29400848 94.20602271 -134.3984375 80.3828125 C-137.04201564 70.39941741 -142.39390112 63.58414392 -150.8671875 57.7890625 C-214.30780107 21.55988417 -317.82269229 69.56790515 -367 112 Z " fill="#201E1F" transform="translate(5664,287)"/>
<path d="M0 0 C1.16422454 0.00092179 2.32844908 0.00184359 3.52795315 0.00279331 C4.49703669 0.00151167 4.49703669 0.00151167 5.48569769 0.00020415 C7.66610578 -0.00145241 9.84643816 0.00407354 12.02683926 0.00952244 C13.58361719 0.0098043 15.14039526 0.0096466 16.69717312 0.00907993 C20.93665966 0.00879191 25.17611816 0.01468937 29.41559815 0.02165389 C33.84122181 0.02788668 38.26684604 0.02849117 42.69247341 0.0296793 C51.0789474 0.03279284 59.46540841 0.04100653 67.85187668 0.05102879 C77.3970611 0.06218923 86.94224614 0.0677002 96.48743546 0.07272422 C116.1281001 0.08318912 135.76875304 0.100789 155.40940762 0.12304783 C153.79123587 3.5313472 151.93174798 5.91835541 149.34690762 8.68554783 C146.07922289 12.24601711 142.94461568 15.86237702 139.90940762 19.62304783 C137.00127382 23.21782433 134.0239943 26.70565411 130.90940762 30.12304783 C127.88658341 33.44294269 124.984286 36.82068895 122.15940762 40.31054783 C116.94422246 46.75016776 111.4960901 52.97760186 106.05589199 59.22656345 C103.47303353 62.20159971 100.90883847 65.19248843 98.34690762 68.18554783 C97.8560165 68.75893894 97.36512539 69.33233006 96.85935879 69.92309666 C95.87055558 71.07835301 94.88186713 72.23370758 93.89329433 73.38916111 C91.40045238 76.30198829 88.90477995 79.21238843 86.40940762 82.12304783 C85.40939421 83.28970301 84.40939421 84.45636967 83.40940762 85.62304783 C-30.59059239 218.62304783 -30.59059239 218.62304783 -32.09083652 220.37329197 C-33.09007635 221.53909887 -34.08926261 222.70495169 -35.08839512 223.87085056 C-37.599587 226.80105181 -40.11172632 229.73043074 -42.62574863 232.65820408 C-47.46635793 238.29726439 -52.29552872 243.94518208 -57.09059238 249.62304783 C-62.38715129 255.89473732 -67.72663661 262.12895854 -73.0744791 268.35693455 C-75.58160224 271.27747058 -78.08596566 274.20037094 -80.59059238 277.12304783 C-81.59057898 278.28972599 -82.59057898 279.45639265 -83.59059238 280.62304783 C-84.33309238 281.48929783 -84.33309238 281.48929783 -85.09059238 282.37304783 C-149.59059239 357.62304783 -149.59059239 357.62304783 -151.09083652 359.37329197 C-152.09007635 360.53909887 -153.08926261 361.70495169 -154.08839512 362.87085056 C-156.599587 365.80105181 -159.11172632 368.73043074 -161.62574863 371.65820408 C-162.13299473 372.24923923 -162.64024082 372.84027439 -163.16285801 373.4492197 C-164.09738786 374.53807559 -165.03223453 375.62665972 -165.96754551 376.7148447 C-166.41162754 377.2324033 -166.85570957 377.74996189 -167.31324863 378.28320408 C-167.78440948 378.81201585 -168.25557032 379.34082762 -168.74100876 379.88566399 C-170.72471766 382.21741058 -170.72471766 382.21741058 -172.76309013 385.28989792 C-176.24526025 390.18478543 -179.28323542 394.34817917 -185.11664486 396.30718517 C-189.24819898 396.71997865 -193.20192605 396.73686832 -197.34327793 396.59887791 C-198.90152775 396.59520361 -200.45980001 396.59728365 -202.01803684 396.60463047 C-206.21760914 396.60833698 -210.41228211 396.53232891 -214.6107223 396.44116902 C-219.00933804 396.35948691 -223.40808635 396.35223372 -227.80734348 396.33683872 C-236.12372133 396.29655146 -244.4378578 396.19004306 -252.75325185 396.05929536 C-262.22580197 395.91361031 -271.69846343 395.84241873 -281.17185628 395.7772547 C-300.6460356 395.64164161 -320.11813334 395.41322316 -339.59059238 395.12304783 C-335.49390587 386.56783662 -328.18006196 379.61010472 -321.84059238 372.65429783 C-319.51197185 370.03459973 -317.29496291 367.34789473 -315.09059238 364.62304783 C-311.48026796 360.16028569 -307.7063131 355.8958525 -303.84059238 351.65429783 C-301.51197185 349.03459973 -299.29496291 346.34789473 -297.09059238 343.62304783 C-293.48026796 339.16028569 -289.7063131 334.8958525 -285.84059238 330.65429783 C-283.51197185 328.03459973 -281.29496291 325.34789473 -279.09059238 322.62304783 C-275.48026796 318.16028569 -271.7063131 313.8958525 -267.84059238 309.65429783 C-265.51197185 307.03459973 -263.29496291 304.34789473 -261.09059238 301.62304783 C-257.47910105 297.15884326 -253.70398544 292.89302669 -249.83668613 288.65039158 C-247.52871641 286.0534239 -245.33503376 283.3890077 -243.15309238 280.68554783 C-239.29350635 275.9130858 -235.21859248 271.39195674 -231.06324863 266.87695408 C-227.8434972 263.29097499 -224.83154063 259.55603291 -221.80543613 255.80664158 C-219.63426412 253.17596226 -217.38817882 250.64362358 -215.09059238 248.12304783 C-211.9760057 244.70565411 -208.99872618 241.21782433 -206.09059238 237.62304783 C-202.48026796 233.16028569 -198.7063131 228.8958525 -194.84059238 224.65429783 C-192.51197185 222.03459973 -190.29496291 219.34789473 -188.09059238 216.62304783 C-184.48026796 212.16028569 -180.7063131 207.8958525 -176.84059238 203.65429783 C-174.51197185 201.03459973 -172.29496291 198.34789473 -170.09059238 195.62304783 C-166.48026796 191.16028569 -162.7063131 186.8958525 -158.84059238 182.65429783 C-156.51197185 180.03459973 -154.29496291 177.34789473 -152.09059238 174.62304783 C-148.48026796 170.16028569 -144.7063131 165.8958525 -140.84059238 161.65429783 C-138.51197185 159.03459973 -136.29496291 156.34789473 -134.09059238 153.62304783 C-130.48026796 149.16028569 -126.7063131 144.8958525 -122.84059238 140.65429783 C-120.51197185 138.03459973 -118.29496291 135.34789473 -116.09059238 132.62304783 C-112.48026796 128.16028569 -108.7063131 123.8958525 -104.84059238 119.65429783 C-102.51197185 117.03459973 -100.29496291 114.34789473 -98.09059238 111.62304783 C-94.48026796 107.16028569 -90.7063131 102.8958525 -86.84059238 98.65429783 C-84.51197185 96.03459973 -82.29496291 93.34789473 -80.09059238 90.62304783 C-76.48026796 86.16028569 -72.7063131 81.8958525 -68.84059238 77.65429783 C-66.51197185 75.03459973 -64.29496291 72.34789473 -62.09059238 69.62304783 C-58.48026796 65.16028569 -54.7063131 60.8958525 -50.84059238 56.65429783 C-48.51197185 54.03459973 -46.29496291 51.34789473 -44.09059238 48.62304783 C-40.48026796 44.16028569 -36.7063131 39.8958525 -32.84059238 35.65429783 C-30.51197185 33.03459973 -28.29496291 30.34789473 -26.09059238 27.62304783 C-22.4901524 23.17250396 -18.72774012 18.91872219 -14.87184238 14.68945408 C-11.57533974 10.9808886 -8.4582377 7.13456017 -5.34059238 3.27539158 C-2.78503439 0.13228343 -2.78503439 0.13228343 0 0 Z " fill="#211E1F" transform="translate(3457.5905923843384,263.8769521713257)"/>
<path d="M0 0 C1.16422454 0.00092179 2.32844908 0.00184359 3.52795315 0.00279331 C4.49703669 0.00151167 4.49703669 0.00151167 5.48569769 0.00020415 C7.66610578 -0.00145241 9.84643816 0.00407354 12.02683926 0.00952244 C13.58361719 0.0098043 15.14039526 0.0096466 16.69717312 0.00907993 C20.93665966 0.00879191 25.17611816 0.01468937 29.41559815 0.02165389 C33.84122181 0.02788668 38.26684604 0.02849117 42.69247341 0.0296793 C51.0789474 0.03279284 59.46540841 0.04100653 67.85187668 0.05102879 C77.3970611 0.06218923 86.94224614 0.0677002 96.48743546 0.07272422 C116.1281001 0.08318912 135.76875304 0.100789 155.40940762 0.12304783 C153.79123587 3.5313472 151.93174798 5.91835541 149.34690762 8.68554783 C146.07922289 12.24601711 142.94461568 15.86237702 139.90940762 19.62304783 C136.29908319 24.08580996 132.52512833 28.35024316 128.65940762 32.59179783 C126.33078708 35.21149593 124.11377814 37.89820093 121.90940762 40.62304783 C118.29791628 45.0872524 114.52280067 49.35306896 110.65550137 53.59570408 C108.34753164 56.19267176 106.15384899 58.85708795 103.97190762 61.56054783 C100.89604174 65.36392286 97.72187596 69.02387435 94.40940762 72.62304783 C90.33009702 77.05653113 86.47598603 81.62050429 82.71018887 86.32226658 C81.95093105 87.24652439 81.19167324 88.1707822 80.40940762 89.12304783 C80.00743632 89.78027081 79.60546503 90.43749378 79.19131279 91.11463261 C76.64235342 94.80345095 74.70318937 96.82548528 70.24850559 97.85003757 C66.18122268 98.10987879 62.18244697 98.11389111 58.11082363 98.03125095 C56.55316186 98.02899234 54.99549158 98.03026499 53.43783474 98.03479099 C49.22275566 98.03708097 45.00950787 97.99014064 40.79485345 97.93419933 C36.38537434 97.88409556 31.97585048 97.87948223 27.56613064 97.86999607 C19.22195811 97.84515807 10.87862684 97.77954644 2.53482431 97.69920015 C-6.96685189 97.60969571 -16.46856886 97.56577373 -25.97056186 97.52563667 C-45.5110485 97.44207735 -65.05075274 97.30141731 -84.59059238 97.12304783 C-82.97242063 93.71474846 -81.11293275 91.32774025 -78.52809238 88.56054783 C-75.35274122 85.09744624 -72.29231054 81.59109527 -69.34059238 77.93554783 C-64.12540723 71.4959279 -58.67727487 65.26849379 -53.23707676 59.0195322 C-50.6542183 56.04449594 -48.09002324 53.05360723 -45.52809238 50.06054783 C-45.03720127 49.48715672 -44.54631016 48.9137656 -44.04054356 48.322999 C-43.05174035 47.16774265 -42.06305189 46.01238807 -41.0744791 44.85693455 C-38.58163714 41.94410737 -36.08596472 39.03370722 -33.59059238 36.12304783 C-32.59057898 34.95639265 -31.59057898 33.78972599 -30.59059238 32.62304783 C-27.59059238 29.12304783 -27.59059238 29.12304783 -24.59059238 25.62304783 C-23.84676304 24.75522678 -23.84676304 24.75522678 -23.08790684 23.869874 C-22.09691237 22.71374072 -21.10586498 21.5576528 -20.11476231 20.40161228 C-17.47652159 17.32417211 -14.83944511 14.2457432 -12.20387363 11.16601658 C-11.65151035 10.5208408 -11.09914707 9.87566502 -10.53004551 9.21093845 C-9.46460616 7.96643367 -8.39948961 6.72165243 -7.33473301 5.47656345 C-2.75721332 0.13096198 -2.75721332 0.13096198 0 0 Z " fill="#201E1F" transform="translate(3586.5905923843384,113.87695217132568)"/>
<path d="M0 0 C12.46818894 12.32670594 19.84351745 27.91266057 20.18505859 45.50341797 C20.20809037 57.18407068 19.43362453 66.97802308 14.75390625 77.72265625 C14.34269531 78.69847656 13.93148437 79.67429687 13.5078125 80.6796875 C6.24518589 95.74371123 -7.6393988 107.49793931 -23.27612305 113.06640625 C-41.79898451 119.23686747 -61.02593987 118.23671111 -78.68359375 109.91015625 C-84.00731794 107.03577743 -88.70410131 103.71074718 -93.24609375 99.72265625 C-93.92285156 99.14 -94.59960938 98.55734375 -95.296875 97.95703125 C-108.20169438 86.02947003 -114.24194377 69.79837257 -115.46875 52.6015625 C-115.97748651 34.53035708 -110.27691574 17.67665121 -98.421875 3.95703125 C-87.50085536 -7.25809125 -74.69398003 -14.48074365 -59.24609375 -17.27734375 C-58.1478125 -17.49003906 -58.1478125 -17.49003906 -57.02734375 -17.70703125 C-36.1837343 -20.8957924 -15.55352582 -13.73100882 0 0 Z M-90.18359375 13 C-100.32130494 26.48053406 -103.49578806 42.28306393 -101.53515625 58.76660156 C-99.43686804 72.96549104 -92.29565397 85.61129758 -81.24609375 94.72265625 C-67.9610437 104.20894598 -54.31602685 106.99810293 -38.24609375 105.72265625 C-24.95292389 103.27905885 -12.41717148 95.96702096 -4.26953125 85.08203125 C5.73478435 69.8414143 8.76035695 54.58863187 6.32421875 36.5390625 C5.66621632 33.8055092 4.81526313 31.32641665 3.75390625 28.72265625 C3.31304687 27.61664063 2.8721875 26.510625 2.41796875 25.37109375 C-3.48836296 12.14667299 -12.49187962 3.04119571 -25.7265625 -2.94140625 C-49.05351022 -11.79580816 -73.80634015 -6.24987671 -90.18359375 13 Z " fill="#201E1F" transform="translate(5885.24609375,207.27734375)"/>
<path d="M0 0 C45.62857143 0 45.62857143 0 53 6 C58.68646183 12.00237637 59.47152986 18.0062751 59.3125 26.02734375 C58.69766012 31.8760081 56.40164072 36.02077145 52 39.875 C47.68279895 42.93301741 45.35139881 44.29729993 40 44 C42.59469162 49.41008115 45.41775621 54.37241723 48.8125 59.3125 C49.69226749 60.61269892 50.57116673 61.91348573 51.44921875 63.21484375 C52.09383057 64.16786377 52.09383057 64.16786377 52.75146484 65.14013672 C61 77.42745405 61 77.42745405 61 79 C55.78673452 80.59725581 50.97901102 81.53845172 46 79 C39.10659664 71.69827658 33.91996248 61.6216472 29.88378906 52.46875 C28.76925883 49.94013547 28.76925883 49.94013547 26 47 C22.04 46.67 18.08 46.34 14 46 C14 56.89 14 67.78 14 79 C9.38 79 4.76 79 0 79 C0 52.93 0 26.86 0 0 Z M14 11 C14 18.92 14 26.84 14 35 C16.949375 35.061875 19.89875 35.12375 22.9375 35.1875 C23.84749756 35.21481201 24.75749512 35.24212402 25.69506836 35.27026367 C32.15315238 35.33486535 38.90003002 34.61559967 44 30.3125 C46.08468964 25.49165521 46.49325705 21.63391397 45 16.6875 C42.4894216 13.31391027 39.97329856 12.05641032 36 11 C32.17506309 10.65553573 28.39870292 10.71591829 24.5625 10.8125 C21.076875 10.874375 17.59125 10.93625 14 11 Z " fill="#201F1F" transform="translate(5811,217)"/>
</svg>
