<?xml version="1.0" encoding="iso-8859-1"?>
<!-- Generator: Adobe Illustrator 27.0.0, SVG Export Plug-In . SVG Version: 6.00 Build 0)  -->
<svg version="1.1" id="Layer_1" xmlns="http://www.w3.org/2000/svg" xmlns:xlink="http://www.w3.org/1999/xlink" x="0px" y="0px"
	 viewBox="0 0 500 500" style="enable-background:new 0 0 500 500;" xml:space="preserve">
<g id="watermark_1_">
	<g>
		<g id="watermark" style="opacity:0.61;">
			<g>
				<g>
					<g>
						<g>
							<polygon style="fill:#FFFFFF;" points="213.765,461.172 208.204,474.017 205.268,474.017 199.726,461.172 202.938,461.172 
								206.846,470.347 210.81,461.172 							"/>
						</g>
						<g>
							<path style="fill:#FFFFFF;" d="M223.507,469.741h-7.469c0.275,1.23,1.321,1.982,2.826,1.982c1.046,0,1.798-0.312,2.477-0.954
								l1.523,1.651c-0.917,1.046-2.294,1.597-4.074,1.597c-3.413,0-5.634-2.147-5.634-5.083c0-2.954,2.257-5.083,5.267-5.083
								c2.899,0,5.138,1.945,5.138,5.12C223.562,469.191,223.526,469.503,223.507,469.741 M216.002,468.071h4.863
								c-0.202-1.248-1.138-2.055-2.422-2.055C217.139,466.016,216.204,466.805,216.002,468.071"/>
						</g>
						<g>
							<path style="fill:#FFFFFF;" d="M224.735,468.934c0-2.973,2.294-5.083,5.505-5.083c2.074,0,3.707,0.899,4.423,2.514
								l-2.22,1.193c-0.532-0.936-1.321-1.358-2.221-1.358c-1.45,0-2.587,1.009-2.587,2.734c0,1.725,1.138,2.734,2.587,2.734
								c0.899,0,1.688-0.404,2.221-1.358l2.22,1.211c-0.716,1.578-2.349,2.495-4.423,2.495
								C227.029,474.017,224.735,471.907,224.735,468.934"/>
						</g>
						<g>
							<path style="fill:#FFFFFF;" d="M242.828,473.393c-0.587,0.422-1.45,0.624-2.331,0.624c-2.33,0-3.688-1.193-3.688-3.542
								v-4.055h-1.523v-2.202h1.523v-2.404h2.863v2.404h2.459v2.202h-2.459v4.019c0,0.844,0.458,1.303,1.229,1.303
								c0.422,0,0.844-0.128,1.156-0.367L242.828,473.393z"/>
						</g>
					</g>
					<g>
						<path style="fill:#FFFFFF;" d="M262.474,463.997v2.643c-0.238-0.018-0.422-0.037-0.642-0.037
							c-1.578,0-2.624,0.862-2.624,2.753v4.661h-2.863v-9.873h2.734v1.303C259.776,464.493,260.951,463.997,262.474,463.997"/>
					</g>
					<g>
						<path style="fill:#FFFFFF;" d="M263.299,472.53l1.009-2.239c1.083,0.789,2.697,1.339,4.239,1.339
							c1.762,0,2.477-0.587,2.477-1.376c0-2.404-7.469-0.752-7.469-5.524c0-2.184,1.762-4,5.413-4c1.615,0,3.267,0.385,4.459,1.138
							l-0.918,2.257c-1.193-0.679-2.422-1.009-3.56-1.009c-1.761,0-2.44,0.66-2.44,1.468c0,2.367,7.468,0.734,7.468,5.45
							c0,2.147-1.78,3.982-5.45,3.982C266.492,474.017,264.437,473.411,263.299,472.53"/>
					</g>
					<g>
						<path style="fill:#FFFFFF;" d="M285.428,469.741h-7.469c0.275,1.23,1.321,1.982,2.826,1.982c1.046,0,1.798-0.312,2.477-0.954
							l1.523,1.651c-0.918,1.046-2.294,1.597-4.074,1.597c-3.413,0-5.634-2.147-5.634-5.083c0-2.954,2.257-5.083,5.267-5.083
							c2.9,0,5.138,1.945,5.138,5.12C285.484,469.191,285.447,469.503,285.428,469.741 M277.923,468.071h4.863
							c-0.202-1.248-1.138-2.055-2.422-2.055C279.061,466.016,278.125,466.805,277.923,468.071"/>
					</g>
					<g>
						<path style="fill:#FFFFFF;" d="M297.007,469.741h-7.469c0.275,1.23,1.321,1.982,2.826,1.982c1.046,0,1.798-0.312,2.477-0.954
							l1.523,1.651c-0.918,1.046-2.294,1.597-4.074,1.597c-3.413,0-5.634-2.147-5.634-5.083c0-2.954,2.257-5.083,5.267-5.083
							c2.899,0,5.138,1.945,5.138,5.12C297.062,469.191,297.025,469.503,297.007,469.741 M289.501,468.071h4.863
							c-0.202-1.248-1.138-2.055-2.422-2.055C290.639,466.016,289.703,466.805,289.501,468.071"/>
					</g>
					<g>
						<polygon style="fill:#FFFFFF;" points="303.208,470.145 301.831,471.503 301.831,474.017 298.969,474.017 298.969,460.401 
							301.831,460.401 301.831,468.108 306.016,464.144 309.429,464.144 305.318,468.328 309.796,474.017 306.327,474.017 						"/>
					</g>
					<g>
						<path style="fill:#FFFFFF;" d="M256.601,475.359L256.601,475.359l-2.86-2.86c-0.435,0.508-0.953,0.943-1.534,1.284
							c-0.092,0.069-0.186,0.136-0.283,0.199l3.027,3.027c0.456,0.456,1.195,0.456,1.65,0
							C257.057,476.554,257.057,475.815,256.601,475.359"/>
					</g>
					<g>
						<path style="fill:#FFFFFF;" d="M249.984,463.244c0.221-0.173,0.495-0.281,0.797-0.281c0.042,0,0.083,0.002,0.124,0.006
							c-0.214-0.156-0.478-0.249-0.764-0.249c-0.395,0-0.744,0.18-0.981,0.458c-0.051,0-0.1,0.006-0.151,0.008
							c0.039-0.077,0.064-0.162,0.064-0.255c0-0.234-0.143-0.434-0.346-0.519c0.087,0.126,0.138,0.279,0.138,0.445
							c0,0.122-0.031,0.237-0.081,0.341c-2.811,0.201-5.03,2.539-5.03,5.4c0,2.993,2.426,5.42,5.42,5.42
							c2.993,0,5.42-2.426,5.42-5.42C254.595,465.879,252.593,463.635,249.984,463.244 M247.983,464.656
							c0.435,0,0.844,0.112,1.199,0.309c0.374-0.245,0.82-0.387,1.299-0.387c0.711,0,1.348,0.312,1.784,0.806
							c-0.435-0.379-1.004-0.61-1.627-0.61c-0.449,0-0.87,0.12-1.234,0.329c-0.079,0.046-0.156,0.096-0.229,0.15
							c-0.065-0.048-0.133-0.093-0.204-0.134c-0.369-0.219-0.8-0.344-1.26-0.344c-0.3,0-0.588,0.054-0.854,0.152
							C247.196,464.754,247.578,464.656,247.983,464.656 M251.772,469.098c0.115,0.305,0.181,0.634,0.181,0.979
							c0,1.534-1.244,2.777-2.778,2.777c-1.534,0-2.777-1.243-2.777-2.777c0-0.345,0.066-0.674,0.181-0.979
							c-0.62-0.382-1.035-1.064-1.035-1.846c0-1.197,0.971-2.168,2.168-2.168c0.565,0,1.078,0.218,1.463,0.572
							c0.386-0.354,0.899-0.572,1.464-0.572c1.197,0,2.168,0.971,2.168,2.168C252.807,468.034,252.392,468.716,251.772,469.098"/>
					</g>
					<g>
						<path style="fill:#FFFFFF;" d="M251.666,467.061c0,0.497-0.404,0.901-0.901,0.901c-0.497,0-0.901-0.404-0.901-0.901
							s0.404-0.901,0.901-0.901c0.101,0,0.197,0.017,0.287,0.047c-0.03,0.062-0.045,0.132-0.045,0.204
							c0,0.273,0.221,0.494,0.494,0.494c0.05,0,0.099-0.008,0.146-0.022C251.66,466.941,251.666,467,251.666,467.061"/>
					</g>
					<g>
						<path style="fill:#FFFFFF;" d="M248.255,467.061c0,0.376-0.305,0.681-0.681,0.681c-0.376,0-0.681-0.305-0.681-0.681
							s0.305-0.681,0.681-0.681c0.076,0,0.149,0.013,0.217,0.035c-0.023,0.047-0.034,0.1-0.034,0.155
							c0,0.206,0.167,0.374,0.374,0.374c0.038,0,0.075-0.006,0.11-0.017C248.25,466.97,248.255,467.015,248.255,467.061"/>
					</g>
					<g>
						<g>
							<g>
								<rect x="242.908" y="467.83" style="fill:#FFFFFF;" width="0.616" height="0.616"/>
							</g>
							<g>
								<rect x="254.827" y="467.83" style="fill:#FFFFFF;" width="0.616" height="0.616"/>
							</g>
							<g>
								<path style="fill:#FFFFFF;" d="M255.205,468.082h-0.14c0-3.248-2.642-5.89-5.89-5.89c-3.248,0-5.89,2.642-5.89,5.89h-0.14
									c0-1.611,0.627-3.125,1.766-4.264c1.139-1.139,2.653-1.766,4.264-1.766c1.611,0,3.125,0.627,4.264,1.766
									C254.578,464.957,255.205,466.471,255.205,468.082"/>
							</g>
						</g>
						<g>
							<rect x="248.868" y="461.814" style="fill:#FFFFFF;" width="0.616" height="0.616"/>
						</g>
						<g>
							<rect x="244.95" y="462.052" style="fill:#FFFFFF;" width="8.45" height="0.14"/>
						</g>
						<g>
							<path style="fill:#FFFFFF;" d="M245.174,462.15c0,0.108-0.088,0.196-0.196,0.196c-0.108,0-0.196-0.088-0.196-0.196
								c0-0.108,0.088-0.196,0.196-0.196C245.086,461.954,245.174,462.042,245.174,462.15"/>
						</g>
						<g>
							<path style="fill:#FFFFFF;" d="M253.596,462.15c0,0.108-0.088,0.196-0.196,0.196c-0.108,0-0.196-0.088-0.196-0.196
								c0-0.108,0.088-0.196,0.196-0.196C253.509,461.954,253.596,462.042,253.596,462.15"/>
						</g>
					</g>
				</g>
				<g>
					<path style="fill:#FFFFFF;" d="M314.356,473.409c0,1.559-2.364,1.559-2.364,0C311.993,471.851,314.356,471.851,314.356,473.409
						z"/>
				</g>
				<g>
					<g>
						<g>
							<path style="fill:#FFFFFF;" d="M161.739,466.549l1.772,6.088l1.855-6.088h2.215l-2.823,8.14h-2.33l-0.837-2.396l-0.722-2.708
								l-0.722,2.708l-0.837,2.396h-2.33l-2.839-8.14h2.231l1.855,6.088l1.756-6.088H161.739z"/>
						</g>
						<g>
							<path style="fill:#FFFFFF;" d="M176.713,466.549l1.772,6.088l1.855-6.088h2.215l-2.823,8.14h-2.33l-0.837-2.396l-0.722-2.708
								l-0.722,2.708l-0.837,2.396h-2.33l-2.839-8.14h2.231l1.855,6.088l1.756-6.088H176.713z"/>
						</g>
						<g>
							<path style="fill:#FFFFFF;" d="M191.687,466.549l1.772,6.088l1.855-6.088h2.215l-2.823,8.14h-2.33l-0.837-2.396l-0.722-2.708
								l-0.722,2.708l-0.837,2.396h-2.33l-2.839-8.14h2.231l1.855,6.088l1.756-6.088H191.687z"/>
						</g>
					</g>
					<g>
						<path style="fill:#FFFFFF;" d="M200.908,473.52c0,1.559-2.364,1.559-2.364,0C198.545,471.962,200.908,471.962,200.908,473.52z
							"/>
					</g>
					<g>
						<path style="fill:#FFFFFF;" d="M322.71,473.409c-0.935,0.919-1.919,1.28-3.117,1.28c-2.346,0-4.3-1.411-4.3-4.282
							s1.953-4.284,4.3-4.284c1.149,0,2.035,0.329,2.921,1.199l-1.264,1.329c-0.476-0.428-1.066-0.64-1.623-0.64
							c-1.346,0-2.33,0.985-2.33,2.396c0,1.542,1.05,2.362,2.297,2.362c0.64,0,1.28-0.18,1.772-0.672L322.71,473.409z"/>
					</g>
					<g>
						<path style="fill:#FFFFFF;" d="M331.805,470.472c0,2.33-1.591,4.217-4.217,4.217c-2.626,0-4.201-1.887-4.201-4.217
							c0-2.314,1.609-4.217,4.185-4.217C330.149,466.255,331.805,468.158,331.805,470.472z M325.389,470.472
							c0,1.231,0.739,2.38,2.199,2.38c1.46,0,2.199-1.149,2.199-2.38c0-1.215-0.854-2.396-2.199-2.396
							C326.144,468.077,325.389,469.258,325.389,470.472z"/>
					</g>
					<g>
						<path style="fill:#FFFFFF;" d="M338.572,474.689v-4.332c0-1.068-0.559-2.035-1.658-2.035c-1.082,0-1.722,0.967-1.722,2.035
							v4.332h-2.003v-8.107h1.855l0.148,0.985c0.426-0.82,1.362-1.116,2.133-1.116c0.969,0,1.937,0.394,2.396,1.51
							c0.723-1.149,1.658-1.478,2.708-1.478c2.297,0,3.43,1.412,3.43,3.84v4.365h-2.003v-4.365c0-1.066-0.442-1.97-1.526-1.97
							c-1.082,0-1.756,0.935-1.756,2.003v4.332H338.572z"/>
					</g>
				</g>
			</g>
		</g>
		<g style="opacity:0.61;">
			<g>
				<g>
					<path style="fill:#FFFFFF;" d="M345.988,431.299c-0.006-1.224-0.959-2.121-2.189-2.14c-0.924-0.014-0.832,0.12-0.834-0.867
						c-0.003-1.097-0.007-2.194,0.003-3.292c0.003-0.379-0.112-0.691-0.362-0.976c-2.342-2.668-4.678-5.342-7.019-8.011
						c-0.12-0.137-0.275-0.244-0.414-0.366c-6.214,0-12.427,0-18.641,0c-0.794,0.293-1.14,0.868-1.138,1.709
						c0.01,3.748,0.004,7.496,0.004,11.243c0,0.556-0.003,0.589-0.55,0.551c-1.497-0.102-2.516,0.986-2.497,2.492
						c0.044,3.476,0.013,6.953,0.014,10.429c0.001,1.58,0.867,2.443,2.45,2.449c0.582,0.002,0.582,0.002,0.582,0.6
						c0,2.219-0.001,4.438,0.001,6.657c0.001,1.192,0.58,1.771,1.768,1.771c8.013,0.001,16.027,0.001,24.04,0
						c1.168,0,1.755-0.583,1.757-1.745c0.002-2.256,0-4.512,0.001-6.768c0-0.512,0.002-0.511,0.52-0.515
						c0.271-0.002,0.541,0.008,0.809-0.058c0.996-0.246,1.69-1.044,1.694-2.069C346.003,438.696,346.005,434.997,345.988,431.299z
						 M317.537,417.162c5.337,0,10.674,0,16.01,0c0.548,0,0.554,0.007,0.554,0.561c0.001,2.243-0.001,4.486,0.001,6.73
						c0.001,0.811,0.249,1.059,1.06,1.059c1.91,0.001,3.821,0,5.731,0.001c0.458,0,0.479,0.021,0.481,0.483
						c0.003,0.887,0.002,1.775,0,2.662c-0.001,0.477-0.024,0.498-0.504,0.499c-3.895,0.001-7.79,0-11.684,0
						c-3.882,0-7.765,0-11.647,0c-0.55,0-0.552-0.001-0.552-0.561c-0.001-3.624-0.001-7.247,0-10.871
						C316.987,417.166,316.991,417.162,317.537,417.162z M340.822,451.579c-3.883,0.001-7.766,0-11.65,0c-3.871,0-7.742,0-11.613,0
						c-0.572,0-0.574-0.002-0.574-0.579c-0.001-1.997-0.001-3.994,0.001-5.991c0-0.464,0.023-0.486,0.478-0.487
						c7.803-0.001,15.607-0.001,23.41,0c0.478,0,0.499,0.02,0.499,0.503c0.002,1.997,0.001,3.994,0,5.991
						C341.375,451.574,341.37,451.579,340.822,451.579z"/>
				</g>
				<g>
					<g>
						<rect x="327.418" y="417.053" style="fill:#FFFFFF;" width="1.757" height="1.054"/>
					</g>
					<g>
						<rect x="325.662" y="418.107" style="fill:#FFFFFF;" width="1.757" height="1.054"/>
					</g>
					<g>
						<rect x="327.418" y="419.161" style="fill:#FFFFFF;" width="1.757" height="1.054"/>
					</g>
					<g>
						<rect x="325.662" y="420.215" style="fill:#FFFFFF;" width="1.757" height="1.054"/>
					</g>
					<g>
						<rect x="327.418" y="421.269" style="fill:#FFFFFF;" width="1.757" height="1.054"/>
					</g>
					<g>
						<rect x="325.662" y="422.323" style="fill:#FFFFFF;" width="1.757" height="1.054"/>
					</g>
					<g>
						<rect x="327.418" y="423.378" style="fill:#FFFFFF;" width="1.757" height="1.054"/>
					</g>
					<g>
						<rect x="325.662" y="424.432" style="fill:#FFFFFF;" width="1.757" height="1.054"/>
					</g>
					<g>
						<rect x="327.418" y="425.486" style="fill:#FFFFFF;" width="1.757" height="1.054"/>
					</g>
					<g>
						<rect x="325.662" y="426.54" style="fill:#FFFFFF;" width="1.757" height="1.054"/>
					</g>
					<g>
						<rect x="327.418" y="427.594" style="fill:#FFFFFF;" width="1.757" height="1.054"/>
					</g>
					<g>
						<rect x="325.662" y="428.648" style="fill:#FFFFFF;" width="1.757" height="1.054"/>
					</g>
				</g>
			</g>
			<g>
				<path style="fill:#FFFFFF;" d="M187.637,431.299c-0.006-1.224-0.959-2.121-2.189-2.14c-0.924-0.014-0.832,0.12-0.834-0.867
					c-0.003-1.097-0.007-2.194,0.003-3.292c0.003-0.379-0.112-0.691-0.362-0.976c-2.342-2.668-4.678-5.342-7.019-8.011
					c-0.12-0.137-0.275-0.244-0.414-0.366c-6.214,0-12.427,0-18.641,0c-0.794,0.293-1.14,0.868-1.138,1.709
					c0.01,3.748,0.004,7.496,0.004,11.243c0,0.556-0.003,0.589-0.55,0.551c-1.497-0.102-2.516,0.986-2.497,2.492
					c0.044,3.476,0.013,6.953,0.014,10.429c0.001,1.58,0.867,2.443,2.45,2.449c0.582,0.002,0.582,0.002,0.582,0.6
					c0,2.219-0.001,4.438,0.001,6.657c0.001,1.192,0.58,1.771,1.768,1.771c8.013,0.001,16.027,0.001,24.04,0
					c1.168,0,1.755-0.583,1.757-1.745c0.002-2.256,0-4.512,0.001-6.768c0-0.512,0.002-0.511,0.52-0.515
					c0.271-0.002,0.541,0.008,0.809-0.058c0.996-0.246,1.69-1.044,1.694-2.069C187.652,438.696,187.655,434.997,187.637,431.299z
					 M159.187,417.162c5.337,0,10.674,0,16.01,0c0.548,0,0.554,0.007,0.554,0.561c0.001,2.243-0.001,4.486,0.001,6.73
					c0.001,0.811,0.249,1.059,1.06,1.059c1.91,0.001,3.821,0,5.731,0.001c0.458,0,0.479,0.021,0.481,0.483
					c0.003,0.887,0.002,1.775,0,2.662c-0.001,0.477-0.024,0.498-0.504,0.499c-3.895,0.001-7.79,0-11.684,0
					c-3.882,0-7.765,0-11.647,0c-0.55,0-0.552-0.001-0.552-0.561c-0.001-3.624-0.001-7.247,0-10.871
					C158.636,417.166,158.64,417.162,159.187,417.162z M182.472,451.579c-3.883,0.001-7.766,0-11.65,0c-3.871,0-7.742,0-11.613,0
					c-0.572,0-0.574-0.002-0.574-0.579c-0.001-1.997-0.001-3.994,0.001-5.991c0-0.464,0.023-0.486,0.478-0.487
					c7.803-0.001,15.607-0.001,23.41,0c0.478,0,0.499,0.02,0.499,0.503c0.002,1.997,0.001,3.994,0,5.991
					C183.024,451.574,183.019,451.579,182.472,451.579z"/>
			</g>
			<g>
				<path style="fill:#FFFFFF;" d="M159.779,440.669v-7.897h2.779c0.375,0,0.726,0.061,1.053,0.182
					c0.327,0.121,0.612,0.292,0.855,0.513c0.242,0.221,0.434,0.483,0.573,0.789c0.14,0.305,0.21,0.642,0.21,1.009
					c0,0.375-0.07,0.715-0.21,1.02c-0.14,0.305-0.331,0.568-0.573,0.789c-0.243,0.221-0.528,0.392-0.855,0.513
					c-0.327,0.121-0.678,0.182-1.053,0.182h-1.29v2.901H159.779z M162.58,436.356c0.39,0,0.684-0.111,0.882-0.331
					c0.199-0.22,0.298-0.474,0.298-0.761c0-0.14-0.024-0.276-0.072-0.408c-0.048-0.132-0.121-0.248-0.221-0.347
					c-0.099-0.099-0.223-0.178-0.37-0.237c-0.147-0.059-0.32-0.089-0.518-0.089h-1.312v2.173H162.58z"/>
				<path style="fill:#FFFFFF;" d="M166.308,432.771h1.731l3.177,5.294h0.088l-0.088-1.522v-3.772h1.478v7.897h-1.566l-3.353-5.592
					h-0.088l0.088,1.522v4.07h-1.467V432.771z"/>
				<path style="fill:#FFFFFF;" d="M177.922,436.334h3.872c0.022,0.089,0.04,0.195,0.055,0.32c0.014,0.125,0.022,0.25,0.022,0.375
					c0,0.507-0.077,0.985-0.231,1.434c-0.154,0.449-0.397,0.849-0.728,1.202c-0.353,0.375-0.776,0.666-1.268,0.871
					c-0.493,0.206-1.055,0.309-1.688,0.309c-0.574,0-1.114-0.103-1.622-0.309c-0.507-0.206-0.948-0.492-1.323-0.86
					c-0.375-0.367-0.673-0.803-0.894-1.307c-0.221-0.504-0.331-1.053-0.331-1.649c0-0.595,0.11-1.145,0.331-1.649
					c0.221-0.504,0.518-0.939,0.894-1.307c0.375-0.367,0.816-0.654,1.323-0.86c0.507-0.206,1.048-0.309,1.622-0.309
					c0.64,0,1.211,0.11,1.715,0.331c0.504,0.221,0.935,0.526,1.296,0.915l-1.025,1.004c-0.258-0.272-0.544-0.48-0.861-0.623
					c-0.316-0.143-0.695-0.215-1.136-0.215c-0.361,0-0.703,0.065-1.026,0.193c-0.324,0.129-0.607,0.311-0.85,0.546
					c-0.242,0.235-0.436,0.52-0.579,0.855c-0.143,0.335-0.215,0.708-0.215,1.119c0,0.412,0.072,0.785,0.215,1.12
					c0.143,0.335,0.338,0.62,0.584,0.855c0.246,0.235,0.531,0.418,0.855,0.546c0.323,0.129,0.669,0.193,1.037,0.193
					c0.419,0,0.773-0.061,1.064-0.182c0.29-0.121,0.538-0.278,0.744-0.469c0.148-0.132,0.275-0.3,0.381-0.502
					c0.106-0.202,0.189-0.428,0.248-0.678h-2.482V436.334z"/>
			</g>
			<g>
				<path style="fill:#FFFFFF;" d="M224.019,431.299c-0.006-1.224-0.959-2.121-2.189-2.14c-0.924-0.014-0.832,0.12-0.834-0.867
					c-0.003-1.097-0.007-2.194,0.003-3.292c0.003-0.379-0.112-0.691-0.362-0.976c-2.342-2.668-4.678-5.342-7.019-8.011
					c-0.12-0.137-0.275-0.244-0.414-0.366c-6.214,0-12.427,0-18.641,0c-0.794,0.293-1.14,0.868-1.138,1.709
					c0.01,3.748,0.004,7.496,0.004,11.243c0,0.556-0.003,0.589-0.55,0.551c-1.497-0.102-2.516,0.986-2.497,2.492
					c0.044,3.476,0.013,6.953,0.014,10.429c0.001,1.58,0.867,2.443,2.45,2.449c0.582,0.002,0.582,0.002,0.582,0.6
					c0,2.219-0.001,4.438,0.001,6.657c0.001,1.192,0.58,1.771,1.768,1.771c8.013,0.001,16.027,0.001,24.04,0
					c1.168,0,1.755-0.583,1.757-1.745c0.002-2.256,0-4.512,0.001-6.768c0-0.512,0.002-0.511,0.52-0.515
					c0.271-0.002,0.541,0.008,0.809-0.058c0.997-0.246,1.69-1.044,1.694-2.069C224.034,438.696,224.036,434.997,224.019,431.299z
					 M195.568,417.162c5.337,0,10.674,0,16.01,0c0.548,0,0.554,0.007,0.554,0.561c0.001,2.243-0.001,4.486,0.001,6.73
					c0.001,0.811,0.249,1.059,1.06,1.059c1.91,0.001,3.821,0,5.731,0.001c0.458,0,0.479,0.021,0.481,0.483
					c0.003,0.887,0.002,1.775,0,2.662c-0.001,0.477-0.024,0.498-0.504,0.499c-3.895,0.001-7.79,0-11.684,0
					c-3.882,0-7.765,0-11.647,0c-0.55,0-0.552-0.001-0.552-0.561c-0.001-3.624-0.001-7.247,0-10.871
					C195.018,417.166,195.022,417.162,195.568,417.162z M218.854,451.579c-3.883,0.001-7.766,0-11.65,0c-3.871,0-7.742,0-11.613,0
					c-0.572,0-0.574-0.002-0.574-0.579c-0.001-1.997-0.001-3.994,0.001-5.991c0-0.464,0.023-0.486,0.478-0.487
					c7.803-0.001,15.607-0.001,23.41,0c0.478,0,0.499,0.02,0.499,0.503c0.002,1.997,0.001,3.994,0,5.991
					C219.406,451.574,219.401,451.579,218.854,451.579z"/>
			</g>
			<g>
				<path style="fill:#FFFFFF;" d="M205.111,432.771h1.699l2.967,7.897h-1.644l-0.651-1.886h-3.044l-0.651,1.886h-1.643
					L205.111,432.771z M206.997,437.415l-0.706-1.974l-0.287-0.96h-0.088l-0.287,0.96l-0.706,1.974H206.997z"/>
				<path style="fill:#FFFFFF;" d="M211.331,434.536c-0.125,0-0.245-0.024-0.359-0.072c-0.114-0.048-0.213-0.114-0.298-0.199
					c-0.084-0.084-0.151-0.182-0.198-0.292c-0.048-0.11-0.072-0.232-0.072-0.364s0.024-0.254,0.072-0.364
					c0.048-0.11,0.114-0.208,0.198-0.292c0.084-0.084,0.184-0.151,0.298-0.198c0.114-0.048,0.233-0.072,0.359-0.072
					c0.257,0,0.478,0.09,0.662,0.27c0.184,0.181,0.276,0.399,0.276,0.656s-0.092,0.476-0.276,0.656
					C211.809,434.446,211.589,434.536,211.331,434.536z M210.615,440.669v-5.404h1.445v5.404H210.615z"/>
			</g>
			<g>
				<path style="fill:#FFFFFF;" d="M261.044,431.299c-0.006-1.224-0.959-2.121-2.189-2.14c-0.924-0.014-0.832,0.12-0.834-0.867
					c-0.003-1.097-0.007-2.194,0.003-3.292c0.003-0.379-0.112-0.691-0.362-0.976c-2.342-2.668-4.678-5.342-7.019-8.011
					c-0.12-0.137-0.275-0.244-0.414-0.366c-6.214,0-12.427,0-18.641,0c-0.794,0.293-1.14,0.868-1.138,1.709
					c0.01,3.748,0.004,7.496,0.004,11.243c0,0.556-0.003,0.589-0.55,0.551c-1.497-0.102-2.516,0.986-2.497,2.492
					c0.044,3.476,0.013,6.953,0.014,10.429c0.001,1.58,0.867,2.443,2.45,2.449c0.582,0.002,0.582,0.002,0.582,0.6
					c0,2.219-0.001,4.438,0.001,6.657c0.001,1.192,0.58,1.771,1.768,1.771c8.013,0.001,16.027,0.001,24.04,0
					c1.168,0,1.755-0.583,1.757-1.745c0.002-2.256,0-4.512,0.001-6.768c0-0.512,0.002-0.511,0.52-0.515
					c0.271-0.002,0.541,0.008,0.809-0.058c0.996-0.246,1.69-1.044,1.694-2.069C261.059,438.696,261.061,434.997,261.044,431.299z
					 M232.593,417.162c5.337,0,10.674,0,16.01,0c0.548,0,0.554,0.007,0.554,0.561c0.001,2.243-0.001,4.486,0.001,6.73
					c0.001,0.811,0.249,1.059,1.06,1.059c1.91,0.001,3.821,0,5.731,0.001c0.458,0,0.479,0.021,0.481,0.483
					c0.003,0.887,0.002,1.775,0,2.662c-0.001,0.477-0.024,0.498-0.504,0.499c-3.895,0.001-7.79,0-11.684,0
					c-3.882,0-7.765,0-11.647,0c-0.55,0-0.552-0.001-0.552-0.561c-0.001-3.624-0.001-7.247,0-10.871
					C232.042,417.166,232.047,417.162,232.593,417.162z M255.878,451.579c-3.883,0.001-7.766,0-11.65,0c-3.871,0-7.742,0-11.613,0
					c-0.572,0-0.574-0.002-0.574-0.579c-0.001-1.997-0.001-3.994,0.001-5.991c0-0.464,0.023-0.486,0.478-0.487
					c7.803-0.001,15.607-0.001,23.41,0c0.478,0,0.499,0.02,0.499,0.503c0.002,1.997,0.001,3.994,0,5.991
					C256.431,451.574,256.426,451.579,255.878,451.579z"/>
			</g>
			<g>
				<path style="fill:#FFFFFF;" d="M236.361,440.845c-0.338,0-0.662-0.048-0.971-0.143c-0.309-0.095-0.592-0.239-0.849-0.43
					c-0.257-0.191-0.481-0.425-0.673-0.7c-0.191-0.276-0.342-0.597-0.452-0.965l1.401-0.551c0.103,0.397,0.283,0.726,0.54,0.987
					c0.257,0.261,0.596,0.392,1.015,0.392c0.154,0,0.303-0.02,0.447-0.061c0.143-0.04,0.272-0.099,0.386-0.176
					s0.204-0.175,0.27-0.292c0.066-0.118,0.099-0.254,0.099-0.408c0-0.147-0.026-0.279-0.077-0.397
					c-0.051-0.117-0.138-0.227-0.259-0.331c-0.121-0.103-0.28-0.202-0.475-0.298c-0.195-0.095-0.435-0.195-0.722-0.298l-0.485-0.176
					c-0.213-0.073-0.429-0.173-0.645-0.298c-0.217-0.125-0.413-0.276-0.59-0.452c-0.177-0.176-0.322-0.384-0.436-0.623
					c-0.114-0.239-0.171-0.509-0.171-0.81c0-0.309,0.06-0.597,0.182-0.866c0.121-0.268,0.294-0.503,0.518-0.706
					c0.224-0.202,0.492-0.36,0.805-0.474s0.66-0.171,1.042-0.171c0.397,0,0.74,0.053,1.031,0.16
					c0.291,0.107,0.537,0.243,0.739,0.408c0.202,0.165,0.366,0.348,0.491,0.546c0.125,0.199,0.217,0.386,0.276,0.563l-1.312,0.551
					c-0.074-0.221-0.208-0.419-0.402-0.596c-0.195-0.176-0.462-0.265-0.8-0.265c-0.324,0-0.592,0.075-0.805,0.226
					c-0.213,0.151-0.32,0.348-0.32,0.59c0,0.235,0.103,0.436,0.309,0.601c0.206,0.165,0.533,0.325,0.982,0.48l0.497,0.165
					c0.316,0.111,0.605,0.237,0.866,0.381c0.261,0.143,0.485,0.314,0.673,0.513c0.187,0.199,0.331,0.425,0.43,0.678
					c0.1,0.254,0.149,0.546,0.149,0.877c0,0.412-0.083,0.767-0.248,1.064c-0.165,0.298-0.377,0.542-0.634,0.734
					c-0.258,0.191-0.548,0.335-0.872,0.43C236.986,440.797,236.67,440.845,236.361,440.845z"/>
				<path style="fill:#FFFFFF;" d="M239.516,432.771h1.61l1.633,4.754l0.287,1.015h0.088l0.309-1.015l1.699-4.754h1.61l-2.879,7.897
					h-1.566L239.516,432.771z"/>
				<path style="fill:#FFFFFF;" d="M251.097,436.334h3.871c0.022,0.089,0.04,0.195,0.055,0.32c0.015,0.125,0.023,0.25,0.023,0.375
					c0,0.507-0.078,0.985-0.232,1.434c-0.154,0.449-0.397,0.849-0.728,1.202c-0.353,0.375-0.775,0.666-1.268,0.871
					c-0.493,0.206-1.055,0.309-1.688,0.309c-0.574,0-1.114-0.103-1.621-0.309c-0.507-0.206-0.949-0.492-1.324-0.86
					c-0.375-0.367-0.673-0.803-0.894-1.307c-0.22-0.504-0.331-1.053-0.331-1.649c0-0.595,0.11-1.145,0.331-1.649
					c0.221-0.504,0.518-0.939,0.894-1.307c0.375-0.367,0.816-0.654,1.324-0.86c0.507-0.206,1.047-0.309,1.621-0.309
					c0.64,0,1.211,0.11,1.715,0.331c0.504,0.221,0.936,0.526,1.296,0.915l-1.026,1.004c-0.257-0.272-0.544-0.48-0.861-0.623
					c-0.316-0.143-0.694-0.215-1.136-0.215c-0.36,0-0.702,0.065-1.026,0.193c-0.323,0.129-0.607,0.311-0.849,0.546
					c-0.243,0.235-0.436,0.52-0.579,0.855c-0.143,0.335-0.215,0.708-0.215,1.119c0,0.412,0.072,0.785,0.215,1.12
					c0.143,0.335,0.338,0.62,0.585,0.855c0.246,0.235,0.531,0.418,0.854,0.546c0.324,0.129,0.669,0.193,1.037,0.193
					c0.419,0,0.774-0.061,1.064-0.182c0.29-0.121,0.539-0.278,0.745-0.469c0.147-0.132,0.274-0.3,0.38-0.502
					c0.107-0.202,0.189-0.428,0.248-0.678h-2.482V436.334z"/>
			</g>
			<g>
				<path style="fill:#FFFFFF;" d="M297.3,431.299c-0.006-1.224-0.959-2.121-2.189-2.14c-0.924-0.014-0.832,0.12-0.834-0.867
					c-0.003-1.097-0.007-2.194,0.003-3.292c0.003-0.379-0.112-0.691-0.362-0.976c-2.342-2.668-4.678-5.342-7.019-8.011
					c-0.12-0.137-0.275-0.244-0.414-0.366c-6.214,0-12.427,0-18.641,0c-0.794,0.293-1.14,0.868-1.138,1.709
					c0.01,3.748,0.004,7.496,0.004,11.243c0,0.556-0.003,0.589-0.55,0.551c-1.497-0.102-2.516,0.986-2.497,2.492
					c0.044,3.476,0.013,6.953,0.014,10.429c0.001,1.58,0.867,2.443,2.45,2.449c0.582,0.002,0.582,0.002,0.582,0.6
					c0,2.219-0.001,4.438,0.001,6.657c0.001,1.192,0.58,1.771,1.768,1.771c8.013,0.001,16.027,0.001,24.04,0
					c1.168,0,1.755-0.583,1.757-1.745c0.002-2.256,0-4.512,0.001-6.768c0-0.512,0.002-0.511,0.52-0.515
					c0.271-0.002,0.541,0.008,0.809-0.058c0.996-0.246,1.69-1.044,1.694-2.069C297.315,438.696,297.318,434.997,297.3,431.299z
					 M268.85,417.162c5.337,0,10.674,0,16.01,0c0.548,0,0.554,0.007,0.554,0.561c0.001,2.243-0.001,4.486,0.001,6.73
					c0.001,0.811,0.249,1.059,1.06,1.059c1.91,0.001,3.821,0,5.731,0.001c0.458,0,0.479,0.021,0.481,0.483
					c0.003,0.887,0.002,1.775,0,2.662c-0.001,0.477-0.024,0.498-0.504,0.499c-3.895,0.001-7.79,0-11.684,0
					c-3.882,0-7.765,0-11.647,0c-0.55,0-0.552-0.001-0.552-0.561c-0.001-3.624-0.001-7.247,0-10.871
					C268.299,417.166,268.303,417.162,268.85,417.162z M292.135,451.579c-3.883,0.001-7.766,0-11.65,0c-3.871,0-7.742,0-11.613,0
					c-0.572,0-0.574-0.002-0.574-0.579c-0.001-1.997-0.001-3.994,0.001-5.991c0-0.464,0.023-0.486,0.478-0.487
					c7.803-0.001,15.607-0.001,23.41,0c0.478,0,0.499,0.02,0.499,0.503c0.001,1.997,0.001,3.994,0,5.991
					C292.687,451.574,292.682,451.579,292.135,451.579z"/>
			</g>
			<g>
				<path style="fill:#FFFFFF;" d="M272.966,434.183v1.831h3.165v1.412h-3.165v1.831h3.518v1.412h-5.007v-7.897h5.007v1.412H272.966
					z"/>
				<path style="fill:#FFFFFF;" d="M277.852,440.669v-7.897h2.779c0.375,0,0.726,0.061,1.053,0.182
					c0.327,0.121,0.612,0.292,0.855,0.513c0.243,0.221,0.434,0.483,0.574,0.789c0.14,0.305,0.209,0.642,0.209,1.009
					c0,0.375-0.07,0.715-0.209,1.02c-0.14,0.305-0.331,0.568-0.574,0.789c-0.243,0.221-0.528,0.392-0.855,0.513
					c-0.327,0.121-0.678,0.182-1.053,0.182h-1.29v2.901H277.852z M280.653,436.356c0.389,0,0.684-0.111,0.882-0.331
					c0.199-0.22,0.298-0.474,0.298-0.761c0-0.14-0.024-0.276-0.072-0.408c-0.048-0.132-0.121-0.248-0.221-0.347
					c-0.099-0.099-0.222-0.178-0.37-0.237c-0.147-0.059-0.32-0.089-0.518-0.089h-1.312v2.173H280.653z"/>
				<path style="fill:#FFFFFF;" d="M286.797,440.845c-0.338,0-0.662-0.048-0.971-0.143c-0.309-0.095-0.592-0.239-0.849-0.43
					c-0.257-0.191-0.482-0.425-0.673-0.7c-0.191-0.276-0.342-0.597-0.452-0.965l1.401-0.551c0.103,0.397,0.283,0.726,0.541,0.987
					c0.257,0.261,0.595,0.392,1.015,0.392c0.154,0,0.303-0.02,0.447-0.061c0.143-0.04,0.272-0.099,0.386-0.176
					c0.114-0.077,0.204-0.175,0.27-0.292c0.066-0.118,0.1-0.254,0.1-0.408c0-0.147-0.026-0.279-0.077-0.397
					c-0.051-0.117-0.138-0.227-0.259-0.331c-0.121-0.103-0.279-0.202-0.474-0.298c-0.195-0.095-0.436-0.195-0.723-0.298
					l-0.485-0.176c-0.213-0.073-0.428-0.173-0.645-0.298c-0.217-0.125-0.414-0.276-0.59-0.452c-0.176-0.176-0.322-0.384-0.436-0.623
					c-0.114-0.239-0.171-0.509-0.171-0.81c0-0.309,0.061-0.597,0.182-0.866c0.121-0.268,0.294-0.503,0.518-0.706
					c0.224-0.202,0.493-0.36,0.805-0.474c0.312-0.114,0.66-0.171,1.042-0.171c0.397,0,0.741,0.053,1.031,0.16
					c0.29,0.107,0.537,0.243,0.739,0.408c0.202,0.165,0.365,0.348,0.491,0.546c0.125,0.199,0.217,0.386,0.276,0.563l-1.312,0.551
					c-0.074-0.221-0.208-0.419-0.403-0.596c-0.195-0.176-0.462-0.265-0.799-0.265c-0.324,0-0.592,0.075-0.805,0.226
					c-0.213,0.151-0.32,0.348-0.32,0.59c0,0.235,0.103,0.436,0.309,0.601c0.206,0.165,0.533,0.325,0.982,0.48l0.496,0.165
					c0.316,0.111,0.605,0.237,0.866,0.381c0.261,0.143,0.485,0.314,0.673,0.513c0.187,0.199,0.331,0.425,0.43,0.678
					c0.099,0.254,0.149,0.546,0.149,0.877c0,0.412-0.083,0.767-0.248,1.064c-0.165,0.298-0.377,0.542-0.634,0.734
					c-0.258,0.191-0.548,0.335-0.872,0.43C287.422,440.797,287.105,440.845,286.797,440.845z"/>
			</g>
			<g>
				<path style="fill:#FFFFFF;" d="M321.394,439.168l4.004-4.985h-3.827v-1.412h5.559v1.5l-3.96,4.985h4.004v1.412h-5.779V439.168z"
					/>
				<path style="fill:#FFFFFF;" d="M328.409,432.771h1.489v7.897h-1.489V432.771z"/>
				<path style="fill:#FFFFFF;" d="M331.486,440.669v-7.897h2.779c0.375,0,0.726,0.061,1.053,0.182
					c0.327,0.121,0.612,0.292,0.855,0.513s0.434,0.483,0.574,0.789c0.14,0.305,0.209,0.642,0.209,1.009
					c0,0.375-0.07,0.715-0.209,1.02c-0.14,0.305-0.331,0.568-0.574,0.789c-0.243,0.221-0.528,0.392-0.855,0.513
					c-0.327,0.121-0.678,0.182-1.053,0.182h-1.29v2.901H331.486z M334.288,436.356c0.389,0,0.684-0.111,0.882-0.331
					c0.199-0.22,0.298-0.474,0.298-0.761c0-0.14-0.024-0.276-0.072-0.408c-0.048-0.132-0.121-0.248-0.221-0.347
					c-0.099-0.099-0.222-0.178-0.37-0.237c-0.147-0.059-0.32-0.089-0.518-0.089h-1.312v2.173H334.288z"/>
			</g>
		</g>
		<g style="opacity:0.61;">
			<path style="fill:#FFFFFF;" d="M300.133,433.27h9.067v2.242h-9.067V433.27z M300.133,437.136h9.067v2.243h-9.067V437.136z"/>
		</g>
	</g>
	<g style="opacity:0.61;">
		<path style="fill:#FFFFFF;" d="M156.756,478.878h1.607c1.263,0,2.114,0.812,2.114,1.974c0,1.161-0.851,1.973-2.114,1.973h-1.607
			V478.878z M158.34,482.464c1.049,0,1.725-0.665,1.725-1.612c0-0.947-0.677-1.613-1.725-1.613h-1.167v3.225H158.34z"/>
		<path style="fill:#FFFFFF;" d="M165.139,480.851c0-1.15,0.879-2.007,2.075-2.007c1.184,0,2.069,0.851,2.069,2.007
			c0,1.156-0.885,2.007-2.069,2.007C166.019,482.858,165.139,482.002,165.139,480.851z M168.866,480.851
			c0-0.942-0.705-1.635-1.652-1.635c-0.953,0-1.663,0.693-1.663,1.635c0,0.941,0.71,1.635,1.663,1.635
			C168.162,482.486,168.866,481.793,168.866,480.851z"/>
		<path style="fill:#FFFFFF;" d="M179.596,478.878l-1.331,3.947h-0.44l-1.156-3.366l-1.161,3.366h-0.434l-1.331-3.947h0.429
			l1.139,3.394l1.178-3.394h0.389l1.161,3.411l1.156-3.411H179.596z"/>
		<path style="fill:#FFFFFF;" d="M187.731,478.878v3.947h-0.344l-2.537-3.202v3.202h-0.417v-3.947h0.344l2.543,3.203v-3.203H187.731
			z"/>
		<path style="fill:#FFFFFF;" d="M193.093,478.878h0.417v3.586h2.21v0.361h-2.627V478.878z"/>
		<path style="fill:#FFFFFF;" d="M200.061,480.851c0-1.15,0.879-2.007,2.075-2.007c1.184,0,2.069,0.851,2.069,2.007
			c0,1.156-0.885,2.007-2.069,2.007C200.941,482.858,200.061,482.002,200.061,480.851z M203.788,480.851
			c0-0.942-0.705-1.635-1.652-1.635c-0.953,0-1.663,0.693-1.663,1.635c0,0.941,0.71,1.635,1.663,1.635
			C203.083,482.486,203.788,481.793,203.788,480.851z"/>
		<path style="fill:#FFFFFF;" d="M211.636,481.77h-2.199l-0.474,1.054h-0.434l1.804-3.947h0.412l1.804,3.947h-0.44L211.636,481.77z
			 M211.484,481.432l-0.947-2.12l-0.947,2.12H211.484z"/>
		<path style="fill:#FFFFFF;" d="M217.28,478.878h1.607c1.263,0,2.114,0.812,2.114,1.974c0,1.161-0.851,1.973-2.114,1.973h-1.607
			V478.878z M218.864,482.464c1.049,0,1.725-0.665,1.725-1.612c0-0.947-0.677-1.613-1.725-1.613h-1.167v3.225H218.864z"/>
		<path style="fill:#FFFFFF;" d="M234.041,481.77h-2.199l-0.474,1.054h-0.434l1.804-3.947h0.412l1.804,3.947h-0.44L234.041,481.77z
			 M233.889,481.432l-0.947-2.12l-0.947,2.12H233.889z"/>
		<path style="fill:#FFFFFF;" d="M239.685,478.878h0.417v3.586h2.21v0.361h-2.627V478.878z"/>
		<path style="fill:#FFFFFF;" d="M247.082,478.878h0.417v3.586h2.21v0.361h-2.627V478.878z"/>
		<path style="fill:#FFFFFF;" d="M260.449,479.239v1.551h2.041v0.361h-2.041v1.675h-0.417v-3.947h2.706v0.361H260.449z"/>
		<path style="fill:#FFFFFF;" d="M267.678,478.878h0.417v3.947h-0.417V478.878z"/>
		<path style="fill:#FFFFFF;" d="M273.456,478.878h0.417v3.586h2.21v0.361h-2.627V478.878z"/>
		<path style="fill:#FFFFFF;" d="M283.644,482.464v0.361h-2.791v-3.947h2.706v0.361h-2.289v1.404h2.041v0.355h-2.041v1.466H283.644z
			"/>
		<path style="fill:#FFFFFF;" d="M294.672,479.239v1.551h2.041v0.361h-2.041v1.675h-0.417v-3.947h2.706v0.361H294.672z"/>
		<path style="fill:#FFFFFF;" d="M301.5,480.851c0-1.15,0.879-2.007,2.075-2.007c1.184,0,2.069,0.851,2.069,2.007
			c0,1.156-0.885,2.007-2.069,2.007C302.379,482.858,301.5,482.002,301.5,480.851z M305.226,480.851
			c0-0.942-0.705-1.635-1.652-1.635c-0.953,0-1.663,0.693-1.663,1.635c0,0.941,0.71,1.635,1.663,1.635
			C304.522,482.486,305.226,481.793,305.226,480.851z"/>
		<path style="fill:#FFFFFF;" d="M313.351,482.825l-0.902-1.269c-0.102,0.011-0.203,0.017-0.316,0.017h-1.06v1.252h-0.417v-3.947
			h1.477c1.004,0,1.613,0.507,1.613,1.353c0,0.62-0.327,1.054-0.902,1.24l0.964,1.353H313.351z M313.328,480.231
			c0-0.632-0.417-0.992-1.207-0.992h-1.048v1.979h1.048C312.911,481.218,313.328,480.851,313.328,480.231z"/>
		<path style="fill:#FFFFFF;" d="M322.907,478.878v3.947h-0.4v-3.158l-1.551,2.656h-0.197l-1.551-2.639v3.14h-0.4v-3.947h0.344
			l1.714,2.926l1.697-2.926H322.907z"/>
		<path style="fill:#FFFFFF;" d="M330.744,481.77h-2.199l-0.473,1.054h-0.434l1.804-3.947h0.411l1.804,3.947h-0.44L330.744,481.77z
			 M330.592,481.432l-0.947-2.12l-0.947,2.12H330.592z"/>
		<path style="fill:#FFFFFF;" d="M336.957,479.239h-1.387v-0.361h3.192v0.361h-1.387v3.586h-0.417V479.239z"/>
		<path style="fill:#FFFFFF;" d="M343.063,482.346l0.164-0.321c0.282,0.276,0.784,0.479,1.302,0.479c0.739,0,1.06-0.31,1.06-0.699
			c0-1.083-2.43-0.417-2.43-1.877c0-0.581,0.451-1.083,1.455-1.083c0.446,0,0.908,0.13,1.224,0.35l-0.141,0.333
			c-0.338-0.22-0.733-0.327-1.083-0.327c-0.722,0-1.043,0.321-1.043,0.716c0,1.083,2.43,0.429,2.43,1.866
			c0,0.581-0.462,1.077-1.472,1.077C343.937,482.858,343.356,482.65,343.063,482.346z"/>
	</g>
</g>
<g>
</g>
<g>
	<path style="fill:#231F20;" d="M25,287.543v14.496h4.289v-11.279c0.007,0,0.073-0.019,0.208-0.048
		c0.139-0.026,0.302-0.062,0.507-0.099c0.197-0.037,0.394-0.075,0.599-0.106c0.197-0.024,0.364-0.044,0.5-0.044
		c0.241-0.01,0.492,0.019,0.751,0.081c0.259,0.061,0.481,0.222,0.664,0.465c0.179,0.248,0.277,0.651,0.285,1.194v9.834h4.253
		v-11.279c0.008,0,0.08-0.019,0.223-0.048c0.142-0.026,0.314-0.062,0.521-0.099c0.204-0.037,0.409-0.075,0.613-0.106
		c0.2-0.024,0.368-0.044,0.492-0.044c0.153-0.003,0.317,0,0.5,0.019c0.179,0.014,0.35,0.076,0.515,0.174
		c0.167,0.099,0.302,0.271,0.408,0.51c0.106,0.241,0.16,0.584,0.164,1.037v9.834h4.29v-9.834c-0.004-0.989-0.128-1.796-0.354-2.43
		c-0.237-0.631-0.544-1.127-0.919-1.485c-0.383-0.357-0.795-0.612-1.24-0.769c-0.449-0.161-0.886-0.26-1.317-0.299
		c-0.434-0.038-0.82-0.055-1.16-0.048c-0.486,0-0.967,0.048-1.456,0.15c-0.486,0.092-0.956,0.219-1.404,0.383
		c-0.445,0.157-0.843,0.344-1.208,0.54c-0.408-0.301-0.821-0.535-1.24-0.689c-0.419-0.157-0.843-0.26-1.269-0.311
		c-0.419-0.055-0.843-0.079-1.262-0.072c-0.376,0.007-0.759,0.055-1.146,0.15c-0.394,0.099-0.77,0.219-1.134,0.368
		c-0.365,0.142-0.686,0.288-0.974,0.445l-0.778-0.963L25,287.543L25,287.543z M48.221,294.754c0,1.103,0.168,2.119,0.489,3.04
		c0.321,0.922,0.781,1.724,1.393,2.403c0.602,0.679,1.343,1.201,2.203,1.573c0.872,0.376,1.85,0.558,2.94,0.565
		c1.105-0.007,2.09-0.189,2.959-0.565c0.875-0.371,1.616-0.894,2.225-1.573c0.609-0.679,1.073-1.481,1.394-2.403
		c0.321-0.92,0.485-1.937,0.485-3.04c0-1.101-0.164-2.119-0.485-3.037c-0.329-0.924-0.796-1.726-1.405-2.405
		c-0.616-0.674-1.357-1.199-2.225-1.571c-0.868-0.376-1.856-0.559-2.947-0.566c-1.083,0.007-2.057,0.19-2.922,0.566
		c-0.868,0.372-1.601,0.897-2.21,1.571c-0.609,0.679-1.08,1.481-1.405,2.405C48.389,292.635,48.221,293.652,48.221,294.754
		L48.221,294.754z M52.511,294.754c0-0.561,0.036-1.101,0.124-1.627c0.088-0.529,0.234-1.007,0.445-1.422
		c0.2-0.419,0.478-0.759,0.835-1.007c0.354-0.244,0.795-0.377,1.331-0.384c0.544,0.007,0.992,0.139,1.35,0.384
		c0.354,0.247,0.635,0.587,0.839,1.007c0.205,0.415,0.347,0.893,0.423,1.422c0.087,0.525,0.124,1.066,0.124,1.627
		c0,0.556-0.037,1.091-0.124,1.628c-0.077,0.529-0.219,1.01-0.423,1.447c-0.204,0.431-0.485,0.778-0.839,1.036
		c-0.357,0.26-0.806,0.394-1.35,0.401c-0.536-0.007-0.977-0.141-1.331-0.401c-0.357-0.259-0.635-0.606-0.835-1.036
		c-0.211-0.438-0.357-0.918-0.445-1.447C52.547,295.845,52.511,295.31,52.511,294.754L52.511,294.754z M63.382,287.434
		c0.186,0.547,0.39,1.14,0.613,1.772c0.215,0.634,0.441,1.292,0.678,1.951c0.227,0.665,0.46,1.324,0.69,1.963
		c0.227,0.641,0.441,1.251,0.646,1.821l2.517,7.098h4.472l5.103-14.605h-4.436c-0.321,1.003-0.649,2.053-0.981,3.147
		c-0.328,1.094-0.654,2.189-0.974,3.279c-0.328,1.098-0.635,2.146-0.93,3.148l-0.036,0.113l-2.922-9.688H63.382L63.382,287.434z
		 M85.126,302.039v-14.311l-5.881,0.446v2.659l1.777,0.335v10.871H85.126L85.126,302.039z M80.504,284.034
		c0.008,0.411,0.109,0.785,0.314,1.127c0.208,0.335,0.486,0.609,0.839,0.809c0.343,0.205,0.74,0.31,1.178,0.314
		c0.423-0.003,0.814-0.109,1.164-0.314c0.35-0.201,0.627-0.474,0.839-0.809c0.215-0.342,0.317-0.716,0.325-1.127
		c-0.007-0.416-0.109-0.792-0.325-1.132c-0.211-0.339-0.489-0.609-0.839-0.812c-0.35-0.205-0.741-0.307-1.164-0.314
		c-0.437,0.007-0.835,0.11-1.178,0.314c-0.354,0.204-0.631,0.473-0.839,0.812C80.613,283.242,80.512,283.618,80.504,284.034
		L80.504,284.034z M88.861,287.543v14.496h4.289v-11.279c0.004,0,0.073-0.019,0.208-0.048c0.135-0.026,0.302-0.062,0.507-0.099
		c0.196-0.037,0.394-0.075,0.599-0.106c0.196-0.024,0.36-0.044,0.499-0.044c0.237-0.01,0.493,0.019,0.752,0.081
		c0.255,0.061,0.477,0.222,0.664,0.465c0.179,0.248,0.277,0.651,0.285,1.194v9.834h4.253v-11.279c0.004,0,0.077-0.019,0.219-0.048
		c0.142-0.026,0.314-0.062,0.525-0.099c0.205-0.037,0.409-0.075,0.609-0.106c0.205-0.024,0.372-0.044,0.493-0.044
		c0.157-0.003,0.321,0,0.5,0.019c0.179,0.014,0.354,0.076,0.518,0.174c0.168,0.099,0.303,0.271,0.409,0.51
		c0.102,0.241,0.16,0.584,0.164,1.037v9.834h4.289v-9.834c-0.007-0.989-0.128-1.796-0.357-2.43c-0.234-0.631-0.541-1.127-0.92-1.485
		c-0.379-0.357-0.795-0.612-1.237-0.769c-0.448-0.161-0.89-0.26-1.32-0.299c-0.431-0.038-0.817-0.055-1.156-0.048
		c-0.489,0-0.97,0.048-1.455,0.15c-0.489,0.092-0.956,0.219-1.405,0.383c-0.445,0.157-0.846,0.344-1.207,0.54
		c-0.409-0.301-0.821-0.535-1.24-0.689c-0.42-0.157-0.846-0.26-1.269-0.311c-0.42-0.055-0.843-0.079-1.266-0.072
		c-0.372,0.007-0.755,0.055-1.145,0.15c-0.394,0.099-0.77,0.219-1.134,0.368c-0.361,0.142-0.681,0.288-0.974,0.445l-0.774-0.963
		L88.861,287.543L88.861,287.543z M117.59,302.039v-14.311l-5.876,0.446v2.659l1.773,0.335v10.871H117.59L117.59,302.039z
		 M112.969,284.034c0.007,0.411,0.113,0.785,0.314,1.127c0.211,0.335,0.489,0.609,0.839,0.809c0.347,0.205,0.74,0.31,1.179,0.314
		c0.423-0.003,0.813-0.109,1.163-0.314c0.351-0.201,0.627-0.474,0.839-0.809c0.215-0.342,0.321-0.716,0.324-1.127
		c-0.004-0.416-0.109-0.792-0.324-1.132c-0.212-0.339-0.489-0.609-0.839-0.812c-0.35-0.205-0.74-0.307-1.163-0.314
		c-0.438,0.007-0.832,0.11-1.179,0.314c-0.35,0.204-0.628,0.473-0.839,0.812C113.082,283.242,112.976,283.618,112.969,284.034
		L112.969,284.034z M127.392,287.174c-1.31,0-2.448,0.296-3.432,0.876c-0.989,0.578-1.751,1.429-2.305,2.549
		c-0.555,1.131-0.832,2.513-0.846,4.154c0.007,1.219,0.175,2.314,0.492,3.262c0.329,0.948,0.784,1.751,1.365,2.403
		c0.58,0.661,1.255,1.152,2.028,1.477c0.774,0.332,1.612,0.492,2.513,0.474c0.861-0.025,1.645-0.11,2.353-0.252
		c0.704-0.142,1.314-0.301,1.821-0.481c0.511-0.171,0.904-0.331,1.174-0.463c0.281-0.134,0.416-0.199,0.42-0.208l-0.332-2.59
		c-0.161,0.04-0.402,0.098-0.723,0.175c-0.321,0.072-0.689,0.154-1.094,0.233c-0.412,0.08-0.839,0.147-1.284,0.208
		c-0.437,0.059-0.861,0.089-1.262,0.089c-0.599,0-1.127-0.128-1.591-0.387c-0.464-0.259-0.839-0.642-1.12-1.149
		c-0.284-0.504-0.452-1.127-0.507-1.867l8.098,0.185c0.011-0.041,0.036-0.103,0.073-0.198c0.036-0.091,0.076-0.185,0.113-0.284
		c0.037-0.092,0.062-0.164,0.073-0.222c0.018-0.023,0.044-0.059,0.07-0.103c0.021-0.051,0.04-0.077,0.04-0.08
		c0.018-0.154,0.041-0.322,0.051-0.51c0.018-0.187,0.025-0.376,0.025-0.563c-0.007-1.491-0.255-2.736-0.748-3.734
		c-0.493-0.997-1.208-1.744-2.13-2.245C129.799,287.426,128.69,287.174,127.392,287.174L127.392,287.174z M127.465,290.282
		c0.314,0,0.602,0.095,0.875,0.295c0.27,0.198,0.504,0.497,0.69,0.898c0.186,0.401,0.303,0.901,0.358,1.504h-4.253
		c0.044-0.646,0.142-1.156,0.295-1.525c0.16-0.373,0.354-0.642,0.58-0.81c0.23-0.165,0.467-0.271,0.722-0.306
		C126.984,290.293,127.232,290.275,127.465,290.282L127.465,290.282z M136.858,287.543v14.496h4.286v-11.315
		c0.007-0.007,0.131-0.025,0.354-0.066c0.226-0.044,0.51-0.08,0.85-0.124c0.332-0.043,0.678-0.062,1.018-0.069
		c0.405-0.003,0.77,0.044,1.076,0.142c0.31,0.106,0.554,0.311,0.73,0.616c0.171,0.303,0.263,0.752,0.263,1.351v9.466h4.329v-9.466
		c-0.007-0.833-0.16-1.584-0.452-2.252c-0.296-0.66-0.697-1.226-1.2-1.7c-0.515-0.47-1.08-0.828-1.722-1.072
		c-0.635-0.245-1.298-0.376-1.988-0.376c-0.631,0.007-1.189,0.062-1.689,0.164c-0.493,0.106-0.92,0.229-1.269,0.373
		c-0.358,0.142-0.642,0.27-0.853,0.386l-0.773-0.922L136.858,287.543L136.858,287.543z M159.153,298.267v-7.616h3.034v-2.958h-3.034
		v-3.403l-3.436,0.481c-0.099,0.455-0.218,0.944-0.361,1.466c-0.135,0.525-0.262,1.018-0.379,1.491l-2.294,0.814v2.108h2.294v7.616
		c0.004,0.937,0.172,1.704,0.503,2.295c0.336,0.594,0.792,1.035,1.368,1.316c0.58,0.285,1.251,0.42,2.01,0.42
		c0.47,0,1.007-0.063,1.605-0.194c0.595-0.12,1.218-0.306,1.871-0.547c-0.025-0.325-0.047-0.576-0.073-0.762
		c-0.026-0.179-0.051-0.322-0.073-0.42c-0.025-0.106-0.05-0.204-0.076-0.294l-0.26-1.518c-0.029,0-0.091,0.007-0.179,0.014
		c-0.091,0.003-0.179,0.003-0.27,0.011c-0.088,0.007-0.15,0.011-0.179,0.011c-0.189,0.062-0.401,0.116-0.635,0.174
		c-0.23,0.055-0.448,0.081-0.66,0.084c-0.226,0-0.412-0.044-0.554-0.128C159.233,298.635,159.16,298.483,159.153,298.267
		L159.153,298.267z M164.406,294.754c0,1.103,0.164,2.119,0.486,3.04c0.321,0.922,0.784,1.724,1.393,2.403
		c0.606,0.679,1.343,1.201,2.207,1.573c0.868,0.376,1.849,0.558,2.94,0.565c1.101-0.007,2.086-0.189,2.958-0.565
		c0.875-0.371,1.612-0.894,2.225-1.573c0.609-0.679,1.073-1.481,1.394-2.403c0.318-0.92,0.485-1.937,0.485-3.04
		c0-1.101-0.167-2.119-0.485-3.037c-0.328-0.924-0.795-1.726-1.408-2.405c-0.616-0.674-1.353-1.199-2.225-1.571
		c-0.868-0.376-1.853-0.559-2.944-0.566c-1.087,0.007-2.061,0.19-2.922,0.566c-0.868,0.372-1.601,0.897-2.214,1.571
		c-0.609,0.679-1.076,1.481-1.404,2.405C164.57,292.635,164.406,293.652,164.406,294.754L164.406,294.754z M168.695,294.754
		c0-0.561,0.037-1.101,0.121-1.627c0.087-0.529,0.237-1.007,0.445-1.422c0.204-0.419,0.481-0.759,0.839-1.007
		c0.351-0.244,0.795-0.377,1.331-0.384c0.54,0.007,0.992,0.139,1.35,0.384c0.35,0.247,0.635,0.587,0.839,1.007
		c0.201,0.415,0.343,0.893,0.423,1.422c0.088,0.525,0.124,1.066,0.124,1.627c0,0.556-0.036,1.091-0.124,1.628
		c-0.08,0.529-0.222,1.01-0.423,1.447c-0.204,0.431-0.489,0.778-0.839,1.036c-0.358,0.26-0.81,0.394-1.35,0.401
		c-0.536-0.007-0.981-0.141-1.331-0.401c-0.357-0.259-0.635-0.606-0.839-1.036c-0.208-0.438-0.358-0.918-0.445-1.447
		C168.732,295.845,168.695,295.31,168.695,294.754L168.695,294.754z M198.129,286.806c-0.73,0.065-1.394,0.198-1.999,0.386
		c-0.598,0.19-1.113,0.402-1.55,0.631c-0.445,0.228-0.791,0.431-1.036,0.611l-0.777-1.259l-1.405,0.15
		c-0.186,0.037-0.415,0.065-0.678,0.092c-0.266,0.024-0.562,0.055-0.875,0.091v14.533h4.253v-10.761
		c0.004,0,0.128-0.025,0.358-0.065c0.226-0.045,0.522-0.099,0.886-0.158c0.358-0.054,0.741-0.109,1.138-0.153
		c0.401-0.043,0.777-0.069,1.131-0.069L198.129,286.806L198.129,286.806z M205.709,287.174c-1.305,0-2.447,0.296-3.432,0.876
		c-0.989,0.578-1.751,1.429-2.306,2.549c-0.554,1.131-0.831,2.513-0.845,4.154c0.007,1.219,0.175,2.314,0.496,3.262
		c0.325,0.948,0.781,1.751,1.361,2.403c0.58,0.661,1.258,1.152,2.028,1.477c0.777,0.332,1.616,0.492,2.513,0.474
		c0.865-0.025,1.645-0.11,2.353-0.252c0.704-0.142,1.313-0.301,1.821-0.481c0.51-0.171,0.904-0.331,1.178-0.463
		c0.277-0.134,0.412-0.199,0.416-0.208l-0.332-2.59c-0.161,0.04-0.398,0.098-0.719,0.175c-0.321,0.072-0.693,0.154-1.098,0.233
		c-0.412,0.08-0.839,0.147-1.281,0.208c-0.441,0.059-0.864,0.089-1.265,0.089c-0.599,0-1.127-0.128-1.591-0.387
		c-0.46-0.259-0.839-0.642-1.12-1.149c-0.284-0.504-0.449-1.127-0.507-1.867l8.098,0.185c0.015-0.041,0.036-0.103,0.073-0.198
		c0.04-0.091,0.077-0.185,0.113-0.284c0.037-0.092,0.062-0.164,0.073-0.222c0.018-0.023,0.043-0.059,0.069-0.103
		c0.026-0.051,0.041-0.077,0.041-0.08c0.022-0.154,0.04-0.322,0.051-0.51c0.018-0.187,0.026-0.376,0.026-0.563
		c-0.007-1.491-0.252-2.736-0.748-3.734c-0.493-0.997-1.207-1.744-2.131-2.245C208.117,287.426,207.008,287.174,205.709,287.174
		L205.709,287.174z M205.782,290.282c0.314,0,0.606,0.095,0.875,0.295c0.27,0.198,0.503,0.497,0.69,0.898
		c0.186,0.401,0.302,0.901,0.358,1.504h-4.254c0.044-0.646,0.142-1.156,0.299-1.525c0.157-0.373,0.35-0.642,0.576-0.81
		c0.23-0.165,0.471-0.271,0.722-0.306C205.301,290.293,205.548,290.275,205.782,290.282L205.782,290.282z M227.231,286.769
		c-0.722,0.095-1.382,0.27-1.981,0.507c-0.59,0.248-1.101,0.518-1.532,0.82c-0.518-0.295-1.098-0.52-1.732-0.681
		s-1.32-0.241-2.039-0.241c-1.204,0-2.244,0.178-3.119,0.543c-0.875,0.357-1.554,0.894-2.036,1.602
		c-0.481,0.714-0.718,1.601-0.725,2.662c0.007,0.981,0.222,1.824,0.645,2.532c0.427,0.704,1.01,1.251,1.758,1.646l-1.186,2.994
		l0.591,1.036c-0.004,0-0.084,0.062-0.244,0.185c-0.16,0.128-0.35,0.303-0.587,0.536c-0.233,0.231-0.467,0.504-0.7,0.824
		c-0.234,0.329-0.427,0.686-0.587,1.088c-0.16,0.397-0.241,0.824-0.244,1.287c0.004,0.751,0.179,1.404,0.522,1.967
		c0.347,0.566,0.828,1.036,1.444,1.412c0.609,0.376,1.324,0.657,2.138,0.85c0.806,0.189,1.689,0.28,2.626,0.28
		c0.93-0.003,1.806-0.138,2.619-0.422c0.814-0.277,1.528-0.672,2.148-1.189c0.624-0.511,1.113-1.125,1.463-1.831
		c0.351-0.707,0.529-1.499,0.536-2.361c0.004-0.806-0.105-1.517-0.328-2.134c-0.222-0.617-0.598-1.131-1.12-1.554
		c-0.532-0.415-1.24-0.729-2.138-0.945c-0.901-0.212-2.025-0.321-3.367-0.321h-0.777v-1.149h0.668
		c1.291-0.011,2.378-0.219,3.247-0.638c0.875-0.42,1.528-0.989,1.973-1.704c0.438-0.707,0.657-1.502,0.657-2.389
		c0-0.314-0.011-0.613-0.04-0.894c-0.033-0.277-0.088-0.55-0.179-0.806l1.627-0.15V286.769L227.231,286.769z M217.579,303.334
		c0.004-0.322,0.072-0.624,0.204-0.901c0.121-0.27,0.263-0.507,0.416-0.7c0.16-0.198,0.285-0.347,0.379-0.434
		c0.54-0.007,1.065,0.007,1.576,0.032c0.507,0.022,0.963,0.099,1.376,0.224c0.405,0.12,0.725,0.324,0.966,0.602
		c0.241,0.284,0.365,0.671,0.368,1.178c0,0.35-0.091,0.686-0.28,0.996c-0.194,0.318-0.489,0.57-0.876,0.765
		c-0.39,0.198-0.875,0.303-1.466,0.311c-0.606-0.007-1.106-0.095-1.499-0.274c-0.393-0.178-0.681-0.422-0.875-0.74
		C217.67,304.085,217.579,303.735,217.579,303.334L217.579,303.334z M218.02,291.945c-0.022-0.597,0.113-1.069,0.409-1.407
		c0.295-0.34,0.802-0.512,1.517-0.519c0.708,0.007,1.211,0.179,1.503,0.519c0.288,0.338,0.43,0.809,0.419,1.407
		c0.011,0.576-0.131,1.047-0.419,1.394c-0.292,0.343-0.795,0.521-1.503,0.528c-0.489,0-0.872-0.087-1.149-0.247
		c-0.278-0.16-0.474-0.384-0.591-0.664C218.09,292.668,218.027,292.328,218.02,291.945L218.02,291.945z M235.548,287.174
		c-1.306,0-2.444,0.296-3.432,0.876c-0.985,0.578-1.747,1.429-2.301,2.549c-0.558,1.131-0.836,2.513-0.846,4.154
		c0.007,1.219,0.171,2.314,0.492,3.262c0.329,0.948,0.784,1.751,1.365,2.403c0.577,0.661,1.255,1.152,2.024,1.477
		c0.778,0.332,1.616,0.492,2.517,0.474c0.861-0.025,1.645-0.11,2.352-0.252c0.704-0.142,1.314-0.301,1.821-0.481
		c0.51-0.171,0.904-0.331,1.174-0.463c0.278-0.134,0.413-0.199,0.42-0.208l-0.332-2.59c-0.161,0.04-0.402,0.098-0.723,0.175
		c-0.321,0.072-0.689,0.154-1.097,0.233c-0.413,0.08-0.836,0.147-1.281,0.208c-0.437,0.059-0.861,0.089-1.262,0.089
		c-0.599,0-1.127-0.128-1.591-0.387c-0.463-0.259-0.839-0.642-1.124-1.149c-0.281-0.504-0.448-1.127-0.503-1.867l8.098,0.185
		c0.011-0.041,0.037-0.103,0.073-0.198c0.036-0.091,0.073-0.185,0.109-0.284c0.04-0.092,0.062-0.164,0.076-0.222
		c0.019-0.023,0.044-0.059,0.066-0.103c0.025-0.051,0.044-0.077,0.044-0.08c0.018-0.154,0.037-0.322,0.051-0.51
		c0.018-0.187,0.025-0.376,0.025-0.563c-0.007-1.491-0.255-2.736-0.748-3.734c-0.493-0.997-1.208-1.744-2.134-2.245
		C237.959,287.426,236.85,287.174,235.548,287.174L235.548,287.174z M235.624,290.282c0.314,0,0.602,0.095,0.875,0.295
		c0.27,0.198,0.503,0.497,0.689,0.898c0.183,0.401,0.303,0.901,0.358,1.504h-4.253c0.044-0.646,0.142-1.156,0.295-1.525
		c0.16-0.373,0.35-0.642,0.58-0.81c0.227-0.165,0.467-0.271,0.722-0.306C235.143,290.293,235.387,290.275,235.624,290.282
		L235.624,290.282z M245.017,287.543v14.496h4.286v-11.315c0.007-0.007,0.132-0.025,0.354-0.066c0.227-0.044,0.51-0.08,0.85-0.124
		c0.332-0.043,0.679-0.062,1.018-0.069c0.405-0.003,0.77,0.044,1.076,0.142c0.306,0.106,0.555,0.311,0.73,0.616
		c0.171,0.303,0.263,0.752,0.263,1.351v9.466h4.326v-9.466c-0.007-0.833-0.161-1.584-0.449-2.252c-0.295-0.66-0.697-1.226-1.2-1.7
		c-0.515-0.47-1.079-0.828-1.721-1.072c-0.635-0.245-1.302-0.376-1.992-0.376c-0.627,0.007-1.189,0.062-1.689,0.164
		c-0.493,0.106-0.916,0.229-1.266,0.373c-0.361,0.142-0.642,0.27-0.854,0.386l-0.777-0.922L245.017,287.543L245.017,287.543z
		 M267.494,287.174c-1.301,0-2.443,0.296-3.428,0.876c-0.988,0.578-1.751,1.429-2.306,2.549c-0.555,1.131-0.832,2.513-0.846,4.154
		c0.007,1.219,0.175,2.314,0.493,3.262c0.328,0.948,0.784,1.751,1.364,2.403c0.576,0.661,1.258,1.152,2.028,1.477
		c0.774,0.332,1.616,0.492,2.514,0.474c0.864-0.025,1.645-0.11,2.352-0.252c0.703-0.142,1.312-0.301,1.82-0.481
		c0.511-0.171,0.905-0.331,1.178-0.463c0.274-0.134,0.413-0.199,0.416-0.208l-0.332-2.59c-0.161,0.04-0.402,0.098-0.719,0.175
		c-0.325,0.072-0.693,0.154-1.098,0.233c-0.411,0.08-0.839,0.147-1.284,0.208c-0.435,0.059-0.86,0.089-1.262,0.089
		c-0.597,0-1.127-0.128-1.591-0.387c-0.462-0.259-0.835-0.642-1.12-1.149c-0.284-0.504-0.452-1.127-0.507-1.867l8.099,0.185
		c0.01-0.041,0.04-0.103,0.073-0.198c0.037-0.091,0.075-0.185,0.112-0.284c0.037-0.092,0.059-0.164,0.073-0.222
		c0.018-0.023,0.044-0.059,0.069-0.103c0.022-0.051,0.041-0.077,0.041-0.08c0.022-0.154,0.04-0.322,0.051-0.51
		c0.018-0.187,0.025-0.376,0.025-0.563c-0.007-1.491-0.255-2.736-0.748-3.734c-0.493-0.997-1.207-1.744-2.134-2.245
		C269.906,287.426,268.797,287.174,267.494,287.174L267.494,287.174z M267.571,290.282c0.314,0,0.606,0.095,0.875,0.295
		c0.27,0.198,0.503,0.497,0.69,0.898c0.185,0.401,0.301,0.901,0.356,1.504h-4.249c0.04-0.646,0.138-1.156,0.295-1.525
		c0.157-0.373,0.35-0.642,0.576-0.81c0.23-0.165,0.47-0.271,0.723-0.306C267.09,290.293,267.337,290.275,267.571,290.282
		L267.571,290.282z M285.212,286.806c-0.73,0.065-1.394,0.198-1.999,0.386c-0.599,0.19-1.117,0.402-1.553,0.631
		c-0.446,0.228-0.789,0.431-1.036,0.611l-0.774-1.259l-1.408,0.15c-0.183,0.037-0.412,0.065-0.679,0.092
		c-0.263,0.024-0.558,0.055-0.875,0.091v14.533h4.253v-10.761c0.007,0,0.131-0.025,0.358-0.065c0.229-0.045,0.525-0.099,0.886-0.158
		c0.358-0.054,0.741-0.109,1.142-0.153c0.401-0.043,0.778-0.069,1.128-0.069L285.212,286.806L285.212,286.806z M299.482,298.931
		h-1.223v-7.136c-0.011-0.777-0.175-1.455-0.503-2.032c-0.325-0.579-0.752-1.061-1.282-1.443c-0.528-0.381-1.1-0.672-1.724-0.862
		c-0.617-0.192-1.222-0.284-1.813-0.284c-0.376,0.007-0.803,0.055-1.281,0.154c-0.474,0.098-0.956,0.222-1.444,0.364
		c-0.486,0.147-0.942,0.295-1.357,0.445c-0.412,0.138-0.745,0.263-0.996,0.361c-0.259,0.099-0.39,0.15-0.397,0.157l1.036,2.586
		c0.006,0,0.112-0.03,0.309-0.081c0.198-0.054,0.449-0.116,0.762-0.188c0.31-0.081,0.635-0.157,0.981-0.234
		c0.347-0.076,0.668-0.138,0.97-0.192c0.299-0.048,0.532-0.081,0.711-0.081c0.353,0,0.661,0.074,0.933,0.212
		c0.271,0.135,0.486,0.332,0.638,0.576c0.161,0.248,0.238,0.544,0.241,0.876v1.481c-0.003,0-0.106-0.012-0.306-0.037
		c-0.201-0.018-0.456-0.045-0.777-0.074c-0.329-0.031-0.672-0.058-1.055-0.075c-0.376-0.025-0.751-0.038-1.116-0.038
		c-0.591,0-1.168,0.106-1.725,0.303c-0.569,0.205-1.08,0.5-1.536,0.879c-0.453,0.383-0.82,0.857-1.087,1.404
		c-0.274,0.559-0.415,1.187-0.419,1.89c0.004,0.696,0.146,1.317,0.412,1.871c0.27,0.555,0.627,1.029,1.073,1.423
		c0.441,0.39,0.929,0.692,1.459,0.901c0.536,0.212,1.065,0.314,1.601,0.314c0.536-0.004,1.055-0.072,1.547-0.208
		c0.5-0.127,0.948-0.291,1.356-0.471c0.402-0.181,0.73-0.349,0.981-0.503c0,0.007,0.055,0.069,0.165,0.189
		c0.105,0.116,0.252,0.259,0.438,0.416c0.186,0.16,0.394,0.295,0.627,0.412c0.233,0.109,0.474,0.164,0.73,0.164
		c0.368-0.011,0.758-0.072,1.179-0.182c0.411-0.106,0.805-0.23,1.174-0.364c0.368-0.135,0.671-0.26,0.905-0.365
		c0.237-0.099,0.361-0.153,0.368-0.16L299.482,298.931L299.482,298.931z M291.828,299.118c-0.284-0.005-0.54-0.08-0.762-0.227
		c-0.226-0.15-0.397-0.346-0.521-0.58c-0.127-0.233-0.193-0.482-0.193-0.744c0.003-0.393,0.147-0.722,0.416-0.973
		c0.273-0.255,0.631-0.39,1.061-0.398h2.218v2.663c-0.011,0.007-0.135,0.026-0.368,0.069c-0.233,0.044-0.525,0.079-0.864,0.124
		C292.474,299.095,292.15,299.113,291.828,299.118L291.828,299.118z M312.537,287.693c-0.007,0-0.124-0.026-0.357-0.073
		c-0.23-0.052-0.525-0.106-0.884-0.168c-0.356-0.062-0.733-0.116-1.134-0.168c-0.394-0.047-0.762-0.072-1.101-0.072
		c-1.011,0-1.958,0.142-2.842,0.434c-0.883,0.288-1.659,0.73-2.331,1.343c-0.674,0.61-1.207,1.385-1.601,2.341
		c-0.394,0.957-0.616,2.095-0.66,3.425c-0.018,1.314,0.124,2.441,0.445,3.389c0.313,0.953,0.758,1.726,1.334,2.338
		c0.573,0.61,1.248,1.066,2.01,1.361c0.766,0.296,1.583,0.449,2.458,0.457c0.489,0.014,1.011-0.044,1.573-0.161
		c0.561-0.111,1.134-0.27,1.714-0.477c0.58-0.212,1.135-0.46,1.67-0.73c-0.043-0.303-0.088-0.587-0.138-0.84
		c-0.055-0.251-0.076-0.43-0.083-0.528c0-0.055-0.008-0.154-0.011-0.288c-0.007-0.147-0.007-0.282-0.014-0.419
		c-0.007-0.139-0.011-0.234-0.011-0.292c-0.08,0.033-0.241,0.072-0.482,0.135c-0.241,0.068-0.529,0.13-0.875,0.195
		c-0.35,0.07-0.719,0.125-1.12,0.169c-0.398,0.043-0.792,0.062-1.186,0.055c-0.576-0.012-1.072-0.139-1.466-0.388
		c-0.398-0.24-0.716-0.564-0.949-0.973c-0.241-0.412-0.409-0.876-0.5-1.386c-0.099-0.518-0.135-1.053-0.117-1.616
		c0.018-0.561,0.08-1.101,0.178-1.618c0.099-0.525,0.248-0.992,0.442-1.405c0.193-0.423,0.442-0.748,0.73-0.99
		c0.295-0.233,0.645-0.356,1.054-0.349h3.846L312.537,287.693L312.537,287.693z M320.226,302.039v-14.311l-5.876,0.446v2.659
		l1.772,0.335v10.871H320.226L320.226,302.039z M315.605,284.034c0.003,0.411,0.109,0.785,0.313,1.127
		c0.212,0.335,0.489,0.609,0.839,0.809c0.346,0.205,0.74,0.31,1.179,0.314c0.422-0.003,0.813-0.109,1.163-0.314
		c0.35-0.201,0.627-0.474,0.839-0.809c0.216-0.342,0.322-0.716,0.325-1.127c-0.003-0.416-0.109-0.792-0.325-1.132
		c-0.212-0.339-0.489-0.609-0.839-0.812c-0.35-0.205-0.741-0.307-1.163-0.314c-0.439,0.007-0.833,0.11-1.179,0.314
		c-0.35,0.204-0.627,0.473-0.839,0.812C315.714,283.242,315.608,283.618,315.605,284.034L315.605,284.034z M322.74,294.754
		c0,1.103,0.168,2.119,0.489,3.04c0.318,0.922,0.782,1.724,1.393,2.403c0.603,0.679,1.343,1.201,2.207,1.573
		c0.868,0.376,1.847,0.558,2.94,0.565c1.103-0.007,2.088-0.189,2.955-0.565c0.876-0.371,1.616-0.894,2.228-1.573
		c0.61-0.679,1.069-1.481,1.392-2.403c0.321-0.92,0.489-1.937,0.489-3.04c0-1.101-0.168-2.119-0.489-3.037
		c-0.326-0.924-0.796-1.726-1.406-2.405c-0.617-0.674-1.357-1.199-2.225-1.571c-0.867-0.376-1.853-0.559-2.944-0.566
		c-1.086,0.007-2.06,0.19-2.921,0.566c-0.868,0.372-1.605,0.897-2.215,1.571c-0.608,0.679-1.079,1.481-1.404,2.405
		C322.907,292.635,322.74,293.652,322.74,294.754L322.74,294.754z M327.03,294.754c0-0.561,0.039-1.101,0.123-1.627
		c0.089-0.529,0.233-1.007,0.445-1.422c0.201-0.419,0.481-0.759,0.839-1.007c0.351-0.244,0.795-0.377,1.331-0.384
		c0.541,0.007,0.993,0.139,1.347,0.384c0.354,0.247,0.638,0.587,0.839,1.007c0.205,0.415,0.346,0.893,0.428,1.422
		c0.082,0.525,0.123,1.066,0.123,1.627c0,0.556-0.041,1.091-0.123,1.628c-0.081,0.529-0.223,1.01-0.428,1.447
		c-0.201,0.431-0.484,0.778-0.839,1.036c-0.354,0.26-0.806,0.394-1.347,0.401c-0.536-0.007-0.98-0.141-1.331-0.401
		c-0.357-0.259-0.638-0.606-0.839-1.036c-0.212-0.438-0.356-0.918-0.445-1.447C327.069,295.845,327.03,295.31,327.03,294.754
		L327.03,294.754z M331.355,286.806l2.777-4.958h-4.181l-1.85,4.958H331.355L331.355,286.806z M340.085,287.543v14.496h4.289
		v-11.315c0.003-0.007,0.128-0.025,0.35-0.066c0.23-0.044,0.51-0.08,0.85-0.124c0.332-0.043,0.679-0.062,1.018-0.069
		c0.405-0.003,0.77,0.044,1.075,0.142c0.311,0.106,0.559,0.311,0.73,0.616c0.171,0.303,0.263,0.752,0.263,1.351v9.466h4.33v-9.466
		c-0.007-0.833-0.16-1.584-0.453-2.252c-0.294-0.66-0.696-1.226-1.202-1.7c-0.508-0.47-1.077-0.828-1.719-1.072
		c-0.634-0.245-1.298-0.376-1.987-0.376c-0.631,0.007-1.194,0.062-1.689,0.164c-0.498,0.106-0.92,0.229-1.27,0.373
		c-0.357,0.142-0.641,0.27-0.849,0.386l-0.778-0.922L340.085,287.543L340.085,287.543z M365.229,287.543v14.496h4.289v-11.315
		c0.007-0.007,0.127-0.025,0.351-0.066c0.229-0.044,0.51-0.08,0.85-0.124c0.331-0.043,0.678-0.062,1.017-0.069
		c0.409-0.003,0.77,0.044,1.079,0.142c0.307,0.106,0.556,0.311,0.727,0.616c0.174,0.303,0.266,0.752,0.266,1.351v9.466h4.323v-9.466
		c-0.003-0.833-0.157-1.584-0.446-2.252c-0.298-0.66-0.696-1.226-1.202-1.7c-0.511-0.47-1.081-0.828-1.719-1.072
		c-0.634-0.245-1.301-0.376-1.992-0.376c-0.626,0.007-1.189,0.062-1.688,0.164c-0.494,0.106-0.92,0.229-1.269,0.373
		c-0.358,0.142-0.642,0.27-0.85,0.386l-0.778-0.922L365.229,287.543L365.229,287.543z M394.403,298.931h-1.221v-7.136
		c-0.011-0.777-0.175-1.455-0.504-2.032c-0.325-0.579-0.751-1.061-1.285-1.443c-0.528-0.381-1.101-0.672-1.72-0.862
		c-0.621-0.192-1.222-0.284-1.814-0.284c-0.376,0.007-0.803,0.055-1.281,0.154c-0.477,0.098-0.956,0.222-1.444,0.364
		c-0.485,0.147-0.945,0.295-1.357,0.445c-0.411,0.138-0.744,0.263-0.996,0.361c-0.259,0.099-0.391,0.15-0.398,0.157l1.037,2.586
		c0.007,0,0.112-0.03,0.308-0.081c0.198-0.054,0.45-0.116,0.763-0.188c0.311-0.081,0.634-0.157,0.98-0.234
		c0.347-0.076,0.665-0.138,0.968-0.192c0.301-0.048,0.535-0.081,0.714-0.081c0.354,0,0.662,0.074,0.931,0.212
		c0.27,0.135,0.489,0.332,0.641,0.576c0.161,0.248,0.237,0.544,0.24,0.876v1.481c-0.003,0-0.106-0.012-0.305-0.037
		c-0.201-0.018-0.456-0.045-0.781-0.074c-0.325-0.031-0.668-0.058-1.055-0.075c-0.372-0.025-0.751-0.038-1.113-0.038
		c-0.59,0-1.167,0.106-1.725,0.303c-0.568,0.205-1.08,0.5-1.536,0.879c-0.455,0.383-0.82,0.857-1.09,1.404
		c-0.27,0.559-0.412,1.187-0.419,1.89c0.007,0.696,0.15,1.317,0.412,1.871c0.274,0.555,0.63,1.029,1.073,1.423
		c0.444,0.39,0.932,0.692,1.462,0.901c0.537,0.212,1.066,0.314,1.602,0.314c0.535-0.004,1.055-0.072,1.546-0.208
		c0.499-0.127,0.949-0.291,1.357-0.471c0.401-0.181,0.726-0.349,0.981-0.503c0,0.007,0.055,0.069,0.164,0.189
		c0.106,0.116,0.252,0.259,0.438,0.416c0.183,0.16,0.394,0.295,0.627,0.412c0.234,0.109,0.474,0.164,0.727,0.164
		c0.372-0.011,0.758-0.072,1.178-0.182c0.416-0.106,0.806-0.23,1.179-0.364c0.367-0.135,0.671-0.26,0.905-0.365
		c0.233-0.099,0.356-0.153,0.363-0.16L394.403,298.931L394.403,298.931z M386.749,299.118c-0.284-0.005-0.543-0.08-0.766-0.227
		c-0.222-0.15-0.393-0.346-0.518-0.58c-0.127-0.233-0.197-0.482-0.197-0.744c0.008-0.393,0.15-0.722,0.419-0.973
		c0.272-0.255,0.628-0.39,1.062-0.398h2.218v2.663c-0.01,0.007-0.134,0.026-0.368,0.069c-0.236,0.044-0.525,0.079-0.864,0.124
		C387.396,299.095,387.067,299.113,386.749,299.118L386.749,299.118z M407.454,287.693c-0.003,0-0.123-0.026-0.356-0.073
		c-0.227-0.052-0.522-0.106-0.879-0.168c-0.358-0.062-0.734-0.116-1.134-0.168c-0.395-0.047-0.763-0.072-1.102-0.072
		c-1.01,0-1.961,0.142-2.845,0.434c-0.879,0.288-1.656,0.73-2.327,1.343c-0.679,0.61-1.208,1.385-1.601,2.341
		c-0.398,0.957-0.617,2.095-0.66,3.425c-0.019,1.314,0.123,2.441,0.441,3.389c0.318,0.953,0.758,1.726,1.339,2.338
		c0.573,0.61,1.248,1.066,2.009,1.361c0.767,0.296,1.584,0.449,2.458,0.457c0.487,0.014,1.012-0.044,1.573-0.161
		c0.562-0.111,1.135-0.27,1.715-0.477c0.58-0.212,1.13-0.46,1.67-0.73c-0.045-0.303-0.089-0.587-0.139-0.84
		c-0.055-0.251-0.079-0.43-0.083-0.528c0-0.055-0.007-0.154-0.014-0.288c-0.003-0.147-0.003-0.282-0.011-0.419
		c-0.007-0.139-0.014-0.234-0.014-0.292c-0.076,0.033-0.237,0.072-0.478,0.135c-0.24,0.068-0.529,0.13-0.874,0.195
		c-0.351,0.07-0.723,0.125-1.121,0.169c-0.397,0.043-0.791,0.062-1.186,0.055c-0.579-0.012-1.072-0.139-1.467-0.388
		c-0.4-0.24-0.714-0.564-0.948-0.973c-0.24-0.412-0.408-0.876-0.5-1.386c-0.099-0.518-0.138-1.053-0.116-1.616
		c0.017-0.561,0.079-1.101,0.178-1.618c0.095-0.525,0.244-0.992,0.442-1.405c0.192-0.423,0.441-0.748,0.729-0.99
		c0.296-0.233,0.645-0.356,1.055-0.349h3.845L407.454,287.693L407.454,287.693z M415.148,302.039v-14.311l-5.881,0.446v2.659
		l1.776,0.335v10.871H415.148L415.148,302.039z M410.526,284.034c0.004,0.411,0.11,0.785,0.314,1.127
		c0.208,0.335,0.49,0.609,0.839,0.809c0.347,0.205,0.737,0.31,1.178,0.314c0.423-0.003,0.814-0.109,1.164-0.314
		c0.35-0.201,0.627-0.474,0.836-0.809c0.218-0.342,0.324-0.716,0.328-1.127c-0.004-0.416-0.11-0.792-0.328-1.132
		c-0.209-0.339-0.486-0.609-0.836-0.812c-0.35-0.205-0.741-0.307-1.164-0.314c-0.441,0.007-0.831,0.11-1.178,0.314
		c-0.349,0.204-0.631,0.473-0.839,0.812C410.636,283.242,410.53,283.618,410.526,284.034L410.526,284.034z M418.402,294.754
		c0,1.103,0.167,2.119,0.484,3.04c0.322,0.922,0.785,1.724,1.395,2.403c0.605,0.679,1.342,1.201,2.206,1.573
		c0.869,0.376,1.85,0.558,2.941,0.565c1.101-0.007,2.09-0.189,2.958-0.565c0.875-0.371,1.615-0.894,2.225-1.573
		c0.609-0.679,1.073-1.481,1.394-2.403c0.318-0.92,0.484-1.937,0.484-3.04c0-1.101-0.167-2.119-0.484-3.037
		c-0.328-0.924-0.799-1.726-1.404-2.405c-0.621-0.674-1.358-1.199-2.225-1.571c-0.872-0.376-1.858-0.559-2.948-0.566
		c-1.084,0.007-2.057,0.19-2.921,0.566c-0.869,0.372-1.602,0.897-2.215,1.571c-0.61,0.679-1.075,1.481-1.405,2.405
		C418.569,292.635,418.402,293.652,418.402,294.754L418.402,294.754z M422.691,294.754c0-0.561,0.037-1.101,0.125-1.627
		c0.082-0.529,0.233-1.007,0.441-1.422c0.205-0.419,0.481-0.759,0.839-1.007c0.35-0.244,0.795-0.377,1.331-0.384
		c0.544,0.007,0.993,0.139,1.349,0.384c0.351,0.247,0.635,0.587,0.84,1.007c0.201,0.415,0.347,0.893,0.423,1.422
		c0.087,0.525,0.124,1.066,0.124,1.627c0,0.556-0.037,1.091-0.124,1.628c-0.076,0.529-0.223,1.01-0.423,1.447
		c-0.205,0.431-0.489,0.778-0.84,1.036c-0.356,0.26-0.805,0.394-1.349,0.401c-0.536-0.007-0.981-0.141-1.331-0.401
		c-0.357-0.259-0.634-0.606-0.839-1.036c-0.208-0.438-0.358-0.918-0.441-1.447C422.728,295.845,422.691,295.31,422.691,294.754
		L422.691,294.754z M435.743,287.543v14.496h4.29v-11.315c0.007-0.007,0.13-0.025,0.349-0.066c0.231-0.044,0.511-0.08,0.85-0.124
		c0.336-0.043,0.682-0.062,1.019-0.069c0.407-0.003,0.773,0.044,1.079,0.142c0.306,0.106,0.554,0.311,0.726,0.616
		c0.172,0.303,0.267,0.752,0.267,1.351v9.466h4.325v-9.466c-0.007-0.833-0.16-1.584-0.452-2.252c-0.295-0.66-0.692-1.226-1.2-1.7
		c-0.51-0.47-1.079-0.828-1.717-1.072c-0.635-0.245-1.303-0.376-1.992-0.376c-0.628,0.007-1.189,0.062-1.69,0.164
		c-0.492,0.106-0.915,0.229-1.269,0.373c-0.356,0.142-0.638,0.27-0.85,0.386l-0.776-0.922L435.743,287.543L435.743,287.543z
		 M464.922,298.931H463.7v-7.136c-0.012-0.777-0.18-1.455-0.508-2.032c-0.325-0.579-0.751-1.061-1.284-1.443
		c-0.529-0.381-1.101-0.672-1.722-0.862c-0.616-0.192-1.222-0.284-1.813-0.284c-0.376,0.007-0.798,0.055-1.279,0.154
		c-0.474,0.098-0.96,0.222-1.444,0.364c-0.487,0.147-0.942,0.295-1.354,0.445c-0.412,0.138-0.748,0.263-1,0.361
		c-0.26,0.099-0.39,0.15-0.394,0.157l1.035,2.586c0.007,0,0.11-0.03,0.307-0.081c0.197-0.054,0.453-0.116,0.761-0.188
		c0.31-0.081,0.638-0.157,0.985-0.234c0.344-0.076,0.661-0.138,0.963-0.192c0.303-0.048,0.54-0.081,0.719-0.081
		c0.35,0,0.656,0.074,0.93,0.212c0.27,0.135,0.486,0.332,0.638,0.576c0.16,0.248,0.237,0.544,0.241,0.876v1.481
		c-0.004,0-0.103-0.012-0.311-0.037c-0.193-0.018-0.452-0.045-0.773-0.074c-0.33-0.031-0.672-0.058-1.055-0.075
		c-0.376-0.025-0.752-0.038-1.116-0.038c-0.592,0-1.163,0.106-1.726,0.303c-0.566,0.205-1.076,0.5-1.535,0.879
		c-0.457,0.383-0.817,0.857-1.091,1.404c-0.27,0.559-0.411,1.187-0.42,1.89c0.009,0.696,0.151,1.317,0.413,1.871
		c0.273,0.555,0.631,1.029,1.077,1.423c0.441,0.39,0.929,0.692,1.458,0.901c0.536,0.212,1.066,0.314,1.601,0.314
		c0.536-0.004,1.055-0.072,1.551-0.208c0.496-0.127,0.949-0.291,1.353-0.471c0.402-0.181,0.726-0.349,0.981-0.503
		c0,0.007,0.055,0.069,0.165,0.189c0.105,0.116,0.255,0.259,0.437,0.416c0.187,0.16,0.398,0.295,0.631,0.412
		c0.233,0.109,0.474,0.164,0.727,0.164c0.368-0.011,0.758-0.072,1.174-0.182c0.416-0.106,0.81-0.23,1.179-0.364
		c0.371-0.135,0.671-0.26,0.908-0.365c0.234-0.099,0.357-0.153,0.361-0.16L464.922,298.931L464.922,298.931z M457.265,299.118
		c-0.284-0.005-0.544-0.08-0.762-0.227c-0.223-0.15-0.394-0.346-0.518-0.58c-0.131-0.233-0.2-0.482-0.2-0.744
		c0.007-0.393,0.15-0.722,0.419-0.973c0.274-0.255,0.628-0.39,1.062-0.398h2.218v2.663c-0.011,0.007-0.135,0.026-0.373,0.069
		c-0.233,0.044-0.521,0.079-0.86,0.124C457.913,299.095,457.585,299.113,457.265,299.118L457.265,299.118z M472.351,280.258
		l-4.18,0.446v21.336h4.18V280.258L472.351,280.258z"/>
	<path style="fill:#A01622;" d="M39.781,193.174l3.929,4.866c4.304-2.247,10.856-4.866,16.469-4.866
		c6.361,0,12.909,0.746,19.086,5.428c5.423-2.993,13.284-5.428,20.58-5.428c8.422,0,25.261,0.374,25.261,25.449v49.772h-21.705
		v-49.772c0-9.168-5.052-8.796-8.047-8.796c-2.433,0-9.353,1.499-9.353,1.499v57.07H64.483v-49.772c0-8.421-5.052-8.796-8.609-8.796
		c-2.619,0-9.17,1.499-9.17,1.499v57.07H25v-73.348L39.781,193.174L39.781,193.174z M475,264.565
		c-0.504,0.238-11.191,5.238-18.32,5.416c-5.051,0.19-9.913-5.985-9.913-5.985c-3.743,2.244-11.603,5.985-19.651,5.985
		c-10.667,0-23.014-8.79-23.014-22.825c0-14.225,12.347-22.644,24.138-22.644c7.3,0,16.466,1.124,16.466,1.124v-7.487
		c0-5.048-3.928-8.419-9.166-8.419c-4.305,0-18.9,3.931-18.9,3.931l-5.234-13.101c0,0,18.333-7.482,27.689-7.482
		c11.786,0,26.943,7.672,26.943,23.39v36.111h6.175L475,264.471V264.565L475,264.565z M444.706,252.205v-13.47h-11.225
		c-4.304,0-7.485,2.993-7.485,6.923c0,3.93,3.181,7.859,7.485,7.859C438.157,253.517,444.706,252.205,444.706,252.205
		L444.706,252.205L444.706,252.205z M346.155,193.079l3.932,4.675c3.177-1.68,9.732-4.675,19.274-4.675
		c13.844,0,27.128,10.476,27.128,27.318v47.904h-21.892v-47.904c0-9.168-4.301-10.666-10.477-10.666
		c-5.051,0-11.228,1.312-11.228,1.312v57.258h-21.704v-73.352L346.155,193.079L346.155,193.079z M323.137,227.302
		c0,1.871-0.185,3.93-0.372,5.428c0,0-0.376,0.75-0.561,0.936c-0.19,0.748-1.125,2.995-1.31,3.557l-40.978-0.938
		c0.747,11.228,7.298,17.216,16.28,17.216c8.047,0,18.899-2.809,22.077-3.557l1.685,13.101c0,0-11.79,6.734-29.189,7.11
		c-18.151,0.372-32.374-13.851-32.374-38.55c0-24.885,13.661-38.356,33.307-38.356C311.351,193.249,323.137,204.663,323.137,227.302
		L323.137,227.302z M280.287,222.628h21.522c-0.752-9.172-5.052-13.663-9.729-13.663C287.4,208.965,281.038,209.341,280.287,222.628
		L280.287,222.628L280.287,222.628z M255.216,211.772c-6.923,0-17.775,2.247-17.775,2.247v54.45h-21.518v-73.537
		c3.181-0.374,5.99-0.56,7.858-0.935l7.109-0.748l3.932,6.364c3.735-2.618,12.133-7.285,23.144-8.231h0.059L255.216,211.772
		L255.216,211.772z M171.508,193.174c22.08,0,35.741,16.092,35.741,38.356c0,22.269-13.475,38.362-35.741,38.362
		c-22.083,0-35.55-16.093-35.55-38.362C135.957,209.266,149.614,193.174,171.508,193.174L171.508,193.174z M171.508,254.362
		c11.042,0,13.843-11.791,13.843-22.832c0-11.224-2.801-22.452-13.843-22.452c-10.852,0-13.843,11.229-13.843,22.452
		C157.665,242.571,160.656,254.362,171.508,254.362L171.508,254.362L171.508,254.362z"/>
</g>
</svg>
