<?xml version="1.0" encoding="UTF-8"?>
<svg version="1.1" xmlns="http://www.w3.org/2000/svg" width="480" height="480">
<path d="M0 0 C158.4 0 316.8 0 480 0 C480 158.4 480 316.8 480 480 C321.6 480 163.2 480 0 480 C0 321.6 0 163.2 0 0 Z " fill="#FDFDFE" transform="translate(0,0)"/>
<path d="M0 0 C158.4 0 316.8 0 480 0 C480 158.4 480 316.8 480 480 C321.6 480 163.2 480 0 480 C0 321.6 0 163.2 0 0 Z M109 50 C108.03578125 50.69351563 107.0715625 51.38703125 106.078125 52.1015625 C86.82537266 66.21692238 68.98705006 82.57257389 55 102 C54.22527344 103.06476563 53.45054688 104.12953125 52.65234375 105.2265625 C15.42248534 157.71874708 3.45981613 218.84468687 13 282 C13.14429443 283.0533252 13.14429443 283.0533252 13.29150391 284.12792969 C20.55595515 336.36083901 55.5709745 389.80988538 97.02929688 421.36938477 C98.67649216 422.59359363 100.33541383 423.79957728 102 425 C103.56234375 426.1446875 103.56234375 426.1446875 105.15625 427.3125 C154.99497854 462.84109856 216.4556902 477.36799325 277.09765625 468.16015625 C315.78454675 461.3712351 352.29330502 445.62531327 383 421 C383.99644531 420.20722656 384.99289062 419.41445313 386.01953125 418.59765625 C399.21298866 407.88079341 411.85740932 395.65771237 422 382 C422.45149414 381.3925293 422.90298828 380.78505859 423.36816406 380.15917969 C453.70667253 339.03542134 470.26982874 291.86015553 470.1875 240.625 C470.18689575 239.92645905 470.1862915 239.22791809 470.18566895 238.50820923 C470.07861363 192.65393521 457.43019309 146.39463057 430 109 C429.30648438 108.03578125 428.61296875 107.0715625 427.8984375 106.078125 C413.7782881 86.81883996 397.42113658 69.00562734 378 55 C376.9584375 54.236875 375.916875 53.47375 374.84375 52.6875 C352.76910828 36.95112175 328.91597909 25.81820168 303 18 C302.25991699 17.77586426 301.51983398 17.55172852 300.75732422 17.32080078 C237.95053023 -1.35808308 161.94948641 11.15980787 109 50 Z " fill="#05338D" transform="translate(0,0)"/>
<path d="M0 0 C0.98484375 0.78117187 1.9696875 1.56234375 2.984375 2.3671875 C17.59909233 14.20777244 30.99354618 27.73771737 42 43 C42.763125 44.0415625 43.52625 45.083125 44.3125 46.15625 C80.59573583 97.05356692 94.07814757 158.43567435 84.50048828 220.06152344 C76.57913444 266.5695307 54.30226084 307.9814498 22 342 C21.24178955 342.80123291 21.24178955 342.80123291 20.46826172 343.61865234 C-6.92530618 372.36182539 -42.23841693 391.60827634 -80 403 C-80.74008301 403.22413574 -81.48016602 403.44827148 -82.24267578 403.67919922 C-139.34795858 420.66244064 -203.16881584 410.9064416 -255 383 C-265.87296145 376.81854505 -276.24177516 369.82293444 -286 362 C-286.98484375 361.21882813 -287.9696875 360.43765625 -288.984375 359.6328125 C-303.59909233 347.79222756 -316.99354618 334.26228263 -328 319 C-328.763125 317.9584375 -329.52625 316.916875 -330.3125 315.84375 C-344.56475884 295.85099801 -355.05132136 274.1827399 -363 251 C-363.38929688 249.8965625 -363.77859375 248.793125 -364.1796875 247.65625 C-382.46745845 192.6511715 -374.72627738 128.59896114 -349.2578125 77.4296875 C-344.40243507 67.87743427 -339.31121625 58.67634138 -333 50 C-332.30519531 49.03320312 -331.61039062 48.06640625 -330.89453125 47.0703125 C-316.76728809 27.81725545 -300.42120794 10.0056788 -281 -4 C-279.9584375 -4.763125 -278.916875 -5.52625 -277.84375 -6.3125 C-197.62074295 -63.50117829 -89.10304914 -63.52063032 0 0 Z M-288 36 C-288.78246094 36.72832031 -289.56492187 37.45664063 -290.37109375 38.20703125 C-325.97700908 72.41663618 -346.90225535 124.06021363 -348.24609375 173 C-349.10546525 230.0692042 -329.29012702 283.0018392 -289.7421875 324.44140625 C-252.96391805 362.30234961 -201.37282992 385.22465321 -148.51953125 386.16796875 C-90.9360266 386.56298726 -38.60625681 365.6404826 2.79345703 325.44311523 C41.26895757 287.30772279 61.79434115 234.33816661 62.375 180.5625 C62.27154496 124.11436693 38.72674014 73.11995555 -0.4375 33.25 C-39.17136844 -5.19923144 -93.05712857 -24.44011306 -147.02661133 -24.37036133 C-201.26359819 -23.50668022 -249.0571508 -0.69305599 -288 36 Z " fill="#FCFDFE" transform="translate(383,59)"/>
<path d="M0 0 C23.36337446 20.64702613 40.9974533 46.39523422 53.30078125 74.953125 C53.57374023 75.58476562 53.84669922 76.21640625 54.12792969 76.8671875 C74.18579499 124.27217942 73.42064355 180.45762761 54.30078125 227.953125 C33.48981557 278.48585535 -5.34136871 320.4638645 -56.109375 341.92041016 C-71.81916337 348.18477712 -87.99155862 353.25075542 -104.69921875 355.953125 C-105.36405273 356.06736816 -106.02888672 356.18161133 -106.71386719 356.29931641 C-126.6594179 359.62357486 -147.75275764 358.94647998 -167.69921875 355.953125 C-168.37952148 355.85128906 -169.05982422 355.74945313 -169.76074219 355.64453125 C-174.44566772 354.91229976 -179.0747344 353.99950019 -183.69921875 352.953125 C-184.37710449 352.80037109 -185.05499023 352.64761719 -185.75341797 352.49023438 C-222.81915619 343.82977331 -254.31546775 323.75487113 -281.69921875 297.953125 C-282.87291016 296.86064453 -282.87291016 296.86064453 -284.0703125 295.74609375 C-321.17878936 260.09285127 -340.90162659 206.78013004 -342.03808594 156.05664062 C-342.36678173 123.84445339 -335.63118739 92.98398311 -321.69921875 63.953125 C-321.33570313 63.19563965 -320.9721875 62.4381543 -320.59765625 61.65771484 C-297.39241703 14.13079728 -254.55112649 -23.05419261 -204.88671875 -40.734375 C-133.46540392 -65.2116838 -56.83684719 -49.22347971 0 0 Z M-170.71337891 -23.50439453 C-172.80008912 -23.02363538 -174.89372179 -22.59427123 -176.9921875 -22.16796875 C-222.56260399 -12.570959 -262.72613671 17.25579987 -288.00830078 55.95703125 C-311.96058131 93.64171057 -322.04438512 139.76982083 -313.69921875 183.953125 C-313.54855957 184.7786084 -313.39790039 185.6040918 -313.24267578 186.45458984 C-307.33714235 217.79759866 -292.94321833 247.1886509 -271.69921875 270.953125 C-270.44861657 272.41094196 -269.19852811 273.86919997 -267.94921875 275.328125 C-244.76846278 301.51581866 -212.66075993 319.55074583 -178.77978516 327.45605469 C-176.85080371 327.91690968 -174.93611854 328.43652548 -173.0234375 328.9609375 C-161.75379214 331.74161506 -150.44724248 332.29609725 -138.88671875 332.203125 C-138.18411926 332.19969086 -137.48151978 332.19625671 -136.75762939 332.19271851 C-126.28755695 332.13281903 -116.01860255 331.87924886 -105.69921875 329.953125 C-104.90032227 329.81310059 -104.10142578 329.67307617 -103.27832031 329.52880859 C-56.35835806 321.05152461 -15.93014113 293.15042283 11.49536133 254.62475586 C36.57519177 218.38971172 48.19384111 170.54665225 41.31640625 126.8046875 C40.3718785 121.65465374 39.22500804 116.56873948 37.94140625 111.49316406 C37.38205274 109.27536149 36.87575908 107.0560168 36.39453125 104.8203125 C26.08530149 60.62426268 -6.1387694 22.78445181 -43.84326172 -0.90332031 C-62.8757713 -12.63027044 -83.73612857 -20.10366096 -105.69921875 -24.046875 C-106.39015625 -24.17674805 -107.08109375 -24.30662109 -107.79296875 -24.44042969 C-127.60810129 -28.00595505 -151.06286661 -28.03461709 -170.71337891 -23.50439453 Z " fill="#07358E" transform="translate(376.69921875,87.046875)"/>
<path d="M0 0 C10.23 0 20.46 0 31 0 C34.37193963 7.86785914 34.37193963 7.86785914 35.32421875 11.328125 C35.65413818 12.50749634 35.65413818 12.50749634 35.99072266 13.71069336 C36.22065918 14.54866455 36.4505957 15.38663574 36.6875 16.25 C37.20831829 18.11104619 37.73052594 19.97170395 38.25390625 21.83203125 C38.53250488 22.82283691 38.81110352 23.81364258 39.09814453 24.83447266 C41.04043398 31.65194018 43.08186644 38.4405288 45.1081543 45.23339844 C47.46267298 53.14113996 49.73291676 61.06520867 52 69 C52.33 46.23 52.66 23.46 53 0 C64.22 0 75.44 0 87 0 C87 70.29 87 140.58 87 213 C76.11 213 65.22 213 54 213 C53.01 210.03 52.02 207.06 51 204 C50.41798828 202.30617188 50.41798828 202.30617188 49.82421875 200.578125 C46.79407192 191.70635491 44.1575188 182.75205688 41.625 173.7265625 C39.47090291 166.13544152 37.22652746 158.57019336 35 151 C34.67 171.46 34.34 191.92 34 213 C22.78 213 11.56 213 0 213 C0 142.71 0 72.42 0 0 Z " fill="#09358F" transform="translate(294,133)"/>
<path d="M0 0 C14.19 0 28.38 0 43 0 C46.43938463 13.75753854 46.43938463 13.75753854 47.54296875 20.77734375 C47.67222244 21.56955826 47.80147614 22.36177277 47.93464661 23.17799377 C48.21180231 24.8779349 48.48687847 26.57821622 48.76000977 28.27880859 C49.50892667 32.93654991 50.27578013 37.59133235 51.04296875 42.24609375 C51.20223846 43.21352509 51.36150818 44.18095642 51.52560425 45.17770386 C53.25593796 55.63540891 55.12426153 66.06757932 57 76.5 C59.62345131 91.10900752 62.14998519 105.72968212 64.5625 120.375 C66.81408169 134.04025089 69.1595659 147.68415618 71.625 161.3125 C71.77036194 162.11625061 71.91572388 162.92000122 72.06549072 163.74810791 C72.35384457 165.34216615 72.64221514 166.93622136 72.93060303 168.53027344 C73.07080872 169.30532227 73.2110144 170.08037109 73.35546875 170.87890625 C73.49390198 171.64396484 73.63233521 172.40902344 73.77496338 173.19726562 C75.19243627 181.04299793 76.57424141 188.89468026 77.9375 196.75 C78.14906738 197.95825439 78.36063477 199.16650879 78.57861328 200.41137695 C78.76794434 201.50796631 78.95727539 202.60455566 79.15234375 203.734375 C79.31726318 204.68538086 79.48218262 205.63638672 79.65209961 206.61621094 C80 209 80 209 80 212 C68.45 212 56.9 212 45 212 C43.35 202.76 41.7 193.52 40 184 C27.79 184 15.58 184 3 184 C1.35 193.24 -0.3 202.48 -2 212 C-13.55 212 -25.1 212 -37 212 C-34.69225799 196.99967696 -34.69225799 196.99967696 -33.5546875 190.34375 C-33.42406418 189.57528244 -33.29344086 188.80681488 -33.15885925 188.01506042 C-32.73233613 185.50979384 -32.3038965 183.0048613 -31.875 180.5 C-31.72449188 179.61962067 -31.57398376 178.73924133 -31.41891479 177.83218384 C-27.11338891 152.66752915 -22.66729077 127.52642632 -18.06640625 102.4140625 C-17.90683945 101.54281738 -17.74727264 100.67157227 -17.58287048 99.77392578 C-17.42283035 98.90010254 -17.26279022 98.0262793 -17.09790039 97.12597656 C-16.77356892 95.35482345 -16.44926881 93.58366459 -16.125 91.8125 C-15.96530731 90.94057007 -15.80561462 90.06864014 -15.64108276 89.17028809 C-12.06052536 69.58906569 -8.68686938 49.97242739 -5.32470703 30.3527832 C-5.11841675 29.14935272 -4.91212646 27.94592224 -4.69958496 26.70602417 C-4.31475056 24.45940899 -3.9305069 22.2126925 -3.54699707 19.96585083 C-3.28517639 18.43575882 -3.28517639 18.43575882 -3.01806641 16.87475586 C-2.86898834 16.00153183 -2.71991028 15.1283078 -2.5663147 14.22862244 C-1.73368197 9.48169159 -0.86212073 4.74166401 0 0 Z " fill="#08348F" transform="translate(211,134)"/>
<path d="M0 0 C76 0 76 0 84 5 C86.05859375 7.83203125 86.05859375 7.83203125 87.4375 10.8125 C87.91058594 11.78832031 88.38367188 12.76414063 88.87109375 13.76953125 C91.09053522 20.12066652 91.14938972 26.70741564 91.14526367 33.36865234 C91.14862228 34.16330399 91.1519809 34.95795563 91.15544128 35.77668762 C91.1648691 38.37978721 91.16689015 40.98282194 91.16796875 43.5859375 C91.17118665 45.41142808 91.17455111 47.2369184 91.17805481 49.06240845 C91.1840254 52.88015338 91.18589681 56.69787574 91.18530273 60.515625 C91.18520115 65.38634847 91.19885904 70.25692605 91.21607494 75.12761497 C91.22724009 78.89562636 91.22922057 82.66360295 91.22869301 86.43162918 C91.2298661 88.22641122 91.23424983 90.02119435 91.24202538 91.81595993 C91.29560087 105.45729833 91.32927723 119.01185995 82.625 130.375 C78.68222705 134.31777295 75.12882658 136.14257701 69.55517578 136.34057617 C67.85181426 136.33983364 66.14839954 136.32355592 64.4453125 136.29296875 C63.64536865 136.28994751 62.8454248 136.28692627 62.02124023 136.28381348 C59.05569408 136.26821126 56.090333 136.22632765 53.125 136.1875 C46.48375 136.125625 39.8425 136.06375 33 136 C33 161.74 33 187.48 33 214 C22.11 214 11.22 214 0 214 C0 143.38 0 72.76 0 0 Z " fill="#08348F" transform="translate(99,133)"/>
<path d="M0 0 C5.94 0 11.88 0 18 0 C22.46250811 4.46250811 23.12143139 5.2289918 23.14526367 11.10473633 C23.15164352 12.16956741 23.15802338 13.2343985 23.16459656 14.33149719 C23.16570938 15.48667343 23.1668222 16.64184967 23.16796875 17.83203125 C23.17129715 19.01592941 23.17462555 20.19982758 23.17805481 21.41960144 C23.18312577 23.92890025 23.18546308 26.43820583 23.18530273 28.94750977 C23.18748498 32.78608349 23.20562753 36.62436796 23.22460938 40.46289062 C23.22754409 42.89843652 23.22952836 45.33398377 23.23046875 47.76953125 C23.23765427 48.9186348 23.24483978 50.06773834 23.25224304 51.25166321 C23.24916641 52.32595078 23.24608978 53.40023834 23.24291992 54.50708008 C23.24434494 55.44924881 23.24576996 56.39141754 23.24723816 57.36213684 C22.9753541 60.26295497 22.30093232 62.39865407 21 65 C14.73191505 68.13404247 7.00793201 66 0 66 C0 44.22 0 22.44 0 0 Z " fill="#FAFBFC" transform="translate(132,169)"/>
<path d="M0 0 C0.33 0 0.66 0 1 0 C1 12.87 1 25.74 1 39 C-11.87 39 -24.74 39 -38 39 C-34.79199197 37.39599599 -31.71684939 36.13590887 -28.375 34.875 C-16.01498155 29.71119205 -7.70957319 20.97324917 -2.625 8.625 C-1.55882947 5.77878823 -0.68929084 2.95989595 0 0 Z " fill="#000000" transform="translate(479,441)"/>
<path d="M0 0 C1.60400401 3.20800803 2.86409113 6.28315061 4.125 9.625 C8.83800988 20.9059945 16.561443 29.13232804 27.71875 34.24609375 C29.39240907 34.91801864 31.07651039 35.56499804 32.7734375 36.17578125 C35 37 35 37 39 39 C26.13 39 13.26 39 0 39 C0 26.13 0 13.26 0 0 Z " fill="#000000" transform="translate(0,441)"/>
<path d="M0 0 C12.87 0 25.74 0 39 0 C39 12.87 39 25.74 39 39 C37.39599599 35.79199197 36.13590887 32.71684939 34.875 29.375 C30.16199012 18.0940055 22.438557 9.86767196 11.28125 4.75390625 C9.60759093 4.08198136 7.92348961 3.43500196 6.2265625 2.82421875 C4 2 4 2 0 0 Z " fill="#000000" transform="translate(441,0)"/>
<path d="M0 0 C12.87 0 25.74 0 39 0 C35.79199197 1.60400401 32.71684939 2.86409113 29.375 4.125 C18.0940055 8.83800988 9.86767196 16.561443 4.75390625 27.71875 C4.08198136 29.39240907 3.43500196 31.07651039 2.82421875 32.7734375 C2 35 2 35 0 39 C0 26.13 0 13.26 0 0 Z " fill="#000000" transform="translate(0,0)"/>
<path d="M0 0 C2.48975686 2.48975686 2.55857122 3.95230134 3.18359375 7.390625 C3.38766846 8.48689209 3.59174316 9.58315918 3.80200195 10.71264648 C4.01171631 11.87997314 4.22143066 13.0472998 4.4375 14.25 C4.87641603 16.62131397 5.3165112 18.99241002 5.7578125 21.36328125 C5.96954102 22.50748535 6.18126953 23.65168945 6.39941406 24.83056641 C7.33436224 29.76450835 8.41006484 34.66100447 9.51953125 39.55859375 C10 42 10 42 10 45 C4.06 45 -1.88 45 -8 45 C-7.31542429 35.45450765 -5.35873471 26.23074206 -3.4375 16.875 C-3.1043679 15.23446627 -2.77168195 13.59384189 -2.43945312 11.953125 C-1.63144244 7.96768602 -0.81740234 3.98352291 0 0 Z " fill="#F4F6FA" transform="translate(232,241)"/>
</svg>
