<?xml version="1.0" encoding="utf-8"?>
<!-- Generator: Adobe Illustrator 19.2.1, SVG Export Plug-In . SVG Version: 6.00 Build 0)  -->
<svg version="1.1" id="layer" xmlns="http://www.w3.org/2000/svg" xmlns:xlink="http://www.w3.org/1999/xlink" x="0px" y="0px"
	 viewBox="0 0 652 652" style="enable-background:new 0 0 652 652;" xml:space="preserve">
<style type="text/css">
	.st0{fill:#353838;}
	.st1{fill:#FFFFFF;}
	.st2{fill:#E3051B;}
</style>
<path d="M550.7,270.2c0.3,0.8,0.8,1.3,1.3,1c0.8,0,1.5-0.5,2.8-2.3c3.6-4.6,8.4-11.2,15-19.8c1.5-2,2.5-3.3,6.4-4.1
	c6.1-1.3,10.4-2.3,18.6-4.1c3.8-0.8,7.1,1.3,8.1,7.1c4.8,27.2,14.2,79.8,17.3,99.4c0,0-30.5-18.8-50.8-31.8c-2-1.3-5.8-1.5-3.8,4.8
	c1.8,5.6,5.6,17.5,10.2,31.3c0.3,0.8,0.8,2-0.3,2.8c0.5,0.8,1,1.3,1.5,2c1,1,1.8,0.5,2.5,0.3c0.8-0.3,2-0.8,4.6-2.3
	c2.5-1.3,4.3-1.3,5.1,0.5c4.3,10.4,4.3,10.4,4.3,10.4l-7.6-6.4l1,7.4l-7.6-6.4l0.8,7.4l-5.6-6.6l-8.9,1.5c0,0,6.4-4.1,7.1-4.6
	s0-1.3-0.8-2.3c-1.3,0.3-2-0.5-2.5-1c-0.5-0.3-18.3-15.8-18.3-15.8s6.4,19.1,11.4,33.8c0.5,1.8,0.5,3-1,4.8
	c-4.1,4.1-10.7,10.7-10.7,10.7l-10.4-36.6l3,39.6c0.3,3.6-0.3,4.6-2.5,6.9c-2.5,2.5-9.1,9.1-9.1,9.1s-8.4-5.3-10.7-6.9
	c-1.3-1-2.3-2.3-1.8-5.6l4.8-40.2l-11.7,40.7c0,0-8.1-5.3-10.2-6.9c-1-0.8-2-1.5-1-4.1c1-2.5,10.9-36.8,10.9-36.8
	s-17,21.1-17.8,21.9s-1,1-2,1.3c-0.5,1-1,1.8-0.3,2c1.3,0.5,6.1,2.3,6.1,2.3l-7.9,1.3l-5.6,8.6l0.5-7.6l-7.6,8.9l1-7.9l-8.6,9.4
	c0,0,0.8-1.8,5.3-10.9c1-2.3,1.8-3,4.3-2.8c2.8,0.3,5.6,0.5,5.6,0.5c0.5,0,2,0.3,2.5-0.8c0.8-1.8,1.3-2.5,1.5-3.6
	c-0.8-0.3-0.8-1.5-0.5-2c8.9-31.3,7.6-26.2,9.7-34.6c1-3.8-1.5-5.1-3.3-3.3c-14.5,14.7-35.1,35.6-47.8,48.5c0,0,9.4-60.2,16-101.1
	c1-6.1,2-8.9,5.8-9.9c6.4-1.3,13.5-2.8,19.3-4.1c3.3-0.8,5.8,1,7.4,2.3c8.6,7.9,10.7,9.9,13.2,12.2c1,1,1.8,1.3,2.3,1.3
	c0.8-0.3,1-1.3,1.3-2.3c3.3-9.7,9.4-26.7,10.2-29.2c-1.8-0.5-4.3-1.5-5.1-5.6c1.8,1.3,4.3,0.5,7.9-0.3c4.3-1,16-3.6,20.1-4.3
	c2.8-0.5,6.1-1.3,7.1,3c0.8,2.5,1.3,5.3,2,8.4c-4.6-4.6-12.7-1.3-9.9,5.6C547.1,261.1,548.9,266.2,550.7,270.2"/>
<polygon class="st0" points="523,343.4 523,297.9 519.7,305.3 501.9,308.6 515.3,284.7 498.3,311.4 520.9,307.1 520.9,345.5 
	540,340.4 "/>
<polygon class="st0" points="546.6,293.9 540,295.2 540,297.4 "/>
<polygon class="st1" points="554.7,276.6 546.9,291.6 538.2,293.4 538.2,339.1 525.3,341.4 525.3,296.2 521.2,296.9 517.4,304 
	505.4,306.3 517.1,284.2 "/>
<polygon points="372.5,246.9 373.8,239.5 371.8,239.5 369.5,252.2 371.5,252.2 372,248.6 374.1,248.6 373,253.7 372.5,254.2 
	368,254.2 367.4,253.7 370.2,238.2 370.7,237.7 375.3,237.7 375.8,238.2 374.3,246.9 "/>
<polygon points="383.2,252.2 382.7,254 377.1,254 380.2,237.7 385.7,237.7 385.5,239.5 381.7,239.5 380.4,246.9 382.2,246.9 
	381.9,248.6 379.9,248.6 379.4,252.2 "/>
<path d="M393.9,246.9l-1,1l0.8,1l-1,5.6h-1.8l1-5.6h-1.8l-1,5.6h-1.8l2.8-16.3h5.1l0.5,0.5L393.9,246.9z M393.4,239.5h-1.8l-1.3,7.4
	h1.8L393.4,239.5z"/>
<polygon points="405.3,237.7 400.5,254 398.7,254 399.7,237.7 401.5,237.7 401,246.1 403.5,237.7 "/>
<polygon points="412.4,252.2 412.2,254 406.6,254 409.4,237.7 415.2,237.7 414.7,239.5 410.9,239.5 409.6,246.9 411.7,246.9 
	411.4,248.6 409.4,248.6 408.9,252.2 "/>
<polygon points="422.3,252.2 422.1,254.2 416.5,254.2 416.7,252.2 422.6,239.5 419,239.5 419.3,237.7 424.9,237.7 424.6,239.5 
	418.5,252.2 "/>
<path d="M434.5,238.2l-2.8,16H430l1-5.6h-1.8l-1,5.6h-1.8l2.8-16l0.5-0.5h4.6L434.5,238.2z M432.5,239.5h-1.8l-1.3,7.4h1.8
	L432.5,239.5z"/>
<path class="st1" d="M414.7,358.4c-0.8,3.6-4.3,6.6-7.9,6.6c-3.8,0-6.4-3-5.6-6.6c0.8-3.6,4.3-6.6,7.9-6.6
	C412.9,351.8,415.5,354.9,414.7,358.4"/>
<path d="M408.9,354.1c2.3,0,4.1,1.8,3.6,4.3c-0.5,2.3-2.8,4.3-5.1,4.3c-2.3,0-4.1-1.8-3.6-4.3C404,356.1,406.3,354.1,408.9,354.1
	 M408.9,353.1c-3,0-5.8,2.3-6.4,5.3c-0.5,2.8,1.5,5.3,4.6,5.3c3,0,5.8-2.3,6.4-5.3C414,355.4,411.9,353.1,408.9,353.1"/>
<path d="M406.8,355.6h1.8c0.3,0,0.5,0,0.8,0c0.3,0,0.3,0.3,0.5,0.3c0.3,0.3,0.3,0.3,0.3,0.5c0,0.3,0,0.5,0,0.5c0,0.3-0.3,0.5-0.5,1
	c-0.3,0.3-0.5,0.5-0.8,0.5l0.5,2.3h-1l-0.5-2h-0.3l-0.5,2h-1L406.8,355.6z M408.1,357.9c0.3,0,0.3,0,0.5-0.3l0.3-0.3
	c0-0.3,0-0.3,0-0.3l-0.3-0.3h-0.5l-0.3,1L408.1,357.9z"/>
<path class="st1" d="M380.9,327.2h12.5l22.4-29h-29.5l1-5.6H416l24.1-30.5H62.2l-33,41.4H66l-10.9,62h31.3l13-73.2h13l-10.9,60.5
	c-1,6.1,2.8,11.7,8.9,12.7c0.8,0,1.3,0.3,2,0.3h34.8l16.8-21.3l-1.5,8.4c-1,6.1,2.8,11.7,8.9,12.7c0.8,0,1.3,0.3,2,0.3H233
	l11.4-20.8h11.4l-3.6,20.8h30.2l13-73.2H311l-13,73.2h31.3l13-73.2h13.2l-10.7,60.2c-1,6.1,2.8,11.7,8.9,12.7c0.8,0.3,1.3,0.3,2,0.3
	h38.9l23.4-30.2h-38.9L380.9,327.2z M165.4,335.6h-29.7l1.5-8.4h12.5l16-20.8l1.5-8.1h-24.7l1-5.6h29.7L165.4,335.6z M241.4,292.6
	l-23.6,42.9h-20.6l7.6-42.9H241.4z"/>
<path class="st2" d="M125,266.9L108.7,288H95l-13,73.2H60.5l13-73.2h-6.4l-8.6,11.2H38.6l24.7-32L125,266.9z M368.5,266.9h-65.1
	l-3.8,21.1h17.3l-13,73.2h21.6l13-73.2h13.7L368.5,266.9z M295.3,266.9l-16.5,94h-20.6l3.6-20.6h-19.3L231,361h-20.3
	c0,0,0,0,46.8-87.4c1.3-2.3,3-6.6,9.1-6.6C268.8,266.9,295.3,266.9,295.3,266.9 M265,322.3l6.1-34.6l-20.1,34.6H265z M133.4,322.3
	h14l15-19.6h-25.7l2.5-15h30.5l16.3-21.1h-51.8l-16.5,21.1l-11.7,65.8c-0.8,4.1,2,7.4,6.4,7.4h32.5l16.3-20.6h-31L133.4,322.3z
	 M376.8,322.3h14l15-19.6h-25.7l2.5-15h30.5l16.3-21.1h-51.8l-16.5,21.1l-11.7,65.8c-0.8,4.1,2,7.4,6.4,7.4h36.6l16-20.6h-34.8
	L376.8,322.3z M240.1,287.8l11.4-21.1h-56.4l-16.5,21.1l-11.7,65.8c-0.8,4.1,2,7.4,6.4,7.4H203l11.2-20.8h-22.9l9.4-52.6
	L240.1,287.8z"/>
<polygon points="165.4,335.6 173,292.6 143.3,292.6 142.3,298.2 167.2,298.2 160.6,335.6 "/>
<polygon points="387,292.6 386,298.2 415.7,292.6 "/>
<polygon points="265,304.6 257.2,319 262.5,319 "/>
<polygon points="204.8,292.6 204,298.2 233.3,298.2 212.7,335.6 217.8,335.6 241.4,292.6 "/>
<polygon points="137.2,327.2 136.2,332.8 149.7,327.2 "/>
<polygon points="380.9,327.2 379.9,332.8 393.1,327.2 "/>
<polygon points="298.3,365.8 311.3,292.6 295.5,292.6 294.5,298.2 305.2,298.2 292.2,370.6 329.6,365.8 "/>
<polygon points="252.6,365.8 256.1,345 244.7,345 241.7,350.6 250,350.6 246.5,370.6 282.6,365.8 "/>
<path d="M112.3,365.8c-7.1,0-11.9-6.4-10.7-13.2l10.7-60h-13l-1,5.6h7.9L96,354.6c-2,10.9,7.1,17,13.7,16
	c37.6-4.8,37.6-4.8,37.6-4.8H112.3z"/>
<path d="M173,365.8c-6.9,0-11.9-6.4-10.7-13l1.5-8.4l-6.6,8.4c-2,10.9,6.4,18.6,12.7,18c6.4-0.5,63-4.8,63-4.8L173,365.8z"/>
<path d="M355.8,365.8c-6.9,0-11.9-6.1-10.9-12.7l10.7-60.5h-13.2l-1,5.6h7.9l-9.7,55.9c-2,10.9,7.9,17.3,14.2,16.8
	c6.4-0.8,40.9-4.8,40.9-4.8L355.8,365.8z"/>
<polygon points="54.9,365.8 66,303.5 29.2,303.5 61.7,262.1 20.1,308.6 59.9,308.6 49,370.6 86.4,365.8 "/>
</svg>
