<?xml version="1.0" encoding="UTF-8"?>
<svg id="Layer_1" data-name="Layer 1" xmlns="http://www.w3.org/2000/svg" viewBox="0 0 1350 1350">
  <defs>
    <style>
      .cls-1 {
        fill: #fff;
      }

      .cls-1, .cls-2 {
        stroke-width: 0px;
      }

      .cls-2 {
        fill: #ef8c16;
      }
    </style>
  </defs>
  <path class="cls-2" d="m872.21,605.47c-7.24,0-14.45.71-21.58,2.09.05-1.21.08-2.39.08-3.6,0-44.73-29.57-96.99-112.92-96.99-17.19,0-34.62,2.37-51.73,6.91-12.96-4.54-27.58-6.91-43.67-6.91-105.16,0-208.35,103.19-208.35,208.35,0,67.74,42.1,109.82,109.85,109.82,46.19,0,92.02-19.92,128.88-51.18,19.39-2.75,38.7-8.32,57.18-16.46,3.63,41.98,32.3,67.64,76.59,67.64,70.54,0,139.82-67.84,142.57-138.31.08-1.21.1-2.42.1-3.63v-.73c0-47.5-29.5-77-77-77Zm0,132.03c-14.27,0-21.51-7.21-21.51-21.48,0-26.4,27.93-54.31,54.33-54.31,14.14,0,21.38,7.11,21.48,21.2v.28c0,.35,0,.68-.03,1.03,0,.48-.03.96-.05,1.44-1.66,25.64-28.67,51.83-54.23,51.83Zm-328.33,64.95c-55.39,0-87.16-31.77-87.16-87.13,0-91.97,93.69-185.66,185.66-185.66.55,0,1.13,0,1.69.03-17.35,8.55-33.81,19.39-48.73,32.22-39.33,33.83-62.8,77.58-62.8,117.01,0,42.2,26.32,91.09,99.26,96.48-27.23,16.92-57.66,27.05-87.91,27.05Zm118.57-50.1c-5.67.58-11.35.86-16.99.86-66.53,0-90.23-38.37-90.23-74.3,0-32.93,20.52-70.21,54.91-99.81,22.16-19.06,48-33.18,74.85-41.35,10.46-3.18,21.08-5.47,31.67-6.76,7.06-.88,14.12-1.34,21.13-1.34,66.53,0,90.23,38.4,90.23,74.3,0,3.4-.23,6.88-.66,10.36-48.78,19.11-89.45,66.76-96.69,117.76-9.1,4.61-18.48,8.5-28.01,11.62-13.24,4.39-26.75,7.31-40.21,8.65Zm144.08,50.1c-35.02,0-54.33-19.29-54.33-54.31,0-.63,0-1.26.03-1.92.23-10.29,2.24-20.6,5.75-30.61,10.29-29.5,33.46-56.35,61.24-72.28,8.9-5.12,18.28-9.1,27.83-11.7,8.29-2.27,16.74-3.48,25.16-3.48,15.48,0,27.91,3.78,36.93,11.02-1.34-.1-2.72-.15-4.11-.15-38.88,0-77.02,38.15-77.02,77,0,26.85,17.35,44.17,44.2,44.17,8.7,0,17.4-1.92,25.62-5.34-23.17,27.93-57.41,47.6-91.29,47.6Z"/>
  <g>
    <g>
      <path class="cls-1" d="m210.72,584.7l-4.73,22.77-10.8-2.24,12.12-58.29,10.8,2.24-4.74,22.77,57.9,12.04-2.65,12.76-57.9-12.04Z"/>
      <path class="cls-1" d="m294.09,484.94l10.08,4.22-20.31,48.54-64.72-27.09,19.77-47.25,10.08,4.22-14.74,35.23,16.83,7.04,13.08-31.25,9.89,4.14-13.07,31.25,17.84,7.47,15.28-36.52Z"/>
      <path class="cls-1" d="m320.9,457.84c-4.08,3.34-7.99,5.53-11.74,6.56l-5.91-9.38c3.49-1.12,6.99-3.02,10.5-5.7,3.52-2.67,6.45-5.76,8.79-9.26,2.9-4.33,4.37-8.03,4.41-11.1.04-3.06-1.08-5.36-3.36-6.88-1.66-1.12-3.44-1.44-5.32-.97-1.88.47-3.74,1.42-5.58,2.84-1.84,1.42-4.2,3.46-7.1,6.1-4.03,3.74-7.49,6.63-10.38,8.67-2.89,2.04-6.12,3.3-9.7,3.76-3.57.47-7.27-.58-11.1-3.15-3.22-2.15-5.57-4.99-7.03-8.5-1.47-3.51-1.8-7.55-1-12.12.81-4.57,2.92-9.41,6.33-14.51,2.38-3.55,5.16-6.76,8.36-9.61,3.19-2.85,6.46-4.96,9.79-6.35l6.13,9.04c-3.21,1.55-6.13,3.46-8.76,5.71-2.64,2.26-4.83,4.69-6.57,7.3-2.86,4.28-4.27,7.94-4.22,10.99.05,3.05,1.27,5.37,3.66,6.97,1.66,1.12,3.43,1.43,5.28.94,1.86-.49,3.7-1.44,5.54-2.87s4.2-3.46,7.1-6.1c3.9-3.66,7.31-6.52,10.25-8.57,2.94-2.05,6.19-3.32,9.72-3.81,3.54-.48,7.2.54,10.98,3.06,3.22,2.16,5.55,4.98,6.99,8.48,1.44,3.5,1.75,7.54.93,12.14-.83,4.6-2.95,9.45-6.36,14.56-3.01,4.5-6.56,8.42-10.64,11.76Z"/>
      <path class="cls-1" d="m331.5,349.98l-16.22,16.67-7.91-7.69,41.52-42.67,7.91,7.69-16.22,16.67,42.39,41.23-9.08,9.34-42.39-41.24Z"/>
      <path class="cls-1" d="m443.39,312.28l-28.76,20.08,3.62,17.27-11.01,7.69-14.28-75.6,10.52-7.34,66.14,39.39-11.18,7.81-15.05-9.3Zm-9.39-5.91l-28.41-17.57,6.8,32.67,21.61-15.09Z"/>
      <path class="cls-1" d="m592.71,268.63l-12.14-44.89-12.3,43.15-5.61,1.51-32.08-30.63,11.89,44.34-12.01,3.22-18.17-67.77,10.36-2.78,38.96,37.7,14.38-52.01,10.36-2.78,18.27,67.74-11.91,3.19Z"/>
      <path class="cls-1" d="m682.68,244.77l-35.07.78-6.56,16.39-13.42.3,30.01-70.85,12.83-.28,33.22,69.44-13.63.3-7.37-16.08Zm-4.54-10.13l-13.91-30.37-12.45,30.95,26.35-.58Z"/>
      <path class="cls-1" d="m772.15,272.31l-10.18-22.89c-.61-.05-1.5-.19-2.68-.41l-15.55-3-3.87,20.08-12.79-2.47,13.28-68.89,28.34,5.47c5.97,1.15,10.98,3.14,15.03,5.96,4.05,2.82,6.9,6.3,8.55,10.43,1.65,4.13,1.99,8.72,1.02,13.77-1,5.19-3.12,9.4-6.37,12.65-3.25,3.25-7.41,5.34-12.49,6.27l11.48,25.69-13.78-2.66Zm5.89-55.42c-2.43-2.92-6.44-4.92-12.02-5.99l-14.96-2.89-5.3,27.46,14.96,2.89c5.58,1.08,10.04.69,13.39-1.14,3.35-1.84,5.45-4.95,6.29-9.35.85-4.4.06-8.05-2.37-10.97Z"/>
      <path class="cls-1" d="m846.16,266.18l-14.72,6.14-7.05,16.5-11.98-5.12,27.56-64.53,11.98,5.12-14.13,33.09,46.02-19.47,13.46,5.75-39.42,17.28,13.53,47.95-14.01-5.98-11.24-36.73Z"/>
      <path class="cls-1" d="m940.8,342.59l-6.25,8.96-43.18-30.08,40.1-57.57,42.03,29.28-6.25,8.97-31.33-21.83-10.43,14.97,27.8,19.36-6.13,8.8-27.8-19.36-11.06,15.87,32.49,22.63Z"/>
      <path class="cls-1" d="m1008.79,340.01l-16.24-16.64,7.89-7.7,41.6,42.6-7.89,7.7-16.25-16.64-42.31,41.31-9.11-9.32,42.31-41.31Z"/>
      <path class="cls-1" d="m1063.71,386.71l7.63,10.56-56.89,41.07-7.63-10.56,56.89-41.07Z"/>
      <path class="cls-1" d="m1124.11,491.9l-63.12,30.65-4.68-9.65,25.84-55.56-42.74,20.75-5.65-11.63,63.12-30.65,4.68,9.65-25.84,55.56,42.74-20.76,5.65,11.63Z"/>
      <path class="cls-1" d="m1117.47,592.69l2.75,12.02-27.26,6.23c-3.61-2.88-6.69-6.49-9.26-10.84-2.57-4.35-4.42-9-5.55-13.95-1.59-6.97-1.51-13.6.24-19.9,1.75-6.29,4.93-11.65,9.54-16.06,4.61-4.41,10.27-7.38,16.99-8.91,6.71-1.53,13.1-1.31,19.17.66,6.07,1.97,11.27,5.43,15.58,10.37,4.32,4.94,7.28,10.93,8.88,17.97,1.31,5.73,1.55,11.16.74,16.28-.82,5.12-2.69,9.7-5.61,13.72l-9.65-6.23c4.02-6.4,5.19-13.28,3.51-20.64-1.1-4.82-3.09-8.87-5.97-12.16-2.88-3.29-6.38-5.57-10.51-6.85-4.13-1.28-8.54-1.39-13.23-.32-4.56,1.04-8.42,3.04-11.59,5.99-3.16,2.95-5.36,6.54-6.59,10.76-1.23,4.22-1.3,8.71-.21,13.47,1.22,5.34,3.46,9.76,6.73,13.27l21.31-4.87Z"/>
    </g>
    <g>
      <path class="cls-1" d="m1139.28,765.3l4.73-22.77,10.8,2.24-12.12,58.29-10.8-2.24,4.74-22.77-57.9-12.04,2.65-12.76,57.9,12.04Z"/>
      <path class="cls-1" d="m1055.91,865.06l-10.08-4.22,20.31-48.54,64.72,27.09-19.77,47.25-10.08-4.22,14.74-35.23-16.83-7.04-13.08,31.25-9.89-4.14,13.07-31.25-17.84-7.47-15.28,36.52Z"/>
      <path class="cls-1" d="m1029.1,892.16c4.08-3.34,7.99-5.53,11.74-6.56l5.91,9.38c-3.49,1.12-6.99,3.02-10.5,5.7-3.52,2.67-6.45,5.76-8.79,9.26-2.9,4.33-4.37,8.03-4.41,11.1-.04,3.06,1.08,5.36,3.36,6.88,1.66,1.12,3.44,1.44,5.32.97,1.88-.47,3.74-1.42,5.58-2.84,1.84-1.42,4.2-3.46,7.1-6.1,4.03-3.74,7.49-6.63,10.38-8.67,2.89-2.04,6.12-3.3,9.7-3.76,3.57-.47,7.27.58,11.1,3.15,3.22,2.15,5.57,4.99,7.03,8.5,1.47,3.51,1.8,7.55,1,12.12-.81,4.57-2.92,9.41-6.33,14.51-2.38,3.55-5.16,6.76-8.36,9.61-3.19,2.85-6.46,4.96-9.79,6.35l-6.13-9.04c3.21-1.55,6.13-3.46,8.76-5.71,2.64-2.26,4.83-4.69,6.57-7.3,2.86-4.28,4.27-7.94,4.22-10.99s-1.27-5.37-3.66-6.97c-1.66-1.12-3.43-1.43-5.28-.94-1.86.49-3.7,1.44-5.54,2.87-1.84,1.42-4.2,3.46-7.1,6.1-3.9,3.66-7.31,6.52-10.25,8.57-2.94,2.05-6.19,3.32-9.72,3.81-3.54.48-7.2-.54-10.98-3.06-3.22-2.16-5.55-4.98-6.99-8.48-1.44-3.5-1.75-7.54-.93-12.14.83-4.6,2.95-9.45,6.36-14.56,3.01-4.5,6.56-8.42,10.64-11.76Z"/>
      <path class="cls-1" d="m1018.5,1000.02l16.22-16.67,7.91,7.69-41.52,42.67-7.91-7.69,16.22-16.67-42.39-41.23,9.08-9.34,42.39,41.24Z"/>
      <path class="cls-1" d="m906.61,1037.72l28.76-20.08-3.62-17.27,11.01-7.69,14.28,75.6-10.52,7.34-66.14-39.39,11.18-7.81,15.05,9.3Zm9.39,5.91l28.41,17.57-6.8-32.67-21.61,15.09Z"/>
      <path class="cls-1" d="m757.29,1081.37l12.14,44.89,12.3-43.15,5.61-1.51,32.08,30.63-11.89-44.34,12.01-3.22,18.17,67.77-10.36,2.78-38.96-37.7-14.38,52.01-10.36,2.78-18.27-67.74,11.91-3.19Z"/>
      <path class="cls-1" d="m667.32,1105.23l35.07-.78,6.56-16.39,13.42-.3-30.01,70.85-12.83.28-33.22-69.44,13.63-.3,7.37,16.08Zm4.54,10.13l13.91,30.37,12.45-30.95-26.35.58Z"/>
      <path class="cls-1" d="m577.85,1077.69l10.18,22.89c.61.05,1.5.19,2.68.41l15.55,3,3.87-20.08,12.79,2.47-13.28,68.89-28.34-5.47c-5.97-1.15-10.98-3.14-15.03-5.96-4.05-2.82-6.9-6.3-8.55-10.43-1.65-4.13-1.99-8.72-1.02-13.77,1-5.19,3.12-9.4,6.37-12.65,3.25-3.25,7.41-5.34,12.49-6.27l-11.48-25.69,13.78,2.66Zm-5.89,55.42c2.43,2.92,6.44,4.92,12.02,5.99l14.96,2.89,5.3-27.46-14.96-2.89c-5.58-1.08-10.04-.69-13.39,1.14-3.35,1.84-5.45,4.95-6.29,9.35-.85,4.4-.06,8.05,2.37,10.97Z"/>
      <path class="cls-1" d="m503.84,1083.82l14.72-6.14,7.05-16.5,11.98,5.12-27.56,64.53-11.98-5.12,14.13-33.09-46.02,19.47-13.46-5.75,39.42-17.28-13.53-47.95,14.01,5.98,11.24,36.73Z"/>
      <path class="cls-1" d="m409.2,1007.41l6.25-8.96,43.18,30.08-40.1,57.57-42.03-29.28,6.25-8.97,31.33,21.83,10.43-14.97-27.8-19.36,6.13-8.8,27.8,19.36,11.06-15.87-32.49-22.63Z"/>
      <path class="cls-1" d="m341.21,1009.99l16.24,16.64-7.89,7.7-41.6-42.6,7.89-7.7,16.25,16.64,42.31-41.31,9.11,9.32-42.31,41.31Z"/>
      <path class="cls-1" d="m286.29,963.29l-7.63-10.56,56.89-41.07,7.63,10.56-56.89,41.07Z"/>
      <path class="cls-1" d="m225.89,858.1l63.12-30.65,4.68,9.65-25.84,55.56,42.74-20.75,5.65,11.63-63.12,30.65-4.68-9.65,25.84-55.56-42.74,20.76-5.65-11.63Z"/>
      <path class="cls-1" d="m232.53,757.31l-2.75-12.02,27.26-6.23c3.61,2.88,6.69,6.49,9.26,10.84,2.57,4.35,4.42,9,5.55,13.95,1.59,6.97,1.51,13.6-.24,19.9-1.75,6.29-4.93,11.65-9.54,16.06-4.61,4.41-10.27,7.38-16.99,8.91-6.71,1.53-13.1,1.31-19.17-.66-6.07-1.97-11.27-5.43-15.58-10.37-4.32-4.94-7.28-10.93-8.88-17.97-1.31-5.73-1.55-11.16-.74-16.28.82-5.12,2.69-9.7,5.61-13.72l9.65,6.23c-4.02,6.4-5.19,13.28-3.51,20.64,1.1,4.82,3.09,8.87,5.97,12.16,2.88,3.29,6.38,5.57,10.51,6.85,4.13,1.28,8.54,1.39,13.23.32,4.56-1.04,8.42-3.04,11.59-5.99,3.16-2.95,5.36-6.54,6.59-10.76,1.23-4.22,1.3-8.71.21-13.47-1.22-5.34-3.46-9.76-6.73-13.27l-21.31,4.87Z"/>
    </g>
    <circle class="cls-1" cx="227.27" cy="673.87" r="13.53"/>
    <circle class="cls-1" cx="1124.4" cy="673.87" r="13.53"/>
  </g>
</svg>