<?xml version="1.0" encoding="UTF-8"?>
<svg id="Layer_1" data-name="Layer 1" xmlns="http://www.w3.org/2000/svg" viewBox="0 0 2978.02 959.25">
  <defs>
    <style>
      .cls-1 {
        fill: #565656;
      }

      .cls-1, .cls-2 {
        stroke-width: 0px;
      }

      .cls-2 {
        fill: #ef8c16;
      }
    </style>
  </defs>
  <g>
    <path class="cls-2" d="m301.49,654.22h9.05v63.36h-9.05v-63.36Z"/>
    <path class="cls-2" d="m394.79,654.22v63.36h-7.42l-38.02-47.25v47.25h-9.05v-63.36h7.42l38.02,47.25v-47.25h9.05Z"/>
    <path class="cls-2" d="m480.57,654.22l-27.79,63.36h-8.96l-27.88-63.36h9.78l22.81,52.05,22.99-52.05h9.05Z"/>
    <path class="cls-2" d="m547.75,709.71v7.87h-45.98v-63.36h44.72v7.88h-35.66v19.46h31.77v7.69h-31.77v20.46h36.93Z"/>
    <path class="cls-2" d="m579.14,716.09c-4.44-1.48-7.92-3.4-10.45-5.75l3.35-7.06c2.41,2.17,5.51,3.94,9.28,5.29,3.77,1.36,7.65,2.04,11.63,2.04,5.25,0,9.17-.89,11.77-2.67,2.59-1.78,3.89-4.15,3.89-7.11,0-2.17-.71-3.94-2.13-5.29-1.42-1.36-3.17-2.4-5.25-3.12s-5.02-1.54-8.82-2.44c-4.77-1.15-8.62-2.29-11.54-3.44-2.93-1.15-5.43-2.91-7.51-5.29s-3.12-5.6-3.12-9.64c0-3.38.89-6.42,2.67-9.14,1.78-2.72,4.48-4.89,8.1-6.52,3.62-1.63,8.12-2.44,13.49-2.44,3.74,0,7.42.48,11.04,1.45,3.62.97,6.73,2.35,9.32,4.16l-2.99,7.24c-2.66-1.69-5.49-2.97-8.51-3.85-3.02-.87-5.97-1.31-8.87-1.31-5.13,0-8.98.94-11.54,2.81-2.57,1.87-3.85,4.29-3.85,7.24,0,2.17.72,3.94,2.17,5.3,1.45,1.36,3.24,2.41,5.39,3.17,2.14.76,5.05,1.55,8.73,2.4,4.77,1.15,8.6,2.29,11.5,3.44,2.9,1.15,5.39,2.9,7.47,5.25,2.08,2.35,3.12,5.52,3.12,9.5,0,3.32-.91,6.35-2.72,9.1-1.81,2.75-4.56,4.92-8.24,6.52-3.68,1.6-8.21,2.4-13.58,2.4-4.77,0-9.37-.74-13.8-2.22Z"/>
    <path class="cls-2" d="m656.42,662.1h-21.72v-7.88h52.41v7.88h-21.72v55.49h-8.96v-55.49Z"/>
    <path class="cls-2" d="m708.47,654.22h9.05v63.36h-9.05v-63.36Z"/>
    <path class="cls-2" d="m791.96,685.54h8.69v24.71c-3.14,2.59-6.79,4.59-10.95,5.97-4.16,1.39-8.51,2.08-13.03,2.08-6.4,0-12.16-1.4-17.29-4.21-5.13-2.81-9.16-6.67-12.08-11.59-2.93-4.92-4.39-10.46-4.39-16.61s1.46-11.7,4.39-16.66c2.93-4.95,6.97-8.81,12.13-11.59,5.16-2.77,10.97-4.16,17.42-4.16,5.07,0,9.67.83,13.8,2.49,4.13,1.66,7.65,4.09,10.54,7.29l-5.61,5.61c-5.07-4.89-11.19-7.33-18.37-7.33-4.83,0-9.16,1.04-12.99,3.12-3.83,2.08-6.83,4.98-9.01,8.69-2.17,3.71-3.26,7.89-3.26,12.54s1.09,8.73,3.26,12.45c2.17,3.71,5.17,6.62,9.01,8.73,3.83,2.11,8.13,3.17,12.9,3.17,5.67,0,10.62-1.36,14.85-4.07v-20.64Z"/>
    <path class="cls-2" d="m874.8,701.74h-33.67l-6.97,15.84h-9.32l28.69-63.36h8.96l28.78,63.36h-9.5l-6.97-15.84Zm-3.17-7.24l-13.67-31.05-13.67,31.05h27.34Z"/>
    <path class="cls-2" d="m920.31,714.1c-5.1-2.81-9.1-6.67-11.99-11.59-2.9-4.92-4.35-10.46-4.35-16.61s1.45-11.69,4.35-16.61c2.9-4.92,6.91-8.78,12.04-11.59,5.13-2.81,10.86-4.21,17.2-4.21,4.95,0,9.47.83,13.58,2.49,4.1,1.66,7.6,4.12,10.5,7.38l-5.88,5.7c-4.77-5.01-10.71-7.51-17.83-7.51-4.71,0-8.96,1.06-12.76,3.17-3.8,2.11-6.77,5.02-8.92,8.73-2.14,3.71-3.21,7.86-3.21,12.44s1.07,8.73,3.21,12.45c2.14,3.71,5.11,6.62,8.92,8.73,3.8,2.11,8.06,3.17,12.76,3.17,7.06,0,13-2.53,17.83-7.6l5.88,5.7c-2.9,3.26-6.41,5.73-10.54,7.42-4.14,1.69-8.68,2.54-13.62,2.54-6.34,0-12.05-1.4-17.15-4.21Z"/>
    <path class="cls-2" d="m985.17,654.22h9.05v63.36h-9.05v-63.36Z"/>
    <path class="cls-2" d="m1031.55,714.1c-5.13-2.81-9.16-6.69-12.08-11.63-2.93-4.95-4.39-10.47-4.39-16.57s1.46-11.61,4.39-16.57c2.93-4.94,6.95-8.82,12.08-11.63,5.13-2.81,10.89-4.21,17.29-4.21s12.07,1.4,17.2,4.21c5.13,2.81,9.14,6.67,12.04,11.59,2.9,4.92,4.34,10.45,4.34,16.61s-1.45,11.69-4.34,16.61c-2.9,4.92-6.91,8.78-12.04,11.59-5.13,2.81-10.86,4.21-17.2,4.21s-12.16-1.4-17.29-4.21Zm29.83-7.02c3.71-2.11,6.64-5.03,8.78-8.73,2.14-3.71,3.21-7.86,3.21-12.45s-1.07-8.73-3.21-12.44c-2.14-3.71-5.07-6.62-8.78-8.73-3.71-2.11-7.89-3.17-12.54-3.17s-8.86,1.06-12.63,3.17c-3.77,2.11-6.73,5.02-8.87,8.73-2.14,3.71-3.21,7.86-3.21,12.44s1.07,8.73,3.21,12.45c2.14,3.71,5.1,6.62,8.87,8.73,3.77,2.11,7.98,3.17,12.63,3.17s8.82-1.06,12.54-3.17Zm-7.01-69.79h11.04l-15.21,11.77h-8.15l12.31-11.77Z"/>
    <path class="cls-2" d="m1162.14,654.22v63.36h-7.42l-38.02-47.25v47.25h-9.05v-63.36h7.42l38.02,47.25v-47.25h9.05Z"/>
    <path class="cls-2" d="m1230.84,654.22h26.7c6.7,0,12.64,1.33,17.83,3.99,5.19,2.66,9.22,6.38,12.09,11.18,2.87,4.8,4.3,10.3,4.3,16.52s-1.43,11.72-4.3,16.52c-2.87,4.8-6.9,8.52-12.09,11.18-5.19,2.66-11.13,3.98-17.83,3.98h-26.7v-63.36Zm26.16,55.49c5.13,0,9.64-1,13.53-2.99,3.9-1.99,6.9-4.78,9.01-8.37,2.11-3.59,3.17-7.74,3.17-12.45s-1.06-8.86-3.17-12.44c-2.11-3.59-5.11-6.38-9.01-8.38-3.89-1.99-8.4-2.98-13.53-2.98h-17.11v47.61h17.11Z"/>
    <path class="cls-2" d="m1362.97,709.71v7.87h-45.98v-63.36h44.71v7.88h-35.66v19.46h31.77v7.69h-31.77v20.46h36.93Z"/>
    <path class="cls-2" d="m1486.07,717.58l-.09-46.16-22.9,38.47h-4.16l-22.9-38.2v45.89h-8.69v-63.36h7.42l26.43,44.53,26.07-44.53h7.42l.09,63.36h-8.69Z"/>
    <path class="cls-2" d="m1570.48,709.71v7.87h-45.98v-63.36h44.71v7.88h-35.66v19.46h31.77v7.69h-31.77v20.46h36.93Z"/>
    <path class="cls-2" d="m1637.36,717.58l-13.67-19.46c-1.69.12-3.02.18-3.99.18h-15.66v19.28h-9.05v-63.36h24.71c8.21,0,14.66,1.96,19.37,5.89,4.71,3.92,7.06,9.32,7.06,16.2,0,4.89-1.21,9.05-3.62,12.49-2.42,3.44-5.85,5.95-10.32,7.51l15.02,21.27h-9.86Zm-4.8-30.68c3.02-2.47,4.53-6,4.53-10.59s-1.51-8.1-4.53-10.54c-3.02-2.45-7.39-3.67-13.12-3.67h-15.39v28.51h15.39c5.73,0,10.11-1.24,13.12-3.71Z"/>
    <path class="cls-2" d="m1683.5,714.1c-5.1-2.81-9.1-6.67-12-11.59-2.9-4.92-4.34-10.46-4.34-16.61s1.45-11.69,4.34-16.61c2.9-4.92,6.91-8.78,12.04-11.59,5.13-2.81,10.87-4.21,17.2-4.21,4.95,0,9.47.83,13.58,2.49,4.1,1.66,7.6,4.12,10.5,7.38l-5.88,5.7c-4.77-5.01-10.71-7.51-17.83-7.51-4.71,0-8.96,1.06-12.76,3.17-3.8,2.11-6.77,5.02-8.92,8.73-2.14,3.71-3.21,7.86-3.21,12.44s1.07,8.73,3.21,12.45c2.14,3.71,5.12,6.62,8.92,8.73,3.8,2.11,8.06,3.17,12.76,3.17,7.06,0,13-2.53,17.83-7.6l5.88,5.7c-2.9,3.26-6.41,5.73-10.55,7.42-4.13,1.69-8.68,2.54-13.62,2.54-6.34,0-12.05-1.4-17.15-4.21Z"/>
    <path class="cls-2" d="m1795.94,701.74h-33.67l-6.97,15.84h-9.32l28.69-63.36h8.96l28.78,63.36h-9.5l-6.97-15.84Zm-3.17-7.24l-13.67-31.05-13.67,31.05h27.34Z"/>
    <path class="cls-2" d="m1833.55,654.22h26.7c6.7,0,12.64,1.33,17.83,3.99,5.19,2.66,9.22,6.38,12.09,11.18,2.87,4.8,4.3,10.3,4.3,16.52s-1.43,11.72-4.3,16.52c-2.87,4.8-6.9,8.52-12.09,11.18-5.19,2.66-11.13,3.98-17.83,3.98h-26.7v-63.36Zm26.16,55.49c5.13,0,9.64-1,13.53-2.99,3.9-1.99,6.9-4.78,9.01-8.37,2.11-3.59,3.17-7.74,3.17-12.45s-1.06-8.86-3.17-12.44c-2.11-3.59-5.11-6.38-9.01-8.38-3.89-1.99-8.4-2.98-13.53-2.98h-17.11v47.61h17.11Z"/>
    <path class="cls-2" d="m1927.2,714.1c-5.13-2.81-9.16-6.69-12.09-11.63-2.93-4.95-4.39-10.47-4.39-16.57s1.46-11.61,4.39-16.57c2.93-4.94,6.95-8.82,12.09-11.63,5.13-2.81,10.89-4.21,17.29-4.21s12.07,1.4,17.2,4.21c5.13,2.81,9.14,6.67,12.04,11.59,2.9,4.92,4.34,10.45,4.34,16.61s-1.45,11.69-4.34,16.61c-2.9,4.92-6.91,8.78-12.04,11.59-5.13,2.81-10.86,4.21-17.2,4.21s-12.16-1.4-17.29-4.21Zm29.82-7.02c3.71-2.11,6.64-5.03,8.78-8.73,2.14-3.71,3.21-7.86,3.21-12.45s-1.07-8.73-3.21-12.44c-2.14-3.71-5.07-6.62-8.78-8.73-3.71-2.11-7.89-3.17-12.54-3.17s-8.86,1.06-12.63,3.17-6.73,5.02-8.87,8.73c-2.14,3.71-3.21,7.86-3.21,12.44s1.07,8.73,3.21,12.45c2.14,3.71,5.1,6.62,8.87,8.73s7.98,3.17,12.63,3.17,8.83-1.06,12.54-3.17Z"/>
    <path class="cls-2" d="m2007.91,716.09c-4.43-1.48-7.92-3.4-10.45-5.75l3.35-7.06c2.41,2.17,5.51,3.94,9.28,5.29,3.77,1.36,7.65,2.04,11.63,2.04,5.25,0,9.17-.89,11.77-2.67,2.59-1.78,3.89-4.15,3.89-7.11,0-2.17-.71-3.94-2.13-5.29-1.42-1.36-3.17-2.4-5.25-3.12s-5.02-1.54-8.82-2.44c-4.77-1.15-8.61-2.29-11.54-3.44-2.93-1.15-5.43-2.91-7.51-5.29-2.08-2.38-3.12-5.6-3.12-9.64,0-3.38.89-6.42,2.67-9.14s4.48-4.89,8.1-6.52c3.62-1.63,8.12-2.44,13.49-2.44,3.74,0,7.42.48,11.04,1.45,3.62.97,6.73,2.35,9.32,4.16l-2.99,7.24c-2.66-1.69-5.49-2.97-8.51-3.85-3.02-.87-5.97-1.31-8.87-1.31-5.13,0-8.98.94-11.54,2.81-2.57,1.87-3.85,4.29-3.85,7.24,0,2.17.72,3.94,2.17,5.3,1.45,1.36,3.24,2.41,5.38,3.17s5.06,1.55,8.73,2.4c4.77,1.15,8.6,2.29,11.5,3.44,2.9,1.15,5.39,2.9,7.47,5.25,2.08,2.35,3.12,5.52,3.12,9.5,0,3.32-.91,6.35-2.72,9.1-1.81,2.75-4.55,4.92-8.24,6.52-3.68,1.6-8.21,2.4-13.58,2.4-4.77,0-9.37-.74-13.8-2.22Z"/>
  </g>
  <g>
    <path class="cls-1" d="m339.59,306.32h-86.7v-31.43h209.17v31.43h-86.7v221.45h-35.76v-221.45Z"/>
    <path class="cls-1" d="m577.15,476.48l18.79,22.4c-8.43,10.12-19.09,17.83-31.97,23.12-12.89,5.3-27.27,7.95-43.17,7.95-20.23,0-38.18-4.16-53.83-12.46-15.66-8.31-27.76-19.93-36.31-34.86-8.55-14.93-12.82-31.79-12.82-50.58s4.15-35.28,12.46-50.22c8.31-14.93,19.75-26.55,34.32-34.86,14.57-8.31,31.01-12.46,49.31-12.46,17.34,0,33.11,3.92,47.32,11.74,14.21,7.83,25.53,18.85,33.96,33.05,8.43,14.22,12.76,30.59,13,49.13l-152.09,29.62c4.81,13.25,12.94,23.48,24.39,30.71,11.44,7.23,25.23,10.84,41.36,10.84,22.88,0,41.3-7.7,55.27-23.12Zm-95.56-104.4c-9.52,5.54-16.92,13.31-22.22,23.3-5.3,10-7.95,21.62-7.95,34.86v3.61l122.47-23.12c-3.13-13.96-10.11-25.29-20.95-33.96-10.84-8.67-23.84-13-39.02-13-12.05,0-22.82,2.77-32.33,8.31Z"/>
    <path class="cls-1" d="m652.23,523.62c-14.45-4.21-25.77-9.57-33.96-16.08l14.45-27.46c8.43,6.02,18.66,10.84,30.71,14.45,12.04,3.61,24.2,5.42,36.49,5.42,30.35,0,45.52-8.67,45.52-26.01,0-5.78-2.05-10.35-6.14-13.73-4.1-3.37-9.21-5.84-15.35-7.41-6.14-1.56-14.87-3.31-26.19-5.24-15.42-2.4-28-5.17-37.75-8.31-9.75-3.13-18.13-8.43-25.11-15.9-6.99-7.46-10.48-17.94-10.48-31.43,0-17.34,7.23-31.25,21.68-41.73,14.45-10.48,33.83-15.71,58.16-15.71,12.76,0,25.52,1.57,38.29,4.69,12.76,3.13,23.24,7.35,31.43,12.65l-14.81,27.46c-15.66-10.12-34.08-15.17-55.27-15.17-14.69,0-25.89,2.41-33.6,7.22-7.71,4.82-11.56,11.2-11.56,19.15,0,6.27,2.17,11.2,6.5,14.81,4.34,3.61,9.69,6.26,16.08,7.95,6.38,1.69,15.35,3.61,26.92,5.78,15.41,2.65,27.87,5.48,37.39,8.49,9.51,3.02,17.64,8.13,24.39,15.35,6.74,7.22,10.12,17.34,10.12,30.34,0,17.34-7.41,31.13-22.22,41.36-14.81,10.24-34.99,15.35-60.51,15.35-15.66,0-30.71-2.11-45.16-6.32Z"/>
    <path class="cls-1" d="m917.42,516.58c-5.06,4.33-11.32,7.65-18.79,9.94-7.47,2.29-15.17,3.43-23.12,3.43-19.27,0-34.2-5.18-44.8-15.53-10.6-10.35-15.9-25.16-15.9-44.44v-105.13h-32.51v-28.54h32.51v-41.91h34.68v41.91h54.91v28.54h-54.91v103.68c0,10.36,2.59,18.31,7.77,23.84,5.18,5.54,12.58,8.31,22.22,8.31,10.59,0,19.63-3.01,27.09-9.03l10.84,24.93Z"/>
    <path class="cls-1" d="m1065.1,354.01c14.09,13,21.13,32.39,21.13,58.16v115.61h-32.87v-25.29c-5.78,8.91-14.03,15.71-24.75,20.41-10.72,4.7-23.43,7.04-38.11,7.04-21.44,0-38.6-5.18-51.48-15.53-12.89-10.35-19.33-23.96-19.33-40.82s6.14-30.4,18.42-40.64c12.28-10.23,31.79-15.35,58.52-15.35h54.91v-6.86c0-14.93-4.33-26.37-13.01-34.32-8.67-7.95-21.44-11.92-38.29-11.92-11.32,0-22.4,1.87-33.24,5.6-10.84,3.74-19.99,8.73-27.46,14.99l-14.45-26.01c9.87-7.95,21.67-14.03,35.4-18.24,13.73-4.21,28.3-6.32,43.71-6.32,26.49,0,46.78,6.5,60.87,19.51Zm-34.5,140.35c9.63-5.9,16.62-14.27,20.95-25.11v-26.73h-53.47c-29.39,0-44.08,9.88-44.08,29.62,0,9.64,3.73,17.22,11.2,22.76,7.46,5.54,17.82,8.31,31.07,8.31s24.68-2.94,34.32-8.85Z"/>
    <path class="cls-1" d="m1384.4,527.78l-.36-184.24-91.4,153.54h-16.62l-91.4-152.45v183.16h-34.68v-252.88h29.62l105.49,177.74,104.04-177.74h29.62l.36,252.88h-34.68Z"/>
    <path class="cls-1" d="m1583.04,354.01c14.09,13,21.13,32.39,21.13,58.16v115.61h-32.87v-25.29c-5.78,8.91-14.03,15.71-24.75,20.41-10.72,4.7-23.43,7.04-38.11,7.04-21.44,0-38.6-5.18-51.48-15.53-12.89-10.35-19.33-23.96-19.33-40.82s6.14-30.4,18.42-40.64c12.28-10.23,31.79-15.35,58.52-15.35h54.91v-6.86c0-14.93-4.33-26.37-13-34.32-8.67-7.95-21.44-11.92-38.29-11.92-11.32,0-22.4,1.87-33.24,5.6-10.84,3.74-19.99,8.73-27.46,14.99l-14.45-26.01c9.87-7.95,21.67-14.03,35.4-18.24,13.73-4.21,28.3-6.32,43.71-6.32,26.49,0,46.78,6.5,60.87,19.51Zm-34.5,140.35c9.63-5.9,16.62-14.27,20.95-25.11v-26.73h-53.46c-29.39,0-44.08,9.88-44.08,29.62,0,9.64,3.73,17.22,11.2,22.76,7.46,5.54,17.82,8.31,31.07,8.31s24.69-2.94,34.32-8.85Z"/>
    <path class="cls-1" d="m1690.76,343.17c11.8-5.78,26.13-8.67,42.99-8.67v33.6c-1.93-.24-4.58-.36-7.95-.36-18.79,0-33.54,5.6-44.25,16.8-10.72,11.2-16.08,27.16-16.08,47.87v95.37h-34.68v-191.47h33.24v32.15c6.02-11.08,14.93-19.51,26.73-25.29Z"/>
    <path class="cls-1" d="m1824.13,438.55l-39.74,36.85v52.38h-34.68v-268.06h34.68v171.96l104.41-95.37h41.91l-80.56,79.12,88.51,112.35h-42.63l-71.89-89.23Z"/>
    <path class="cls-1" d="m2082.15,476.48l18.79,22.4c-8.43,10.12-19.09,17.83-31.97,23.12-12.89,5.3-27.28,7.95-43.17,7.95-20.23,0-38.18-4.16-53.83-12.46-15.66-8.31-27.76-19.93-36.31-34.86-8.55-14.93-12.83-31.79-12.83-50.58s4.16-35.28,12.47-50.22c8.31-14.93,19.74-26.55,34.32-34.86,14.57-8.31,31.01-12.46,49.31-12.46,17.34,0,33.11,3.92,47.33,11.74,14.21,7.83,25.52,18.85,33.96,33.05,8.43,14.22,12.76,30.59,13,49.13l-152.09,29.62c4.81,13.25,12.94,23.48,24.38,30.71,11.44,7.23,25.23,10.84,41.36,10.84,22.88,0,41.3-7.7,55.27-23.12Zm-95.55-104.4c-9.52,5.54-16.92,13.31-22.22,23.3-5.3,10-7.95,21.62-7.95,34.86v3.61l122.47-23.12c-3.13-13.96-10.12-25.29-20.95-33.96-10.84-8.67-23.84-13-39.02-13-12.04,0-22.82,2.77-32.33,8.31Z"/>
    <path class="cls-1" d="m2243.27,516.58c-5.06,4.33-11.32,7.65-18.79,9.94-7.47,2.29-15.17,3.43-23.12,3.43-19.27,0-34.2-5.18-44.8-15.53-10.6-10.35-15.89-25.16-15.89-44.44v-105.13h-32.51v-28.54h32.51v-41.91h34.68v41.91h54.91v28.54h-54.91v103.68c0,10.36,2.59,18.31,7.77,23.84,5.18,5.54,12.58,8.31,22.22,8.31,10.6,0,19.63-3.01,27.1-9.03l10.84,24.93Z"/>
    <path class="cls-1" d="m2261.5,292.96c-4.46-4.33-6.68-9.63-6.68-15.89s2.22-11.62,6.68-16.08c4.46-4.46,10.05-6.69,16.8-6.69s12.34,2.11,16.8,6.32c4.45,4.22,6.68,9.46,6.68,15.71s-2.23,11.99-6.68,16.44c-4.46,4.46-10.06,6.68-16.8,6.68s-12.35-2.17-16.8-6.5Zm-.54,43.35h34.68v191.47h-34.68v-191.47Z"/>
    <path class="cls-1" d="m2482.48,355.64c14.33,14.09,21.49,34.74,21.49,61.96v110.18h-34.68v-106.21c0-18.54-4.46-32.51-13.37-41.91-8.91-9.39-21.67-14.09-38.29-14.09-18.79,0-33.6,5.48-44.44,16.44-10.84,10.96-16.26,26.68-16.26,47.15v98.63h-34.68v-191.47h33.24v28.9c6.98-9.87,16.44-17.46,28.36-22.76,11.92-5.29,25.47-7.95,40.64-7.95,24.32,0,43.65,7.04,57.98,21.13Z"/>
    <path class="cls-1" d="m2725.14,336.31v165.46c0,33.47-8.31,58.22-24.93,74.24-16.62,16.01-41.43,24.02-74.42,24.02-18.06,0-35.29-2.47-51.66-7.41-16.38-4.94-29.62-11.98-39.74-21.14l16.62-26.73c8.91,7.7,19.93,13.78,33.06,18.24,13.12,4.45,26.67,6.68,40.64,6.68,22.4,0,38.95-5.3,49.67-15.9,10.71-10.6,16.08-26.73,16.08-48.41v-15.17c-8.19,9.88-18.24,17.28-30.16,22.22-11.92,4.94-24.87,7.41-38.84,7.41-18.31,0-34.86-3.91-49.67-11.74-14.81-7.82-26.43-18.79-34.86-32.87-8.43-14.09-12.65-30.16-12.65-48.23s4.21-34.14,12.65-48.23c8.43-14.09,20.05-24.98,34.86-32.69,14.81-7.7,31.37-11.56,49.67-11.56,14.45,0,27.88,2.65,40.28,7.95,12.4,5.3,22.58,13.13,30.52,23.48v-29.62h32.88Zm-65.93,145.23c9.99-5.29,17.82-12.7,23.48-22.22,5.65-9.51,8.49-20.29,8.49-32.33,0-18.54-6.14-33.53-18.42-44.98-12.28-11.43-28.06-17.16-47.32-17.16s-35.4,5.73-47.69,17.16c-12.28,11.44-18.42,26.43-18.42,44.98,0,12.04,2.83,22.82,8.49,32.33,5.66,9.52,13.49,16.92,23.48,22.22,9.99,5.3,21.37,7.95,34.14,7.95s23.78-2.65,33.78-7.95Z"/>
  </g>
  <path class="cls-1" d="m2795.72,260.83c5.31,3.03,9.49,7.21,12.52,12.52,3.03,5.31,4.55,11.2,4.55,17.67s-1.55,12.39-4.65,17.77c-3.1,5.38-7.32,9.62-12.67,12.72-5.34,3.1-11.25,4.65-17.72,4.65s-12.36-1.55-17.67-4.65c-5.31-3.1-9.5-7.32-12.57-12.67-3.07-5.34-4.6-11.22-4.6-17.62s1.53-12.27,4.6-17.62c3.07-5.34,7.27-9.57,12.62-12.67,5.34-3.1,11.28-4.65,17.82-4.65s12.45,1.52,17.77,4.55Zm-3.07,55.92c4.46-2.64,7.97-6.22,10.54-10.74,2.57-4.52,3.86-9.52,3.86-14.99s-1.25-10.44-3.76-14.9c-2.51-4.45-5.97-7.97-10.39-10.54-4.42-2.57-9.4-3.86-14.94-3.86s-10.56,1.3-15.05,3.91c-4.49,2.61-8,6.15-10.54,10.64-2.54,4.49-3.81,9.47-3.81,14.94s1.27,10.46,3.81,14.94c2.54,4.49,6.04,8.04,10.49,10.64,4.45,2.61,9.42,3.91,14.89,3.91s10.44-1.32,14.89-3.96Zm1.19-24.05c-1.35,2.05-3.28,3.6-5.79,4.65l8.71,13.36h-8.51l-7.72-11.88h-8.81v11.88h-8.51v-39h16.23c5.08,0,9.09,1.22,12.03,3.66,2.94,2.44,4.4,5.74,4.4,9.9,0,2.9-.68,5.38-2.03,7.42Zm-14.89-.5c2.77,0,4.91-.61,6.43-1.83,1.51-1.22,2.27-2.92,2.27-5.1s-.76-3.86-2.27-5.05c-1.52-1.19-3.66-1.78-6.43-1.78h-7.33v13.76h7.33Z"/>
</svg>