<svg xmlns="http://www.w3.org/2000/svg" width="498" height="498" viewBox="0 0 498 498"><circle cx="249" cy="249" r="249"/><path d="M499.06,738.62A240.3,240.3,0,0,1,277.77,592.5,239.39,239.39,0,0,1,405.58,278.91,240.55,240.55,0,0,1,720.35,406.23a238.47,238.47,0,0,1-51.47,262.32,239.88,239.88,0,0,1-169.82,70.07Zm0-474.26c-130.08,0-235.91,105.42-235.91,235s105.83,235,235.91,235S735,629,735,499.36,629.14,264.36,499.06,264.36Z" transform="translate(-251 -251)" fill="#fff"/><path d="M499.09,672.17A169.43,169.43,0,1,1,618.9,622.55,168.32,168.32,0,0,1,499.09,672.17Zm0-334.63c-91.09,0-165.19,74.11-165.19,165.19S408,667.92,499.09,667.92s165.19-74.1,165.19-165.19S590.18,337.54,499.09,337.54Z" transform="translate(-251 -251)" fill="#fff"/><path d="M519.13,423.17h54s11.54.61,15.18,6.08l-4.85-36.44h-164l-3,35.22a29.47,29.47,0,0,1,15.79-4.25h52.23l.61,160.33H504s15.18-1.21,15.18-14Z" transform="translate(-251 -251)" fill="#b30b2a"/><path d="M554.66,426.51H522.47V572.27s-1.82,14-14,14H468.42v-37s-.3-13.66-11.24-17.31H425.6s10.33,4.86,10.33,16.4v32.19a21.9,21.9,0,0,1-6.68,15.79l29.15,22.47h74.7l28.54-22.47A27.88,27.88,0,0,1,554.35,578Z" transform="translate(-251 -251)" fill="#fff"/><path d="M523.08,630.57H480.57s4.25-4.86,4.25-9.71h34S520.65,629.36,523.08,630.57Z" transform="translate(-251 -251)" fill="#a10c26"/><path d="M457.79,463.86s4.56-5.76,23.08-4.85V426.82H462Z" transform="translate(-251 -251)" fill="#fff"/><polygon points="437.27 131.18 412.98 148.19 426.34 114.78 423.3 109.92 389.9 133.61 393.24 138.16 417.53 121.16 404.78 154.56 407.51 158.51 440.91 135.43 437.27 131.18" fill="#fff"/><path d="M591.94,298.4l-11.18,26.49s-5.34,11.19-14.66-2.35l-4.66,3.89c3.43,4.68,6.28,5.65,6.28,5.65,13.36,6.68,18.69-4.95,18.69-4.95l11.13-26.36Z" transform="translate(-251 -251)" fill="#fff"/><path d="M634.52,323,630,319.63l-15.79,24.29s-4.26,6.07-12.15.61c0,0-5.77-3.95-2.73-10l15.79-24.3-4.86-3-15.79,24.29s-4.86,10.93,4.86,17l.6.61a14.5,14.5,0,0,0,18.22-1.21Z" transform="translate(-251 -251)" fill="#fff"/><polygon points="311.55 36.44 299.41 75.31 304.87 77.13 317.02 38.26 311.55 36.44" fill="#fff"/><polygon points="301.71 33.14 274.38 28.28 273.42 33.66 284.74 35.68 278.5 70.58 283.88 71.54 290.12 36.63 300.75 38.52 301.71 33.14" fill="#fff"/><polygon points="49.93 165.74 44.75 163.99 35.86 190.28 41.03 192.04 44.72 181.15 78.29 192.54 80.05 187.36 46.47 175.97 49.93 165.74" fill="#fff"/><path d="M702.84,409.51l-43.12,2.43,2.74,5.16,9.24-.49,6.89,15.24-7,6.51,2.12,5.16,31-29.76Zm-20.49,18.86-5.44-12,19.56-1.05Z" transform="translate(-251 -251)" fill="#fff"/><path d="M653.07,339.85,614,358.25l4.46,3.76,8.39-3.92,12.09,11.56-4.07,8.66,3.9,4,17.58-39.19Zm-12,25.16-9.54-9.12,17.74-8.3Z" transform="translate(-251 -251)" fill="#fff"/><polygon points="231.5 64.46 230.64 51.5 248.01 50.09 247.56 44.65 230.27 46.05 229.44 33.56 249.75 32.49 249.46 27.03 223.62 28.39 226.42 70.36 251.65 68.31 251.21 62.87 231.5 64.46" fill="#fff"/><path d="M459.62,324c9.32-3.3,8-16.28,5.69-23.57-1.27-7.17-4-12-8.17-14.48a12.35,12.35,0,0,0-9.48-1.17l-15.34,3.65,9.82,40.68,17.33-5.06Zm-1.77-5.17-11.74,3.42-7.19-29.77L449,290.1l.27-.08a6.82,6.82,0,0,1,5.09.67c2.7,1.58,4.63,5.35,5.59,10.88l.09.37C460.09,302.08,464.46,316.4,457.85,318.85Z" transform="translate(-251 -251)" fill="#fff"/><path d="M375.5,327.31c-2.38-2.14-8.6-4.78-15.09.53-3.94,3.22-6.11,6.84-6.47,10.76a13.11,13.11,0,0,0,2.78,9.22l10.94,12.76.22.23a13.1,13.1,0,0,0,9,3.69,15.83,15.83,0,0,0,9.74-3.6c7.17-6,5.52-13.63,3.65-16.84C385.89,336.48,375.9,327.66,375.5,327.31Zm7.65,29.4c-.25.21-6,5-11.46.18L360.9,344.3c-.8-1-4.41-6.19,3-12.23,4.27-3.49,7.42-1.17,8-.67.1.08,9.74,8.6,13.72,15.41C385.72,347,388.61,352.16,383.15,356.71Z" transform="translate(-251 -251)" fill="#fff"/><path d="M340.4,396.22c-6.83-5.52-19.29-10.22-19.79-10.4-3-1.16-9.74-1.43-13.93,5.84-2.53,4.41-3.28,8.57-2.23,12.37a13.14,13.14,0,0,0,5.88,7.63l14.75,8,.29.14a13.08,13.08,0,0,0,9.76.24,15.83,15.83,0,0,0,7.83-6.82C347.54,405.13,343.29,398.56,340.4,396.22Zm-2.21,14.37c-.16.28-3.87,6.82-10.65,4.23L313,406.88c-1.1-.64-6.33-4.22-1.57-12.49,2.75-4.78,6.52-3.72,7.25-3.47.12.05,12.16,4.59,18.29,9.55C337.15,400.63,341.68,404.4,338.19,410.59Z" transform="translate(-251 -251)" fill="#fff"/><path d="M349,354.27c-3.12-3-6.11-3.46-8.08-3.28-4.43.4-7.33,4-8,4.89l-11.19,12.63L353.1,394.6l3.5-4.19-13.46-11.22,5.2-6.82,19.26,4.95,5.47-5.46-20.94-4.53C355.53,361.9,352.24,356.64,349,354.27Zm-1.57,10.24-8.52,11.18-9.33-7.77,7.55-8.52.19-.25c.5-.7,2.21-2.56,4.12-2.72,1.22-.1,2.51.53,3.86,1.87l.17.17.19.14C346.09,358.88,349.47,361.38,347.46,364.51Z" transform="translate(-251 -251)" fill="#fff"/><path d="M415.83,321.48c-4.72-4.38-15,0-18.17,1.47-3.38,1.69-6.33-3.63-6.63-4.19-1.39-3.32,3.66-7.23,3.71-7.26l.25-.18.2-.24c2.09-2.44,7.7-1.91,9.5-1.53l1.14-5.35c-1-.22-9.94-1.95-14.58,3.08-3.24,2.5-7.75,8-5.19,13.76l.05.11c1.52,3,5.26,7.67,10.13,7.67a8.5,8.5,0,0,0,3.81-.95c4.53-2.15,10.8-3.65,12.08-2.36l.15.15.18.12c.19.15,4.66,3.48,2.29,8.53a14.3,14.3,0,0,1-15.69,4.87l-1.57,5.23a21,21,0,0,0,6.05.92,19.86,19.86,0,0,0,15.81-8.06l.2-.33C423.18,329.67,418.79,323.73,415.83,321.48Z" transform="translate(-251 -251)" fill="#fff"/><polygon points="118.65 386.07 100.87 406.48 113.97 418.2 116.81 415.04 106.83 406.11 121.85 388.86 118.65 386.07" fill="#fff"/><polygon points="409.57 385.44 400.67 395.39 383.43 379.82 380.58 382.97 400.99 401.41 412.74 388.28 409.57 385.44" fill="#fff"/><path d="M630.19,643.51a7.77,7.77,0,0,0-5.06-1.85,8.79,8.79,0,0,0-5.65,2.19c-2.74,2.24-4.26,4.78-4.51,7.54a9.32,9.32,0,0,0,2,6.53l7.33,8.57.17.18a9.21,9.21,0,0,0,6.39,2.62,11.11,11.11,0,0,0,6.83-2.53,9.32,9.32,0,0,0,2.54-11.89C637.2,649.7,630.47,643.76,630.19,643.51ZM616,655.32a6.62,6.62,0,0,0,.36.8A6.62,6.62,0,0,1,616,655.32Zm9.15-13.21h0l-.66,0Zm9.59,21.14a6.58,6.58,0,0,1-3.83,1.45,4.78,4.78,0,0,1-3.23-1.3L620.44,655c-.48-.6-2.68-3.79,1.94-7.57a4.42,4.42,0,0,1,2.79-1.17,3.15,3.15,0,0,1,2,.71c.06,0,6.46,5.71,9.1,10.24C636.33,657.31,638.1,660.44,634.72,663.25Z" transform="translate(-251 -251)" fill="#fff"/><path d="M400.16,660.65l-10.31,15.16a4.31,4.31,0,0,1-2.87,2c-2.14.35-4.6-1-5.32-1.54-3.58-2.79-2.28-5.17-2-5.59l11-16.46-3.54-2.36-10.91,16.38c-1.45,2.06-2.7,7,2.91,11.41a13.18,13.18,0,0,0,7.14,2.47,8.69,8.69,0,0,0,1.42-.12,8.49,8.49,0,0,0,5.7-3.77l10.33-15.18Z" transform="translate(-251 -251)" fill="#fff"/><path d="M346.94,626.91l.09-.09c3.23-3.64,7.37-1.27,8.27-.68,3.67,3.84.2,8-.21,8.49l1.58,1.41,1.58,1.42c2.36-2.62,5.38-9-.07-14.46l-.27-.23c-2.74-1.95-9.17-4.21-14,1.18l-6.78,6.79-.12.17c-1.59,2.38-3.45,8,.82,12.35a9.11,9.11,0,0,0,6.71,2.74,12.91,12.91,0,0,0,6.19-1.72l-2-3.73c-4.91,2.68-7.44.15-7.69-.12l-.11-.12c-2.67-2.67-.93-6.06-.44-6.89Z" transform="translate(-251 -251)" fill="#fff"/><rect x="561.95" y="678.37" width="4.25" height="27.09" transform="translate(-450.85 -20.97) rotate(-19.65)" fill="#fff"/><path d="M611.08,668.56c.44-1.93.14-4.37-1.88-7.07l-.2-.23c-1.68-1.68-5.92-4.16-9.94-1.51l-9.66,6,14.33,23.64,10.55-6.19c4.18-2.14,3.83-6.46,3.05-8.46A10.83,10.83,0,0,0,611.08,668.56Zm-15.86-1.45,6.1-3.75.07-.05c1.91-1.27,4,.45,4.51.87,2,2.71.8,4.3.3,4.78l-7.09,4.56Zm17,11.57-7.09,4.56-3.88-6.41,6.09-3.76.07,0c1.92-1.28,4,.44,4.51.86C613.93,676.61,612.77,678.19,612.27,678.68Z" transform="translate(-251 -251)" fill="#fff"/><path d="M527.34,693.84l-.08-.29c-.75-2.25-3.43-6.36-8.21-5.78l-11.3,1L510,716.31l12.21-.81c4.7,0,6.32-4.07,6.52-6.21a10.86,10.86,0,0,0-2.86-8.28C527.11,699.48,527.94,697.17,527.34,693.84Zm-15-1.21,7.13-.63h.08c2.28-.29,3.41,2.2,3.65,2.79.53,3.3-1.21,4.2-1.87,4.41l-8.38.91Zm10.07,18-8.38.91-.6-7.48,7.13-.63h.07c2.29-.29,3.42,2.2,3.65,2.79C524.81,709.49,523.07,710.39,522.4,710.6Z" transform="translate(-251 -251)" fill="#fff"/><path d="M421.58,671.9l-10.05-5.26-13,24.4,10.72,5.9c4,2.5,7.51,0,8.83-1.7a10.83,10.83,0,0,0,2.07-8.51c1.88-.61,3.83-2.11,5.12-5.23l.09-.29C426,678.9,425.92,674,421.58,671.9ZM416,690.23c-1.33,3.07-3.28,2.88-4,2.7l-7.54-3.76,3.53-6.62,6.34,3.32.07,0C416.55,686.9,416.15,689.6,416,690.23ZM421.28,680c-1.34,3.07-3.29,2.88-4,2.7L409.78,679l3.52-6.62,6.34,3.32.07,0C421.79,676.71,421.4,679.42,421.28,680Z" transform="translate(-251 -251)" fill="#fff"/><polygon points="218.73 464.11 236.08 465.5 236.42 461.26 223.4 460.22 224.17 452.73 235.41 453.96 235.87 449.73 224.6 448.5 225.39 440.85 238.42 442.42 238.93 438.19 221.6 436.12 218.73 464.11" fill="#fff"/><polygon points="293.38 456.58 291.79 449.22 302.86 446.91 302 442.75 290.9 445.06 289.29 437.54 302.17 435 301.35 430.83 284.22 434.21 290.13 461.72 307.06 457.69 306.08 453.55 293.38 456.58" fill="#fff"/><path d="M456.39,683.84l-9.85-2-7.16,26.51,12.87,3,.42-.07a8.8,8.8,0,0,0,6.31-4c1.94-2.76,3.33-9.77,3.62-11.33C463.37,692.81,463.05,686.26,456.39,683.84Zm2.07,11.2,0,.13c-.59,3.2-1.9,8.34-2.95,9.74l-.09.11-.09.17a4.45,4.45,0,0,1-2.93,1.86l-7.74-1.82,5-18.43,5.47,1.09C459.6,689.64,458.59,694.5,458.46,695Z" transform="translate(-251 -251)" fill="#fff"/><path d="M579.08,683.56c-2.84,1-4.34-1.5-4.6-2-1.37-2.74,1.06-4.34,1.82-4.76l.18-.1.16-.12c1.72-1.38,5.36-.63,6.5-.25l1.34-4c-.66-.22-6.51-2-10.34.84-2.77,1.56-5.88,5.5-3.47,10.33,1.14,2.27,4.68,6,9.94,4.08l.07,0c2.88-1.2,6.09-1.51,6.47-.87l.14.2c.44.58,1.64,2.55,1.42,4a2.09,2.09,0,0,1-1,1.45l-.2.15S582,697.35,578,694.7l-2.35,3.54a8.93,8.93,0,0,0,5,1.53c4.74,0,8.9-3.45,9.61-4.07a6.33,6.33,0,0,0,2.62-4.24c.48-3.32-1.69-6.46-2.19-7.13C588.06,680.14,580.66,682.9,579.08,683.56Z" transform="translate(-251 -251)" fill="#fff"/><path d="M459.39,462.57c2.57-1.64,8.7-4.19,21.48-3.56V441.8l-6.07.2Z" transform="translate(-251 -251)" fill="#ebebeb"/><path d="M429.25,596.26l29.15,22.47h74.7l28.54-22.47A27.88,27.88,0,0,1,554.35,578l.31-151.53L538,442.61V596.26H429.25Z" transform="translate(-251 -251)" fill="#ebebeb"/><path d="M468.42,586.24v-37a24.74,24.74,0,0,0-1.74-7.86l-15.57,6.95v48Z" transform="translate(-251 -251)" fill="#ebebeb"/><path d="M484.51,423.78H432.28a31.27,31.27,0,0,0-13.62,3L434.11,408h68.62Z" transform="translate(-251 -251)" fill="#9d0e21"/><path d="M502.43,584.11H504s15.18-1.21,15.18-14v-147h54s11.54.61,15.18,6.08l-4.85-36.44L572.57,408H502.73Z" transform="translate(-251 -251)" fill="#9d0e21"/><path d="M502.43,620.86H484.82c0,4.85-4.25,9.71-4.25,9.71h22.16Z" transform="translate(-251 -251)" fill="#b30b2a"/></svg>