<svg id="Layer_1" data-name="Layer 1" xmlns="http://www.w3.org/2000/svg" viewBox="0 0 500 168.23"><defs><style>.cls-1{fill:#10141c;}.cls-2{fill:#fd3419;}</style></defs><rect class="cls-1" width="500" height="168.23"/><path class="cls-2" d="M271.32,481.81c11.56-7.54,20.65-9.12,26.24-9.12,9.48,0,16.11,4.49,17.3,11.73a.25.25,0,0,0,.25.22h15.53a.26.26,0,0,0,.26-.22c1.19-7.24,7.81-11.73,17.29-11.73,5.6,0,14.69,1.58,26.24,9.12a.26.26,0,0,0,.32,0,.26.26,0,0,0,.05-.32c-8-14.12-31.67-19.15-51.12-19.15h-1.61c-19.44,0-43.09,5-51.12,19.15a.26.26,0,0,0,.05.32A.26.26,0,0,0,271.32,481.81Z" transform="translate(-250 -415.89)"/><path class="cls-2" d="M374.43,495.92c-11.55,7.55-20.64,9.13-26.24,9.13-9.48,0-16.1-4.49-17.29-11.73a.26.26,0,0,0-.26-.22H315.11a.25.25,0,0,0-.25.22c-1.19,7.23-7.82,11.73-17.3,11.73h0c-5.6,0-14.69-1.58-26.24-9.13a.27.27,0,0,0-.32,0,.26.26,0,0,0-.05.32c8,14.12,31.68,19.15,51.12,19.15h1.61c19.45,0,43.09-5,51.12-19.15a.26.26,0,0,0-.05-.32A.27.27,0,0,0,374.43,495.92Z" transform="translate(-250 -415.89)"/><polygon class="cls-2" points="185.42 46.27 168.24 46.27 154.09 46.27 136.86 46.27 136.86 57.96 154.09 57.96 154.09 99.53 168.24 99.53 168.24 57.96 185.42 57.96 185.42 46.27"/><path class="cls-2" d="M481.76,496.4A17.84,17.84,0,0,0,492.27,480a18.22,18.22,0,0,0-1.73-7.79,17.1,17.1,0,0,0-15.43-10H442v53.26h14.15V473.85h15.41a6.22,6.22,0,0,1,0,12.4H458l2.74,3.38a18,18,0,0,0,2.83,3.48l18.12,22.31h15.57Z" transform="translate(-250 -415.89)"/><path class="cls-2" d="M702.51,496.4A17.85,17.85,0,0,0,713,480a18.36,18.36,0,0,0-1.72-7.79,17.11,17.11,0,0,0-15.44-10H662.72v53.26h14.15V473.85h15.41a6.22,6.22,0,0,1,0,12.4H678.69l2.75,3.38a17.55,17.55,0,0,0,2.82,3.48l18.12,22.31H718Z" transform="translate(-250 -415.89)"/><polygon class="cls-2" points="405.48 57.96 405.48 46.27 375.18 46.27 361.03 46.27 361.03 57.96 361.03 67.32 361.03 78.75 361.03 87.88 361.03 99.53 361.03 99.57 405.48 99.57 405.48 87.88 375.18 87.88 375.18 78.75 398.84 78.75 398.84 67.32 375.18 67.32 375.18 57.96 405.48 57.96"/><path class="cls-2" d="M604.13,472.18a17.11,17.11,0,0,0-15.43-10H555.56v53.26h14.15V497.79h19a16.67,16.67,0,0,0,6.36-1.27A17.82,17.82,0,0,0,605.86,480,18.37,18.37,0,0,0,604.13,472.18Zm-34.42,14.07v-12.4h15.41a6.22,6.22,0,0,1,0,12.4H569.71Z" transform="translate(-250 -415.89)"/><path class="cls-2" d="M533.82,462.16v35.63c0,4.21-4.81,7.62-10.75,7.62s-10.74-3.41-10.74-7.62V462.16H498.62v38c0,6,5.59,11.25,13.71,13.74a38,38,0,0,0,21.49,0c8.12-2.49,13.71-7.7,13.71-13.74v-38Z" transform="translate(-250 -415.89)"/><path class="cls-2" d="M721.45,462.94a6.72,6.72,0,1,1-6.9,6.7A6.66,6.66,0,0,1,721.45,462.94Zm0,12a5.29,5.29,0,1,0-5.06-5.3A5.11,5.11,0,0,0,721.45,474.94Zm-2.67-9.07h2.84c1.88,0,2.94.59,2.94,2.22a1.88,1.88,0,0,1-2,2l2,3.29H723l-1.84-3.22h-.93v3.22h-1.49Zm1.49,3.14h1.33c.84,0,1.47-.12,1.47-1s-.86-.94-1.54-.94h-1.26Z" transform="translate(-250 -415.89)"/><path class="cls-2" d="M272.59,542h16.3v3.6h-9.54a16,16,0,0,1-2.84-.12v1.79c0,.53,0,1,0,1.25a3.29,3.29,0,0,1,1.35-.93,18.4,18.4,0,0,1,4.36-.33c3.09,0,5.08.32,5.95,1a3.15,3.15,0,0,1,1.15,1.75,10.62,10.62,0,0,1,.29,2.76,11.25,11.25,0,0,1-.52,3.88,3,3,0,0,1-1.82,1.75,9.37,9.37,0,0,1-2.9.54c-.53,0-1.25,0-2.14,0-2.21,0-3.88,0-5-.08-2.23-.1-3.68-.52-4.33-1.26a5.11,5.11,0,0,1-.83-3.31c0-.16,0-.41,0-.74h4.25a2.16,2.16,0,0,0,.27,1.23,2.08,2.08,0,0,0,1.14.36,26.65,26.65,0,0,0,2.82.11c1.74,0,2.78,0,3.12,0a2.37,2.37,0,0,0,1.17-.29,1.28,1.28,0,0,0,.41-1c0-.34,0-.69,0-1.06a2.35,2.35,0,0,0-.31-1.49c-.26-.29-1-.45-2.22-.49l-3-.08a7.37,7.37,0,0,0-2.81.3.82.82,0,0,0-.41.77,2.11,2.11,0,0,0,0,.23h-3.92Z" transform="translate(-250 -415.89)"/><path class="cls-2" d="M301.61,541.81a33.73,33.73,0,0,1,5.44.3,3.16,3.16,0,0,1,2.52,1.95,8.1,8.1,0,0,1,.5,2.92c0,.37,0,1.51,0,3.41,0,2.28,0,3.68-.06,4.21a5.29,5.29,0,0,1-.9,2.84,3.34,3.34,0,0,1-2.08,1.21,50,50,0,0,1-10.94,0,3.21,3.21,0,0,1-2.53-1.94,8.28,8.28,0,0,1-.49-2.93c0-.37,0-1.49,0-3.33,0-2.33,0-3.76.06-4.3a5.17,5.17,0,0,1,.89-2.83,3.31,3.31,0,0,1,2.09-1.21A34.27,34.27,0,0,1,301.61,541.81Zm-.28,3.51c-1.88,0-3,.2-3.44.58a2.85,2.85,0,0,0-.58,1.68,28.47,28.47,0,0,0-.11,3.08,20.91,20.91,0,0,0,.22,3.78,1.59,1.59,0,0,0,.8,1.21,3.51,3.51,0,0,0,1.51.3l1.58.06c1.69,0,2.66-.1,2.92-.14a2,2,0,0,0,1-.44,1.91,1.91,0,0,0,.48-1,22,22,0,0,0,.22-3.8,21.66,21.66,0,0,0-.22-3.75,1.65,1.65,0,0,0-.81-1.21A10.29,10.29,0,0,0,301.33,545.32Z" transform="translate(-250 -415.89)"/><path class="cls-2" d="M337.47,558.74l-1.23-2.89h-9.48l-1.23,2.89h-5l7.6-17.07h6.78l7.49,17.07Zm-2.76-6.63L332,545.65h-.88l-2.76,6.46Z" transform="translate(-250 -415.89)"/><path class="cls-2" d="M344.12,541.67h7.77l7.63,12.73H360l-.1-12.73h4.51v17.07h-7.71L349,546h-.47l.09,12.74h-4.51Z" transform="translate(-250 -415.89)"/><path class="cls-2" d="M377.51,541.42a45.24,45.24,0,0,1,6.23.28,3.45,3.45,0,0,1,3.07,2.84,42.49,42.49,0,0,1,0,11.34,3.46,3.46,0,0,1-3.07,2.84,75,75,0,0,1-12.72,0,3.46,3.46,0,0,1-3.06-2.84,41.41,41.41,0,0,1,0-11.34A3.45,3.45,0,0,1,371,541.7,48.43,48.43,0,0,1,377.51,541.42Zm-.29,3a16.15,16.15,0,0,0-4,.27,1.94,1.94,0,0,0-1.09,1.55,27.46,27.46,0,0,0-.23,4.36,22.41,22.41,0,0,0,.14,3c.17,1.13.7,1.77,1.58,1.93a35.16,35.16,0,0,0,7.49,0c.88-.16,1.4-.8,1.57-1.93a21.6,21.6,0,0,0,.14-2.87c0-1.59,0-2.72-.08-3.39a3.89,3.89,0,0,0-.67-2.23,3.08,3.08,0,0,0-2-.63C379.75,544.41,378.78,544.4,377.22,544.4Z" transform="translate(-250 -415.89)"/><path class="cls-2" d="M689.94,541.42a45.24,45.24,0,0,1,6.23.28,3.45,3.45,0,0,1,3.07,2.84,41.41,41.41,0,0,1,0,11.34,3.46,3.46,0,0,1-3.07,2.84,74.92,74.92,0,0,1-12.71,0,3.46,3.46,0,0,1-3.07-2.84,41.41,41.41,0,0,1,0-11.34,3.45,3.45,0,0,1,3.07-2.84A48.15,48.15,0,0,1,689.94,541.42Zm-.29,3a16.15,16.15,0,0,0-4,.27,1.93,1.93,0,0,0-1.08,1.55,25.94,25.94,0,0,0-.24,4.36,22.41,22.41,0,0,0,.14,3c.17,1.13.7,1.77,1.58,1.93a35.16,35.16,0,0,0,7.49,0c.88-.16,1.4-.8,1.57-1.93a20,20,0,0,0,.14-2.87c0-1.59,0-2.72-.08-3.39a3.89,3.89,0,0,0-.67-2.23,3.08,3.08,0,0,0-2-.63C692.18,544.41,691.22,544.4,689.65,544.4Z" transform="translate(-250 -415.89)"/><path class="cls-2" d="M388.49,553.09H393a2,2,0,0,0,.46,1.63,1.47,1.47,0,0,0,.56.23,6.93,6.93,0,0,0,1.1.09l2.56,0c2,0,3.13,0,3.45,0a2.89,2.89,0,0,0,1.16-.26,1.48,1.48,0,0,0,.39-1.23,1.34,1.34,0,0,0-.24-.91,2.45,2.45,0,0,0-1.6-.39c-.59,0-1.8,0-3.65-.15l-3.72-.18a7.53,7.53,0,0,1-3.12-.57,3.13,3.13,0,0,1-1.52-2.18,9.6,9.6,0,0,1-.2-2.22c0-1.94.32-3.3,1-4.09a3.66,3.66,0,0,1,2.24-1.19,47.69,47.69,0,0,1,6.44-.25,35.38,35.38,0,0,1,4.68.21,5.15,5.15,0,0,1,2.6,1,4.72,4.72,0,0,1,1.07,3.54c0,.19,0,.48,0,.88h-4.51a4.36,4.36,0,0,0-.08-.85,1,1,0,0,0-1-.79c-.51,0-1.76-.08-3.76-.08a17.65,17.65,0,0,0-3.5.19c-.41.15-.61.54-.61,1.16s.21,1,.65,1.1a39.37,39.37,0,0,0,4.93.32,47.4,47.4,0,0,1,5.07.31,5.44,5.44,0,0,1,1.76.56A2.77,2.77,0,0,1,406.6,550a6.79,6.79,0,0,1,.59,3.26,8.72,8.72,0,0,1-.58,3.69,3.09,3.09,0,0,1-1.9,1.59q-1.31.42-7.15.42a43.78,43.78,0,0,1-5.14-.21,5.36,5.36,0,0,1-2.76-1,3.25,3.25,0,0,1-1.08-2.19,12.76,12.76,0,0,1-.09-1.63Z" transform="translate(-250 -415.89)"/><path class="cls-2" d="M701.19,553.09h4.51c0,.84.14,1.38.46,1.63a1.47,1.47,0,0,0,.56.23,6.89,6.89,0,0,0,1.09.09l2.57,0c2,0,3.13,0,3.44,0a3,3,0,0,0,1.17-.26,1.48,1.48,0,0,0,.39-1.23,1.29,1.29,0,0,0-.25-.91,2.43,2.43,0,0,0-1.6-.39c-.58,0-1.8,0-3.65-.15l-3.71-.18a7.53,7.53,0,0,1-3.12-.57,3.15,3.15,0,0,1-1.53-2.18,10.19,10.19,0,0,1-.2-2.22,6.46,6.46,0,0,1,1-4.09,3.66,3.66,0,0,1,2.23-1.19,48,48,0,0,1,6.45-.25,35.38,35.38,0,0,1,4.68.21,5.19,5.19,0,0,1,2.6,1,4.72,4.72,0,0,1,1.07,3.54c0,.19,0,.48,0,.88h-4.51a5.35,5.35,0,0,0-.08-.85,1,1,0,0,0-1-.79c-.51,0-1.77-.08-3.76-.08a17.5,17.5,0,0,0-3.5.19c-.41.15-.62.54-.62,1.16s.22,1,.65,1.1a39.63,39.63,0,0,0,4.94.32,47.62,47.62,0,0,1,5.07.31,5.52,5.52,0,0,1,1.76.56,2.92,2.92,0,0,1,1,1.07,6.79,6.79,0,0,1,.59,3.26,8.88,8.88,0,0,1-.58,3.69,3.11,3.11,0,0,1-1.91,1.59c-.86.28-3.25.42-7.15.42a43.69,43.69,0,0,1-5.13-.21,5.36,5.36,0,0,1-2.77-1,3.28,3.28,0,0,1-1.07-2.19,12.76,12.76,0,0,1-.09-1.63Z" transform="translate(-250 -415.89)"/><path class="cls-2" d="M418.26,541.67H433.1v4H422.28v2.46h10.27v3.75H422.28v2.74h10.9v4.1H418.26Z" transform="translate(-250 -415.89)"/><path class="cls-2" d="M437,541.67h7.71l7.57,12.73h.45l-.1-12.73h4.47v17.07h-7.65L441.84,546h-.48l.09,12.74H437Z" transform="translate(-250 -415.89)"/><path class="cls-2" d="M469.79,558.74V541.67h10.29q3.29,0,3.9.06a4,4,0,0,1,2.07.6,2.76,2.76,0,0,1,1,1.59,10.34,10.34,0,0,1,.21,2.18,7.59,7.59,0,0,1-.25,2.26,2.52,2.52,0,0,1-1.68,1.69,3.32,3.32,0,0,1,1.41.58c.7.55,1,1.73,1,3.52a6.58,6.58,0,0,1-.55,3.09,2.46,2.46,0,0,1-1.46,1.2,10.55,10.55,0,0,1-2.81.28l-2.85,0Zm4.16-9.82h6.14a5.86,5.86,0,0,0,2.41-.27c.35-.22.52-.8.52-1.73s-.21-1.53-.62-1.72a11.77,11.77,0,0,0-2.31-.13H474Zm0,6.7h6.16l2,0c.63,0,1-.24,1.21-.6a3.3,3.3,0,0,0,.2-1.35c0-1-.21-1.53-.65-1.7a20.08,20.08,0,0,0-2.79-.12H474Z" transform="translate(-250 -415.89)"/><path class="cls-2" d="M491.46,541.67h4.26V551a30,30,0,0,0,.15,3.41,1.6,1.6,0,0,0,1.39,1.43,20.19,20.19,0,0,0,3.29.2,21.17,21.17,0,0,0,3.2-.16,1.83,1.83,0,0,0,1.49-1.88q.12-1.31.12-3v-9.3h4.26v7.84c0,2.74-.12,4.53-.21,5.37a4.26,4.26,0,0,1-1.68,3.14,7.26,7.26,0,0,1-3.54.9c-.77.05-2,.07-3.59.07a35.34,35.34,0,0,1-5.11-.25,6.55,6.55,0,0,1-1.82-.52,3.25,3.25,0,0,1-1.15-.94,4.41,4.41,0,0,1-.83-2.1,26.18,26.18,0,0,1-.21-3.48l0-2.19Z" transform="translate(-250 -415.89)"/><path class="cls-2" d="M513,541.67h14v4H516.76v2.46h9.71v3.75h-9.71v2.74h10.31v4.1H513Z" transform="translate(-250 -415.89)"/><path class="cls-2" d="M531.52,541.67h7.83L547,554.4h.46l-.11-12.73h4.55v17.07h-7.77L536.45,546H536l.1,12.74h-4.55Z" transform="translate(-250 -415.89)"/><path class="cls-2" d="M570.45,558.74l-1.22-2.89h-9.47l-1.23,2.89h-5l7.59-17.07h6.78l7.48,17.07Zm-2.75-6.63-2.76-6.46h-.87l-2.76,6.46Z" transform="translate(-250 -415.89)"/><path class="cls-2" d="M575.7,553.09H580c0,.84.14,1.38.45,1.63a1.34,1.34,0,0,0,.53.23,6.66,6.66,0,0,0,1.06.09l2.47,0c1.91,0,3,0,3.32,0a2.69,2.69,0,0,0,1.12-.26,1.51,1.51,0,0,0,.38-1.23,1.34,1.34,0,0,0-.24-.91,2.28,2.28,0,0,0-1.54-.39c-.56,0-1.73,0-3.52-.15l-3.57-.18a7,7,0,0,1-3-.57,3.14,3.14,0,0,1-1.47-2.18,10.28,10.28,0,0,1-.19-2.22,6.69,6.69,0,0,1,.95-4.09,3.47,3.47,0,0,1,2.15-1.19,44.37,44.37,0,0,1,6.21-.25,32.9,32.9,0,0,1,4.51.21,4.86,4.86,0,0,1,2.5,1c.69.66,1,1.84,1,3.54,0,.19,0,.48,0,.88h-4.34a5.35,5.35,0,0,0-.08-.85,1,1,0,0,0-1-.79c-.5,0-1.7-.08-3.62-.08a16.24,16.24,0,0,0-3.37.19c-.4.15-.6.54-.6,1.16s.21,1,.63,1.1a36.5,36.5,0,0,0,4.75.32,43.9,43.9,0,0,1,4.88.31,5.2,5.2,0,0,1,1.7.56,2.74,2.74,0,0,1,1,1.07,7,7,0,0,1,.57,3.26,9.11,9.11,0,0,1-.56,3.69,3,3,0,0,1-1.83,1.59c-.84.28-3.13.42-6.89.42a40.85,40.85,0,0,1-4.95-.21,5.06,5.06,0,0,1-2.66-1,3.29,3.29,0,0,1-1-2.19,12.76,12.76,0,0,1-.09-1.63Z" transform="translate(-250 -415.89)"/><path class="cls-2" d="M605.87,541.67h8.39l4.52,11.08,4.52-11.08h8.36v17.07h-4.57L627.2,546h-.76l-5.73,12.78h-3.84L611.13,546h-.81l.11,12.78h-4.56Z" transform="translate(-250 -415.89)"/><path class="cls-2" d="M650.28,558.74l-1.3-2.89H638.93l-1.31,2.89h-5.29l8.07-17.07h7.19l7.95,17.07Zm-2.92-6.63-2.93-6.46h-.93l-2.93,6.46Z" transform="translate(-250 -415.89)"/><path class="cls-2" d="M656.23,541.67h8.12l8,12.73h.48l-.11-12.73h4.71v17.07h-8l-8-12.74h-.5l.1,12.74h-4.71Z" transform="translate(-250 -415.89)"/><path class="cls-2" d="M348.66,537.56v2.49a13.77,13.77,0,0,1,3.19-.64c1.2,0,3.42,1.69,4.7,1.69a8.71,8.71,0,0,0,3.19-1.05v-2.49a9.54,9.54,0,0,1-3.19,1.05c-1.19,0-3.45-1.7-4.7-1.7A13,13,0,0,0,348.66,537.56Z" transform="translate(-250 -415.89)"/></svg>