<svg id="Layer_1" data-name="Layer 1" xmlns="http://www.w3.org/2000/svg" viewBox="0 0 638 154.59"><defs><style>.cls-1{fill:#cf102d;fill-rule:evenodd;}</style></defs><title>Wilson Logo Vector</title><path class="cls-1" d="M196.81,453.21l.22,81.95h0c0,7.64,3.4,15,6.66,20.65a37.23,37.23,0,0,0,12.4,12.75,52.57,52.57,0,0,0,18.15,7.77,42.47,42.47,0,0,0,22.55-1.23A50.81,50.81,0,0,0,278,560.43a48.6,48.6,0,0,0,26.37,14.9A44.55,44.55,0,0,0,332.12,571c8.16-4.13,14.63-10.43,19.65-19.39S360.36,531,362,519.19s1.22-23.77.31-35.16-2.34-22.18-3.74-31-2.76-15.58-4.44-22.3h0l-46.85-.11v22.57h16.62a137.07,137.07,0,0,1,6,29.2,153.84,153.84,0,0,1,.11,30.4c-1,8.84-3,15.33-5.7,20.28s-6,8.35-9.45,10a11.65,11.65,0,0,1-9.58.45,11.2,11.2,0,0,1-5.8-6,23.13,23.13,0,0,1-1.65-9.34h0V430.61H244.49l-.19,22.6h16.62l.13,76.81h0c0,2.66.12,5.42-1.4,7.91a14.05,14.05,0,0,1-6.93,5.66,16.31,16.31,0,0,1-8.47.36,11.83,11.83,0,0,1-7.07-3.47c-2-2.16-4.22-5.6-4.22-9.2h0V430.15H181l.37,23.06Zm184.32,12.16c2.58,3.83,7.74,6.46,12.78,7.6a26.93,26.93,0,0,0,14.22-.58,23.42,23.42,0,0,0,10.38-6.65c2.49-2.84,3.85-6.1,3.43-9.47s-2.62-6.82-5.47-9.56a20.6,20.6,0,0,0-11.13-5.63,29.93,29.93,0,0,0-15.56,1.41,17,17,0,0,0-9.6,9.72c-1.64,4.28-1.64,9.32.95,13.16ZM541.41,544a9.08,9.08,0,0,1-8.91,2.83,16.65,16.65,0,0,1-9.18-5.75h0l11.1-23.56h0c4.84,3.76,8.6,9.35,9.72,14.37A13.72,13.72,0,0,1,541.41,544ZM446.7,441.09a33.66,33.66,0,0,0-4.12,15.68h0v70.08h0c-6,8-12.07,16-16.23,17.62s-8.71-2.76-8.71-8.12h0v-57H374.9v17.81H382v40.39h0c0,7.34,0,14.84,1.41,20.39s3.69,9.13,8.17,12a29.37,29.37,0,0,0,17.95,4.37c6.75-.66,13.52-4.14,19.1-8a53.8,53.8,0,0,0,13.47-12.89,33.87,33.87,0,0,0,9.82,12.1c4.61,3.73,10.69,7.27,17.82,8.2s15.29-.74,22.46-4a48.14,48.14,0,0,0,18-14.33c9,8.51,20.27,15,29.84,17.62s17.39,1.27,24.42-4a41.23,41.23,0,0,0,15.07-23.85c1.81-9.4-.83-19-5.16-27S564.06,504,559.86,497.75A51.68,51.68,0,0,1,552,479.1H524.61a152.91,152.91,0,0,1-12,39.68c-5.19,10.93-11.11,18.54-18.24,22.63s-15.47,4.65-18.26,1.37,0-10.43,4.08-17.57,9.56-14.29,14.84-23a137,137,0,0,0,13.57-29.37c3.19-10.33,4.45-20.65,2.42-28.49s-7.36-13.2-13.11-16.7a32.8,32.8,0,0,0-18.83-4.9,46.12,46.12,0,0,0-20.27,5.72,31,31,0,0,0-12.12,12.64Zm33.07,49c-1.38,1.84-2.82,3.61-3.63,2.31s-.32-5.6-.32-8.27h0V456.77h0c0-2.46-.21-5.11,1.39-7.09a9.29,9.29,0,0,1,7.06-3.2,7.88,7.88,0,0,1,6.91,3.57c1.48,2.4,1.72,6.05,1.1,10.06a63.87,63.87,0,0,1-3.65,12.52,112.6,112.6,0,0,1-4.69,10.79,44.88,44.88,0,0,1-4.17,6.63Zm236.76-10.53a33.94,33.94,0,0,0-19.45-.37c-5.44,1.61-8.77,4.62-12.41,7.85s-7.6,6.67-11.43,10.25a36.1,36.1,0,0,0-15.35-14.64,52.92,52.92,0,0,0-23.61-5.55,47.51,47.51,0,0,0-22.95,6.18c-7.39,4-14.69,10-19.41,18.81a53.32,53.32,0,0,0-5.38,31.07,50.88,50.88,0,0,0,12,25.75A43.66,43.66,0,0,0,615.78,571a51.33,51.33,0,0,0,19.44,4.13,43.83,43.83,0,0,0,21.31-5.34,50.19,50.19,0,0,0,17.37-16.7,66.76,66.76,0,0,0,8.58-21.42,45.1,45.1,0,0,0,.73-17.51c3.44-2,6.88-3.91,8.92-2.58s3.34,5.89,3.34,10.55h0v51.07h33.25V522.1h0c0-3.7.27-7.65,2.5-10.54a12.06,12.06,0,0,1,9.38-4.69,11.79,11.79,0,0,1,9.34,4.7c2.17,2.92,2.1,6.87,2.1,10.56h0V551.5h0c0,5.53.06,11.07,2.9,14.68a18.89,18.89,0,0,0,14.15,7h29.68l0-15.23h0c-4.06.37-8.12.74-9.85-2s-.52-8.66-.52-14.61h0v-34.9h0c0-8.05-3.53-16.1-7.81-21.49a22.73,22.73,0,0,0-16-8.71,35.55,35.55,0,0,0-18.65,3.73,38.91,38.91,0,0,0-14.47,12.16,27.18,27.18,0,0,0-14.86-12.56Zm-93.06,64.4c-1.81-4.74-1-11.43-1-17.93s-.79-12.84,1.15-17.95,6.62-9,11.3-9,9.34,3.88,11.32,9,1.27,11.36,1.3,17.79.81,13-1.3,17.78a13.45,13.45,0,0,1-11.81,7.79,11.48,11.48,0,0,1-11-7.46Zm190.6,28.25h2.1v-.41h0a1,1,0,0,1-.91-.5h0l-1.6-2.65h0c.71-.2,1.59-1.2,1.46-1.88a2,2,0,0,0-1.35-1.81,5.45,5.45,0,0,0-1.71-.24h-3.88V565h0c.31,0,1.13.09,1,.51,0,1.88.06,3.77,0,5.79-.27.57-.52.37-1,.42h0v.41H812v-.41h0c-.31,0-1.1-.06-1-.54,0-.84,0-1.74,0-2.61h1l2.06,3.56ZM811,568.24v-3.06h0a9.91,9.91,0,0,1,1,0,1.31,1.31,0,0,1,1.19.71,1.7,1.7,0,0,1-.38,2.07,3.55,3.55,0,0,1-1.84.24Zm.91,7.31a7.11,7.11,0,0,0,5.79-11.27,7.17,7.17,0,0,0-3.63-2.64,7.11,7.11,0,0,0-8,10.93,7.21,7.21,0,0,0,3.64,2.64,7,7,0,0,0,2.17.34Zm0-.78a6.35,6.35,0,0,1,0-12.7,6.39,6.39,0,0,1,6.35,6.35,6.37,6.37,0,0,1-6.34,6.35Z" transform="translate(-181 -422.7)"/></svg>